<?xml version="1.0" encoding="utf-8"?>
<!-- Generator: Adobe Illustrator 25.4.1, SVG Export Plug-In . SVG Version: 6.00 Build 0)  -->
<svg version="1.1" id="Layer_1" xmlns="http://www.w3.org/2000/svg" xmlns:xlink="http://www.w3.org/1999/xlink" x="0px" y="0px"
	 viewBox="0 0 1000 1000" style="enable-background:new 0 0 1000 1000;" xml:space="preserve">
<style type="text/css">
	.st0{fill:#FFCCCC;}
	.st1{fill:none;}
	.st2{fill:#093359;}
	.st3{fill:#181C1C;}
	.st4{fill:#006E77;}
	.st5{fill:#73C7C9;}
	.st6{fill:#7A8786;}
	.st7{fill:#5B8E8E;}
	.st8{fill:#6AA8A6;}
	.st9{fill:#F71651;}
	.st10{fill:#E50041;}
	.st11{fill:#ED977A;}
	.st12{fill:#007AA5;}
	.st13{fill:#9B133A;}
	.st14{fill:#BF1440;}
	.st15{fill:#014466;}
	.st16{fill:#006077;}
	.st17{fill:#87001F;}
	.st18{fill:#FFDADA;}
	.st19{fill:#0E5A89;}
	.st20{fill:#FFFFFF;}
	.st21{fill:#FFBC9F;}
	.st22{fill:#00A2EA;}
	.st23{fill:#F4A68C;}
	.st24{fill:#004185;}
	.st25{fill:#C1654D;}
</style>
<rect class="st0" width="998.5" height="998.5"/>
<g>
	<path class="st1" d="M264.1,587.6c0.1,0.7,0.2,1.2,0.2,1.9v0.1c0.6-0.7,1.2-1.3,1.8-2H264.1z"/>
	<path class="st1" d="M510.6,234.5L510.6,234.5C510.5,234.6,510.5,234.6,510.6,234.5L510.6,234.5z"/>
	<path class="st1" d="M490.3,545.3c27.2,4.6,119.1,22.1,125.3,50.1c6.3,28.4-1.9,162.2-4.3,198.4c3.4,1.6,5.8,4.9,5.9,8.9
		c0.2,5.6-4.1,10.2-9.7,10.5l0.1,4.3c16.8,10,12.3,6.2,33.1-1.3c10.2-3.7,17.1-0.9,21.8,4.4c21.9-15.6,41.6-38.9,54-73.7
		c-12.9-2.7-22.6-14-22.6-27.7V607.3c0-15.7,12.7-28.3,28.3-28.3c0.1,0,0.2,0,0.3,0c-3.2-19.5-7.8-40.6-13.5-63
		c-0.5,0-0.9,0-1.2-0.1c-4.2-0.6-4.7-4.6-4.7-7.1c-2.3-0.1-4.5-0.7-6.4-1.8c-2,3.6-5.7,7.4-10.4-0.3c-7.3-11.8-12-8.9-25.7-7.8
		c-86.7,6.8-129.4-6.1-150.2-18.8c-5.3,3.9-11.5,6.1-17.8,6.7C492.4,509.1,491.6,530,490.3,545.3z"/>
	<polygon class="st1" points="481,547 481,546.9 480.9,547 	"/>
	<path class="st1" d="M577.5,849.8L577.5,849.8h0.5c0.1,0,0.3,0,0.4,0l-0.1-3.8c-5.6,0.1-10.2-4.4-10.4-10
		c-0.2-5.1,3.5-9.5,8.3-10.4C557.3,680.5,560,614.2,560,614.2c-14.3,2.4-27.3,4.5-39.3,6.3c4,8.7,5.7,19.2,4.2,31.7l10.1,197
		C535.1,849,552.8,851.9,577.5,849.8z"/>
	<path class="st2" d="M492.7,487c6.4-0.7,12.5-2.9,17.8-6.7c-5.5-3.3-9.5-6.6-12.3-9.7c-1.7,1.4-3.5,2.6-5.3,3.6
		C492.8,478.4,492.8,482.7,492.7,487z"/>
	<path class="st2" d="M510.5,277.1c4.5,7.7,6.4,16.3,5.1,25.2c-1.9,13-10.3,23.6-22.1,30.1c0.2,2.5-2.5,5.5-6.5,7.1
		c-4.6,1.8-9.1,1.2-10.1-1.4c0,0,0,0,0-0.1c-1.1,0.2-2.4,0.4-3.6,0.5c-1.1,0.1-2.3,0.2-3.4,0.3l-0.6,4.6c3.2,2,6.3,4.6,8.9,8v3.1
		c3.2,2.3,6.4,6.9,8.8,15.7c14.1,19.4,36,32.9,47.3,39c2-45.1-6.2-99.9-13.1-136.9C519.5,275,514.9,276.9,510.5,277.1z"/>
	<path class="st3" d="M290.7,928.1c-17.4,0-32.6-8.3-42.3-21.2c-29.2-4.2-56.2-8.6-79.7-12.8c9.1,59.2,60.2,104.5,122,104.5
		c51.4,0,95.5-31.5,114.1-76.3c-27.2-1.3-54.3-3.5-80.6-6.2C315,923.7,303.4,928.1,290.7,928.1z M205.2,928.8
		c-0.3-0.5-0.4-0.7-0.4-0.7C205,928.3,205.1,928.6,205.2,928.8c4.8,8.9,58.3,100.5,156.1,19.6C361.3,948.4,271.5,1056.1,205.2,928.8
		z"/>
	<path class="st4" d="M290.7,928.1c12.7,0,24.4-4.5,33.5-12c-26.3-2.7-51.8-5.9-75.8-9.3C258,919.8,273.4,928.1,290.7,928.1z"/>
	<path class="st3" d="M909.3,857.5c-10.8-32.7-42.1-56.4-79-56.4c-40.8,0-74.7,28.9-81.8,67.1c-6,1-12.5,1.4-19.3,1.1
		c-6.7,7.8-14,14.3-21.9,19.9c6.2,62.4,58.8,111.2,122.8,111.2c68.2,0,123.4-55.2,123.4-123.4c0-6.6-0.6-13.1-1.5-19.3
		C938.5,860.5,922.6,859.9,909.3,857.5z M777.2,876.9c0-29.2,23.7-52.9,52.9-52.9s52.9,23.7,52.9,52.9c0,29.2-23.7,52.9-52.9,52.9
		S777.2,906.1,777.2,876.9z M809.8,975c0,0,109.4,25.6,132.1-105.6C941.9,869.3,941.9,1010,809.8,975z"/>
	<ellipse class="st4" cx="830.2" cy="876.9" rx="52.9" ry="52.9"/>
	<path class="st4" d="M729.2,869.2c6.7,0.3,13.3-0.1,19.3-1.1c7-38.1,41-67.1,81.8-67.1c36.9,0,68.2,23.7,79,56.4
		c13.4,2.4,29.2,2.9,42.8,0c9.1-2,17.3-5.6,23-11.4c-16.5-63.5-75.1-110.3-144.7-110.3c-19.7,0-38.5,3.8-55.7,10.6
		c0,0.4-0.1,0.7-0.1,0.9C766.5,805.9,751,844.1,729.2,869.2z M953.6,813.4c0,0-68.7-69.7-155.4-61.5
		C798.2,751.8,881.1,723.1,953.6,813.4z"/>
	<path class="st5" d="M953.6,813.4c-72.5-90.3-155.4-61.5-155.4-61.5C884.9,743.6,953.6,813.4,953.6,813.4z"/>
	<path class="st6" d="M205.2,928.8c-0.1-0.2-0.3-0.5-0.4-0.7C204.8,928.1,205,928.4,205.2,928.8z"/>
	<path class="st6" d="M205.2,928.8c66.3,127.3,156.1,19.6,156.1,19.6C263.6,1029.3,210.1,937.7,205.2,928.8z"/>
	<path class="st6" d="M809.8,975c132.1,35.1,132.1-105.6,132.1-105.6C919.1,1000.6,809.8,975,809.8,975z"/>
	<polygon class="st7" points="524.9,652 495.2,668.8 512,881.8 535.1,849 	"/>
	<path class="st8" d="M722.6,579.1c3.6,0,7,0.8,10.1,2c-6.1-30.2-12.8-54.1-16.5-66.7c-2.8,1-5.3,1.6-7.1,1.6
		C714.9,538.6,719.4,559.5,722.6,579.1z"/>
	<path class="st8" d="M578,849.8h0.4l0,0C578.2,849.7,578.1,849.8,578,849.8z"/>
	<path class="st8" d="M616,854.3l-9.2,0.3C610.4,856,612.5,855.7,616,854.3z"/>
	<path class="st8" d="M575.9,883.2c0-0.8,0.3-1.5,0.6-2.1c-2.8-18.1,0.9-30.9,1-31.2c-24.8,2.1-42.4-0.8-42.4-0.8l-23,32.7
		c51.8,11.7,92.7,11.8,124.8,3.5l-56.8,1.8C577.9,887.1,576,885.4,575.9,883.2z"/>
	<path class="st8" d="M722.3,747.4c-2,0-3.9-0.2-5.7-0.6c-12.3,34.8-32,58.1-54,73.7c6.2,6.9,8.4,18.1,9.2,24.6c1.1,0.7,2,1.9,2,3.3
		c0.1,2.3-1.7,4.1-4,4.2l-17.2,0.6c5.6,6.8,7.8,17.3,8.6,23.5c54.4-25,76.6-79.6,82.6-139.4C738.9,743.4,731,747.4,722.3,747.4z"/>
	<path class="st4" d="M722.3,579.1c-15.7,0-28.3,12.6-28.3,28.3v111.8c0,13.7,9.7,25,22.6,27.7c1.8,0.4,3.7,0.6,5.7,0.6
		c8.7,0,16.6-4,21.7-10.2c5.3-53.7-2.3-111.5-11.3-156.1c-3.1-1.2-6.6-2-10.1-2C722.5,579.1,722.4,579.1,722.3,579.1z"/>
	<path class="st5" d="M729.2,869.2c21.7-25.2,37.3-63.5,45.1-121.8c0-0.4,0.1-0.7,0.1-0.9c15.7-118-5-194.3-17.8-227.5
		c-11.4,1-26.3,0.7-37.8-5.7c-0.9,0.5-1.7,0.9-2.7,1.1c3.8,12.5,10.4,36.5,16.5,66.7c9,44.6,16.6,102.4,11.3,156.1
		c-6,59.8-28.2,114.5-82.6,139.4c0,0.2,0,0.3,0.1,0.5c1.1,0.7,2,1.9,2,3.3c0.1,2.3-1.7,4.1-4,4.2l-22.7,0.7
		c-32.2,8.3-73,8.2-124.8-3.5l-17-213c0,0-220.7,23.9-244.4-17c-0.8,0.1-1.5,0.2-2.4,0.2c-2.6,0-5-0.7-7.1-1.8
		c-61.4,26.9-118.8,85.1-151.5,199.6c0,0-25,25,62.6,41.3c5.2,0.9,10.7,2,16.4,2.9c23.5,4.2,50.5,8.6,79.7,12.8
		c24,3.4,49.5,6.6,75.8,9.3c26.3,2.7,53.4,4.8,80.6,6.2c37.7,1.9,75.5,2.1,111.9,0c75.9-4.5,143.1,0.3,190.7-33.2
		C715.2,883.6,722.5,877.1,729.2,869.2z M453.8,875.2c-238.6,18.6-326.6-29.3-326.6-29.3s41.3-140,163.3-140
		C467.7,705.9,453.8,875.2,453.8,875.2z"/>
	<path class="st3" d="M267,587.6h-0.9c-0.7,0.7-1.2,1.3-1.8,2v46.5c0,8-5.9,14.6-13.7,15.7c23.7,41,244.4,17,244.4,17l29.9-16.8
		c1.4-12.5-0.2-23-4.2-31.7c-114.7,17.2-123.2,8.1-123.2,8.1l0.1-0.1c-26-6.8-44.1-29.1-46.6-54.7c-32.9-10.1-58.2-5.7-75.5,6.1
		C275.1,584.2,271.5,587.6,267,587.6z"/>
	<path class="st4" d="M250.7,651.7c7.7-1.1,13.7-7.7,13.7-15.7v-46.5v-0.1c0-0.7-0.1-1.2-0.2-1.9h2h0.9c4.5,0,8.1-3.4,8.4-7.8
		c0-0.3,0.1-0.5,0.1-0.7c0-3.5-2.1-6.5-5.1-7.8c-2.8,0.9-6.1,1.4-9.9,1.4h-95.1c-0.9,0.9-2.3,1.5-3.8,1.5c-1.4,0-2.8-0.6-3.8-1.5
		H74.7c-1.7,0-3.3-0.1-4.7-0.3c-0.5-0.1-0.9-0.2-1.2-0.2c-0.9-0.2-2-0.4-2.8-0.7c-0.5-0.1-0.9-0.3-1.2-0.4c-0.1,0-0.1,0-0.2-0.1
		c-3.3,1.1-5.7,4.3-5.7,8c0,4.7,3.8,8.5,8.5,8.5h165.3c-0.1,0.7-0.2,1.2-0.2,1.9v46.6c0,6.3,3.6,11.6,8.8,14.2
		c2.2,1.1,4.6,1.8,7.1,1.8C249.1,652,250,651.9,250.7,651.7z"/>
	<path class="st9" d="M121.9,399.4c0.2-0.4,0.3-0.6,0.3-0.8c0-0.3-0.3-0.4-0.9-0.4H119l-1.2,2.2l0,0h2.5
		C121.1,400.5,121.7,400.2,121.9,399.4z"/>
	<path class="st9" d="M86.2,396.2l-3.5,2.2h-4.9l-0.8,1.3h3.4v0.1c-1.8,1.1-2.8,1.7-2.9,1.7H76c-0.3,0.5-0.6,0.9-0.7,1.2h7.2
		c0.3-0.6,0.7-1.2,1.1-2.1L86.2,396.2z"/>
	<path class="st9" d="M104.3,481.7c16-9.6,33.8-16,52.1-20.9V341.3c0-1.2,0.5-2.4,1.1-3.2H74.7c-24.9,0-24.6,20.2-24.6,45.1v144.6
		c0,10.3,0,19.7,1.7,27.3c0.4-0.7,0.7-1.3,0.9-2.2C61.7,522.5,76.8,498.1,104.3,481.7z M143.5,404.8h-8.8c-0.3,0-0.6-0.6-0.6-1.3
		s0.3-1.3,0.6-1.3h8.8c0.3,0,0.6,0.6,0.6,1.3S143.8,404.8,143.5,404.8z M137,396h6.6c0.3,0,0.5,0.5,0.5,1c0,0.6-0.2,1-0.5,1H137
		c-0.3,0-0.5-0.5-0.5-1C136.5,396.5,136.7,396,137,396z M136.1,399h7.6c0.3,0,0.5,0.5,0.5,1.1c0,0.6-0.2,1.1-0.5,1.1h-7.6
		c-0.3,0-0.5-0.5-0.5-1.1C135.6,399.4,135.8,399,136.1,399z M129.2,396.1L129.2,396.1c-1.3,2.7-2.1,4-2.1,4.1v0.1
		c0.1,0.2,0.2,0.3,0.4,0.3h0.7h1.3c0.7,0,1.2-0.3,1.6-0.9c1.1-2.2,1.8-3.3,1.9-3.5h0.3h2l0,0c-1.6,3-2.5,4.6-2.6,4.8
		c-0.9,1-1.9,1.6-3.1,1.6h-0.2l-1.2,2.2l0,0l0,0h-2.4l0,0l1.1-2.2l0,0h-1.3c-0.8-0.1-1.2-0.3-1.4-0.8c-0.1-0.1-0.1-0.2-0.1-0.4l0,0
		c0-0.4,0.4-1.1,1-2.2l1.8-3.2L129.2,396.1L129.2,396.1z M117.8,396.1L117.8,396.1L117.8,396.1h6c0.9,0,1.3,0.3,1.6,0.9
		c0,0.1,0.1,0.2,0.1,0.4c0,0.4-0.4,1.1-1,2.3c-0.5,1-1,1.7-1.6,1.9l-0.7,0.1l0,0c0.4,0,0.7,0.2,0.8,0.5v0.1c0,0.2-0.3,0.9-0.9,2
		c-0.3,0.5-0.4,0.8-0.5,0.8H119v-0.1l1.1-2.2h-3.6c-0.8,1.4-1.2,2.2-1.2,2.2H113l0,0h-9.7l0,0l0,0l4.8-8.7L117.8,396.1L117.8,396.1z
		 M101,396.2L101,396.2L101,396.2l-3.5,6.5h2.7c0.8,0,1.4-0.8,2.1-2.2l2.4-4.4h2.2l0.1,0.1c-2.2,4.2-3.4,6.4-3.6,6.8
		c-0.9,1.2-2.2,1.8-3.6,1.8h-5.8c0-0.1,1.3-2.4,3.8-6.9c0.6-1,0.9-1.6,0.9-1.7L101,396.2L101,396.2z M86.2,396.1L86.2,396.1
		L86.2,396.1L86.2,396.1h2.5v0.1l-3.6,6.4H92c0.8-1.4,2-3.6,3.5-6.4h2.4l0.1,0.1l-4.7,8.6h-2.4c0.1-0.2,0.4-0.8,0.9-1.7l-2.9,1.7
		h-7.2h-0.1h-9.7l0,0l0,0l4.8-8.7L86.2,396.1L86.2,396.1z M64.8,400.6l2.5-4.5h6c1.1,0.1,1.7,0.5,1.7,1.1v0.1c0,0.4-0.3,0.9-0.8,1.8
		c-1.3,2.5-2.1,3.8-2.3,4.1c-0.9,1-2,1.5-3.4,1.5h-5.9C62.5,404.7,63.3,403.3,64.8,400.6z M57.7,407.1h79.7c1.1,0,2.1,0.9,2.1,2.1
		c0,1.1-0.9,2.1-2.1,2.1H57.7c-1.1,0-2.1-0.9-2.1-2.1C55.6,408.1,56.6,407.1,57.7,407.1z"/>
	<path class="st9" d="M70.1,401.9c0.5-0.7,0.9-1.6,1.6-2.8v-0.2l0,0c0-0.3-0.2-0.4-0.5-0.4h-2.8c-0.2,0.3-1,1.8-2.5,4.4h0.1h2.7
		C69.2,402.7,69.7,402.4,70.1,401.9z"/>
	<path class="st9" d="M114.1,398.4h-4.9l-0.8,1.3h3.4v0.1c-1.8,1.1-2.8,1.7-2.9,1.7h-1.3c-0.3,0.5-0.6,0.9-0.7,1.2h7.2
		c2.2-4,3.3-6.2,3.6-6.5L114.1,398.4z"/>
	<path class="st9" d="M167.2,458.1c13.6-3.1,27.3-5.6,40.6-7.9c28.4-4.9,56.2-11.4,79.5-27.5v-39.6c0-24.9-1.8-45.1-26.7-45.1h-94.6
		c0.7,0.9,1.1,2,1.1,3.2L167.2,458.1L167.2,458.1z"/>
	<path class="st9" d="M62.3,570.2c0.7,0.4,1.4,0.7,2.2,0.9c0.1,0,0.1,0,0.2,0.1C63.8,570.8,62.9,570.5,62.3,570.2z"/>
	<path class="st10" d="M167.2,458.1v110.7c0,1.5-0.7,2.8-1.6,3.9h95c3.8,0,7-0.6,9.9-1.4c15.5-4.9,16.9-22.6,16.9-43.6V422.8
		c-23.2,16.1-51.2,22.6-79.5,27.5C194.5,452.5,180.7,455,167.2,458.1z M200.2,520.2L200.2,520.2c-1.6,3.6-2.6,5.3-2.7,5.3h-21.2
		c0.1-0.3,1.6-3.1,4.6-8.4c1.7-1.7,3.3-2.8,4.7-3.4c1.4-0.5,2.6-0.8,3.4-0.8l5.7-0.1l0.1,0.1h0.1c1.6-0.2,3.2-0.9,4.7-1.9
		c0.5-0.6,0.8-1,0.8-1.3h-15.2v0c5.9-3.5,8.8-5.3,9-5.3h9.2c2,0,3.2,0.9,3.8,2.5l0.1,0.6c0,1.1-1,3.2-3.2,6.4
		c-2.3,2.3-4.9,3.4-8.1,3.4h-5.6c-1.2,0-2.7,0.7-4.2,2l-0.9,0.9L200.2,520.2L200.2,520.2z M249.2,497.6v0.2l-7.8,13.7h3.7l11.2,0.1
		l8-13.9h9.4l0.2,0.2l-19.5,34.4h-0.1l-9.7-0.1c0-0.3,2.6-4.7,7.6-13.6v-0.1h-14.8l-7.9,13.8h-9.7c0.5-1,3.2-6.1,8.3-15l11.2-19.6
		H249.2z M217.3,504.3L217.3,504.3c-3.2,5.7-4.9,8.8-5.1,9.4v0.4c0,0.5,0.4,0.8,1.2,0.9h7.1c1.8-3.3,2.8-5,3-5.2l5.9,0.1v0.1
		c-5.6,10.1-8.5,15.3-8.8,15.7h-3l-3,0.1l-0.1-0.1l2.9-5.1v-0.1h-9.3c-1.9,0-3-0.6-3.6-1.6l-0.1-0.9v-0.3c0-0.9,0.9-2.8,2.5-5.5
		c2.8-4.8,4.3-7.4,4.5-7.7L217.3,504.3L217.3,504.3z"/>
	<path class="st10" d="M65.8,571.5c0.9,0.3,1.9,0.5,2.8,0.7c0.5,0.1,0.9,0.2,1.2,0.2c1.5,0.2,3,0.3,4.7,0.3h83.3
		c-1-0.9-1.6-2.4-1.6-3.9V460.8c-18.3,4.8-36.1,11.3-52.1,20.9c-27.5,16.4-42.6,40.9-51.5,71.1c-0.3,0.9-0.6,1.5-0.9,2.2l0,0
		c0.2,1,0.5,2,0.8,2.9c0.1,0.3,0.2,0.6,0.3,0.9c0.3,0.9,0.7,1.7,1,2.6c0.2,0.4,0.3,0.7,0.5,1c0.6,1,1.1,2,1.8,2.8l0.1,0.1
		c0.7,0.9,1.4,1.6,2.2,2.3c0.2,0.2,0.5,0.4,0.7,0.5c0.7,0.6,1.3,1,2.1,1.4c0.3,0.2,0.7,0.4,0.9,0.6c0.8,0.4,1.5,0.7,2.4,0.9
		C65,571.3,65.4,571.4,65.8,571.5z"/>
	<path class="st3" d="M156.4,460.8v108c0,1.5,0.7,2.8,1.6,3.9c0.9,0.9,2.3,1.5,3.8,1.5c1.4,0,2.8-0.6,3.8-1.5s1.6-2.4,1.6-3.9V458.1
		V341.3c0-1.2-0.5-2.4-1.1-3.2c-0.9-1.3-2.6-2.1-4.3-2.1s-3.3,0.9-4.3,2.1c-0.7,0.9-1.1,2-1.1,3.2
		C156.4,341.3,156.4,460.8,156.4,460.8z"/>
	<path class="st4" d="M290.6,705.9c-122,0-163.3,140-163.3,140s87.9,47.9,326.6,29.3C453.8,875.2,467.7,705.9,290.6,705.9z
		 M386.6,791.6c0,0-95.3,19.3-154.2-19.4C232.4,772.2,319.2,793.5,386.6,791.6z M403.4,822.8c-129.8,11.6-198.6-19.4-198.6-19.4
		C265,819.5,403.4,822.8,403.4,822.8z M341.3,716.9c0,0-102.6-15.7-197.8,115C143.5,831.8,198.7,689.2,341.3,716.9z M168.6,831.8
		c0,0,95.3,35,256.7,14.1C425.2,845.9,274.9,891.4,168.6,831.8z"/>
	<path class="st5" d="M341.3,716.9c-142.7-27.7-197.8,115-197.8,115C238.7,701.2,341.3,716.9,341.3,716.9z"/>
	<path class="st5" d="M168.6,831.8C275,891.5,425.3,846,425.3,846C263.8,866.8,168.6,831.8,168.6,831.8z"/>
	<path class="st5" d="M403.4,822.8c0,0-138.5-3.3-198.6-19.4C204.8,803.4,273.8,834.4,403.4,822.8z"/>
	<path class="st5" d="M386.6,791.6c-67.3,1.9-154.2-19.4-154.2-19.4C291.2,811,386.6,791.6,386.6,791.6z"/>
	<path class="st4" d="M726.3,484.8c8.3,15.5,0.6,24.4-7.5,28.5c11.6,6.4,26.5,6.7,37.8,5.7c5.4-0.5,10.1-1.3,13.1-2
		c-0.7-0.9-1-2.1-1-3.3v-70.9c0-0.1,0-0.1,0-0.2c-26.7-1.7-42.4,7.1-51.7,18c-2.5,2.9-4.5,6-6.2,9
		C715.9,471.3,721.5,475.5,726.3,484.8z"/>
	<path class="st5" d="M768.7,513.7c0,1.2,0.4,2.4,1,3.3c1,1.4,2.8,2.4,4.6,2.4c3.1,0,5.7-2.6,5.7-5.7v-70.9c0-3.1-2.6-5.7-5.7-5.7
		c-3.1,0-5.6,2.5-5.7,5.5c0,0.1,0,0.1,0,0.2V513.7z"/>
	<path class="st11" d="M680.9,473.7c-0.6-6.2,3.3-12.1,9.6-13.8c6.9-2,14,1.9,16.2,8.7c1.3,0.1,2.8,0.5,4.3,0.9c1.6-3,3.7-6.1,6.2-9
		c-15.7-23.4-41.7-4.2-41.7-4.2c-92.2,25.2-133.5-9.1-143.2-19c-2.4,3.8-5.4,7.8-9.1,11.7C543.2,465.1,592.2,491.6,680.9,473.7z"/>
	<path class="st4" d="M706.7,468.6c-2.2-6.7-9.3-10.6-16.2-8.7c-6.2,1.8-10.1,7.7-9.6,13.8c5.2-1,10.5-2.2,15.9-3.6
		C696.8,470.2,700.9,467.9,706.7,468.6z"/>
	<path class="st12" d="M487.1,370.1c0.4,1.4,0.8,2.8,1.1,4.5c1.2,5.7,2.3,14.7,2.9,25.6l33.8,36.4c0,0-2.2,4-5.7,9.4
		c1.1,0.9,2.4,2,3.7,3c3.7-3.9,6.6-7.8,9.1-11.7c8.3-13.1,9.7-24.6,9.7-24.6s-2.8-1.3-7.3-3.7C523.1,403,501.2,389.7,487.1,370.1z"
		/>
	<path class="st13" d="M470,351.8v1.2c2.5-0.7,5.4-0.6,8.3,1.4v-3.1c-2.7-3.4-5.7-6-8.9-8l-0.9,6.7C469,350.6,469.5,351.2,470,351.8
		z"/>
	<path class="st14" d="M480.9,547L480.9,547C481,546.9,481,546.9,480.9,547L480.9,547z"/>
	<path class="st14" d="M492.9,474.2c-2.8,1.5-5.5,2.7-8.3,3c-0.1,19-0.7,41.1-1.8,66.9c0,0,2.8,0.4,7.6,1.2
		c1.2-15.3,2-36.1,2.4-58.3C492.8,482.7,492.8,478.4,492.9,474.2z"/>
	<path class="st14" d="M470.1,353l0.1,10.4c1.7,0.5,6.2,3.9,9.7,24.6l11.3,12.1c-0.8-10.9-1.7-19.8-2.9-25.6c-0.4-1.6-0.8-3-1.1-4.5
		c-2.5-8.7-5.6-13.5-8.8-15.7C475.4,352.5,472.6,352.4,470.1,353z"/>
	<path class="st15" d="M611.4,793.8c2.4-36.2,10.5-170.1,4.3-198.4c-6.2-28-98.1-45.5-125.3-50.1c-4.7-0.9-7.6-1.2-7.6-1.2
		s-0.5,1.2-1.7,2.9l0,0l0,0l0,0c-1.2,1.6-3.3,3.5-6.4,5.3c0.2,0.6,0.3,1.1,0.4,1.7c20.6,1.3,123.5,10.3,130.7,60.1
		c5.3,37.2-0.9,125-5.7,178.8l6.8-0.2C608.4,792.7,610,793.1,611.4,793.8z"/>
	<path class="st16" d="M607.8,817.6l-0.1-4.3c-0.1,0-0.2,0-0.4,0l-9.4,0.3c-0.1,1.3-0.3,2.6-0.4,3.8l9.6-0.3
		C607.4,817.3,607.6,817.4,607.8,817.6z"/>
	<path class="st17" d="M606.9,834.7c0.2,5.6-4.1,10.2-9.7,10.5v1.4l72.4-2.3c0.9,0,1.5,0.3,2.2,0.7c-0.8-6.4-3-17.6-9.2-24.6
		c-4.6-5.2-11.6-8.1-21.8-4.4c-20.8,7.5-16.3,11.3-33.1,1.3c-0.3-0.1-0.5-0.3-0.7-0.4l-9.6,0.3c-0.3,2.7-0.5,5.1-0.7,7.3
		C602.3,824.9,606.8,829.2,606.9,834.7z"/>
	<path class="st18" d="M597.3,846.7l0.1,2.8c4.2,2.5,7.1,4.1,9.3,5l9.2-0.3c3.1-1.3,7.2-3.4,14.6-6.1c10.6-3.8,17.6-0.7,22.3,4.9
		l17.2-0.6c2.3-0.1,4-2,4-4.2c0-1.4-0.9-2.7-2-3.3c-0.7-0.4-1.3-0.7-2.2-0.7L597.3,846.7z"/>
	<path class="st2" d="M607.7,813.4c5.5-0.4,9.8-5,9.7-10.5c-0.1-4-2.6-7.4-5.9-8.9c-1.4-0.7-3-1-4.7-1l-6.8,0.2
		c-0.7,7.7-1.3,14.6-1.9,20.7l9.4-0.3C607.5,813.4,607.6,813.4,607.7,813.4z"/>
	<path class="st19" d="M397.6,628.4L397.6,628.4c-0.1,0.1,8.5,9.1,123.2-8c12-1.8,24.9-3.8,39.3-6.3c0,0-2.8,66.3,16.1,211.4
		c0.6-0.1,1-0.2,1.6-0.2l18.5-0.6c0.2,0,0.4,0,0.6,0c0.2-2.2,0.5-4.6,0.7-7.3c0.1-1.2,0.3-2.5,0.4-3.8c0.6-6.1,1.2-13,1.9-20.7
		c4.7-53.8,11.1-141.7,5.7-178.8c-7.2-49.8-110.1-58.9-130.7-60.1c-0.1-0.6-0.3-1.1-0.4-1.7c-3.3,1.8-8,3.3-14.3,4
		c-0.3,0.8-0.5,1.6-0.8,2.4l0,0c-1.4,4.2-3.1,8.1-5.2,11.4c0,0,0,0,0,0.1c-0.7,1-1.4,2.1-2.2,3.1c-0.2,0.2-0.4,0.4-0.5,0.6
		c-0.2,0.3-0.5,0.6-0.7,0.9c-0.5,0.5-0.9,1-1.3,1.5c-0.3,0.3-0.6,0.5-0.8,0.8c-0.4,0.4-0.8,0.8-1.1,1.1c-0.3,0.3-0.6,0.5-0.9,0.8
		c-0.3,0.3-0.7,0.5-1,0.8c-0.7,0.6-1.4,1-2.2,1.5c-0.4,0.3-0.9,0.5-1.2,0.8c-0.8,0.5-1.5,0.9-2.3,1.2c-0.5,0.2-0.9,0.5-1.5,0.7
		c-0.9,0.4-1.6,0.7-2.5,0.9c-0.6,0.2-1.1,0.4-1.7,0.6c-0.9,0.3-1.8,0.6-2.8,0.8c-0.7,0.2-1.2,0.3-1.9,0.5c-0.9,0.2-2,0.4-2.9,0.6
		c-0.7,0.1-1.4,0.2-2.1,0.3c-1,0.1-2.2,0.3-3.2,0.4c-0.8,0.1-1.5,0.2-2.4,0.2c-1.1,0.1-2.4,0.1-3.6,0.1c-0.9,0-1.6,0.1-2.5,0
		c-1.3,0-2.7-0.1-4.1-0.1c-0.9,0-1.7,0-2.6-0.1c-1.5-0.1-3.2-0.3-4.8-0.4c-0.8-0.1-1.6-0.1-2.4-0.2c-2.5-0.3-5.1-0.6-7.9-0.9
		c-2.1-0.3-4.1-0.7-6-1c-0.7-0.1-1.2-0.3-1.9-0.4c-1.2-0.3-2.4-0.6-3.5-0.9c-0.7-0.2-1.3-0.4-2-0.6c-0.9-0.3-1.9-0.6-2.8-0.9
		c-0.7-0.2-1.3-0.5-2-0.7c-0.8-0.3-1.6-0.6-2.3-0.9c-0.7-0.3-1.2-0.6-1.8-0.9c-0.7-0.3-1.3-0.7-1.9-0.9c-0.6-0.3-1.1-0.6-1.7-0.9
		s-1-0.7-1.6-1c-0.6-0.4-1-0.7-1.5-1s-0.9-0.7-1.2-1c-0.5-0.4-0.9-0.8-1.4-1.2c-0.3-0.3-0.5-0.6-0.8-0.9c-1.1-1.1-2.1-2.4-2.9-3.7
		c-0.1-0.1-0.1-0.2-0.2-0.3c-0.4-0.7-0.7-1.3-1-2c-0.1-0.3-0.3-0.6-0.4-0.8c-0.3-0.7-0.6-1.3-0.8-2c-0.1-0.3-0.2-0.6-0.3-0.9
		c-0.2-0.7-0.4-1.4-0.6-2.1c-0.1-0.3-0.1-0.6-0.2-0.9c-0.1-0.8-0.3-1.5-0.4-2.3c0-0.3-0.1-0.6-0.1-0.9c0-0.1,0-0.3,0-0.4
		c-1,5.7-1.2,11.3-0.7,16.8C353.5,599.3,371.6,621.6,397.6,628.4z"/>
	<path class="st16" d="M597.3,845.3c-0.1,0-0.2,0-0.4,0l-18.5,0.6c-0.1,0-0.2,0-0.2,0l0.1,3.8l0,0l18.4-0.6c0.3,0.2,0.5,0.3,0.7,0.4
		l-0.1-2.8V845.3z"/>
	<path class="st17" d="M630.5,848.3c-7.3,2.7-11.5,4.8-14.6,6.1c-3.5,1.4-5.6,1.8-9.2,0.3c-2.3-0.9-5.1-2.6-9.3-5
		c-0.3-0.2-0.5-0.3-0.7-0.4l-18.4,0.6H578h-0.5l0,0c-0.1,0.3-3.8,13.1-1,31.2c0.7-1.1,1.9-2,3.3-2.1l79.5-2.5c0.9,0,1.5,0.3,2.2,0.7
		c0-0.1,0-0.3-0.1-0.5c-0.9-6.3-2.9-16.7-8.6-23.5C648.1,847.6,641.1,844.4,630.5,848.3z"/>
	<path class="st18" d="M579.9,879c-1.4,0-2.7,0.9-3.3,2.1c-0.4,0.7-0.7,1.3-0.6,2.1c0.1,2.3,2,4,4.2,4l56.8-1.8l22.7-0.7
		c2.3-0.1,4-2,4-4.2c0-1.4-0.9-2.7-2-3.3c-0.7-0.4-1.3-0.7-2.2-0.7L579.9,879z"/>
	<path class="st2" d="M567.8,835.9c0.2,5.6,4.8,10.1,10.4,10c0.1,0,0.1,0,0.2,0l18.5-0.6c0.1,0,0.2,0,0.4,0c5.5-0.4,9.8-5,9.7-10.5
		c-0.2-5.5-4.6-9.8-10.1-10c-0.2,0-0.4,0-0.6,0l-18.5,0.6c-0.6,0-1.1,0.1-1.6,0.2C571.3,826.4,567.6,830.8,567.8,835.9z"/>
	<path class="st20" d="M470.2,363.5L470.2,363.5c3.8,6.1,6.5,13.8,8.3,23l1.3,1.4C476.4,367.4,471.9,364,470.2,363.5z"/>
	<path class="st20" d="M480.9,547C481,546.9,481,546.9,480.9,547c1.3-1.7,1.8-2.9,1.8-2.9c1.1-25.8,1.7-47.9,1.8-66.9
		c-0.8,0.1-1.5,0.2-2.3,0.2l-6.6-9.8c-0.8,4.2-1.6,8.4-2.7,12.8c-6.6,29.9-7,56.5-12.8,75.9c6.4-0.6,11-2.1,14.3-4
		C477.7,550.5,479.7,548.5,480.9,547z"/>
	<path class="st11" d="M468.5,350l0.9-6.7l0.6-4.6c-3.7,0.2-7.4,0.1-11.3-0.5l0,0c-5.9-0.9-11.4-2.6-16.4-4.8
		c-0.3,1.5-0.5,3.1-0.8,4.7C449.5,338.6,460.4,341.1,468.5,350z"/>
	<path class="st10" d="M452.7,350.4c7.3,1.6,13.1,6.3,17.5,13.2v-0.1L470,353v-1.2c-0.5-0.7-1-1.2-1.6-1.8c-8-8.9-19-11.5-27-11.9
		c-0.6,3.8-1.2,7.6-2,11.5C443.7,349.2,448,349.3,452.7,350.4z"/>
	<path class="st9" d="M459.4,558.6c0.3-0.8,0.5-1.6,0.8-2.4c5.8-19.3,6.2-46,12.8-75.9c0.9-4.3,1.8-8.5,2.7-12.8L448,426.9
		c-2.8,0.6-5.8,0.6-8.7,0c-6.2-1.4-11.3-5.6-14.7-11.5c-8.1,27.5-18.3,51.7-31.1,65c-8.3,8.5-16.9,12.7-25.5,14
		c-7.6,22.3-15.5,41.5-16.3,56.7C377.1,565.1,428.9,564.3,459.4,558.6z"/>
	<path class="st9" d="M351.6,554.7c0,0.8,0.1,1.4,0.1,2.1c0,0.1,0,0.3,0,0.4C351.6,556.4,351.6,555.6,351.6,554.7z"/>
	<path class="st9" d="M459.4,558.6c-1.4,4.2-3.1,8.1-5.2,11.4C456.3,566.6,458,562.9,459.4,558.6z"/>
	<path class="st9" d="M447.4,577.9c0.4-0.4,0.8-0.8,1.1-1.1c-0.7,0.7-1.3,1.2-2.1,1.8C446.9,578.4,447.2,578.1,447.4,577.9z"/>
	<path class="st9" d="M450.8,574.5c0.2-0.3,0.5-0.6,0.7-0.9c-0.7,0.8-1.3,1.5-2,2.3C449.9,575.6,450.3,575.1,450.8,574.5z"/>
	<path class="st9" d="M455.6,353.4c11.6,2.6,19.2,14.9,19.8,29.8l3.1,3.3c-1.8-9.2-4.6-17-8.3-23c-4.5-7-10.2-11.6-17.5-13.2
		c-4.6-1-9.1-1.2-13.2-0.8c-0.5,2.5-0.9,4.9-1.3,7.4C443.6,353.5,449.7,352.1,455.6,353.4z"/>
	<path class="st14" d="M441,419.3c-6.4-1.4-11.2-6.4-13.8-13.4c-0.9,3.2-1.7,6.4-2.7,9.5c3.5,5.9,8.5,10.1,14.7,11.5
		c2.8,0.7,5.8,0.6,8.7,0l-4.9-7.3C442.3,419.6,441.7,419.5,441,419.3z"/>
	<path class="st14" d="M454,360.9c6.6,1.4,11.6,6.9,14,14.2l7.4,8c-0.6-15-8.3-27.2-19.8-29.8c-6-1.3-12,0.2-17.5,3.7
		c-0.6,3.2-1.2,6.5-1.9,9.8C441.5,362,447.7,359.6,454,360.9z"/>
	<path class="st14" d="M351.8,558.1c0.1,0.8,0.2,1.5,0.4,2.3c0.1,0.3,0.1,0.6,0.2,0.9c0.2,0.8,0.3,1.4,0.6,2.1
		c0.1,0.3,0.2,0.6,0.3,0.9c0.2,0.7,0.5,1.3,0.8,2c0.1,0.3,0.3,0.6,0.4,0.8c0.3,0.7,0.7,1.3,1,2c0.1,0.1,0.1,0.2,0.2,0.3
		c0.9,1.3,1.8,2.6,2.9,3.7c0.3,0.3,0.5,0.6,0.8,0.9c0.5,0.4,0.9,0.9,1.4,1.2c0.4,0.4,0.9,0.7,1.2,1c0.5,0.4,1,0.8,1.5,1
		c0.5,0.4,1,0.7,1.6,1c0.6,0.3,1.1,0.7,1.7,0.9c0.7,0.4,1.2,0.7,1.9,0.9c0.6,0.3,1.2,0.6,1.8,0.9c0.8,0.3,1.5,0.6,2.3,0.9
		c0.7,0.2,1.3,0.5,2,0.7c0.9,0.3,1.8,0.6,2.8,0.9c0.7,0.2,1.3,0.4,2,0.6c1.1,0.3,2.4,0.6,3.5,0.9c0.7,0.1,1.2,0.3,1.9,0.4
		c1.9,0.4,3.9,0.8,6,1c2.8,0.4,5.3,0.8,7.9,0.9c0.9,0.1,1.6,0.1,2.4,0.2c1.6,0.2,3.3,0.3,4.8,0.4c0.9,0.1,1.7,0.1,2.6,0.1
		c1.4,0.1,2.8,0.1,4.1,0.1c0.9,0,1.7,0,2.5,0c1.2,0,2.5-0.1,3.6-0.1c0.8,0,1.5-0.1,2.4-0.2c1.1-0.1,2.2-0.2,3.2-0.4
		c0.8-0.1,1.4-0.2,2.1-0.3c1-0.2,2-0.4,2.9-0.6c0.7-0.2,1.3-0.3,1.9-0.5c0.9-0.3,1.8-0.5,2.8-0.8c0.6-0.2,1.1-0.4,1.7-0.6
		c0.9-0.3,1.7-0.7,2.5-0.9c0.5-0.2,1-0.5,1.5-0.7c0.8-0.4,1.5-0.8,2.3-1.2c0.4-0.3,0.9-0.5,1.2-0.8c0.8-0.5,1.4-0.9,2.2-1.5
		c0.4-0.3,0.7-0.5,1-0.8c0.8-0.6,1.4-1.2,2.1-1.8c0.3-0.3,0.6-0.5,0.8-0.8c0.8-0.8,1.4-1.5,2-2.3c0.2-0.2,0.4-0.4,0.5-0.6
		c0.8-0.9,1.5-2,2.2-3.1c0,0,0,0,0-0.1c2.2-3.4,3.9-7.2,5.2-11.4l0,0c-30.5,5.7-82.3,6.5-107.7-7.4l0,0c-0.1,0.9-0.1,1.9-0.1,2.8
		c0,0.2,0,0.4,0,0.7c0,0.9,0.1,1.7,0.2,2.6C351.7,557.5,351.7,557.8,351.8,558.1z"/>
	<path class="st21" d="M726.3,484.8c-4.9-9.2-10.5-13.5-15.5-15.2c-1.5-0.5-2.9-0.9-4.3-0.9c-5.7-0.6-9.9,1.6-9.9,1.6
		c-5.5,1.3-10.7,2.6-15.9,3.6c-88.6,17.9-137.6-8.6-157.8-24.7c-1.3-1-2.7-2.1-3.7-3c-4.9,7.5-12.5,17.8-21.1,24.6
		c2.8,2.9,6.8,6.3,12.3,9.7c20.9,12.7,63.5,25.6,150.2,18.8c13.8-1,18.4-4,25.7,7.8c4.7,7.7,8.4,3.9,10.4,0.3c-2.8-1.7-5-4.4-6-7.8
		c-2-7,2.1-14.4,9.1-16.4c7-2,14.4,2.1,16.4,9.1s-2.1,14.4-9.1,16.4c-1.3,0.4-2.7,0.5-4,0.5c-0.1,2.5,0.5,6.5,4.7,7.1
		c0.4,0.1,0.8,0.1,1.2,0.1c1.8,0,4.4-0.6,7.1-1.6c0.9-0.4,1.7-0.8,2.7-1.1C726.9,509.2,734.6,500.2,726.3,484.8z"/>
	<path class="st4" d="M707.2,508.4c7-2,11.1-9.4,9.1-16.4c-2-7-9.4-11.1-16.4-9.1c-7,2-11.1,9.4-9.1,16.4c0.9,3.4,3.2,6.1,6,7.8
		c1.9,1.1,4.2,1.8,6.4,1.8C704.6,508.9,705.9,508.8,707.2,508.4z"/>
	<path class="st22" d="M484.5,477.1c2.8-0.4,5.6-1.4,8.3-3c1.8-1,3.6-2.3,5.3-3.6c8.5-6.7,16.1-17.1,21.1-24.6
		c3.6-5.4,5.7-9.4,5.7-9.4l-33.8-36.4L479.9,388l-1.3-1.4l-3.1-3.3l-7.4-8c-2.5-7.3-7.5-12.8-14-14.2c-6.2-1.3-12.5,1-17.6,5.9
		c-0.4,2-0.8,4-1.2,5.9c-0.9,4.4-1.8,8.7-2.8,13.1c-1.5,6.7-3.2,13.5-4.9,20.1c2.6,6.9,7.4,12,13.8,13.4c0.7,0.2,1.3,0.3,2,0.3
		l4.9,7.3l27.6,40.6l6.6,9.8C483,477.3,483.8,477.3,484.5,477.1z"/>
	<path class="st2" d="M510.5,234.6c1.8,1.1,2.6,2.8,1.7,5.5c0,0-0.9,1-2.3,2.6c0.1,3.8-0.1,7.8-0.7,11.7c-0.5,3-1.1,6-1.9,8.8
		c0.9-0.5,1.7-1,2.8-1.7c2.8-1.8,6.7-1.2,9.3,1.1c-2.9-14.8-5.4-25.6-6.4-29.9C512.2,233.3,511.5,233.9,510.5,234.6L510.5,234.6z"/>
	<path class="st23" d="M510.1,261.4c-0.9,0.7-1.9,1.1-2.8,1.7c-0.7,2.3-1.3,4.5-2.2,6.5c2,2.3,3.8,4.8,5.3,7.4
		c4.4-0.2,9-2.1,10.8-4.8c0.4-0.6,0.7-1.1,0.8-1.7c0.5-3.5-0.7-6.3-2.6-8C516.9,260.2,513,259.6,510.1,261.4z"/>
	<path class="st21" d="M458.6,338.3c3.8,0.6,7.6,0.7,11.3,0.5c1.1-0.1,2.3-0.1,3.4-0.3c1.2-0.1,2.4-0.3,3.6-0.5
		c-0.2-0.5-0.2-0.9-0.2-1.3c-12.1-2.8-18.2-22-21.3-42c-1.2,3.1-2,5.9-2.1,8l-0.1-13.2v-4.6c-1.6,0-3-0.1-4.5-0.4
		c-0.1,1.2-0.3,2.6-0.5,3.9c-1.3,11.6-3.3,27.4-6.1,45.1C447.3,335.7,452.8,337.4,458.6,338.3L458.6,338.3z"/>
	<path class="st21" d="M476.6,258.5c0,0-4.6,6.4-9.6,14.5c-0.9,1.3-1.6,2.7-2.5,4.1c0,3,0.1,6,0.3,8.7c1.6,29.4,9.6,41,16.3,45.3
		c0.7-0.4,1.3-0.8,2.1-1c4.6-1.8,9.1-1.2,10.1,1.4c0.1,0.3,0.2,0.6,0.2,0.9c11.8-6.4,20.2-17.1,22.1-30.1c1.2-8.9-0.7-17.5-5.1-25.2
		c-1.5-2.6-3.3-5-5.3-7.4c0.9-2.1,1.6-4.3,2.2-6.5c0.9-2.8,1.5-5.8,1.9-8.8c0.6-4,0.8-7.9,0.7-11.7
		C504.6,248.2,490.6,261.2,476.6,258.5z"/>
	<path class="st24" d="M452.3,253.5c-0.1,0-0.2,0-0.3,0C452.1,253.5,452.2,253.6,452.3,253.5C452.3,253.6,452.3,253.6,452.3,253.5z"
		/>
	<path class="st24" d="M424.6,415.5c0.9-3.1,1.8-6.4,2.7-9.5c1.8-6.6,3.4-13.4,4.9-20.1c0.9-4.4,1.9-8.7,2.8-13.1
		c0.4-2,0.9-4,1.2-5.9c0.7-3.3,1.3-6.5,1.9-9.8c0.5-2.5,0.9-4.9,1.3-7.4c0.7-3.9,1.3-7.8,2-11.5c0.3-1.6,0.5-3.2,0.8-4.7
		c2.8-17.7,4.8-33.6,6.1-45.1c0.2-1.3,0.3-2.7,0.5-3.9c-7.6-1.5-12.7-6.5-13.8-9.7c-1.1-3.2-0.8-13.9,4.8-19.2
		c-14.9,2.2-30.4,3.6-39.4,4.3C388,300.4,355.4,393.4,306,448.6c-6.4,7.1,26.8,51.4,61.8,46.1c8.5-1.3,17.3-5.5,25.5-14
		C406.3,467.2,416.5,443,424.6,415.5z"/>
	<path class="st9" d="M483.2,330c-0.8,0.3-1.4,0.7-2.1,1c-2.6,1.5-4.3,3.7-4.5,5.6c0,0.5,0,0.9,0.2,1.3c0,0,0,0,0,0.1
		c1,2.7,5.6,3.2,10.1,1.4c4.1-1.6,6.7-4.6,6.5-7.1c0-0.3-0.1-0.6-0.2-0.9C492.3,328.9,487.8,328.2,483.2,330z"/>
	<path class="st14" d="M490.9,183.8c-66.7-13.7-83.5,56.1-82.1,54.4C453.3,182.9,490.9,183.8,490.9,183.8z"/>
	<path class="st14" d="M423.7,244c41.7-25.3,84.5-43.6,84.5-43.6C451.4,189.9,423.7,244,423.7,244z"/>
	<path class="st23" d="M453.2,274.7c-0.2-2.2-0.3-4.3-0.4-6.3c-4.4-0.2-10.7,0.1-15.7,2.1c0,0,5.3-6.7,15.6-3.8
		c-0.3-5.1-0.4-9.6-0.4-13.1c-0.1,0-0.2-0.1-0.3-0.1c-0.7,0.1-1.3,0.2-1.9,0.4c-3.3,0.6-6.8,1.1-10.3,1.7c-5.7,5.2-6,15.8-4.8,19.2
		c1,3.1,6.2,8.2,13.8,9.7c1.4,0.3,2.9,0.4,4.5,0.4L453.2,274.7z"/>
	<path class="st25" d="M452.7,266.7c-10.2-3-15.6,3.8-15.6,3.8c4.9-2,11.3-2.2,15.7-2.1c0-0.3,0-0.6-0.1-0.9
		C452.8,267.3,452.8,267,452.7,266.7z"/>
	<path class="st24" d="M467,273c5-8.2,9.6-14.5,9.6-14.5c14,2.8,28.1-10.2,33.5-15.8c1.4-1.5,2.3-2.6,2.3-2.6
		c0.9-2.6,0.1-4.4-1.7-5.5c0,0,0,0-0.1,0c-13.9,9.2-30.2,13.6-45,16.5c-0.8,9.8-1.1,18.4-1,26C465.4,275.7,466.1,274.3,467,273z"/>
	<path class="st24" d="M453.2,284.8v4.6l0.1,13.2c0-2.1,0.9-4.8,2.1-8c-1-6.7-1.7-13.6-2.2-19.9L453.2,284.8z"/>
	<path class="st14" d="M452.7,266.7c0,0.3,0,0.6,0,0.9c0,0.3,0,0.6,0.1,0.9c0.1,2,0.2,4.1,0.4,6.3c0.5,6.4,1.1,13.2,2.2,19.9
		c3.1,20,9.2,39.3,21.3,42c0.2-1.9,1.8-4,4.5-5.6c-6.7-4.5-14.8-15.9-16.3-45.3c-0.2-2.8-0.3-5.7-0.3-8.7c-0.1-7.6,0.2-16.2,1-26
		c-4.6,0.9-9,1.7-13.2,2.5v0.1C452.4,257.2,452.5,261.6,452.7,266.7z"/>
	<path class="st9" d="M450.2,253.8c0.6-0.1,1.2-0.2,1.9-0.4c0.1,0,0.2,0,0.3,0c4.2-0.8,8.6-1.5,13.2-2.5c14.8-2.9,31-7.3,45-16.5
		l0.1-0.1c0.9-0.6,1.6-1.2,2.5-1.8c6.6-4.8,12.7-10.8,17.7-18.5c-10.2-24.9-35.4-42.6-65-42.6c-38.6,0-69.8,30.1-69.8,67.2
		c0,7.4,1.3,14.5,3.6,21.2c0.3,0,0.7-0.1,0.9-0.1c9-0.7,24.4-2.1,39.4-4.3C443.4,255.1,446.8,254.5,450.2,253.8z M490.9,183.8
		c0,0-37.6-0.9-82.1,54.4C407.4,239.9,424.2,170.3,490.9,183.8z M508.2,200.2c0,0-42.7,18.3-84.5,43.6
		C423.7,244,451.4,189.9,508.2,200.2z"/>
	<path class="st20" d="M71.7,403.3c0.2-0.3,0.9-1.7,2.3-4.1c0.5-0.9,0.8-1.5,0.8-1.8v-0.1c0-0.7-0.6-1-1.7-1.1h-6l-2.5,4.5
		c-1.5,2.8-2.3,4.2-2.4,4.3h5.9C69.8,404.8,70.9,404.4,71.7,403.3z M66.1,402.7c1.4-2.6,2.3-4,2.5-4.4h2.8c0.3,0,0.5,0.1,0.5,0.4
		l0,0v0.2c-0.7,1.2-1.2,2.3-1.6,2.8c-0.5,0.6-0.9,0.8-1.2,0.8h-2.7h-0.2V402.7z"/>
	<path class="st20" d="M71.7,404.8L71.7,404.8h9.6c0,0,0.4-0.8,1.1-2.2h-7.1c0.2-0.4,0.4-0.8,0.7-1.2h1.4c0.1,0,1-0.6,2.9-1.7v-0.1
		H77l0.8-1.3h4.9l3.5-2.2l0,0l0,0h-9.6L71.7,404.8L71.7,404.8z"/>
	<path class="st20" d="M83.7,400.7c-0.5,0.9-0.9,1.5-1.1,2.1c-0.8,1.3-1.1,2.1-1.1,2.2h0.1h7.1l2.9-1.7c0.1-0.2,0.2-0.3,0.3-0.5
		h-6.9l3.6-6.4v-0.1h-2.4l0,0l0,0l0,0L83.7,400.7z"/>
	<path class="st20" d="M90.7,404.8h2.4l4.7-8.6l-0.1-0.1h-2.4c-1.6,2.8-2.8,5-3.5,6.4c-0.1,0.2-0.2,0.3-0.3,0.5
		C91.1,404.1,90.8,404.7,90.7,404.8z"/>
	<path class="st20" d="M93.9,404.8h5.8c1.4,0,2.7-0.6,3.6-1.8c0.3-0.4,1.5-2.7,3.6-6.8l-0.1-0.1h-2.2l-2.4,4.4
		c-0.7,1.4-1.4,2.2-2.1,2.2h-2.7l3.6-6.4l0,0l0,0h-2.3c-0.1,0.1-0.5,0.7-0.9,1.7C95.2,402.5,93.9,404.7,93.9,404.8z"/>
	<path class="st20" d="M103.3,404.8L103.3,404.8h9.7l0,0l0,0c0.4-0.8,0.8-1.4,1.1-2.1h-7.2c0.1-0.4,0.4-0.8,0.7-1.2h1.4
		c0.1,0,1-0.6,2.9-1.7v-0.1h-3.4l0.8-1.3h4.9l3.5-2.2l0,0l0,0h-9.7L103.3,404.8L103.3,404.8z"/>
	<path class="st20" d="M114.1,402.7c-0.4,0.7-0.8,1.3-1.1,2.1l0,0l0,0l0,0h2.3c0,0,0.5-0.8,1.2-2.2h3.6l-1.1,2.2v0.1h2.4
		c0,0,0.2-0.3,0.5-0.8c0.7-1.1,0.9-1.8,0.9-2v-0.1c-0.1-0.3-0.3-0.5-0.8-0.5l0,0l0.7-0.1c0.6-0.2,1-0.9,1.6-1.9c0.7-1.1,1-1.9,1-2.3
		c0-0.2,0-0.3-0.1-0.4c-0.3-0.6-0.8-0.9-1.6-0.9h-5.9c0,0,0,0,0,0.1l0,0C117.5,396.6,116.2,398.8,114.1,402.7z M117.8,400.5l1.2-2.2
		h2.5c0.6,0,0.9,0.1,0.9,0.4c0,0.2-0.1,0.5-0.3,0.8c-0.3,0.7-0.9,1-1.7,1H117.8L117.8,400.5z"/>
	<path class="st20" d="M124.1,401.5L124.1,401.5c0,0.2,0,0.3,0.1,0.4c0.2,0.5,0.7,0.7,1.4,0.8h1.3l0,0l-1.1,2.2l0,0h2.4l0,0l0,0
		l1.2-2.2h0.2c1.2,0,2.3-0.6,3.1-1.6c0.2-0.2,1-1.9,2.6-4.8l0,0h-2H133c-0.1,0.1-0.8,1.3-1.9,3.5c-0.4,0.6-0.9,0.9-1.6,0.9h-1.3
		h-0.7c-0.2,0-0.3-0.1-0.4-0.3v-0.1c0-0.1,0.8-1.4,2.1-4l-0.1-0.1h-2.4l-1.8,3.2C124.4,400.4,124.1,401.1,124.1,401.5z"/>
	<path class="st20" d="M57.7,411.4h79.7c1.1,0,2.1-0.9,2.1-2.1s-0.9-2.1-2.1-2.1H57.7c-1.1,0-2.1,0.9-2.1,2.1S56.6,411.4,57.7,411.4
		z"/>
	<path class="st20" d="M143.5,402.3h-8.8c-0.3,0-0.6,0.6-0.6,1.3s0.3,1.3,0.6,1.3h8.8c0.3,0,0.6-0.6,0.6-1.3
		S143.8,402.3,143.5,402.3z"/>
	<path class="st20" d="M136.1,401.1h7.6c0.3,0,0.5-0.5,0.5-1.1c0-0.6-0.2-1.1-0.5-1.1h-7.6c-0.3,0-0.5,0.5-0.5,1.1
		C135.6,400.7,135.8,401.1,136.1,401.1z"/>
	<path class="st20" d="M137,398.1h6.6c0.3,0,0.5-0.5,0.5-1c0-0.6-0.2-1-0.5-1H137c-0.3,0-0.5,0.5-0.5,1
		C136.5,397.6,136.7,398.1,137,398.1z"/>
	<path class="st20" d="M190.5,517.1h5.6c3.1,0,5.9-1.1,8.1-3.4c2.2-3.1,3.2-5.2,3.2-6.4l-0.1-0.6c-0.6-1.6-1.8-2.5-3.8-2.5h-9.2
		c-0.2,0-3.2,1.8-9,5.3v0.1h15.1c0,0.3-0.3,0.8-0.8,1.3c-1.5,1-3.1,1.7-4.7,1.9h-0.1l-0.1-0.1L189,513c-0.9,0-2.1,0.3-3.4,0.8
		c-1.4,0.6-3,1.6-4.7,3.4c-3,5.3-4.6,8.2-4.6,8.4h21.2c0.1,0,1-1.7,2.8-5.2l-0.1-0.1h-14.7l0.9-0.9
		C187.8,517.8,189.2,517.1,190.5,517.1z"/>
	<path class="st20" d="M204.4,517.5v0.3l0.1,0.9c0.5,1,1.7,1.6,3.6,1.6h9.3v0.1l-2.9,5.1l0.1,0.1l3-0.1h3c0.3-0.4,3.2-5.6,8.8-15.7
		v-0.1l-5.9-0.1c-0.2,0.2-1.2,1.9-3,5.2h-7.1c-0.9-0.1-1.2-0.4-1.2-0.9v-0.4c0.2-0.6,1.9-3.6,5.1-9.3v-0.1h-6
		c-0.2,0.3-1.7,2.8-4.5,7.7C205.3,514.7,204.4,516.6,204.4,517.5z"/>
	<path class="st20" d="M219.9,532.2h9.7l7.9-13.8h14.8v0.1c-5,8.8-7.6,13.3-7.6,13.6l9.7,0.1h0.1l19.5-34.4l-0.2-0.2h-9.4l-8,13.9
		l-11.2-0.1h-3.7l7.8-13.7v-0.2h-9.7l-11.3,19.6C223.2,526.1,220.4,531.2,219.9,532.2z"/>
</g>
</svg>
