<?xml version="1.0" encoding="utf-8"?>
<!-- Generator: Adobe Illustrator 25.4.1, SVG Export Plug-In . SVG Version: 6.00 Build 0)  -->
<svg version="1.1" id="Layer_1" xmlns="http://www.w3.org/2000/svg" xmlns:xlink="http://www.w3.org/1999/xlink" x="0px" y="0px"
	 viewBox="0 0 1000 1000" style="enable-background:new 0 0 1000 1000;" xml:space="preserve">
<style type="text/css">
	.st0{fill:#FFCCCC;}
	.st1{fill:none;}
	.st2{fill:#093359;}
	.st3{fill:#181C1C;}
	.st4{fill:#006E77;}
	.st5{fill:#73C7C9;}
	.st6{fill:#7A8786;}
	.st7{fill:#5B8E8E;}
	.st8{fill:#6AA8A6;}
	.st9{fill:#F71651;}
	.st10{fill:#E50041;}
	.st11{fill:#ED977A;}
	.st12{fill:#007AA5;}
	.st13{fill:#9B133A;}
	.st14{fill:#BF1440;}
	.st15{fill:#014466;}
	.st16{fill:#006077;}
	.st17{fill:#87001F;}
	.st18{fill:#FFDADA;}
	.st19{fill:#0E5A89;}
	.st20{fill:#FFFFFF;}
	.st21{fill:#FFBC9F;}
	.st22{fill:#00A2EA;}
	.st23{fill:#F4A68C;}
	.st24{fill:#004185;}
	.st25{fill:#C1654D;}
</style>
<rect class="st0" width="998.5" height="998.5"/>
<g>
	<path class="st1" d="M238,565.2c0.1,0.7,0.2,1.3,0.2,2v0.1c0.6-0.7,1.3-1.4,1.9-2.1H238z"/>
	<path class="st1" d="M497.9,192.9c0,0-0.1,0.1-0.1,0.1c0,0,0,0,0.1,0L497.9,192.9z"/>
	<path class="st1" d="M476.5,520.6c28.7,4.9,125.6,23.3,132.1,52.8c6.6,29.9-2,171-4.5,209.2c3.6,1.7,6.1,5.2,6.2,9.4
		c0.2,5.9-4.3,10.8-10.2,11.1l0.1,4.5c17.7,10.5,13,6.5,34.9-1.4c10.8-3.9,18-1,23,4.6c23.1-16.4,43.9-41,56.9-77.7
		c-13.6-2.8-23.8-14.8-23.8-29.2V586c0-16.5,13.4-29.8,29.8-29.8c0.1,0,0.2,0,0.3,0c-3.4-20.6-8.2-42.8-14.2-66.4
		c-0.5,0-0.9,0-1.3-0.1c-4.4-0.6-5-4.9-5-7.5c-2.4-0.1-4.7-0.7-6.8-1.9c-2.1,3.8-6,7.8-11-0.3c-7.7-12.4-12.6-9.4-27.1-8.2
		c-91.4,7.2-136.4-6.4-158.4-19.8c-5.6,4.1-12.1,6.4-18.8,7.1C478.7,482.4,477.8,504.5,476.5,520.6z"/>
	<polygon class="st1" points="466.7,522.4 466.7,522.3 466.6,522.4 	"/>
	<path class="st1" d="M568.4,841.6C568.4,841.6,568.4,841.6,568.4,841.6l0.5,0c0.1,0,0.3,0,0.4,0l-0.1-4c-5.9,0.1-10.8-4.6-11-10.5
		c-0.2-5.4,3.7-10,8.8-11c-19.9-153-17-222.9-17-222.9c-15.1,2.5-28.8,4.7-41.4,6.6c4.2,9.2,6,20.2,4.4,33.4l10.7,207.7
		C523.7,840.8,542.4,843.8,568.4,841.6z"/>
	<path class="st2" d="M479,459.1c6.8-0.7,13.2-3.1,18.8-7.1c-5.8-3.5-10-7-13-10.2c-1.8,1.5-3.7,2.7-5.6,3.8
		C479.1,450.1,479.1,454.6,479,459.1z"/>
	<path class="st2" d="M497.8,237.8c4.7,8.1,6.8,17.2,5.4,26.6c-2,13.7-10.9,24.9-23.3,31.7c0.2,2.6-2.6,5.8-6.9,7.5
		c-4.8,1.9-9.6,1.3-10.7-1.5c0,0,0,0,0-0.1c-1.2,0.2-2.5,0.4-3.8,0.5c-1.2,0.1-2.4,0.2-3.6,0.3l-0.6,4.8c3.4,2.1,6.6,4.8,9.4,8.4
		l0,3.3c3.4,2.4,6.7,7.3,9.3,16.5c14.9,20.5,38,34.7,49.9,41.1c2.1-47.5-6.5-105.3-13.8-144.3C507.3,235.6,502.4,237.6,497.8,237.8z
		"/>
	<path class="st3" d="M266,924.2c-18.3,0-34.4-8.8-44.6-22.4c-30.8-4.4-59.2-9.1-84-13.5c9.6,62.4,63.5,110.2,128.6,110.2
		c54.2,0,100.7-33.2,120.3-80.4c-28.7-1.4-57.3-3.7-85-6.5C291.7,919.5,279.4,924.2,266,924.2z M175.9,924.9
		c-0.3-0.5-0.4-0.7-0.4-0.7C175.7,924.4,175.8,924.7,175.9,924.9c5.1,9.4,61.5,106,164.6,20.7C340.5,945.6,245.8,1059.1,175.9,924.9
		z"/>
	<path class="st4" d="M266,924.2c13.4,0,25.7-4.7,35.3-12.6c-27.7-2.8-54.6-6.2-79.9-9.8C231.6,915.4,247.8,924.2,266,924.2z"/>
	<path class="st3" d="M918.2,849.7c-11.4-34.5-44.4-59.5-83.3-59.5c-43,0-78.8,30.5-86.2,70.7c-6.3,1.1-13.2,1.5-20.3,1.2
		c-7.1,8.2-14.8,15.1-23.1,21c6.5,65.8,62,117.2,129.5,117.2c71.9,0,130.1-58.2,130.1-130.1c0-7-0.6-13.8-1.6-20.4
		C949,852.9,932.3,852.3,918.2,849.7z M779,870.2c0-30.8,25-55.8,55.8-55.8s55.8,25,55.8,55.8s-25,55.8-55.8,55.8S779,901,779,870.2
		z M813.3,973.6c0,0,115.3,27,139.3-111.3C952.6,862.2,952.6,1010.5,813.3,973.6z"/>
	
		<ellipse transform="matrix(1 -7.978214e-03 7.978214e-03 1 -6.9159 6.6878)" class="st4" cx="834.8" cy="870.2" rx="55.8" ry="55.8"/>
	<path class="st4" d="M728.4,862.1c7.1,0.3,14-0.1,20.3-1.2c7.4-40.2,43.2-70.7,86.2-70.7c38.9,0,71.9,25,83.3,59.5
		c14.1,2.5,30.8,3.1,45.1,0c9.6-2.1,18.2-5.9,24.2-12c-17.4-66.9-79.2-116.3-152.6-116.3c-20.8,0-40.6,4-58.7,11.2
		c0,0.4-0.1,0.7-0.1,1C767.7,795.3,751.3,835.6,728.4,862.1z M964.9,803.2c0,0-72.4-73.5-163.8-64.8
		C801.1,738.3,888.5,708,964.9,803.2z"/>
	<path class="st5" d="M964.9,803.2c-76.4-95.2-163.8-64.8-163.8-64.8C892.5,729.7,964.9,803.2,964.9,803.2z"/>
	<path class="st6" d="M175.9,924.9c-0.1-0.2-0.3-0.5-0.4-0.7C175.5,924.2,175.7,924.5,175.9,924.9z"/>
	<path class="st6" d="M175.9,924.9c69.9,134.2,164.6,20.7,164.6,20.7C237.5,1030.9,181.1,934.3,175.9,924.9z"/>
	<path class="st6" d="M813.3,973.6c139.3,37,139.3-111.3,139.3-111.3C928.6,1000.6,813.3,973.6,813.3,973.6z"/>
	<polygon class="st7" points="513,633.1 481.6,650.8 499.4,875.4 523.7,840.8 	"/>
	<path class="st8" d="M721.4,556.2c3.8,0,7.4,0.8,10.7,2.1c-6.4-31.8-13.5-57-17.4-70.3c-2.9,1.1-5.6,1.7-7.5,1.7
		C713.3,513.5,718,535.6,721.4,556.2z"/>
	<path class="st8" d="M568.9,841.6l0.4,0v0C569.2,841.5,569,841.6,568.9,841.6z"/>
	<path class="st8" d="M609,846.4l-9.7,0.3C603.1,848.2,605.3,847.9,609,846.4z"/>
	<path class="st8" d="M566.7,876.8c0-0.8,0.3-1.6,0.6-2.2c-2.9-19.1,1-32.6,1.1-32.9c-26.1,2.2-44.7-0.8-44.7-0.8l-24.3,34.5
		c54.6,12.3,97.7,12.4,131.6,3.7l-59.9,1.9C568.8,881,566.8,879.2,566.7,876.8z"/>
	<path class="st8" d="M721.1,733.7c-2.1,0-4.1-0.2-6-0.6c-13,36.7-33.7,61.3-56.9,77.7c6.5,7.3,8.9,19.1,9.7,25.9
		c1.2,0.7,2.1,2,2.1,3.5c0.1,2.4-1.8,4.3-4.2,4.4l-18.1,0.6c5.9,7.2,8.2,18.2,9.1,24.8c57.4-26.4,80.8-83.9,87.1-147
		C738.6,729.5,730.3,733.7,721.1,733.7z"/>
	<path class="st4" d="M721.1,556.2c-16.5,0-29.8,13.3-29.8,29.8v117.9c0,14.4,10.2,26.4,23.8,29.2c1.9,0.4,3.9,0.6,6,0.6
		c9.2,0,17.5-4.2,22.9-10.8c5.6-56.6-2.4-117.6-11.9-164.6c-3.3-1.3-7-2.1-10.7-2.1C721.3,556.2,721.2,556.2,721.1,556.2z"/>
	<path class="st5" d="M728.4,862.1c22.9-26.6,39.3-66.9,47.6-128.4c0-0.4,0.1-0.7,0.1-1c16.5-124.4-5.3-204.8-18.8-239.9
		c-12,1.1-27.7,0.7-39.9-6c-0.9,0.5-1.8,0.9-2.8,1.2c4,13.2,11,38.5,17.4,70.3c9.5,47,17.5,108,11.9,164.6
		c-6.3,63.1-29.7,120.7-87.1,147c0,0.2,0,0.3,0.1,0.5c1.2,0.7,2.1,2,2.1,3.5c0.1,2.4-1.8,4.3-4.2,4.4l-23.9,0.7
		c-33.9,8.7-77,8.6-131.6-3.7l-17.9-224.6c0,0-232.7,25.2-257.7-17.9c-0.8,0.1-1.6,0.2-2.5,0.2c-2.7,0-5.3-0.7-7.5-1.9
		c-64.7,28.4-125.2,89.7-159.7,210.4c0,0-26.4,26.4,66,43.5c5.5,1,11.3,2.1,17.3,3.1c24.8,4.4,53.2,9.1,84,13.5
		c25.3,3.6,52.2,7,79.9,9.8c27.7,2.8,56.3,5.1,85,6.5c39.7,2,79.6,2.2,118,0c80-4.7,150.9,0.3,201.1-35
		C713.6,877.3,721.3,870.4,728.4,862.1z M438,868.4c-251.6,19.6-344.3-30.9-344.3-30.9s43.5-147.6,172.2-147.6
		C452.7,689.9,438,868.4,438,868.4z"/>
	<path class="st3" d="M241.1,565.2h-1c-0.7,0.7-1.3,1.4-1.9,2.1v49c0,8.4-6.2,15.4-14.4,16.6c25,43.2,257.7,17.9,257.7,17.9
		l31.5-17.7c1.5-13.2-0.2-24.2-4.4-33.4c-120.9,18.1-129.9,8.5-129.9,8.5l0.1-0.1c-27.4-7.2-46.5-30.7-49.1-57.7
		c-34.7-10.6-61.4-6-79.6,6.4C249.6,561.6,245.8,565.2,241.1,565.2z"/>
	<path class="st4" d="M223.9,632.8c8.1-1.2,14.4-8.1,14.4-16.6v-49v-0.1c0-0.7-0.1-1.3-0.2-2h2.1h1c4.7,0,8.5-3.6,8.9-8.2
		c0-0.3,0.1-0.5,0.1-0.7c0-3.7-2.2-6.9-5.4-8.2c-3,0.9-6.4,1.5-10.4,1.5H134.1c-1,1-2.4,1.6-4,1.6c-1.5,0-2.9-0.6-4-1.6H38.3
		c-1.8,0-3.5-0.1-5-0.3c-0.5-0.1-0.9-0.2-1.3-0.2c-1-0.2-2.1-0.4-3-0.7c-0.5-0.1-0.9-0.3-1.3-0.4c-0.1,0-0.1,0-0.2-0.1
		c-3.5,1.2-6,4.5-6,8.4c0,5,4,9,9,9h174.3c-0.1,0.7-0.2,1.3-0.2,2v49.1c0,6.6,3.8,12.2,9.3,15c2.3,1.2,4.8,1.9,7.5,1.9
		C222.2,633.1,223.1,633,223.9,632.8z"/>
	<path class="st9" d="M88.1,366.8c0.2-0.4,0.3-0.6,0.3-0.8c0-0.3-0.3-0.4-0.9-0.4H85l-1.3,2.3v0h2.6
		C87.2,367.9,87.9,367.6,88.1,366.8z"/>
	<path class="st9" d="M50.4,363.4l-3.7,2.3h-5.2l-0.8,1.4h3.6v0.1c-1.9,1.2-3,1.8-3.1,1.8h-1.5c-0.3,0.5-0.6,1-0.7,1.3h7.6
		c0.3-0.6,0.7-1.3,1.2-2.2L50.4,363.4z"/>
	<path class="st9" d="M69.5,453.5c16.9-10.1,35.6-16.9,54.9-22v-126c0-1.3,0.5-2.5,1.2-3.4H38.3c-26.2,0-25.9,21.3-25.9,47.5v152.4
		c0,10.9,0,20.8,1.8,28.8c0.4-0.7,0.7-1.4,1-2.3C24.6,496.6,40.5,470.8,69.5,453.5z M110.9,372.5h-9.3c-0.3,0-0.6-0.6-0.6-1.4
		c0-0.8,0.3-1.4,0.6-1.4h9.3c0.3,0,0.6,0.6,0.6,1.4C111.5,371.9,111.2,372.5,110.9,372.5z M104,363.2h7c0.3,0,0.5,0.5,0.5,1.1
		c0,0.6-0.2,1.1-0.5,1.1h-7c-0.3,0-0.5-0.5-0.5-1.1C103.5,363.7,103.7,363.2,104,363.2z M103,366.3h8c0.3,0,0.5,0.5,0.5,1.2
		c0,0.6-0.2,1.2-0.5,1.2h-8c-0.3,0-0.5-0.5-0.5-1.2C102.5,366.8,102.7,366.3,103,366.3z M95.8,363.3L95.8,363.3
		c-1.4,2.8-2.2,4.2-2.2,4.3v0.1c0.1,0.2,0.2,0.3,0.4,0.3h0.7l1.4,0c0.7,0,1.3-0.3,1.7-0.9c1.2-2.3,1.9-3.5,2-3.7h0.3l2.1,0l0,0
		c-1.7,3.2-2.6,4.9-2.7,5.1c-0.9,1.1-2,1.7-3.3,1.7h-0.2l-1.3,2.3l0,0h0l-2.5,0l0,0l1.2-2.3v0h-1.4c-0.8-0.1-1.3-0.3-1.5-0.8
		c-0.1-0.1-0.1-0.2-0.1-0.4V369c0-0.4,0.4-1.2,1.1-2.3l1.9-3.4H95.8z M83.7,363.3L83.7,363.3C83.7,363.3,83.7,363.3,83.7,363.3
		l6.3,0c0.9,0,1.4,0.3,1.7,0.9c0,0.1,0.1,0.2,0.1,0.4c0,0.4-0.4,1.2-1.1,2.4c-0.5,1.1-1.1,1.8-1.7,2l-0.7,0.1v0
		c0.4,0,0.7,0.2,0.8,0.5l0,0.1c0,0.2-0.3,0.9-1,2.1c-0.3,0.5-0.4,0.8-0.5,0.8H85v-0.1l1.2-2.3h-3.8c-0.8,1.5-1.3,2.3-1.3,2.3h-2.4h0
		H68.5l0,0h0l5.1-9.2H83.7z M66,363.4L66,363.4L66,363.4l-3.7,6.9h2.8c0.8,0,1.5-0.8,2.2-2.3l2.5-4.6h2.3l0.1,0.1
		c-2.3,4.4-3.6,6.7-3.8,7.2c-1,1.3-2.3,1.9-3.8,1.9h-6.1c0-0.1,1.4-2.5,4-7.3c0.6-1.1,0.9-1.7,1-1.8H66z M50.4,363.3L50.4,363.3
		L50.4,363.3L50.4,363.3H53v0.1l-3.8,6.8h7.3c0.8-1.5,2.1-3.8,3.7-6.8h2.5l0.1,0.1l-5,9.1h-2.5c0.1-0.2,0.4-0.8,1-1.8l-3.1,1.8h-7.6
		h-0.1H35.3l0,0h0l5.1-9.2H50.4z M27.9,368l2.6-4.7h6.3c1.2,0.1,1.8,0.5,1.8,1.2v0.1c0,0.4-0.3,1-0.8,1.9c-1.4,2.6-2.2,4-2.4,4.3
		c-0.9,1.1-2.1,1.6-3.6,1.6h-6.2C25.4,372.4,26.3,370.9,27.9,368z M20.4,374.9h84c1.2,0,2.2,1,2.2,2.2s-1,2.2-2.2,2.2h-84
		c-1.2,0-2.2-1-2.2-2.2S19.2,374.9,20.4,374.9z"/>
	<path class="st9" d="M33.5,369.4c0.5-0.7,1-1.7,1.7-3l0-0.2v0c0-0.3-0.2-0.4-0.5-0.4h-2.9c-0.2,0.3-1.1,1.9-2.6,4.6h0.1l2.8,0
		C32.5,370.2,33,369.9,33.5,369.4z"/>
	<path class="st9" d="M79.9,365.7h-5.2l-0.8,1.4h3.6v0.1c-1.9,1.2-3,1.8-3.1,1.8H73c-0.3,0.5-0.6,1-0.7,1.3h7.6
		c2.3-4.2,3.5-6.5,3.8-6.9L79.9,365.7z"/>
	<path class="st9" d="M135.8,428.7c14.3-3.3,28.8-5.9,42.8-8.3c29.9-5.2,59.3-12,83.8-29v-41.8c0-26.2-1.9-47.5-28.2-47.5h-99.7
		c0.7,1,1.2,2.1,1.2,3.4V428.7z"/>
	<path class="st9" d="M25.2,546.8c0.7,0.4,1.5,0.7,2.3,1c0.1,0,0.1,0,0.2,0.1C26.8,547.5,25.9,547.2,25.2,546.8z"/>
	<path class="st10" d="M135.8,428.7v116.7c0,1.6-0.7,3-1.7,4.1h100.2c4,0,7.4-0.6,10.4-1.5c16.3-5.2,17.8-23.8,17.8-46V391.4
		c-24.5,17-54,23.8-83.8,29C164.6,422.8,150.1,425.4,135.8,428.7z M170.6,494.1l0.1,0.1c-1.8,3.7-2.8,5.5-2.9,5.5h-22.3
		c0.1-0.3,1.7-3.3,4.9-8.9c1.8-1.8,3.5-3,5-3.6c1.5-0.5,2.7-0.8,3.6-0.8l6-0.1l0.1,0.1h0.1c1.7-0.2,3.4-0.9,5-2
		c0.5-0.6,0.8-1.1,0.8-1.4H155V483c6.2-3.7,9.3-5.6,9.5-5.6h9.7c2.1,0,3.4,0.9,4,2.6l0.1,0.6c0,1.2-1.1,3.4-3.4,6.7
		c-2.4,2.4-5.2,3.6-8.5,3.6h-5.9c-1.3,0-2.8,0.7-4.4,2.1l-0.9,1H170.6z M222.3,470.3v0.2l-8.2,14.4h3.9l11.8,0.1l8.4-14.7h9.9
		l0.2,0.2l-20.6,36.3h-0.1l-10.2-0.1c0-0.3,2.7-5,8-14.3v-0.1h-15.6l-8.3,14.5h-10.2c0.5-1.1,3.4-6.4,8.8-15.8l11.8-20.7H222.3z
		 M188.7,477.4L188.7,477.4c-3.4,6-5.2,9.3-5.4,9.9v0.4c0,0.5,0.4,0.8,1.3,0.9h7.5c1.9-3.5,3-5.3,3.2-5.5l6.2,0.1v0.1
		c-5.9,10.6-9,16.1-9.3,16.5h-3.2l-3.2,0.1l-0.1-0.1l3.1-5.4v-0.1H179c-2,0-3.2-0.6-3.8-1.7l-0.1-0.9v-0.3c0-1,0.9-3,2.6-5.8
		c2.9-5.1,4.5-7.8,4.7-8.1H188.7z"/>
	<path class="st10" d="M28.9,548.2c0.9,0.3,2,0.5,3,0.7c0.5,0.1,0.9,0.2,1.3,0.2c1.6,0.2,3.2,0.3,5,0.3h87.8c-1.1-1-1.7-2.5-1.7-4.1
		V431.5c-19.3,5.1-38.1,11.9-54.9,22c-29,17.3-44.9,43.1-54.3,75c-0.3,0.9-0.6,1.6-1,2.3c0,0,0,0,0,0c0.2,1.1,0.5,2.1,0.8,3.1
		c0.1,0.3,0.2,0.6,0.3,1c0.3,0.9,0.7,1.8,1.1,2.7c0.2,0.4,0.3,0.7,0.5,1.1c0.6,1.1,1.2,2.1,1.9,3c0,0,0.1,0.1,0.1,0.1
		c0.7,0.9,1.5,1.7,2.3,2.4c0.2,0.2,0.5,0.4,0.7,0.5c0.7,0.6,1.4,1.1,2.2,1.5c0.3,0.2,0.7,0.4,1,0.6c0.8,0.4,1.6,0.7,2.5,1
		C28.1,548,28.5,548.1,28.9,548.2z"/>
	<path class="st3" d="M124.4,431.5v113.9c0,1.6,0.7,3,1.7,4.1c1,1,2.4,1.6,4,1.6c1.5,0,2.9-0.6,4-1.6c1.1-1,1.7-2.5,1.7-4.1V428.7
		V305.5c0-1.3-0.5-2.5-1.2-3.4c-1-1.4-2.7-2.2-4.5-2.2c-1.8,0-3.5,0.9-4.5,2.2c-0.7,1-1.2,2.1-1.2,3.4V431.5z"/>
	<path class="st4" d="M265.9,689.9c-128.6,0-172.2,147.6-172.2,147.6s92.7,50.5,344.3,30.9C438,868.4,452.7,689.9,265.9,689.9z
		 M367.1,780.3c0,0-100.5,20.4-162.6-20.5C204.6,759.8,296.1,782.3,367.1,780.3z M384.9,813.2c-136.8,12.2-209.4-20.5-209.4-20.5
		C238.9,809.7,384.9,813.2,384.9,813.2z M319.4,701.5c0,0-108.2-16.6-208.5,121.2C110.9,822.7,169,672.3,319.4,701.5z M137.3,822.7
		c0,0,100.5,36.9,270.6,14.9C407.8,837.5,249.4,885.5,137.3,822.7z"/>
	<path class="st5" d="M319.4,701.5C169,672.3,110.9,822.7,110.9,822.7C211.2,685,319.4,701.5,319.4,701.5z"/>
	<path class="st5" d="M137.3,822.7c112.2,62.9,270.6,14.9,270.6,14.9C237.7,859.5,137.3,822.7,137.3,822.7z"/>
	<path class="st5" d="M384.9,813.2c0,0-146-3.5-209.4-20.5C175.5,792.7,248.2,825.4,384.9,813.2z"/>
	<path class="st5" d="M367.1,780.3c-71,2-162.6-20.5-162.6-20.5C266.6,800.7,367.1,780.3,367.1,780.3z"/>
	<path class="st4" d="M725.3,456.8c8.7,16.3,0.6,25.7-7.9,30.1c12.2,6.7,27.9,7.1,39.9,6c5.7-0.5,10.6-1.4,13.8-2.1
		c-0.7-1-1.1-2.2-1.1-3.5v-74.8c0-0.1,0-0.1,0-0.2c-28.1-1.8-44.7,7.5-54.5,19c-2.6,3.1-4.7,6.3-6.5,9.5
		C714.3,442.6,720.2,447,725.3,456.8z"/>
	<path class="st5" d="M770,487.3c0,1.3,0.4,2.5,1.1,3.5c1.1,1.5,2.9,2.5,4.9,2.5c3.3,0,6-2.7,6-6v-74.8c0-3.3-2.7-6-6-6
		c-3.3,0-5.9,2.6-6,5.8c0,0.1,0,0.1,0,0.2V487.3z"/>
	<path class="st11" d="M677.4,445.1c-0.6-6.5,3.5-12.8,10.1-14.6c7.3-2.1,14.8,2,17.1,9.2c1.4,0.1,2.9,0.5,4.5,1
		c1.7-3.2,3.9-6.4,6.5-9.5c-16.6-24.7-44-4.4-44-4.4c-97.2,26.6-140.8-9.6-151-20c-2.5,4-5.7,8.2-9.6,12.3
		C532.3,436,583.9,464,677.4,445.1z"/>
	<path class="st4" d="M704.6,439.7c-2.3-7.1-9.8-11.2-17.1-9.2c-6.5,1.9-10.6,8.1-10.1,14.6c5.5-1.1,11.1-2.3,16.8-3.8
		C694.2,441.4,698.5,439,704.6,439.7z"/>
	<path class="st12" d="M473.1,335.9c0.4,1.5,0.8,3,1.2,4.7c1.3,6,2.4,15.5,3.1,27L513,406c0,0-2.3,4.2-6,9.9c1.2,1,2.5,2.1,3.9,3.2
		c3.9-4.1,7-8.2,9.6-12.3c8.7-13.8,10.2-25.9,10.2-25.9s-3-1.4-7.7-3.9C511.1,370.6,488,356.5,473.1,335.9z"/>
	<path class="st13" d="M455.1,316.6l0,1.3c2.6-0.7,5.7-0.6,8.7,1.5l0-3.3c-2.8-3.6-6-6.3-9.4-8.4l-0.9,7.1
		C454,315.3,454.6,315.9,455.1,316.6z"/>
	<path class="st14" d="M466.6,522.4L466.6,522.4C466.7,522.3,466.7,522.3,466.6,522.4L466.6,522.4z"/>
	<path class="st14" d="M479.2,445.6c-2.9,1.6-5.8,2.8-8.8,3.2c-0.1,20-0.7,43.3-1.9,70.5c0,0,3,0.4,8,1.3
		c1.3-16.1,2.1-38.1,2.5-61.5C479.1,454.6,479.1,450.1,479.2,445.6z"/>
	<path class="st14" d="M455.2,317.9l0.1,11c1.8,0.5,6.5,4.1,10.2,25.9l11.9,12.8c-0.8-11.5-1.8-20.9-3.1-27
		c-0.4-1.7-0.8-3.2-1.2-4.7c-2.6-9.2-5.9-14.2-9.3-16.5C460.8,317.3,457.8,317.2,455.2,317.9z"/>
	<path class="st15" d="M604.2,782.6c2.5-38.2,11.1-179.3,4.5-209.2c-6.5-29.5-103.4-48-132.1-52.8c-5-0.9-8-1.3-8-1.3
		s-0.5,1.3-1.8,3.1l0,0h0l0,0c-1.3,1.7-3.5,3.7-6.8,5.6c0.2,0.6,0.3,1.2,0.4,1.8c21.7,1.4,130.2,10.9,137.8,63.4
		c5.6,39.2-1,131.8-6,188.5l7.2-0.2C601,781.4,602.7,781.9,604.2,782.6z"/>
	<path class="st16" d="M600.4,807.7l-0.1-4.5c-0.1,0-0.2,0-0.4,0l-9.9,0.3c-0.1,1.4-0.3,2.7-0.4,4l10.1-0.3
		C599.9,807.4,600.1,807.5,600.4,807.7z"/>
	<path class="st17" d="M599.4,825.7c0.2,5.9-4.3,10.8-10.2,11.1l0,1.5l76.3-2.4c0.9,0,1.6,0.3,2.3,0.7c-0.8-6.8-3.2-18.6-9.7-25.9
		c-4.9-5.5-12.2-8.5-23-4.6c-21.9,7.9-17.2,11.9-34.9,1.4c-0.3-0.1-0.5-0.3-0.7-0.4l-10.1,0.3c-0.3,2.8-0.5,5.4-0.7,7.7
		C594.6,815.4,599.3,819.9,599.4,825.7z"/>
	<path class="st18" d="M589.3,838.4l0.1,3c4.4,2.6,7.5,4.3,9.8,5.3l9.7-0.3c3.3-1.4,7.6-3.6,15.4-6.4c11.2-4,18.6-0.7,23.5,5.2
		l18.1-0.6c2.4-0.1,4.2-2.1,4.2-4.4c0-1.5-0.9-2.8-2.1-3.5c-0.7-0.4-1.4-0.7-2.3-0.7L589.3,838.4z"/>
	<path class="st2" d="M600.3,803.2c5.8-0.4,10.3-5.3,10.2-11.1c-0.1-4.2-2.7-7.8-6.2-9.4c-1.5-0.7-3.2-1.1-5-1.1l-7.2,0.2
		c-0.7,8.1-1.4,15.4-2,21.8l9.9-0.3C600,803.2,600.1,803.2,600.3,803.2z"/>
	<path class="st19" d="M378.7,608.2L378.7,608.2c-0.1,0.1,9,9.6,129.9-8.4c12.6-1.9,26.3-4,41.4-6.6c0,0-2.9,69.9,17,222.9
		c0.6-0.1,1.1-0.2,1.7-0.2l19.5-0.6c0.2,0,0.4,0,0.6,0c0.2-2.3,0.5-4.9,0.7-7.7c0.1-1.3,0.3-2.6,0.4-4c0.6-6.4,1.3-13.7,2-21.8
		c5-56.7,11.7-149.4,6-188.5c-7.6-52.5-116.1-62.1-137.8-63.4c-0.1-0.6-0.3-1.2-0.4-1.8c-3.5,1.9-8.4,3.5-15.1,4.2
		c-0.3,0.8-0.5,1.7-0.8,2.5c0,0,0,0,0,0c-1.5,4.4-3.3,8.5-5.5,12c0,0,0,0,0,0.1c-0.7,1.1-1.5,2.2-2.3,3.3c-0.2,0.2-0.4,0.4-0.5,0.6
		c-0.2,0.3-0.5,0.6-0.7,0.9c-0.5,0.5-0.9,1.1-1.4,1.6c-0.3,0.3-0.6,0.5-0.8,0.8c-0.4,0.4-0.8,0.8-1.2,1.2c-0.3,0.3-0.6,0.5-0.9,0.8
		c-0.3,0.3-0.7,0.5-1.1,0.8c-0.7,0.6-1.5,1.1-2.3,1.6c-0.4,0.3-0.9,0.5-1.3,0.8c-0.8,0.5-1.6,0.9-2.4,1.3c-0.5,0.2-1,0.5-1.6,0.7
		c-0.9,0.4-1.7,0.7-2.6,1c-0.6,0.2-1.2,0.4-1.8,0.6c-0.9,0.3-1.9,0.6-2.9,0.8c-0.7,0.2-1.3,0.3-2,0.5c-1,0.2-2.1,0.4-3.1,0.6
		c-0.7,0.1-1.5,0.2-2.2,0.3c-1.1,0.1-2.3,0.3-3.4,0.4c-0.8,0.1-1.6,0.2-2.5,0.2c-1.2,0.1-2.5,0.1-3.8,0.1c-0.9,0-1.7,0.1-2.6,0
		c-1.4,0-2.8-0.1-4.3-0.1c-0.9,0-1.8,0-2.7-0.1c-1.6-0.1-3.4-0.3-5.1-0.4c-0.8-0.1-1.7-0.1-2.5-0.2c-2.6-0.3-5.4-0.6-8.3-1
		c-2.2-0.3-4.3-0.7-6.3-1.1c-0.7-0.1-1.3-0.3-2-0.4c-1.3-0.3-2.5-0.6-3.7-0.9c-0.7-0.2-1.4-0.4-2.1-0.6c-1-0.3-2-0.6-2.9-0.9
		c-0.7-0.2-1.4-0.5-2.1-0.7c-0.8-0.3-1.7-0.6-2.4-1c-0.7-0.3-1.3-0.6-1.9-0.9c-0.7-0.3-1.4-0.7-2-1c-0.6-0.3-1.2-0.6-1.8-1
		c-0.6-0.4-1.1-0.7-1.7-1.1c-0.6-0.4-1.1-0.7-1.6-1.1c-0.5-0.4-0.9-0.7-1.3-1.1c-0.5-0.4-1-0.8-1.5-1.3c-0.3-0.3-0.5-0.6-0.8-0.9
		c-1.2-1.2-2.2-2.5-3.1-3.9c-0.1-0.1-0.1-0.2-0.2-0.3c-0.4-0.7-0.7-1.4-1.1-2.1c-0.1-0.3-0.3-0.6-0.4-0.8c-0.3-0.7-0.6-1.4-0.8-2.1
		c-0.1-0.3-0.2-0.6-0.3-0.9c-0.2-0.7-0.4-1.5-0.6-2.2c-0.1-0.3-0.1-0.6-0.2-0.9c-0.1-0.8-0.3-1.6-0.4-2.4c0-0.3-0.1-0.6-0.1-0.9
		c0-0.1,0-0.3,0-0.4c-1.1,6-1.3,11.9-0.7,17.7C332.2,577.5,351.3,601,378.7,608.2z"/>
	<path class="st16" d="M589.3,836.9c-0.1,0-0.2,0-0.4,0l-19.5,0.6c-0.1,0-0.2,0-0.2,0l0.1,4v0l19.4-0.6c0.3,0.2,0.5,0.3,0.7,0.4
		l-0.1-3L589.3,836.9z"/>
	<path class="st17" d="M624.3,840c-7.7,2.8-12.1,5.1-15.4,6.4c-3.7,1.5-5.9,1.9-9.7,0.3c-2.4-1-5.4-2.7-9.8-5.3
		c-0.3-0.2-0.5-0.3-0.7-0.4l-19.4,0.6l-0.4,0l-0.5,0c0,0,0,0,0,0c-0.1,0.3-4,13.8-1.1,32.9c0.7-1.2,2-2.1,3.5-2.2l83.8-2.6
		c0.9,0,1.6,0.3,2.3,0.7c0-0.1,0-0.3-0.1-0.5c-0.9-6.6-3.1-17.6-9.1-24.8C642.9,839.3,635.5,835.9,624.3,840z"/>
	<path class="st18" d="M570.9,872.4c-1.5,0-2.8,0.9-3.5,2.2c-0.4,0.7-0.7,1.4-0.6,2.2c0.1,2.4,2.1,4.2,4.4,4.2l59.9-1.9l23.9-0.7
		c2.4-0.1,4.2-2.1,4.2-4.4c0-1.5-0.9-2.8-2.1-3.5c-0.7-0.4-1.4-0.7-2.3-0.7L570.9,872.4z"/>
	<path class="st2" d="M558.2,827c0.2,5.9,5.1,10.6,11,10.5c0.1,0,0.1,0,0.2,0l19.5-0.6c0.1,0,0.2,0,0.4,0
		c5.8-0.4,10.3-5.3,10.2-11.1c-0.2-5.8-4.9-10.3-10.6-10.5c-0.2,0-0.4,0-0.6,0l-19.5,0.6c-0.6,0-1.2,0.1-1.7,0.2
		C561.9,817,558,821.6,558.2,827z"/>
	<path class="st20" d="M455.3,328.9v0.1c4,6.3,6.9,14.5,8.8,24.2l1.4,1.5C461.8,333,457.1,329.4,455.3,328.9z"/>
	<path class="st20" d="M466.6,522.4C466.7,522.3,466.7,522.3,466.6,522.4c1.4-1.8,1.9-3.1,1.9-3.1c1.2-27.2,1.8-50.5,1.9-70.5
		c-0.8,0.1-1.6,0.2-2.4,0.2l-7-10.3c-0.8,4.4-1.7,8.9-2.8,13.5c-7,31.5-7.4,59.6-13.5,80c6.7-0.6,11.6-2.2,15.1-4.2
		C463.2,526.1,465.3,524,466.6,522.4z"/>
	<path class="st11" d="M453.5,314.7l0.9-7.1l0.6-4.8c-3.9,0.2-7.8,0.1-11.9-0.5c0,0,0,0,0,0c-6.2-0.9-12-2.7-17.3-5.1
		c-0.3,1.6-0.5,3.3-0.8,5C433.5,302.7,445,305.3,453.5,314.7z"/>
	<path class="st10" d="M436.8,315.1c7.7,1.7,13.8,6.6,18.4,13.9v-0.1l-0.1-11l0-1.3c-0.5-0.7-1.1-1.3-1.7-1.9
		c-8.4-9.4-20-12.1-28.5-12.5c-0.6,4-1.3,8-2.1,12.1C427.3,313.8,431.9,314,436.8,315.1z"/>
	<path class="st9" d="M443.9,534.6c0.3-0.8,0.5-1.7,0.8-2.5c6.1-20.4,6.5-48.5,13.5-80c1-4.5,1.9-9,2.8-13.5l-29.1-42.8
		c-3,0.6-6.1,0.6-9.2,0c-6.5-1.5-11.9-5.9-15.5-12.1c-8.5,29-19.3,54.5-32.8,68.5c-8.7,9-17.8,13.4-26.9,14.8
		c-8,23.5-16.3,43.8-17.2,59.8C357.1,541.5,411.7,540.6,443.9,534.6z"/>
	<path class="st9" d="M330.2,530.5c0,0.8,0.1,1.5,0.1,2.2c0,0.1,0,0.3,0,0.4C330.3,532.3,330.3,531.4,330.2,530.5z"/>
	<path class="st9" d="M443.9,534.6c-1.5,4.4-3.3,8.5-5.5,12C440.6,543.1,442.4,539.1,443.9,534.6z"/>
	<path class="st9" d="M431.3,555c0.4-0.4,0.8-0.8,1.2-1.2c-0.7,0.7-1.4,1.3-2.2,1.9C430.7,555.5,431,555.2,431.3,555z"/>
	<path class="st9" d="M434.8,551.4c0.2-0.3,0.5-0.6,0.7-0.9c-0.7,0.8-1.4,1.6-2.1,2.4C433.9,552.5,434.3,552,434.8,551.4z"/>
	<path class="st9" d="M439.9,318.3c12.2,2.7,20.2,15.7,20.9,31.4l3.3,3.5c-1.9-9.7-4.8-17.9-8.8-24.2c-4.7-7.4-10.8-12.2-18.4-13.9
		c-4.9-1.1-9.6-1.3-13.9-0.8c-0.5,2.6-0.9,5.2-1.4,7.8C427.2,318.4,433.7,316.9,439.9,318.3z"/>
	<path class="st14" d="M424.5,387.8c-6.7-1.5-11.8-6.8-14.5-14.1c-0.9,3.4-1.8,6.7-2.8,10c3.7,6.2,9,10.6,15.5,12.1
		c3,0.7,6.1,0.6,9.2,0l-5.2-7.7C425.9,388.1,425.2,388,424.5,387.8z"/>
	<path class="st14" d="M438.2,326.2c7,1.5,12.2,7.3,14.8,15l7.8,8.4c-0.6-15.8-8.7-28.7-20.9-31.4c-6.3-1.4-12.7,0.2-18.4,3.9
		c-0.6,3.4-1.3,6.9-2,10.3C425,327.3,431.6,324.8,438.2,326.2z"/>
	<path class="st14" d="M330.5,534.1c0.1,0.8,0.2,1.6,0.4,2.4c0.1,0.3,0.1,0.6,0.2,0.9c0.2,0.8,0.3,1.5,0.6,2.2
		c0.1,0.3,0.2,0.6,0.3,0.9c0.2,0.7,0.5,1.4,0.8,2.1c0.1,0.3,0.3,0.6,0.4,0.8c0.3,0.7,0.7,1.4,1.1,2.1c0.1,0.1,0.1,0.2,0.2,0.3
		c0.9,1.4,1.9,2.7,3.1,3.9c0.3,0.3,0.5,0.6,0.8,0.9c0.5,0.4,1,0.9,1.5,1.3c0.4,0.4,0.9,0.7,1.3,1.1c0.5,0.4,1.1,0.8,1.6,1.1
		c0.5,0.4,1.1,0.7,1.7,1.1c0.6,0.3,1.2,0.7,1.8,1c0.7,0.4,1.3,0.7,2,1c0.6,0.3,1.3,0.6,1.9,0.9c0.8,0.3,1.6,0.6,2.4,1
		c0.7,0.2,1.4,0.5,2.1,0.7c0.9,0.3,1.9,0.6,2.9,0.9c0.7,0.2,1.4,0.4,2.1,0.6c1.2,0.3,2.5,0.6,3.7,0.9c0.7,0.1,1.3,0.3,2,0.4
		c2,0.4,4.1,0.8,6.3,1.1c2.9,0.4,5.6,0.8,8.3,1c0.9,0.1,1.7,0.1,2.5,0.2c1.7,0.2,3.5,0.3,5.1,0.4c0.9,0.1,1.8,0.1,2.7,0.1
		c1.5,0.1,2.9,0.1,4.3,0.1c0.9,0,1.8,0,2.6,0c1.3,0,2.6-0.1,3.8-0.1c0.8,0,1.6-0.1,2.5-0.2c1.2-0.1,2.3-0.2,3.4-0.4
		c0.8-0.1,1.5-0.2,2.2-0.3c1.1-0.2,2.1-0.4,3.1-0.6c0.7-0.2,1.4-0.3,2-0.5c1-0.3,1.9-0.5,2.9-0.8c0.6-0.2,1.2-0.4,1.8-0.6
		c0.9-0.3,1.8-0.7,2.6-1c0.5-0.2,1.1-0.5,1.6-0.7c0.8-0.4,1.6-0.8,2.4-1.3c0.4-0.3,0.9-0.5,1.3-0.8c0.8-0.5,1.5-1,2.3-1.6
		c0.4-0.3,0.7-0.5,1.1-0.8c0.8-0.6,1.5-1.3,2.2-1.9c0.3-0.3,0.6-0.5,0.8-0.8c0.8-0.8,1.5-1.6,2.1-2.4c0.2-0.2,0.4-0.4,0.5-0.6
		c0.8-1,1.6-2.1,2.3-3.3c0,0,0,0,0-0.1c2.3-3.6,4.1-7.6,5.5-12c0,0,0,0,0,0c-32.2,6-86.8,6.9-113.6-7.8c0,0,0,0,0,0
		c-0.1,1-0.1,2-0.1,3c0,0.2,0,0.4,0,0.7c0,0.9,0.1,1.8,0.2,2.7C330.4,533.5,330.4,533.8,330.5,534.1z"/>
	<path class="st21" d="M725.3,456.8c-5.2-9.7-11.1-14.2-16.3-16c-1.6-0.5-3.1-0.9-4.5-1c-6-0.6-10.4,1.7-10.4,1.7
		c-5.8,1.4-11.3,2.7-16.8,3.8c-93.4,18.9-145.1-9.1-166.4-26c-1.4-1.1-2.8-2.2-3.9-3.2c-5.2,7.9-13.2,18.8-22.2,25.9
		c3,3.1,7.2,6.6,13,10.2c22,13.4,67,27,158.4,19.8c14.5-1.1,19.4-4.2,27.1,8.2c5,8.1,8.9,4.1,11,0.3c-3-1.8-5.3-4.6-6.3-8.2
		c-2.1-7.4,2.2-15.2,9.6-17.3c7.4-2.1,15.2,2.2,17.3,9.6c2.1,7.4-2.2,15.2-9.6,17.3c-1.4,0.4-2.8,0.5-4.2,0.5
		c-0.1,2.6,0.5,6.9,5,7.5c0.4,0.1,0.8,0.1,1.3,0.1c1.9,0,4.6-0.6,7.5-1.7c0.9-0.4,1.8-0.8,2.8-1.2C725.9,482.5,734,473,725.3,456.8z
		"/>
	<path class="st4" d="M705.2,481.7c7.4-2.1,11.7-9.9,9.6-17.3c-2.1-7.4-9.9-11.7-17.3-9.6c-7.4,2.1-11.7,9.9-9.6,17.3
		c1,3.6,3.4,6.4,6.3,8.2c2,1.2,4.4,1.9,6.8,1.9C702.4,482.2,703.8,482.1,705.2,481.7z"/>
	<path class="st22" d="M470.4,448.7c2.9-0.4,5.9-1.5,8.8-3.2c1.9-1.1,3.8-2.4,5.6-3.8c9-7.1,17-18,22.2-25.9c3.8-5.7,6-9.9,6-9.9
		l-35.6-38.4l-11.9-12.8l-1.4-1.5l-3.3-3.5l-7.8-8.4c-2.6-7.7-7.9-13.5-14.8-15c-6.5-1.4-13.2,1.1-18.6,6.2
		c-0.4,2.1-0.8,4.2-1.3,6.2c-0.9,4.6-1.9,9.2-3,13.8c-1.6,7.1-3.4,14.2-5.2,21.2c2.7,7.3,7.8,12.6,14.5,14.1
		c0.7,0.2,1.4,0.3,2.1,0.3l5.2,7.7l29.1,42.8l7,10.3C468.8,448.9,469.6,448.9,470.4,448.7z"/>
	<path class="st2" d="M497.8,193c1.9,1.2,2.7,3,1.8,5.8c0,0-0.9,1.1-2.4,2.7c0.1,4-0.1,8.2-0.7,12.3c-0.5,3.2-1.2,6.3-2,9.3
		c0.9-0.5,1.8-1.1,2.9-1.8c3-1.9,7.1-1.3,9.8,1.2c-3.1-15.6-5.7-27-6.7-31.5c-0.9,0.6-1.7,1.3-2.6,1.9L497.8,193z"/>
	<path class="st23" d="M497.4,221.3c-1,0.7-2,1.2-2.9,1.8c-0.7,2.4-1.4,4.7-2.3,6.9c2.1,2.4,4,5.1,5.6,7.8c4.6-0.2,9.5-2.2,11.4-5.1
		c0.4-0.6,0.7-1.2,0.8-1.8c0.5-3.7-0.7-6.6-2.7-8.4C504.5,220,500.4,219.4,497.4,221.3z"/>
	<path class="st21" d="M443.1,302.3c4,0.6,8,0.7,11.9,0.5c1.2-0.1,2.4-0.1,3.6-0.3c1.3-0.1,2.5-0.3,3.8-0.5
		c-0.2-0.5-0.2-0.9-0.2-1.4c-12.8-2.9-19.2-23.2-22.5-44.3c-1.3,3.3-2.1,6.2-2.2,8.4l-0.1-13.9l0-4.9c-1.7,0-3.2-0.1-4.7-0.4
		c-0.1,1.3-0.3,2.7-0.5,4.1c-1.4,12.2-3.5,28.9-6.4,47.6C431.1,299.6,436.9,301.4,443.1,302.3C443.1,302.3,443.1,302.3,443.1,302.3z
		"/>
	<path class="st21" d="M462,218.2c0,0-4.8,6.7-10.1,15.3c-0.9,1.4-1.7,2.8-2.6,4.3c0,3.2,0.1,6.3,0.3,9.2
		c1.7,31,10.1,43.2,17.2,47.8c0.7-0.4,1.4-0.8,2.2-1.1c4.8-1.9,9.6-1.3,10.7,1.5c0.1,0.3,0.2,0.6,0.2,0.9
		c12.4-6.7,21.3-18,23.3-31.7c1.3-9.4-0.7-18.5-5.4-26.6c-1.6-2.7-3.5-5.3-5.6-7.8c0.9-2.2,1.7-4.5,2.3-6.9c0.9-3,1.6-6.1,2-9.3
		c0.6-4.2,0.8-8.3,0.7-12.3C491.6,207.4,476.8,221.1,462,218.2z"/>
	<path class="st24" d="M436.4,212.9c-0.1,0-0.2,0-0.3,0c0.1,0,0.2,0.1,0.3,0.1C436.4,213,436.4,213,436.4,212.9z"/>
	<path class="st24" d="M407.2,383.7c1-3.3,1.9-6.7,2.8-10c1.9-7,3.6-14.1,5.2-21.2c1-4.6,2-9.2,3-13.8c0.4-2.1,0.9-4.2,1.3-6.2
		c0.7-3.5,1.4-6.9,2-10.3c0.5-2.6,1-5.2,1.4-7.8c0.7-4.1,1.4-8.2,2.1-12.1c0.3-1.7,0.5-3.4,0.8-5c3-18.7,5.1-35.4,6.4-47.6
		c0.2-1.4,0.3-2.8,0.5-4.1c-8-1.6-13.4-6.9-14.5-10.2c-1.2-3.4-0.8-14.7,5.1-20.2c-15.7,2.3-32,3.8-41.5,4.5
		c-13.2,42.7-47.5,140.7-99.6,198.9c-6.7,7.5,28.3,54.2,65.2,48.6c9-1.4,18.2-5.8,26.9-14.8C387.9,438.2,398.7,412.7,407.2,383.7z"
		/>
	<path class="st9" d="M469,293.6c-0.8,0.3-1.5,0.7-2.2,1.1c-2.7,1.6-4.5,3.9-4.7,5.9c0,0.5,0,1,0.2,1.4c0,0,0,0,0,0.1
		c1.1,2.8,5.9,3.4,10.7,1.5c4.3-1.7,7.1-4.9,6.9-7.5c0-0.3-0.1-0.6-0.2-0.9C478.6,292.4,473.8,291.7,469,293.6z"/>
	<path class="st14" d="M477.1,139.5c-70.3-14.4-88,59.1-86.6,57.4C437.5,138.5,477.1,139.5,477.1,139.5z"/>
	<path class="st14" d="M406.3,202.9c44-26.7,89.1-46,89.1-46C435.5,145.9,406.3,202.9,406.3,202.9z"/>
	<path class="st23" d="M437.4,235.3c-0.2-2.3-0.3-4.5-0.4-6.6c-4.6-0.2-11.3,0.1-16.5,2.2c0,0,5.6-7.1,16.4-4
		c-0.3-5.4-0.4-10.1-0.4-13.8c-0.1,0-0.2-0.1-0.3-0.1c-0.7,0.1-1.4,0.2-2,0.4c-3.5,0.6-7.2,1.2-10.9,1.8c-6,5.5-6.3,16.7-5.1,20.2
		c1.1,3.3,6.5,8.6,14.5,10.2c1.5,0.3,3.1,0.4,4.7,0.4L437.4,235.3z"/>
	<path class="st25" d="M436.8,226.9c-10.8-3.2-16.4,4-16.4,4c5.2-2.1,11.9-2.3,16.5-2.2c0-0.3,0-0.6-0.1-0.9
		C436.9,227.5,436.9,227.2,436.8,226.9z"/>
	<path class="st24" d="M451.9,233.5c5.3-8.6,10.1-15.3,10.1-15.3c14.8,2.9,29.6-10.8,35.3-16.7c1.5-1.6,2.4-2.7,2.4-2.7
		c0.9-2.7,0.1-4.6-1.8-5.8c0,0,0,0-0.1,0c-14.7,9.7-31.8,14.3-47.4,17.4c-0.8,10.3-1.2,19.4-1.1,27.4
		C450.2,236.3,451,234.9,451.9,233.5z"/>
	<path class="st24" d="M437.4,245.9l0,4.9l0.1,13.9c0-2.2,0.9-5.1,2.2-8.4c-1.1-7.1-1.8-14.3-2.3-21L437.4,245.9z"/>
	<path class="st14" d="M436.8,226.9c0,0.3,0,0.6,0,0.9c0,0.3,0,0.6,0.1,0.9c0.1,2.1,0.2,4.3,0.4,6.6c0.5,6.7,1.2,13.9,2.3,21
		c3.3,21.1,9.7,41.4,22.5,44.3c0.2-2,1.9-4.2,4.7-5.9c-7.1-4.7-15.6-16.8-17.2-47.8c-0.2-2.9-0.3-6-0.3-9.2
		c-0.1-8,0.2-17.1,1.1-27.4c-4.8,1-9.5,1.8-13.9,2.6c0,0,0,0.1,0,0.1C436.5,216.8,436.6,221.5,436.8,226.9z"/>
	<path class="st9" d="M434.2,213.3c0.6-0.1,1.3-0.2,2-0.4c0.1,0,0.2,0,0.3,0c4.4-0.8,9.1-1.6,13.9-2.6c15.6-3.1,32.7-7.7,47.4-17.4
		c0,0,0.1-0.1,0.1-0.1c0.9-0.6,1.7-1.3,2.6-1.9c7-5.1,13.4-11.4,18.7-19.5c-10.8-26.3-37.3-44.9-68.5-44.9
		c-40.7,0-73.6,31.7-73.6,70.8c0,7.8,1.4,15.3,3.8,22.3c0.3,0,0.7-0.1,1-0.1c9.5-0.7,25.7-2.2,41.5-4.5
		C427,214.6,430.6,214,434.2,213.3z M477.1,139.5c0,0-39.6-1-86.6,57.4C389.1,198.6,406.8,125.2,477.1,139.5z M495.4,156.8
		c0,0-45,19.3-89.1,46C406.3,202.9,435.5,145.9,495.4,156.8z"/>
	<path class="st20" d="M35.2,370.9c0.2-0.3,1-1.8,2.4-4.3c0.5-0.9,0.8-1.6,0.8-1.9v-0.1c0-0.7-0.6-1.1-1.8-1.2h-6.3l-2.6,4.7
		c-1.6,2.9-2.4,4.4-2.5,4.5h6.2C33.1,372.5,34.3,372,35.2,370.9z M29.2,370.2c1.5-2.7,2.4-4.2,2.6-4.6h2.9c0.3,0,0.5,0.1,0.5,0.4v0
		l0,0.2c-0.7,1.3-1.3,2.4-1.7,3c-0.5,0.6-0.9,0.8-1.3,0.8l-2.8,0H29.2z"/>
	<path class="st20" d="M35.2,372.5L35.2,372.5l10.1,0c0,0,0.4-0.8,1.2-2.3H39c0.2-0.4,0.4-0.8,0.7-1.3h1.5c0.1,0,1.1-0.6,3.1-1.8
		v-0.1h-3.6l0.8-1.4h5.2l3.7-2.3l0,0v0H40.3L35.2,372.5L35.2,372.5z"/>
	<path class="st20" d="M47.8,368.1c-0.5,0.9-0.9,1.6-1.2,2.2c-0.8,1.4-1.2,2.2-1.2,2.3h0.1H53l3.1-1.8c0.1-0.2,0.2-0.3,0.3-0.5h-7.3
		l3.8-6.8v-0.1h-2.5l0,0l0,0l0,0L47.8,368.1z"/>
	<path class="st20" d="M55.2,372.5h2.5l5-9.1l-0.1-0.1h-2.5c-1.7,3-2.9,5.3-3.7,6.8c-0.1,0.2-0.2,0.3-0.3,0.5
		C55.6,371.7,55.3,372.4,55.2,372.5z"/>
	<path class="st20" d="M58.6,372.5h6.1c1.5,0,2.8-0.6,3.8-1.9c0.3-0.4,1.6-2.8,3.8-7.2l-0.1-0.1h-2.3l-2.5,4.6
		c-0.7,1.5-1.5,2.3-2.2,2.3h-2.8l3.8-6.8h0l0,0h-2.4c-0.1,0.1-0.5,0.7-1,1.8C59.9,370,58.6,372.4,58.6,372.5z"/>
	<path class="st20" d="M68.5,372.5L68.5,372.5l10.2,0l0,0h0c0.4-0.8,0.8-1.5,1.2-2.2h-7.6c0.1-0.4,0.4-0.8,0.7-1.3h1.5
		c0.1,0,1.1-0.6,3.1-1.8v-0.1H74l0.8-1.4h5.2l3.7-2.3c0,0,0,0,0,0v0H73.5L68.5,372.5L68.5,372.5z"/>
	<path class="st20" d="M79.8,370.3c-0.4,0.7-0.8,1.4-1.2,2.2h0l0,0h0h2.4c0,0,0.5-0.8,1.3-2.3h3.8l-1.2,2.3v0.1h2.5
		c0,0,0.2-0.3,0.5-0.8c0.7-1.2,1-1.9,1-2.1l0-0.1c-0.1-0.3-0.3-0.5-0.8-0.5v0l0.7-0.1c0.6-0.2,1.1-0.9,1.7-2c0.7-1.2,1.1-2,1.1-2.4
		c0-0.2,0-0.3-0.1-0.4c-0.3-0.6-0.8-0.9-1.7-0.9h-6.2c0,0,0,0,0,0.1c0,0,0,0,0,0C83.4,363.8,82.1,366.1,79.8,370.3z M83.7,367.9
		l1.3-2.3h2.6c0.6,0,0.9,0.1,0.9,0.4c0,0.2-0.1,0.5-0.3,0.8c-0.3,0.7-0.9,1.1-1.8,1.1L83.7,367.9L83.7,367.9z"/>
	<path class="st20" d="M90.4,369L90.4,369c0,0.2,0,0.3,0.1,0.4c0.2,0.5,0.7,0.7,1.5,0.8h1.4v0l-1.2,2.3l0,0l2.5,0h0l0,0l1.3-2.3h0.2
		c1.3,0,2.4-0.6,3.3-1.7c0.2-0.2,1.1-2,2.7-5.1l0,0l-2.1,0h-0.3c-0.1,0.1-0.8,1.4-2,3.7c-0.4,0.6-1,0.9-1.7,0.9l-1.4,0h-0.7
		c-0.2,0-0.3-0.1-0.4-0.3v-0.1c0-0.1,0.8-1.5,2.2-4.2l-0.1-0.1h-2.5l-1.9,3.4C90.7,367.8,90.4,368.6,90.4,369z"/>
	<path class="st20" d="M20.4,379.4h84c1.2,0,2.2-1,2.2-2.2s-1-2.2-2.2-2.2h-84c-1.2,0-2.2,1-2.2,2.2S19.2,379.4,20.4,379.4z"/>
	<path class="st20" d="M110.9,369.8h-9.3c-0.3,0-0.6,0.6-0.6,1.4c0,0.8,0.3,1.4,0.6,1.4h9.3c0.3,0,0.6-0.6,0.6-1.4
		C111.5,370.4,111.2,369.8,110.9,369.8z"/>
	<path class="st20" d="M103,368.6h8c0.3,0,0.5-0.5,0.5-1.2c0-0.6-0.2-1.2-0.5-1.2h-8c-0.3,0-0.5,0.5-0.5,1.2
		C102.5,368.1,102.7,368.6,103,368.6z"/>
	<path class="st20" d="M104,365.4h7c0.3,0,0.5-0.5,0.5-1.1c0-0.6-0.2-1.1-0.5-1.1h-7c-0.3,0-0.5,0.5-0.5,1.1
		C103.5,364.9,103.7,365.4,104,365.4z"/>
	<path class="st20" d="M160.4,490.9h5.9c3.3,0,6.2-1.2,8.5-3.6c2.3-3.3,3.4-5.5,3.4-6.7l-0.1-0.6c-0.6-1.7-1.9-2.6-4-2.6h-9.7
		c-0.2,0-3.4,1.9-9.5,5.6v0.1h15.9c0,0.3-0.3,0.8-0.8,1.4c-1.6,1.1-3.3,1.8-5,2h-0.1l-0.1-0.1l-6,0.1c-1,0-2.2,0.3-3.6,0.8
		c-1.5,0.6-3.2,1.7-5,3.6c-3.2,5.6-4.8,8.6-4.9,8.9h22.3c0.1,0,1.1-1.8,2.9-5.5l-0.1-0.1h-15.5l0.9-1
		C157.6,491.6,159,490.9,160.4,490.9z"/>
	<path class="st20" d="M175.1,491.3v0.3l0.1,0.9c0.5,1.1,1.8,1.7,3.8,1.7h9.8v0.1l-3.1,5.4l0.1,0.1l3.2-0.1h3.2
		c0.3-0.4,3.4-5.9,9.3-16.5v-0.1l-6.2-0.1c-0.2,0.2-1.3,2-3.2,5.5h-7.5c-0.9-0.1-1.3-0.4-1.3-0.9v-0.4c0.2-0.6,2-3.8,5.4-9.8v-0.1
		h-6.3c-0.2,0.3-1.8,3-4.7,8.1C176,488.3,175.1,490.3,175.1,491.3z"/>
	<path class="st20" d="M191.4,506.8h10.2l8.3-14.5h15.6v0.1c-5.3,9.3-8,14-8,14.3l10.2,0.1h0.1l20.6-36.3l-0.2-0.2h-9.9l-8.4,14.7
		l-11.8-0.1h-3.9l8.2-14.4v-0.2h-10.2L200.3,491C194.9,500.4,191.9,505.7,191.4,506.8z"/>
</g>
</svg>
