<?xml version="1.0" encoding="utf-8"?>
<!-- Generator: Adobe Illustrator 25.4.1, SVG Export Plug-In . SVG Version: 6.00 Build 0)  -->
<svg version="1.1" id="Layer_1" xmlns="http://www.w3.org/2000/svg" xmlns:xlink="http://www.w3.org/1999/xlink" x="0px" y="0px"
	 viewBox="0 0 1000 1000" style="enable-background:new 0 0 1000 1000;" xml:space="preserve">
<style type="text/css">
	.st0{fill:#6699FF;}
	.st1{fill:#D9ECF6;}
	.st2{fill:#EFB54D;}
	.st3{fill:#C99541;}
	.st4{fill:#E79369;}
	.st5{fill:#E74A51;}
	.st6{fill:#2C2227;}
	.st7{fill:#3B3C3E;}
	.st8{fill:#493D44;}
	.st9{fill:#C26950;}
	.st10{fill:#5D7AB4;}
	.st11{fill:#464C7C;}
	.st12{fill:#4A3633;}
	.st13{fill:#2D1519;}
	.st14{fill:#141816;}
	.st15{fill:#FFFFFF;}
	.st16{fill:#30292F;}
</style>
<rect class="st0" width="998.5" height="998.5"/>
<g>
	<g>
		<path class="st1" d="M916.4,797.3c-0.9,4-1.9,8-3.2,12c-43.8,58.2-107.7,98.3-180.2,121.5c-0.1,0.1-0.2,0.1-0.3,0.1
			c-23,7.4-46.9,13-71.2,17.1c-0.1,0-0.1,0-0.2,0c-30.3,5-61.4,7.5-92.6,7.4c-4,0-8-0.1-12-0.1c0,0-0.1,0-0.1,0
			c-14.3-0.3-28.7-1.1-42.9-2.5c-20.7-1.9-41.2-5-61.4-9.1c-22.1-4.5-43.8-10.3-64.7-17.3c-1.8-0.6-3.7-1.2-5.5-1.9
			c-0.7-0.2-1.4-0.5-2.1-0.7c-46.5-16.4-89.2-39.1-124.9-67.7c-4.6-4.9-9-10-13.1-15.3c-15.8-20.4-27.8-43.7-35.5-68.3
			c-1.5-4.7-2.8-9.3-3.9-14.1c-3-12.2-4.9-24.6-5.7-37.1c-2.1-31.8,3-63.7,16.2-92.4c9.4-17.1,23.5-31.5,35.9-46.9
			c1.4-1.8,2.8-3.5,4.1-5.3c29.8-36.6,41.7-78.2,46.5-121.9c3.4-30.9,3.1-62.9,3.1-94.7c0-5.8,0-11.5,0-17.3
			c0.1-18.4,0.4-36.6,1.7-54.6c0.1-1.8,0.3-3.5,0.4-5.2c1-12.1,2.5-24,4.7-35.7c0.9-4.7,1.9-9.3,3-13.9
			c38.6-59.4,107.9-98.7,184.2-115.3c28.5-6.2,58.1-9.3,87.4-9c26.5,0.2,52.7,3.2,77.9,8.9c1.8,0.4,3.6,0.8,5.4,1.3
			c0.7,0.2,1.5,0.4,2.2,0.5c17.5,4.4,34.4,10.2,50.5,17.4c18.8,8.5,36.4,18.9,52.2,31.3c76.1,58.7,109.5,159.6,81.9,246.9
			c-13.1,41.4-18.7,71-10,109.2c1.4,6,3.1,12.2,5.2,18.7c5.4,16.7-10.8,47.7-0.5,62.4c10.8,16.3,22.2,33.5,32.6,51.4
			c0.6,1,1.2,2,1.8,3.1c0.3,0.6,0.7,1.2,1,1.7c2.7,4.7,5.2,9.4,7.7,14.2c0.6,1.1,1.1,2.2,1.7,3.3c1.7,3.3,3.3,6.7,4.9,10
			c4.2,9.1,8,18.3,11.2,27.6c1.6,4.9,3.1,9.8,4.4,14.7c2.3,8.9,3.9,17.8,4.6,26.8C919.7,771.5,919.1,784.4,916.4,797.3z"/>
		<g>
			<g>
				<g>
					<g>
						<path class="st2" d="M488.2,396.8c0,0-61.1-10.1-108.7,36.8c-39.3,38.8-84.4,141.1-123.5,187.7c-21.7,25.8-51.8,77-62.2,108.7
							c-7.1,21.7-8.9,45,31.6,44.8c5.5,0,10.8-2.1,15.9-4.2c10.9-4.4,21.9-8.9,32.8-13.3c7.6-3.1,15.3-6.3,21.5-11.6
							c7.8-6.8,5.8-13.9,10-21.5c3.5-6.3,10.6-11.7,15.4-17c12.8-14.1,24.9-28.9,36.7-43.9c19.3-24.4,37-50.1,57-73.9
							C436.9,563.1,488.2,396.8,488.2,396.8z"/>
						<path class="st2" d="M256.1,621.3c0,0,1.1,31.8-9.5,69.8c-10.6,38-33.8,67.5-33.8,67.5s5.3,6,28.5,0.9
							c16.4-3.6,40.1-26.7,52.6-40c5.3-5.7,7.2-13.8,5-21.2L270,603L256.1,621.3z"/>
						<path class="st3" d="M302.2,714.2c-1,0-1.8-0.8-1.8-1.8c0-46.7-12.2-68.5-22.4-78.6c-10.9-10.7-21.9-10.7-22-10.7
							c-0.9,0-1.8-0.8-1.8-1.7c0-1,0.8-1.8,1.7-1.8c0.5,0,12.4-0.1,24.4,11.6c15.6,15.3,23.5,42.6,23.5,81.2
							C303.9,713.4,303.2,714.2,302.2,714.2z"/>
						<path class="st4" d="M256.1,621.3c0,0-19-93-19-159l-15.8-80.4l-55.2,51.8c0,0,12.9,53.5,9.8,79.1
							c-9.6,79.3-9.8,245.8,22.2,245.8C280.8,758.6,256.1,621.3,256.1,621.3z"/>
						<path class="st5" d="M138.9,444.4L119,380.7l136-42.5c11.8-3.7,24.4,2.9,28,14.7l7.5,24.1c3.2,10.1-2.5,20.9-12.6,24
							L138.9,444.4z"/>
						<path class="st6" d="M269.2,317.5l-41.5,10.8c-4.7,1.2-7.5,6.2-5.9,10.9l4.1,12.5l41.4-7.4L269.2,317.5z"/>
						<path class="st5" d="M163,423.8l-34.3-109.6c-2.3-7.4-9.9-11.7-17.5-9.9l-55.5,17.6l43.9,138l52.3-15.5
							C160.7,441.8,165.7,432.5,163,423.8z"/>
						<path class="st6" d="M163,425.5c-0.7,0-1.4-0.5-1.7-1.2l-16.2-51.8c-0.3-0.9,0.2-1.9,1.2-2.2c0.9-0.3,1.9,0.2,2.2,1.2
							l16.2,51.8c0.3,0.9-0.2,1.9-1.2,2.2C163.3,425.5,163.1,425.5,163,425.5z"/>
						<path class="st7" d="M41.6,328.8l6.4-5.5c3-2.6,7.8-1.3,9,2.5l42.7,134.1H82.1c-4,0-7.6-2.6-8.8-6.5l-35-113.1
							C37,336.1,38.3,331.6,41.6,328.8z"/>
						<path class="st5" d="M257.3,295.6l31.4,147.3c1.8,8.5,10,14,18.5,12.5l38.8-6.8c8.9-1.6,14.8-10.2,13-19.1l-30.4-147.8h-2.2
							c-20,0-39.8,3.4-58.6,10.2L257.3,295.6z"/>
						<g>
							
								<rect x="271.2" y="194.7" transform="matrix(0.9682 -0.2503 0.2503 0.9682 -44.3503 75.7325)" class="st6" width="8.8" height="35.1"/>
							<path class="st6" d="M271.2,197c-0.8,0-1.5-0.5-1.7-1.3l-13.8-53.5c-0.2-0.9,0.3-1.9,1.3-2.1c0.9-0.2,1.9,0.3,2.1,1.3
								l13.8,53.5c0.2,0.9-0.3,1.9-1.3,2.1C271.5,196.9,271.3,197,271.2,197z"/>
							<path class="st8" d="M308.3,249.3l-46.5,10l-6.8-31.6c-2.1-9.9,4.2-19.6,14-21.7l10.7-2.3c9.9-2.1,19.6,4.2,21.7,14
								L308.3,249.3z"/>
						</g>
						<path class="st4" d="M236.9,467.8c0.1,0,0.3-0.1,0.3-0.3c1.4-3,18.6-38.9,29.4-48.3c10.6-9.2,15.9-17.6,16.5-18.6
							c0-0.1,0.1-0.1,0.1-0.2v-34c0-3.6-1.6-7-4.4-9.2c-9.7-7.8-32.1-24.5-35.4-14.6c-4,12,11.2,27.2,12.8,28.7
							c0.1,0.1,0.1,0.2,0.1,0.3v17.2c0,0.2-0.1,0.4-0.3,0.4c-3.1,1.2-30.9,12.2-43.2,34.4c-12,21.5-14.4,47-14.7,51.2
							c0,0.3,0.3,0.5,0.6,0.5L236.9,467.8z"/>
						<path class="st4" d="M162.3,367.2c0,0,3.1-15.4,13.3-15.4c10.2,0,21.5,1.8,19.3,9.1c-2.1,7.4-16.2,6.3-16.2,6.3l-7-3
							L162.3,367.2z"/>
						<path class="st4" d="M201.6,345.1c0,0,7-8.2,16.5-5.5c9.5,2.7,17.6,16.4,10.9,22c-6.7,5.6-12.5,1.4-12.5,1.4L201.6,345.1z"/>
						<path class="st4" d="M182.3,352c0,0,8.9-5.2,12.9-5.9c4-0.7,8.5-4.6,14.2,1.8c5.6,6.3,13.7,16.5,7.2,21.1
							c-6.5,4.6-8.6,4.6-18.5-1.8C188.2,360.9,182.3,352,182.3,352z"/>
						<path class="st9" d="M193.2,366.4c-0.8,0-1.5-0.2-1.6-0.3c-0.9-0.3-1.4-1.3-1.1-2.2c0.3-0.9,1.3-1.4,2.2-1.1
							c0.2,0.1,0.5,0.1,0.6,0.1c0,0,0.1-0.5-0.2-1.6c-0.6-2.7-7.1-6.1-11.5-7.6c-0.9-0.3-1.4-1.3-1.1-2.2c0.3-0.9,1.3-1.4,2.2-1.1
							c1.3,0.4,12.5,4.4,13.8,10.1c0.5,2.3,0.2,4-0.9,5.1C194.9,366.2,194,366.4,193.2,366.4z"/>
						<path class="st9" d="M216.5,364.7c-0.7,0-1.3-0.4-1.6-1.1c-4.1-9.9-14.2-17.1-14.3-17.2c-0.8-0.6-1-1.7-0.4-2.4
							c0.6-0.8,1.7-1,2.4-0.4c0.4,0.3,11,7.8,15.6,18.7c0.4,0.9,0,1.9-0.9,2.3C217,364.7,216.7,364.7,216.5,364.7z"/>
						<path class="st4" d="M225.4,319.4c0.1,3.6,0.4,7.7,3.2,9.8c2.8,2.2,6.9,1.3,10.3,0.4c2.3-0.7,4.8-1.5,6.3-3.4
							c2.8-3.8-0.4-9.6-4.9-11c-4.5-1.3-9.3,0.6-13.3,3.1L225.4,319.4z"/>
						<path class="st7" d="M328.5,283.5l-71.3,14l2.3-39.5c0-0.8,0.6-1.4,1.4-1.6l46.6-10.2c0.8-0.2,1.6,0.2,1.9,0.9L328.5,283.5z"
							/>
						<path class="st6" d="M265.4,251.1c-0.8,0-1.5-0.5-1.7-1.3l-5.9-23.6c-0.2-0.9,0.3-1.9,1.3-2.1c0.9-0.2,1.9,0.3,2.1,1.3
							l5.9,23.6c0.2,0.9-0.3,1.9-1.3,2.1C265.7,251.1,265.6,251.1,265.4,251.1z"/>
						<path class="st6" d="M301.1,242.9c-0.8,0-1.5-0.5-1.7-1.3l-5.9-23.6c-0.2-0.9,0.3-1.9,1.3-2.1c0.9-0.2,1.9,0.3,2.1,1.3
							l5.9,23.6c0.2,0.9-0.3,1.9-1.3,2.1C301.3,242.9,301.2,242.9,301.1,242.9z"/>
						<path class="st6" d="M292.4,245.7c-0.8,0-1.5-0.5-1.7-1.3l-5.9-23.6c-0.2-0.9,0.3-1.9,1.3-2.1c0.9-0.2,1.9,0.3,2.1,1.3
							l5.9,23.6c0.2,0.9-0.3,1.9-1.3,2.1C292.7,245.7,292.6,245.7,292.4,245.7z"/>
						<path class="st6" d="M283.2,248.1c-0.8,0-1.5-0.5-1.7-1.3l-5.9-23.6c-0.2-0.9,0.3-1.9,1.3-2.1c0.9-0.2,1.9,0.3,2.1,1.3
							l5.9,23.6c0.2,0.9-0.3,1.9-1.3,2.1C283.5,248.1,283.4,248.1,283.2,248.1z"/>
						<path class="st6" d="M274.5,249.7c-0.8,0-1.5-0.5-1.7-1.3l-5.9-23.6c-0.2-0.9,0.3-1.9,1.3-2.1c0.9-0.2,1.9,0.3,2.1,1.3
							l5.9,23.6c0.2,0.9-0.3,1.9-1.3,2.1C274.8,249.7,274.6,249.7,274.5,249.7z"/>
						<path class="st6" d="M322.2,447c-0.8,0-1.5-0.6-1.7-1.4l-27-129.7c-0.5-2.6-2.1-4.8-4.3-6.2c-2.2-1.4-4.9-1.9-7.5-1.2
							l-20.9,5.1c-0.9,0.2-1.9-0.3-2.1-1.3c-0.2-0.9,0.3-1.9,1.3-2.1l20.9-5.1c3.5-0.9,7.1-0.3,10.2,1.7c3.1,1.9,5.2,5,5.9,8.5
							l27,129.7c0.2,0.9-0.4,1.9-1.4,2.1C322.4,447,322.3,447,322.2,447z"/>
						<path class="st6" d="M334.2,443.5c-0.8,0-1.6-0.6-1.7-1.4l-4.2-21.1c-0.2-1,0.4-1.9,1.4-2.1c1-0.2,1.9,0.4,2.1,1.4l4.2,21.1
							c0.2,1-0.4,1.9-1.4,2.1C334.4,443.5,334.3,443.5,334.2,443.5z"/>
						<path class="st6" d="M340.9,442.2c-0.8,0-1.6-0.6-1.7-1.4l-4.2-21.1c-0.2-1,0.4-1.9,1.4-2.1c1-0.2,1.9,0.4,2.1,1.4l4.2,21.1
							c0.2,1-0.4,1.9-1.4,2.1C341.1,442.2,341,442.2,340.9,442.2z"/>
					</g>
					<g>
						<path class="st2" d="M688.1,405.4c28.8,6.6,70.4,26.2,93,47.3c22.7,21.1,117.9,138,136.1,163.8c18.2,25.9,50.8,60.4,42.2,84.3
							c-8.6,24-77.6,14.4-77.6,14.4l-22.1-11.5L674.8,536.7C674.8,536.7,656.6,398.2,688.1,405.4z"/>
						<path class="st2" d="M753.4,533.2c0,0-5.1,30.3-15.9,57.8c-0.2,0.6-0.5,1.2-0.7,1.7c-0.2,0.5-0.4,1.1-0.7,1.6
							c-2.8,6.9-6,13.5-9.6,19.3c-15,24.5-17.4,58.3-20.8,86.1c-1.9,15.6-0.1,29.8-1.2,45.3c-1.1,14.7-7,30.4,1.1,44.3
							c1.9,3.4,4.6,6.3,6.6,9.5c1.5,2.4,3.4,10.7,5.5,22.2c3.3,18.2,7.1,44.4,10.2,68.3c0,0.2,0.1,0.5,0.1,0.7
							c1.8,14.1,3.4,27.3,4.5,37.4c0.1,0.6,0.1,1.1,0.2,1.7c0.1,0.6,0.1,1.1,0.2,1.7c-0.1,0.1-0.2,0.1-0.3,0.1
							c-23,7.4-46.9,13-71.2,17.1c-0.1,0-0.1,0-0.2,0c-30.5,5.5-61.5,8.1-92.5,7.6c-2.6,0-5.2-0.1-7.8-0.2c-1.4-0.1-2.9-0.1-4.3-0.2
							c0,0-0.1,0-0.1,0c-14.3-0.3-28.7-1.1-42.9-2.5c-20.7-1.9-41.2-5-61.4-9.1c-22.1-4.5-43.8-10.3-64.7-17.3
							c-1.8-0.6-3.7-1.2-5.5-1.9c0.1-0.6,0.1-1.3,0.2-2c1-10,2.2-21.2,3.4-32.1c0.2-2.2,0.5-4.4,0.7-6.6c0.6-5.6,1.3-11,1.9-16.1
							c0.1-1,0.2-2,0.4-2.9c0.6-5,1.2-9.7,1.8-13.7c0.2-1.3,0.4-2.6,0.5-3.8c0.1-0.6,0.2-1.3,0.3-1.9c2.1-12.9,7.1-35.4,11.7-59.7
							c0.4-2.1,0.8-4.2,1.2-6.3c5.5-29.8,10.2-61.3,8.2-80.5c-3.2-30.2-11-49.8-21.2-79.7c-1.9-5.7-4-11.7-6.1-18.3
							c-0.2-0.5-0.4-1.1-0.5-1.7c-7.3-22.8-6-38.3-2.2-52.2c0.8-3,1.8-5.9,2.8-8.8c0.1-0.2,0.1-0.4,0.2-0.5c1-2.9,2.1-5.7,3.1-8.5
							c0.3-0.8,0.6-1.7,0.9-2.5c1.7-4.7,3.4-9.6,4.8-14.8c0.1-0.2,0.1-0.4,0.2-0.6c2-7.6,2.3-14.7,2-21.8c-0.4-10.7-2-21.1-0.8-32.5
							c1-9.8,4.1-20.2,12-32c9.2-13.9,19.3-20.8,30.1-24.3c3.1-1,6.3-1.7,9.5-2.2c0.1,0,0.1,0,0.2,0c0.1,0,0.1,0,0.2,0
							c3-0.5,6.1-0.7,9.3-0.9c9.9-0.5,20.3,0.2,31.2,0.1c1,0,2,0,3-0.1c32.6-0.9,91.9-10,91.9-10s37.1,3.6,75.8,11.2
							c0.1,0,0.2,0.1,0.3,0.1c2.5,0.5,5.1,1,7.6,1.5c0.1,0,0.1,0,0.1,0c1.4,0.3,2.7,0.6,4.1,0.9c6.1,1.3,12.1,2.7,18,4.3
							c0.1,0,0.2,0.1,0.3,0.1c0.1,0,0.2,0.1,0.3,0.1c3.8,1,7.4,2,11,3.1c1.4,0.4,2.8,0.8,4.2,1.3c0.3,0.1,0.7,0.2,1,0.3
							c7.2,2.3,13.8,4.8,19.4,7.5c0.1,0.1,0.2,0.1,0.2,0.1c3.9,1.9,7.3,3.8,10.1,5.9C769.7,448.9,753.4,533.2,753.4,533.2z"/>
						<path class="st3" d="M384.5,601.1c-0.7,0-1.4-0.5-1.7-1.2c-10.1-30.1-4.4-46.9,2.3-66.3c0.7-2,1.4-4,2.1-6.1
							c7-21.2,6.4-68.3,6.4-68.8c0-1,0.8-1.8,1.7-1.8c0.9,0,1.8,0.8,1.8,1.7c0,2,0.6,48.1-6.6,69.9c-0.7,2.1-1.4,4.1-2.1,6.2
							c-6.4,18.8-12,35-2.3,64c0.3,0.9-0.2,1.9-1.1,2.2C384.9,601.1,384.7,601.1,384.5,601.1z"/>
						<path class="st4" d="M960.8,695.1c0,0,0.5,16.3-51.2,73.8c-51.7,57.5-65.5,65.2-135.9,116.6c-10.8,7.9-26.1-47-26.1-47
							s109.1-108.8,112-134.7C862.6,677.9,960.8,695.1,960.8,695.1z"/>
						<path class="st10" d="M456.7,397.6c-16.3,29.4-65.5,126.5-75.5,149.3l33.4,7.1c11.3-25.5,75.7-155.1,76.4-156.3
							C491,397.6,475.5,389.2,456.7,397.6z"/>
						<path class="st10" d="M724.8,892l-58.3,11.1l-22,4.2l-95.1,18c0,0-42.8,8.1-42.8,8.1l-48.6,9.2l-5.7,1.1
							c-22.1-4.5-43.8-10.3-64.7-17.3c0-0.7-0.1-1.4-0.1-2.2c-0.2-3.5-0.4-7.1-0.6-10.6c-0.4-7.8-0.8-15.5-1.2-23.2
							c0-0.7-0.1-1.4-0.1-2c-0.4-6.8-0.7-13.6-1.1-20.4c-0.4-7.2,2.3-16.9-1.2-23.1c-7.3-13-2.1-29.3-2-35.7
							c0.4-33.7-2.1-42.2-2.8-55.7c-1.4-25.3-2.7-50.5-4.1-75.8c-0.6-11.2-1.2-22.4-1.8-33.6c-0.8-15-1.6-30-2.4-45
							c-0.7-14.9,1.9-29.8,7.5-43.7c1.1-2.8,2.1-5.6,3.1-8.3c1.3-3.5,2.7-6.7,4.6-9.5c0.1-0.1,0.1-0.2,0.2-0.3
							c0.9-1.3,1.9-2.4,3.2-3.4c1.2-1,2.5-1.8,4-2.5c2.1-0.9,4.5-1.6,7.1-2.2c7.7-1.5,17.5-1.4,26.9-1.1c0.5,0,0.9,0,1.4,0
							c5.5,0.2,10.7,0.4,15.3,0.4c1.7,0,3.2,0,4.7-0.1c5.4-0.3,51.7,8.8,63.2,10.1c33.8,4,67.7,2.1,101.5,0.6c2.1-0.1,5-0.4,8.5-0.9
							c0.5-0.1,0.9-0.1,1.4-0.2c1.9-0.2,4-0.5,6.1-0.8c10.3-1.2,22.1-2.2,28.6-0.2c1.1,0.3,2.1,0.8,2.8,1.3c0.4,0.3,0.7,0.7,1,1.3
							c0.3,0.7,0.6,1.5,0.8,2.5c1.8,9.6-2.1,32.7-1.7,40.1c1.9,34.4,2.7,68.9,2.6,103.3c0,8.5-1,17.8-1.4,26.9
							c-0.3,7.7-0.2,15.3,1.1,22.3c2.7,13.9,8.5,28.9,12.9,42.5c1.6,5,3.3,10.1,5.1,15.1c2,5.8,4.1,11.5,6.3,17.2
							c0.5,1.5,1.1,3,1.7,4.5c10,25.7,21.5,50.9,34.6,75C723.8,890.2,724.3,891.1,724.8,892z"/>
						<path class="st10" d="M737.1,881.6c-0.1,0.3-1.4,2.7-2.6,9.6c-1.2,6.9-2.2,18.3-1.9,36.3c0,0.6,0,1.1,0,1.7c0,0.6,0,1.2,0,1.8
							c-23,7.4-46.9,13-71.2,17.1c-0.1,0-0.1,0-0.2,0c-30.5,5.5-61.5,8.1-92.5,7.6c-2.6,0-5.2-0.1-7.8-0.2c-1.4-0.1-2.9-0.1-4.3-0.2
							c0,0-0.1,0-0.1,0c-14.3-0.3-28.7-1.1-42.9-2.5c-0.1-0.4-0.3-0.8-0.4-1.2c-2.7-7.7-5-14-6.6-18.2c-1.4-3.9-2.3-6.1-2.3-6.1
							l32.5-5.2L643.6,905l27.4-4.4c0,0,53.9-8.6,53.9-8.6l2.5-2.1l0.7-0.6L737.1,881.6z"/>
						<g>
							<path class="st11" d="M491.1,887.8c-20,0-35.8-1.1-48.2-2.7c-43.6-5.5-55.1-17.5-55.5-18c-0.5-0.5-0.5-1.4,0.1-1.9
								c0.5-0.5,1.4-0.5,1.9,0.1c0.2,0.2,11.8,11.9,54.7,17.2c39.7,4.9,115,5.2,248.4-21.4c0.7-0.1,1.4,0.3,1.5,1
								c0.1,0.7-0.3,1.4-1,1.5C600.3,882.2,535.5,887.8,491.1,887.8z"/>
							<path class="st11" d="M470.3,862.8c-65.9,0-82.5-12.9-83.6-13.8c-0.7-0.6-0.8-1.7-0.2-2.5c0.6-0.7,1.7-0.8,2.5-0.2
								c0.5,0.4,48.6,36.4,303.4-14.5c0.9-0.2,1.9,0.4,2.1,1.4c0.2,0.9-0.4,1.9-1.4,2.1C586.9,856.4,516.5,862.8,470.3,862.8z"/>
						</g>
						<path class="st11" d="M605.1,849.2c-0.3,0-0.6-0.1-0.8-0.3c-0.6-0.5-0.7-1.3-0.2-1.9c10.5-13.1,13.4-29.5,14.1-41.1
							c0.8-14.9-1.5-29.9-3.7-44.4c-0.1-0.7,0.4-1.4,1.1-1.5c0.7-0.1,1.4,0.4,1.5,1.1c2.2,14.7,4.5,29.8,3.7,45
							c-0.9,17.1-6,31.8-14.6,42.6C605.9,849,605.5,849.2,605.1,849.2z"/>
						<g>
							<path class="st4" d="M737.1,833.8c28.7,6.4,49.9-31.6,49.9-31.6s11.9,6,21.3,15.9c8.8,9.4,18.2,26.6,18.2,26.6
								s-10.1,10.2-23.8,23.9c-13.2,13.1-20.5,17.8-33.2,22.4c-22.8,8-49.5-7.5-71.4-1.7c-26.7,7.2-41.8,23.1-50.2,20.5
								c-1.1-0.4-9-3.6-0.9-13.1c16.1-18,35.6-26.3,35.6-26.3s-8.8-0.9-23.1,4.3c-16.4,5.9-39.4,18.7-46.6,18.1
								c-6.6-0.6-7-6.4-1.5-13.1c5.5-6.7,16.4-13.8,16.4-13.8s-14.4,4.2-23.1,4.3c-5.4-0.1-10-2.4-9.1-5.7
								c2.6-8.6,23.6-19.6,41-26.7c15.9-6.4,28.1-9.9,28.1-9.9s-10.7-4.5-19.4-4.9c-9.8,0.2-27.4,4.6-34.7,2c-10-3-5.5-9.1-2-12
								c4.2-2.4,31.7-12.8,42.6-12c11.5,0.8,8.2,0.5,8.2,0.5s-10.4-8.2-3.9-16.6c3-3.4,9.8,0.3,18.8,5c9.6,4.6,21.4,10.6,26,14
								C713.6,815.9,724.4,831,737.1,833.8z"/>
							<path class="st9" d="M683.7,871.5c-0.8,0-1.5-0.5-1.7-1.3c-0.3-0.9,0.3-1.9,1.2-2.2c0.5-0.1,12.9-3.6,19.6-3.6
								c0.1,0,0.1,0,0.2,0c1,0,1.7,0.8,1.7,1.8c0,1-0.8,1.7-1.8,1.7c-0.1,0-0.1,0-0.2,0c-6.3,0-18.6,3.4-18.7,3.4
								C684,871.5,683.9,871.5,683.7,871.5z"/>
							<path class="st9" d="M628.5,867.1c-0.6,0-1.2-0.3-1.5-0.9c-0.5-0.8-0.2-1.9,0.7-2.4c18.4-10.4,39.5-17.1,64.4-20.6
								c1-0.1,1.8,0.5,2,1.5c0.1,1-0.5,1.8-1.5,2c-24.5,3.4-45.1,10-63.2,20.2C629.1,867,628.8,867.1,628.5,867.1z"/>
							<path class="st9" d="M666.1,830.1c-0.8,0-1.6-0.6-1.7-1.4c-0.2-1,0.5-1.9,1.4-2c0.6-0.1,15.5-2.7,23.4-1.1
								c0.9,0.2,1.6,1.1,1.4,2.1c-0.2,0.9-1.1,1.6-2.1,1.4c-7.3-1.5-22,1.1-22.1,1.1C666.3,830.1,666.2,830.1,666.1,830.1z"/>
							<path class="st9" d="M711.9,824.7c-0.3,0-0.5-0.1-0.8-0.2c-20.6-10.2-37.3-16.5-51-19.4c-0.9-0.2-1.6-1.1-1.4-2.1
								c0.2-0.9,1.1-1.6,2.1-1.4c14,2.9,30.9,9.3,51.9,19.7c0.9,0.4,1.2,1.5,0.8,2.4C713.2,824.3,712.5,824.7,711.9,824.7z"/>
						</g>
						<path class="st10" d="M568.8,955.7c-2.6,0-5.2-0.1-7.8-0.2c-1.4-0.1-2.9-0.1-4.3-0.2c0,0-0.1,0-0.1,0
							c-14.3-0.3-28.7-1.1-42.9-2.5c-20.7-1.9-41.2-5-61.4-9.1c-22.1-4.5-43.8-10.3-64.7-17.3c-1.8-0.6-3.7-1.2-5.5-1.9
							c-0.7-0.2-1.4-0.5-2.1-0.7c0.1-0.6,0.2-1.3,0.3-1.9c2.2-15.6,4.2-27.4,5.3-33.5c0.5-2.9,0.8-4.5,0.8-4.5l150.5,38.2l12.5,3.2
							c0,0,1,0.3,1,0.3l18.3,29.9L568.8,955.7z"/>
						<g>
							<path class="st12" d="M602,47.8c17-7.8,38.1-2.1,51.6,10.8c5.7,5.4,10.3,12,16.7,16.6c5.6,4,12.2,6.4,18.3,9.7
								c25,13.8,37.8,46.4,28.7,73.5c-1.7,5-4.1,10-4.5,15.3c-0.6,8.4,3.7,16.2,7.5,23.8c5.7,11.4,10.4,23.3,14,35.6
								c2.4,8.3,4.3,17.5,1.1,25.5c-3.2,7.9-10.8,13.4-13.7,21.4c-6.1,16.8,11,33.9,10,51.7c-0.6,10.9-8,20.5-17.1,26.5
								c-9.1,6-19.8,9-30.3,11.9c-10.4,2.9-21.8,5.7-31.8,1.5c-15.7-6.7-27.8-18.2-42.6-26.8c-7.2-4.2-8.8-14.5-16.1-18.3
								c-16.6-8.7-21.4-31.6-14.8-49.1c4.8-12.7,14.5-26.2,8.7-38.5c-2.4-5.1-7.1-8.7-10.1-13.4c-3.8-6-4.6-13.7-2.2-20.4
								c4.2-11.7,17.7-20,17.2-32.5c-0.4-11-11.1-17.8-13.1-28.1c-1.4-7.2,2.3-9.8,4.2-16.2c2-6.7,1.6-13.2,0.4-20.2
								C580.4,86,576.3,59.6,602,47.8z"/>
							<path class="st12" d="M687.9,209c2-37.4-11.1-85.4-28.1-103.6c-30.8-33.1-71.8-16.3-71.8-16.3c-10.4-8.2-28.9-8.3-38.1-6.7
								c-63.9,11.5-74.6,83.4-74.6,118.4c0,74.7,40.7,110.4,88.1,122.5c15.8,4,57.8,3.8,90.4-29.7
								C668.8,278.2,685.1,262.4,687.9,209z"/>
							<path class="st13" d="M580.1,328.6c-14.7,0-26.2-2.6-30.5-3.6c-0.9-0.2-1.5-1.2-1.3-2.1c0.2-0.9,1.2-1.5,2.1-1.3
								c6.1,1.5,60.4,14.1,95.4-22l1.1-1.1c14.9-15.3,39.8-40.9,39.6-95.5c-0.1-39.2-12.8-75.9-32.2-93.5
								C622,80.3,589,90.6,588.7,90.7c-0.9,0.3-1.9-0.2-2.2-1.1c-0.3-0.9,0.2-1.9,1.1-2.2c0.4-0.1,35.2-11.1,69.2,19.5
								c20.5,18.5,33.3,55.3,33.4,96.1c0.2,56.1-25.4,82.3-40.6,97.9l-1.1,1.1C627.6,323.5,600.8,328.6,580.1,328.6z"/>
							<path class="st4" d="M623.4,320.9c0,0-1.4,38.3,0,52.9c2,20.5,43.2,26.6,43.2,26.6s-150.8,92.8-175.7-2.8
								c0,0,42.9-9.7,43.6-27.1c0.6-17.4-1.8-59.4-1.8-59.4L623.4,320.9z"/>
							<path class="st9" d="M532.7,311.2c0,0,0.5,9.1,1,20.6c0.7,15.3,9.6,29.4,23.7,35.4c0.1,0,0.2,0.1,0.3,0.1
								c6.2,2.6,12.6,3.5,19.1,3.2c6.5,0.3,12.9-0.6,19.1-3.2c0.1,0,0.2-0.1,0.3-0.1c16.1-6.9,26.3-23,26.9-40.5
								c0.1-3.6,0.2-5.8,0.2-5.8L532.7,311.2z"/>
							<path class="st4" d="M651,221.5c-5.5-36.4-32.5-68.4-53-78.7c-32.7,10.4-81.1,31.7-93.1,68.5c-0.4,5.8-5,29.8-2.3,55.7
								c0.8,8,15,69.1,55.1,86c6.2,2.6,12.6,3.5,19.1,3.2c6.5,0.3,12.9-0.6,19.1-3.2c40.2-16.9,54.3-78,55.1-86
								C653.7,241.1,651.4,227.3,651,221.5z"/>
							<path class="st14" d="M626.4,229.3c0,4.6-3.7,8.3-8.3,8.3c-4.6,0-8.3-3.7-8.3-8.3c0-4.6,3.7-8.3,8.3-8.3
								C622.7,221,626.4,224.7,626.4,229.3z"/>
							<path class="st12" d="M638.9,200.8c-12.2-5.2-25.2-7.7-38.4-7.2c-5,0.2-4.7,7.9,0.2,7.7c11.8-0.4,23.6,1.7,34.5,6.3
								c1.9,0.8,4.2,0.4,5.2-1.5C641.3,204.4,640.8,201.7,638.9,200.8z"/>
							<path class="st14" d="M525.5,229.3c0,4.6,3.7,8.3,8.3,8.3c4.6,0,8.3-3.7,8.3-8.3c0-4.6-3.7-8.3-8.3-8.3
								C529.2,221,525.5,224.7,525.5,229.3z"/>
							<path class="st12" d="M513.1,200.8c12.2-5.2,25.2-7.7,38.4-7.2c5,0.2,4.7,7.9-0.2,7.7c-11.8-0.4-23.6,1.7-34.5,6.3
								c-1.9,0.8-4.2,0.4-5.2-1.5C510.6,204.4,511.2,201.7,513.1,200.8z"/>
							<g>
								<path class="st4" d="M645.8,228.6c0,0,8.5-16.8,21.9-12.3c13.4,4.4,18.7,34.4,6.6,47.3c-8.6,9.1-20.6,11.6-25.4,1.1
									C644,254.3,645.8,228.6,645.8,228.6z"/>
								<path class="st9" d="M653.9,237.6l1.6,18.7c0,0,4.5-4.7,4.4-12.1C659.8,236.8,653.9,237.6,653.9,237.6z"/>
							</g>
							<g>
								<path class="st4" d="M510.8,229.7c0,0-8.5-16.8-21.9-12.3c-13.4,4.4-18.7,34.4-6.6,47.3c8.6,9.1,20.6,11.6,25.4,1.1
									C512.6,255.4,510.8,229.7,510.8,229.7z"/>
								<path class="st9" d="M502.7,238.7l-1.6,18.7c0,0-4.5-4.7-4.4-12.1C496.8,237.8,502.7,238.7,502.7,238.7z"/>
							</g>
							<path class="st9" d="M588.1,277.2c0,0-7-2.7-11.9-2.8c-0.1,0-0.3,0-0.4,0c-0.1,0-0.3,0-0.4,0c-4.9,0.1-11.9,2.8-11.9,2.8
								c3.7,3.3,8.8,4.9,12.3,4.3C579.3,282,584.4,280.5,588.1,277.2z"/>
							<path class="st15" d="M550,295.3l55.7-1.8c0,0-16.4,30.6-28.7,29.7C564.7,322.3,555.5,307.7,550,295.3z"/>
							<path class="st12" d="M739.1,354.8c-0.9,0-1.8-0.3-2.4-1c-1.3-1.3-1.3-3.5,0-4.8c8.5-8.4,2.2-24.3,0-28.9
								c-0.7-1.5-1.4-3-2.1-4.5c-4.7-9.8-9.5-19.8-7.2-30.8c0.8-3.9,2.6-7.4,4.2-10.8c1.8-3.6,3.4-7.1,3.9-10.7
								c0.7-5.4-2.4-23.7-4.5-29.1c-5.3-13.3-10.5-21.6-16.5-31.2c-3.9-6.2-8-12.7-12.5-21.1c-0.9-1.7-0.2-3.7,1.4-4.6
								c1.6-0.9,3.7-0.2,4.6,1.4c4.3,8.2,8.3,14.6,12.2,20.7c6,9.5,11.6,18.4,17.1,32.3c2.3,5.8,5.8,25.4,4.9,32.4
								c-0.6,4.7-2.6,8.8-4.5,12.8c-1.5,3.2-3,6.2-3.7,9.3c-1.9,8.7,2.5,17.7,6.7,26.4c0.7,1.5,1.5,3,2.2,4.6
								c3.4,7.3,9.9,25.5-1.4,36.6C740.8,354.5,740,354.8,739.1,354.8z"/>
						</g>
						<path class="st11" d="M566.9,640.1c-0.1,0-0.1,0-0.2,0c-74.4-10.9-141.8-8.3-142.4-8.3c-0.7,0-1.3-0.5-1.4-1.3
							c0-0.7,0.5-1.3,1.3-1.4c0.7,0,68.3-2.6,142.9,8.3c0.7,0.1,1.2,0.8,1.1,1.5C568.1,639.6,567.5,640.1,566.9,640.1z"/>
					</g>
					<path class="st2" d="M838.7,685.1c-0.2,0.4-0.4,0.8-0.5,1.2c-1.3,4.7,3.5,7.3,3.1,11.7c-0.5,5.5-6.3,8.1-4.6,15.3
						c1.6,6.4,6.3,12.4,9.9,14.7c0,0,16.9-6.2,27.4-6.1c17.5,0.1,44.8,7.3,55.5,23.7c0,0,21.3,0.5,31.2-50.4
						c9.8-50.5-35.6-40-58.5-36.8c-16.1,2.2-32.2,7.2-46.4,15C851.8,675.5,841.5,680.2,838.7,685.1z"/>
					<polygon class="st16" points="438.1,440.8 466,440.8 451.1,471.1 422.4,471.1 438.1,440.8 					"/>
					<path class="st3" d="M838.1,686c-0.5,0-1-0.2-1.4-0.6c-0.6-0.8-0.5-1.9,0.3-2.5c0.3-0.2,30.2-24.2,68.3-33.7
						c14.9-3.7,28.3-1.8,38.7,5.6c0.8,0.6,1,1.7,0.4,2.4c-0.6,0.8-1.6,1-2.4,0.4c-9.6-6.7-22-8.5-35.9-5c-37.4,9.2-66.7,32.8-67,33
						C838.9,685.9,838.5,686,838.1,686z"/>
					<path class="st3" d="M849.7,696c-0.6,0-1.2-0.3-1.5-0.8c-0.5-0.8-0.3-1.9,0.6-2.4c23.3-14.3,51.1-20.7,78.3-17.9
						c1,0.1,1.7,1,1.6,1.9c-0.1,1-0.9,1.7-1.9,1.6c-26.4-2.7-53.5,3.5-76.1,17.4C850.3,695.9,850,696,849.7,696z"/>
					<path class="st3" d="M736.8,594.5c-0.4,0-0.8-0.1-1.2-0.5l-36-32.5c-0.7-0.7-0.8-1.8-0.1-2.5c0.6-0.7,1.8-0.8,2.5-0.1l36,32.5
						c0.7,0.7,0.8,1.8,0.1,2.5C737.8,594.3,737.3,594.5,736.8,594.5z"/>
					<path class="st10" d="M659.8,550.9h-40.6c13.5-51.8,42.4-129.4,49-147c0.8-2.1,3-3.4,5.2-3.1l23.4,3.5c2.6,0.4,4.2,3,3.4,5.5
						C693.5,429.1,672.7,501.3,659.8,550.9z"/>
					<g>
						<path class="st11" d="M570.8,662l5.7-62.5c0-0.5-0.1-0.9-0.4-1.3c-0.3-0.4-0.8-0.6-1.2-0.6l-152-6.6c-1-0.1-1.8,0.7-1.8,1.7
							l-3.4,65.5c-0.2,3.4-0.2,6.9-0.1,10.3l1.8,48.8c0,0.6,0.3,1.1,0.8,1.4l61.7,37.1c0.3,0.2,0.6,0.2,0.9,0.2c0.2,0,0.4,0,0.6-0.1
							l87.2-30.8c0.7-0.3,1.2-1,1.2-1.7c0,0-0.9-22.9-1.5-37.9C569.9,677.7,570.1,669.8,570.8,662z M482.9,752.3l-60.2-36.1
							l-1.8-47.8c-0.1-3.3-0.1-6.7,0.1-10l3.3-63.8l148.5,6.4l-5.5,60.7c-0.7,7.9-0.9,15.9-0.6,23.9c0.5,12.9,1.2,31.6,1.4,36.7
							L482.9,752.3z"/>
					</g>
					<path class="st9" d="M198.1,442.2c-0.4,0-0.8-0.1-1.2-0.4c-0.7-0.6-0.8-1.8-0.2-2.5l14.8-16.7c0.6-0.7,1.8-0.8,2.5-0.2
						c0.7,0.6,0.8,1.8,0.2,2.5l-14.8,16.7C199,442,198.5,442.2,198.1,442.2z"/>
					<polygon class="st16" points="656.5,447.8 685.2,447.8 673.5,478 645.7,478 656.5,447.8 					"/>
				</g>
			</g>
			<path class="st3" d="M270.4,632.5c-0.7-0.7-1.8-0.6-2.5,0.1c-0.7,0.7-0.6,1.8,0.1,2.5c0.1,0.1,13.4,13.5,11.2,55.8
				c-2,39.4-5.1,45.5-5.4,46c-0.5,0.7-0.5,1.6,0,2.3c0.4,0.4,0.8,0.6,1.3,0.6c0.4,0,0.8-0.1,1.2-0.5c0.3-0.3,0.9-1.2,1.6-3.8
				c1.4-5.1,3.3-17,4.7-44.4C285,646.8,271,633,270.4,632.5z"/>
			<path class="st3" d="M547.9,454.6c-4,0-7.9-0.2-11.7-0.6c-40.2-4.3-49.3-37.9-49.4-38.3c-0.2-0.9,0.3-1.9,1.3-2.1
				c0.9-0.2,1.9,0.3,2.1,1.3c0.3,1.3,8.6,31.6,46.4,35.7c55.8,5.9,125.4-35.1,126-35.6c0.8-0.5,1.9-0.2,2.4,0.6
				c0.5,0.8,0.2,1.9-0.6,2.4C663.7,418.4,602.3,454.6,547.9,454.6z"/>
		</g>
		<path class="st16" d="M475.7,430h-34.5c-1,0-1.8-0.8-1.8-1.8c0-1,0.8-1.8,1.8-1.8h34.5c1,0,1.8,0.8,1.8,1.8
			C477.5,429.2,476.7,430,475.7,430z"/>
		<path class="st16" d="M453.6,472H419c-1,0-1.8-0.8-1.8-1.8c0-1,0.8-1.8,1.8-1.8h34.5c1,0,1.8,0.8,1.8,1.8
			C455.3,471.2,454.5,472,453.6,472z"/>
		<path class="st16" d="M468.8,442.7h-34.5c-1,0-1.8-0.8-1.8-1.8c0-1,0.8-1.8,1.8-1.8h34.5c1,0,1.8,0.8,1.8,1.8
			C470.5,441.9,469.7,442.7,468.8,442.7z"/>
		<path class="st16" d="M691.2,435.9h-34.5c-1,0-1.8-0.8-1.8-1.8c0-1,0.8-1.8,1.8-1.8h34.5c1,0,1.8,0.8,1.8,1.8
			C693,435.1,692.2,435.9,691.2,435.9z"/>
		<path class="st16" d="M686.7,448.6h-34.5c-1,0-1.8-0.8-1.8-1.8c0-1,0.8-1.8,1.8-1.8h34.5c1,0,1.8,0.8,1.8,1.8
			C688.5,447.8,687.7,448.6,686.7,448.6z"/>
		<path class="st16" d="M677,479h-34.5c-1,0-1.8-0.8-1.8-1.8c0-1,0.8-1.8,1.8-1.8H677c1,0,1.8,0.8,1.8,1.8
			C678.8,478.2,678,479,677,479z"/>
		<path class="st11" d="M426.8,529.3h-37.9c-0.7,0-1.3-0.6-1.3-1.3c0-0.7,0.6-1.3,1.3-1.3h37.9c0.7,0,1.3,0.6,1.3,1.3
			C428.1,528.7,427.5,529.3,426.8,529.3z"/>
		<path class="st11" d="M622.5,540.2c-0.7,0-1.3-0.6-1.3-1.3c0-0.7,0.6-1.3,1.3-1.3l40.8-0.3c0.7,0,1.3,0.6,1.3,1.3
			c0,0.7-0.6,1.3-1.3,1.3L622.5,540.2C622.5,540.2,622.5,540.2,622.5,540.2z"/>
		<path class="st11" d="M419,858.7c-0.3,0-0.5-0.1-0.7-0.2c-17-11.7-15.4-75-15.3-77.7c0-0.7,0.6-1.3,1.3-1.3c0.8,0,1.3,0.6,1.3,1.4
			c0,0.6-1.7,64.5,14.1,75.5c0.6,0.4,0.7,1.2,0.3,1.8C419.9,858.5,419.5,858.7,419,858.7z"/>
		<path class="st11" d="M425.3,858.2c-0.6,0-1.2-0.5-1.3-1.1c-2.3-14.3-3.4-29-3.1-43.5c0-0.7,0.6-1.3,1.3-1.3
			c0.7,0,1.3,0.6,1.3,1.3c-0.2,14.4,0.8,28.9,3.1,43.1c0.1,0.7-0.4,1.4-1.1,1.5C425.4,858.2,425.4,858.2,425.3,858.2z"/>
	</g>
</g>
</svg>
