<?xml version="1.0" encoding="utf-8"?>
<!-- Generator: Adobe Illustrator 25.4.1, SVG Export Plug-In . SVG Version: 6.00 Build 0)  -->
<svg version="1.1" id="Layer_1" xmlns="http://www.w3.org/2000/svg" xmlns:xlink="http://www.w3.org/1999/xlink" x="0px" y="0px"
	 viewBox="0 0 1000 500" style="enable-background:new 0 0 1000 500;" xml:space="preserve">
<style type="text/css">
	.st0{fill:#F0E1D8;}
	.st1{fill:#F0D0BE;}
	.st2{fill:#F7A188;}
	.st3{fill:#FCFDFF;}
	.st4{fill:#31518F;}
	.st5{fill:#B8D5F5;}
	.st6{fill:#679BD6;}
	.st7{fill:#4C80BA;}
	.st8{fill:#B04547;}
	.st9{fill:#E33255;}
	.st10{fill:#E8F4FC;}
	.st11{fill:#8DC695;}
	.st12{fill:#54855B;}
	.st13{fill:#C7755D;}
	.st14{fill:#F58767;}
	.st15{fill:#D9A984;}
	.st16{fill:#223761;}
	.st17{fill:#AD5119;}
	.st18{fill:#FFC79B;}
	.st19{fill:#F0A637;}
	.st20{fill:#DB7151;}
	.st21{fill:#CF802B;}
	.st22{fill:#FFE385;}
	.st23{fill:#FFFFFF;}
	.st24{fill:#603913;}
	.st25{fill:#F1F2F2;}
	.st26{fill:#D1D3D4;}
	.st27{fill:#566980;}
	.st28{fill:#7893B3;}
	.st29{fill:#C9AD4C;}
	.st30{fill:#302F30;}
	.st31{fill:#254178;}
	.st32{fill:#754C29;}
	.st33{fill:#172642;}
	.st34{fill:#8DC6BE;}
</style>
<g>
	<g id="background">
		<rect x="-0.8" y="-47.1" class="st0" width="1000.8" height="600.5"/>
		<path class="st1" d="M947.7,502.7c21.4-90.5,24.4-200.2-50.9-268c-36-32.4-63.5-65.7-69.6-88.9c-63-238.4-539.9-203.7-640.7-45.7
			c-42.2,66.2-47,128.5-59.8,155.9c-12.7,27.4-81.2,72-87.9,96.4c-17.1,61.8-4.3,99.6,31.8,150.3H947.7z"/>
		<rect x="-0.8" y="499.9" class="st2" width="1000.8" height="8.5"/>
	</g>
	<g id="electrical_panel">
		<g>
			<rect x="289.5" y="-47.1" class="st3" width="1.8" height="248"/>
		</g>
		<g>
			<path class="st3" d="M804.3,389.6h-1.8c0-4.9,0-10,0-15.1c0-9.7,0-19.7,0-30.6c0-0.1,0-0.4-0.4-0.7c-2.8-2.6-16.1-2.7-21-2.5l0,0
				h-486c-1.8,0-3.3-0.7-4.4-2c-4.5-5.2-2.7-18.9-2.7-19.5l1.8,0.2c0,0.1-1.8,13.5,2.2,18c0.8,0.9,1.8,1.4,3.1,1.4H781
				c2-0.1,18.6-0.6,22.3,3.1c0.6,0.6,0.9,1.3,0.9,2c0,11,0,21,0,30.6C804.3,379.6,804.3,384.7,804.3,389.6z"/>
		</g>
		<rect x="240.9" y="-47.1" class="st4" width="5.2" height="254.9"/>
		<path class="st5" d="M218.4,321.6H100c-2.2,0-4-1.8-4-4V199.2c0-2.2,1.8-4,4-4h118.4c2.2,0,4,1.8,4,4v118.4
			C222.4,319.8,220.6,321.6,218.4,321.6z"/>
		<path class="st6" d="M330.2,321.2H224.6c-2.2,0-4-1.8-4-4V198.9c0-2.2,1.8-4,4-4h105.6c2.2,0,4,1.8,4,4v118.4
			C334.2,319.4,332.4,321.2,330.2,321.2z"/>
		<g>
			<g>
				<path class="st5" d="M258.9,309.8c-4.8,0-7.7-1.1-8.7-3.2c-1.5-3.1,2-7.1,2.1-7.3l1.1,1c0,0,0,0,0,0l0,0c-0.8,1-2.8,3.9-1.9,5.7
					c0.8,1.6,3.6,2.4,8.1,2.3c17-0.4,46.7-1.1,50.8-1.1c0,0,0,0,0,0c3.6,0,6.7-1.2,7.9-3.1c0.9-1.4,1-3.2,0.1-5.3l1.3-0.6
					c1.3,3.2,0.6,5.4-0.2,6.7c-1.6,2.4-5,3.8-9.2,3.8c0,0,0,0,0,0c-4.1,0-33.8,0.7-50.8,1.1C259.4,309.8,259.1,309.8,258.9,309.8z"
					/>
			</g>
			<g>
				<path class="st5" d="M259.5,312.4c-6,0-9.7-0.1-12.2-0.4c-4.1-0.5-5-1.5-5.9-3.6c-1.6-3.9-0.1-7.5,0-7.7l1.3,0.6L242,301
					l0.7,0.3c0,0-1.4,3.2,0,6.5c1.3,3.1,1.9,3.2,29.5,3c26.9-0.2,46.4-0.8,47-0.8c1.9-0.2,3.7-1.3,5-3c1.7-2.4,2.2-5.5,1.4-8.8
					l1.4-0.3c0.9,3.6,0.3,7.3-1.7,10c-1.5,2.1-3.8,3.5-6.1,3.6l0,0c-0.2,0-19.8,0.6-47.1,0.8C267.1,312.3,262.9,312.4,259.5,312.4z"
					/>
			</g>
			<g>
				<path class="st5" d="M245.9,312.4c-5.3,0-8.7-0.1-10.9-0.4c-3.6-0.4-4.5-1.4-5.3-3.6c-1.5-3.9-0.1-7.5,0-7.6l1.4,0.5l-0.7-0.3
					l0.7,0.3c0,0-1.3,3.2,0,6.6c1.2,3.1,1.7,3.2,26.2,3c24-0.2,41.3-0.8,42-0.8c1.5-0.1,3-1.1,4.1-2.6c1.8-2.4,2.3-5.8,1.6-9.2
					l1.4-0.3c0.8,3.9,0.2,7.7-1.8,10.4c-1.4,1.9-3.2,3-5.2,3.2l0,0c-0.2,0-17.7,0.6-42.1,0.8C252.7,312.3,248.9,312.4,245.9,312.4z"
					/>
			</g>
		</g>
		<g>
			<g>
				<path class="st5" d="M293.1,283.6l-1.4-0.5c2.6-7,6.2-13.7,9.6-20.2c1.2-2.3,2.5-4.8,3.7-7.2c1.6-3.3,3.2-6.5,3.8-10
					c0.9-4.8,0-9.8-0.8-14.5l1.4-0.3c0.8,4.7,1.7,10,0.8,15.1c-0.7,3.7-2.3,7.1-4,10.3c-1.2,2.4-2.5,4.8-3.7,7.2
					C299.2,270.1,295.7,276.7,293.1,283.6z"/>
			</g>
			<g>
				<path class="st5" d="M297.6,283.6l-1.4-0.5c2.6-7,6.2-13.7,9.6-20.2c1.2-2.3,2.5-4.8,3.7-7.2c1.6-3.3,3.2-6.5,3.8-10
					c0.9-4.8,0-9.8-0.8-14.5l1.4-0.3c0.8,4.7,1.7,10,0.8,15.1c-0.7,3.7-2.3,7.1-4,10.3c-1.2,2.4-2.5,4.8-3.7,7.2
					C303.8,270.1,300.2,276.7,297.6,283.6z"/>
			</g>
			<g>
				<path class="st5" d="M301.8,283.6l-1.4-0.5c2.6-7,6.2-13.7,9.6-20.2c1.2-2.3,2.5-4.8,3.7-7.2c1.6-3.3,3.2-6.5,3.8-10
					c0.9-4.8,0-9.8-0.8-14.5l1.4-0.3c0.8,4.7,1.7,10,0.8,15.1c-0.7,3.7-2.3,7.1-4,10.3c-1.2,2.4-2.5,4.8-3.7,7.2
					C308,270.1,304.5,276.7,301.8,283.6z"/>
			</g>
		</g>
		<g>
			<g>
				<path class="st5" d="M296.2,207l-1.5-0.1c0.2-2.7-0.2-4.5-1.3-5.7c-1.5-1.6-4-1.7-6.6-1.7h-39.3c-1,0-1.9-0.3-2.4-0.8
					c-0.8-0.8-0.8-2.1-0.8-3c0-0.3,0-0.5,0-0.7l1.4-0.2c0,0.3,0,0.6,0,0.9c0,0.7,0,1.5,0.4,1.9c0.3,0.3,0.7,0.4,1.4,0.4h39.3
					c2.9,0,5.9,0.2,7.7,2.2C295.9,201.7,296.5,203.9,296.2,207z"/>
			</g>
			<g>
				<path class="st5" d="M293.2,209.7l-1.5-0.1c0.2-2.7-0.2-4.5-1.3-5.7c-1.5-1.6-4-1.7-6.6-1.7c-2.2,0-10.6,0-19,0
					c-8.3,0-16.6,0-18.8,0c-1.2,0-2.1-0.4-2.7-1.1c-1.4-1.6-0.9-4.3-0.7-5.7c0-0.2,0.1-0.4,0.1-0.5c0,0,0,0,0,0.1l1.4-0.2
					c0,0.2,0,0.4-0.1,0.9c-0.2,1.1-0.5,3.4,0.4,4.5c0.4,0.4,0.9,0.6,1.6,0.6c2.2,0,10.5,0,18.8,0c8.4,0,16.8,0,19,0
					c2.9,0,5.9,0.2,7.7,2.2C292.9,204.4,293.5,206.6,293.2,209.7z"/>
			</g>
			<g>
				<path class="st5" d="M289.2,211.8l-1.5-0.1c0.2-2.7-0.2-4.6-1.3-5.7c-1.4-1.5-3.8-1.6-6.4-1.6c-2.2,0-10.1,0-17.9,0
					c-7.8,0-15.6,0-17.7,0c-1,0-1.8-0.4-2.4-1c-1.7-1.9-1.3-5.8-1.1-7.7c0-0.3,0.1-0.6,0.1-0.7h1.5c0,0.2,0,0.4-0.1,0.8
					c-0.1,1.4-0.5,5.2,0.7,6.6c0.3,0.4,0.8,0.6,1.4,0.6c2.1,0,9.9,0,17.7,0c7.9,0,15.8,0,17.9,0c2.8,0,5.6,0.2,7.4,2.1
					C288.9,206.4,289.5,208.7,289.2,211.8z"/>
			</g>
		</g>
		<g>
			<rect x="224" y="206.9" class="st7" width="109.8" height="28.9"/>
			<g>
				<rect x="322.9" y="206.9" class="st5" width="9.3" height="28.9"/>
				<rect x="322.9" y="211.1" class="st7" width="9.3" height="1.2"/>
				<rect x="322.9" y="230.7" class="st7" width="9.3" height="1.2"/>
				<g>
					<rect x="324.7" y="217" class="st6" width="5.4" height="4.1"/>
					<path class="st6" d="M323.8,224.4c1.5,1.4,3.7,1.7,5.6,1c1-0.4,2-1.1,2.2-2.3c0-0.2,0-0.5-0.1-0.6c-0.2-0.2-0.5-0.2-0.8-0.2
						c-0.9-0.1-1.3-1.2-1.2-2.1c-1.4-0.1-2-0.1-3.4,0c-0.2,0,0.2,1.2,0,1.4C325.2,222.5,322.4,223,323.8,224.4z"/>
				</g>
				<path class="st7" d="M326.4,233.6c0-0.7,0.5-1.3,1.2-1.3s1.2,0.6,1.2,1.3s-0.5,1.3-1.2,1.3S326.4,234.3,326.4,233.6z"/>
				<path class="st7" d="M326.4,209.1c0-0.7,0.5-1.3,1.2-1.3s1.2,0.6,1.2,1.3s-0.5,1.3-1.2,1.3S326.4,209.8,326.4,209.1z"/>
			</g>
			<g>
				<rect x="312.1" y="206.9" class="st5" width="9.3" height="28.9"/>
				<rect x="312.1" y="211.1" class="st7" width="9.3" height="1.2"/>
				<rect x="312.1" y="230.7" class="st7" width="9.3" height="1.2"/>
				<g>
					<rect x="313.9" y="217" class="st6" width="5.4" height="4.1"/>
					<path class="st6" d="M313,224.4c1.5,1.4,3.7,1.7,5.6,1c1-0.4,2-1.1,2.2-2.3c0-0.2,0-0.5-0.1-0.6c-0.2-0.2-0.5-0.2-0.8-0.2
						c-0.9-0.1-1.3-1.2-1.2-2.1c-1.4-0.1-2-0.1-3.4,0c-0.2,0,0.2,1.2,0,1.4C314.4,222.5,311.6,223,313,224.4z"/>
				</g>
				<path class="st7" d="M315.5,233.6c0-0.7,0.5-1.3,1.2-1.3c0.7,0,1.2,0.6,1.2,1.3s-0.5,1.3-1.2,1.3
					C316.1,234.9,315.5,234.3,315.5,233.6z"/>
				<path class="st7" d="M315.5,209.1c0-0.7,0.5-1.3,1.2-1.3c0.7,0,1.2,0.6,1.2,1.3s-0.5,1.3-1.2,1.3
					C316.1,210.4,315.5,209.8,315.5,209.1z"/>
			</g>
			<g>
				<rect x="301.2" y="206.9" class="st5" width="9.3" height="28.9"/>
				<rect x="301.2" y="211.1" class="st7" width="9.3" height="1.2"/>
				<rect x="301.2" y="230.7" class="st7" width="9.3" height="1.2"/>
				<g>
					<rect x="303" y="217" class="st6" width="5.4" height="4.1"/>
					<path class="st6" d="M302.1,224.4c1.5,1.4,3.7,1.7,5.6,1c1-0.4,2-1.1,2.2-2.3c0-0.2,0-0.5-0.1-0.6c-0.2-0.2-0.5-0.2-0.8-0.2
						c-0.9-0.1-1.3-1.2-1.2-2.1c-1.4-0.1-2-0.1-3.4,0c-0.2,0,0.2,1.2,0,1.4C303.6,222.5,300.7,223,302.1,224.4z"/>
				</g>
				<ellipse class="st7" cx="305.9" cy="233.6" rx="1.2" ry="1.3"/>
				<ellipse class="st7" cx="305.9" cy="209.1" rx="1.2" ry="1.3"/>
			</g>
			<g>
				<rect x="290.4" y="206.9" class="st5" width="9.3" height="28.9"/>
				<rect x="290.4" y="211.1" class="st7" width="9.3" height="1.2"/>
				<rect x="290.4" y="230.7" class="st7" width="9.3" height="1.2"/>
				<g>
					<rect x="292.2" y="217" class="st6" width="5.4" height="4.1"/>
					<path class="st6" d="M291.3,224.4c1.5,1.4,3.7,1.7,5.6,1c1-0.4,2-1.1,2.2-2.3c0-0.2,0-0.5-0.1-0.6c-0.2-0.2-0.5-0.2-0.8-0.2
						c-0.9-0.1-1.3-1.2-1.2-2.1c-1.4-0.1-2-0.1-3.4,0c-0.2,0,0.2,1.2,0,1.4C292.7,222.5,289.9,223,291.3,224.4z"/>
				</g>
				<ellipse class="st7" cx="295.1" cy="233.6" rx="1.2" ry="1.3"/>
				<ellipse class="st7" cx="295.1" cy="209.1" rx="1.2" ry="1.3"/>
			</g>
			<g>
				<rect x="279.6" y="206.9" class="st5" width="9.3" height="28.9"/>
				<rect x="279.6" y="211.1" class="st7" width="9.3" height="1.2"/>
				<rect x="279.6" y="230.7" class="st7" width="9.3" height="1.2"/>
				<g>
					<rect x="281.4" y="217" class="st6" width="5.4" height="4.1"/>
					<path class="st6" d="M280.5,224.4c1.5,1.4,3.7,1.7,5.6,1c1-0.4,2-1.1,2.2-2.3c0-0.2,0-0.5-0.1-0.6c-0.2-0.2-0.5-0.2-0.8-0.2
						c-0.9-0.1-1.3-1.2-1.2-2.1c-1.4-0.1-2-0.1-3.4,0c-0.2,0,0.2,1.2,0,1.4C281.9,222.5,279.1,223,280.5,224.4z"/>
				</g>
				<ellipse class="st7" cx="284.2" cy="233.6" rx="1.2" ry="1.3"/>
				<ellipse class="st7" cx="284.2" cy="209.1" rx="1.2" ry="1.3"/>
			</g>
			<g>
				<rect x="268.7" y="206.9" class="st5" width="9.3" height="28.9"/>
				<rect x="268.7" y="211.1" class="st7" width="9.3" height="1.2"/>
				<rect x="268.7" y="230.7" class="st7" width="9.3" height="1.2"/>
				<g>
					<rect x="270.5" y="217" class="st6" width="5.4" height="4.1"/>
					<path class="st6" d="M269.6,224.4c1.5,1.4,3.7,1.7,5.6,1c1-0.4,2-1.1,2.2-2.3c0-0.2,0-0.5-0.1-0.6c-0.2-0.2-0.5-0.2-0.8-0.2
						c-0.9-0.1-1.3-1.2-1.2-2.1c-1.4-0.1-2-0.1-3.4,0c-0.2,0,0.2,1.2,0,1.4C271,222.5,268.2,223,269.6,224.4z"/>
				</g>
				<ellipse class="st7" cx="273.4" cy="233.6" rx="1.2" ry="1.3"/>
				<ellipse class="st7" cx="273.4" cy="209.1" rx="1.2" ry="1.3"/>
			</g>
			<g>
				<rect x="257.9" y="206.9" class="st5" width="9.3" height="28.9"/>
				<rect x="257.9" y="211.1" class="st7" width="9.3" height="1.2"/>
				<rect x="257.9" y="230.7" class="st7" width="9.3" height="1.2"/>
				<g>
					<rect x="259.7" y="217" class="st6" width="5.4" height="4.1"/>
					<path class="st6" d="M258.8,224.4c1.5,1.4,3.7,1.7,5.6,1c1-0.4,2-1.1,2.2-2.3c0-0.2,0-0.5-0.1-0.6c-0.2-0.2-0.5-0.2-0.8-0.2
						c-0.9-0.1-1.3-1.2-1.2-2.1c-1.4-0.1-2-0.1-3.4,0c-0.2,0,0.2,1.2,0,1.4C260.2,222.5,257.4,223,258.8,224.4z"/>
				</g>
				<ellipse class="st7" cx="262.5" cy="233.6" rx="1.2" ry="1.3"/>
				<ellipse class="st7" cx="262.5" cy="209.1" rx="1.2" ry="1.3"/>
			</g>
			<g>
				<rect x="247.1" y="206.9" class="st5" width="9.3" height="28.9"/>
				<rect x="247.1" y="211.1" class="st7" width="9.3" height="1.2"/>
				<rect x="247.1" y="230.7" class="st7" width="9.3" height="1.2"/>
				<g>
					<rect x="248.8" y="217" class="st6" width="5.4" height="4.1"/>
					<path class="st6" d="M247.9,224.4c1.5,1.4,3.7,1.7,5.6,1c1-0.4,2-1.1,2.2-2.3c0-0.2,0-0.5-0.1-0.6c-0.2-0.2-0.5-0.2-0.8-0.2
						c-0.9-0.1-1.3-1.2-1.2-2.1c-1.4-0.1-2-0.1-3.4,0c-0.2,0,0.2,1.2,0,1.4C249.4,222.5,246.6,223,247.9,224.4z"/>
				</g>
				<ellipse class="st7" cx="251.7" cy="233.6" rx="1.2" ry="1.3"/>
				<ellipse class="st7" cx="251.7" cy="209.1" rx="1.2" ry="1.3"/>
			</g>
			<g>
				<rect x="236.2" y="206.9" class="st5" width="9.3" height="28.9"/>
				<rect x="236.2" y="211.1" class="st7" width="9.3" height="1.2"/>
				<rect x="236.2" y="230.7" class="st7" width="9.3" height="1.2"/>
				<g>
					<rect x="238" y="217" class="st6" width="5.4" height="4.1"/>
					<path class="st6" d="M237.1,224.4c1.5,1.4,3.7,1.7,5.6,1c1-0.4,2-1.1,2.2-2.3c0-0.2,0-0.5-0.1-0.6c-0.2-0.2-0.5-0.2-0.8-0.2
						c-0.9-0.1-1.3-1.2-1.2-2.1c-1.4-0.1-2-0.1-3.4,0c-0.2,0,0.2,1.2,0,1.4C238.5,222.5,235.7,223,237.1,224.4z"/>
				</g>
				<ellipse class="st7" cx="240.9" cy="233.6" rx="1.2" ry="1.3"/>
				<ellipse class="st7" cx="240.9" cy="209.1" rx="1.2" ry="1.3"/>
			</g>
			<g>
				<rect x="225.4" y="206.9" class="st5" width="9.3" height="28.9"/>
				<rect x="225.4" y="211.1" class="st7" width="9.3" height="1.2"/>
				<rect x="225.4" y="230.7" class="st7" width="9.3" height="1.2"/>
				<g>
					<rect x="227.2" y="217" class="st6" width="5.4" height="4.1"/>
					<path class="st6" d="M226.3,224.4c1.5,1.4,3.7,1.7,5.6,1c1-0.4,2-1.1,2.2-2.3c0-0.2,0-0.5-0.1-0.6c-0.2-0.2-0.5-0.2-0.8-0.2
						c-0.9-0.1-1.3-1.2-1.2-2.1c-1.4-0.1-2-0.1-3.4,0c-0.2,0,0.2,1.2,0,1.4C227.7,222.5,224.9,223,226.3,224.4z"/>
				</g>
				<ellipse class="st7" cx="230" cy="233.6" rx="1.2" ry="1.3"/>
				<ellipse class="st7" cx="230" cy="209.1" rx="1.2" ry="1.3"/>
			</g>
		</g>
		<g>
			<rect x="224" y="273.1" class="st7" width="44.8" height="28.9"/>
			<rect x="278.2" y="273.1" class="st7" width="55.6" height="28.9"/>
			<g>
				<rect x="322.9" y="273.1" class="st5" width="9.3" height="28.9"/>
				<rect x="322.9" y="277.3" class="st7" width="9.3" height="1.2"/>
				<rect x="322.9" y="296.8" class="st7" width="9.3" height="1.2"/>
				<g>
					<rect x="324.7" y="283.1" class="st6" width="5.4" height="4.1"/>
					<path class="st6" d="M323.8,290.5c1.5,1.4,3.7,1.7,5.6,1c1-0.4,2-1.1,2.2-2.3c0-0.2,0-0.5-0.1-0.6c-0.2-0.2-0.5-0.2-0.8-0.2
						c-0.9-0.1-1.3-1.2-1.2-2.1c-1.4-0.1-2-0.1-3.4,0c-0.2,0,0.2,1.2,0,1.4C325.2,288.7,322.4,289.2,323.8,290.5z"/>
				</g>
				<path class="st7" d="M326.4,299.8c0-0.7,0.5-1.3,1.2-1.3s1.2,0.6,1.2,1.3s-0.5,1.3-1.2,1.3S326.4,300.5,326.4,299.8z"/>
				<path class="st7" d="M326.4,275.3c0-0.7,0.5-1.3,1.2-1.3s1.2,0.6,1.2,1.3c0,0.7-0.5,1.3-1.2,1.3S326.4,276,326.4,275.3z"/>
			</g>
			<g>
				<rect x="312.1" y="273.1" class="st5" width="9.3" height="28.9"/>
				<rect x="312.1" y="277.3" class="st7" width="9.3" height="1.2"/>
				<rect x="312.1" y="296.8" class="st7" width="9.3" height="1.2"/>
				<g>
					<rect x="313.9" y="283.1" class="st6" width="5.4" height="4.1"/>
					<path class="st6" d="M313,290.5c1.5,1.4,3.7,1.7,5.6,1c1-0.4,2-1.1,2.2-2.3c0-0.2,0-0.5-0.1-0.6c-0.2-0.2-0.5-0.2-0.8-0.2
						c-0.9-0.1-1.3-1.2-1.2-2.1c-1.4-0.1-2-0.1-3.4,0c-0.2,0,0.2,1.2,0,1.4C314.4,288.7,311.6,289.2,313,290.5z"/>
				</g>
				<path class="st7" d="M315.5,299.8c0-0.7,0.5-1.3,1.2-1.3c0.7,0,1.2,0.6,1.2,1.3s-0.5,1.3-1.2,1.3
					C316.1,301,315.5,300.5,315.5,299.8z"/>
				<path class="st7" d="M315.5,275.3c0-0.7,0.5-1.3,1.2-1.3c0.7,0,1.2,0.6,1.2,1.3c0,0.7-0.5,1.3-1.2,1.3
					C316.1,276.6,315.5,276,315.5,275.3z"/>
			</g>
			<g>
				<rect x="301.2" y="273.1" class="st5" width="9.3" height="28.9"/>
				<rect x="301.2" y="277.3" class="st7" width="9.3" height="1.2"/>
				<rect x="301.2" y="296.8" class="st7" width="9.3" height="1.2"/>
				<g>
					<rect x="303" y="283.1" class="st6" width="5.4" height="4.1"/>
					<path class="st6" d="M302.1,290.5c1.5,1.4,3.7,1.7,5.6,1c1-0.4,2-1.1,2.2-2.3c0-0.2,0-0.5-0.1-0.6c-0.2-0.2-0.5-0.2-0.8-0.2
						c-0.9-0.1-1.3-1.2-1.2-2.1c-1.4-0.1-2-0.1-3.4,0c-0.2,0,0.2,1.2,0,1.4C303.6,288.7,300.7,289.2,302.1,290.5z"/>
				</g>
				<ellipse class="st7" cx="305.9" cy="299.8" rx="1.2" ry="1.3"/>
				<ellipse class="st7" cx="305.9" cy="275.3" rx="1.2" ry="1.3"/>
			</g>
			<g>
				<rect x="290.4" y="273.1" class="st5" width="9.3" height="28.9"/>
				<rect x="290.4" y="277.3" class="st7" width="9.3" height="1.2"/>
				<rect x="290.4" y="296.8" class="st7" width="9.3" height="1.2"/>
				<g>
					<rect x="292.2" y="283.1" class="st6" width="5.4" height="4.1"/>
					<path class="st6" d="M291.3,290.5c1.5,1.4,3.7,1.7,5.6,1c1-0.4,2-1.1,2.2-2.3c0-0.2,0-0.5-0.1-0.6c-0.2-0.2-0.5-0.2-0.8-0.2
						c-0.9-0.1-1.3-1.2-1.2-2.1c-1.4-0.1-2-0.1-3.4,0c-0.2,0,0.2,1.2,0,1.4C292.7,288.7,289.9,289.2,291.3,290.5z"/>
				</g>
				<ellipse class="st7" cx="295.1" cy="299.8" rx="1.2" ry="1.3"/>
				<ellipse class="st7" cx="295.1" cy="275.3" rx="1.2" ry="1.3"/>
			</g>
			<g>
				<rect x="279.6" y="273.1" class="st5" width="9.3" height="28.9"/>
				<rect x="279.6" y="277.3" class="st7" width="9.3" height="1.2"/>
				<rect x="279.6" y="296.8" class="st7" width="9.3" height="1.2"/>
				<g>
					<rect x="281.4" y="283.1" class="st6" width="5.4" height="4.1"/>
					<path class="st6" d="M280.5,290.5c1.5,1.4,3.7,1.7,5.6,1c1-0.4,2-1.1,2.2-2.3c0-0.2,0-0.5-0.1-0.6c-0.2-0.2-0.5-0.2-0.8-0.2
						c-0.9-0.1-1.3-1.2-1.2-2.1c-1.4-0.1-2-0.1-3.4,0c-0.2,0,0.2,1.2,0,1.4C281.9,288.7,279.1,289.2,280.5,290.5z"/>
				</g>
				<ellipse class="st7" cx="284.2" cy="299.8" rx="1.2" ry="1.3"/>
				<ellipse class="st7" cx="284.2" cy="275.3" rx="1.2" ry="1.3"/>
			</g>
			<g>
				<rect x="257.9" y="273.1" class="st5" width="9.3" height="28.9"/>
				<rect x="257.9" y="277.3" class="st7" width="9.3" height="1.2"/>
				<rect x="257.9" y="296.8" class="st7" width="9.3" height="1.2"/>
				<g>
					<rect x="259.7" y="283.1" class="st8" width="5.4" height="4.1"/>
					<path class="st8" d="M258.8,290.5c1.5,1.4,3.7,1.7,5.6,1c1-0.4,2-1.1,2.2-2.3c0-0.2,0-0.5-0.1-0.6c-0.2-0.2-0.5-0.2-0.8-0.2
						c-0.9-0.1-1.3-1.2-1.2-2.1c-1.4-0.1-2-0.1-3.4,0c-0.2,0,0.2,1.2,0,1.4C260.2,288.7,257.4,289.2,258.8,290.5z"/>
				</g>
				<ellipse class="st7" cx="262.5" cy="299.8" rx="1.2" ry="1.3"/>
				<ellipse class="st7" cx="262.5" cy="275.3" rx="1.2" ry="1.3"/>
			</g>
			<g>
				<rect x="247.1" y="273.1" class="st5" width="9.3" height="28.9"/>
				<rect x="247.1" y="277.3" class="st7" width="9.3" height="1.2"/>
				<rect x="247.1" y="296.8" class="st7" width="9.3" height="1.2"/>
				<g>
					<rect x="248.8" y="283.1" class="st8" width="5.4" height="4.1"/>
					<path class="st8" d="M247.9,290.5c1.5,1.4,3.7,1.7,5.6,1c1-0.4,2-1.1,2.2-2.3c0-0.2,0-0.5-0.1-0.6c-0.2-0.2-0.5-0.2-0.8-0.2
						c-0.9-0.1-1.3-1.2-1.2-2.1c-1.4-0.1-2-0.1-3.4,0c-0.2,0,0.2,1.2,0,1.4C249.4,288.7,246.6,289.2,247.9,290.5z"/>
				</g>
				<ellipse class="st7" cx="251.7" cy="299.8" rx="1.2" ry="1.3"/>
				<ellipse class="st7" cx="251.7" cy="275.3" rx="1.2" ry="1.3"/>
			</g>
			<g>
				<rect x="236.2" y="273.1" class="st5" width="9.3" height="28.9"/>
				<rect x="236.2" y="277.3" class="st7" width="9.3" height="1.2"/>
				<rect x="236.2" y="296.8" class="st7" width="9.3" height="1.2"/>
				<g>
					<rect x="238" y="283.1" class="st8" width="5.4" height="4.1"/>
					<path class="st8" d="M237.1,290.5c1.5,1.4,3.7,1.7,5.6,1c1-0.4,2-1.1,2.2-2.3c0-0.2,0-0.5-0.1-0.6c-0.2-0.2-0.5-0.2-0.8-0.2
						c-0.9-0.1-1.3-1.2-1.2-2.1c-1.4-0.1-2-0.1-3.4,0c-0.2,0,0.2,1.2,0,1.4C238.5,288.7,235.7,289.2,237.1,290.5z"/>
				</g>
				<ellipse class="st7" cx="240.9" cy="299.8" rx="1.2" ry="1.3"/>
				<ellipse class="st7" cx="240.9" cy="275.3" rx="1.2" ry="1.3"/>
			</g>
			<g>
				<rect x="225.4" y="273.1" class="st5" width="9.3" height="28.9"/>
				<rect x="225.4" y="277.3" class="st7" width="9.3" height="1.2"/>
				<rect x="225.4" y="296.8" class="st7" width="9.3" height="1.2"/>
				<g>
					<rect x="227.2" y="283.1" class="st8" width="5.4" height="4.1"/>
					<path class="st8" d="M226.3,290.5c1.5,1.4,3.7,1.7,5.6,1c1-0.4,2-1.1,2.2-2.3c0-0.2,0-0.5-0.1-0.6c-0.2-0.2-0.5-0.2-0.8-0.2
						c-0.9-0.1-1.3-1.2-1.2-2.1c-1.4-0.1-2-0.1-3.4,0c-0.2,0,0.2,1.2,0,1.4C227.7,288.7,224.9,289.2,226.3,290.5z"/>
				</g>
				<ellipse class="st7" cx="230" cy="299.8" rx="1.2" ry="1.3"/>
				<ellipse class="st7" cx="230" cy="275.3" rx="1.2" ry="1.3"/>
			</g>
		</g>
		<g>
			<g>
				<polygon class="st9" points="148.6,260.6 138.3,260.6 150.9,234.4 161.2,234.4 				"/>
			</g>
			<g>
				<polygon class="st9" points="138,282.4 152.5,252.5 162.8,252.5 				"/>
			</g>
		</g>
	</g>
	<g id="window">
		<rect x="783.2" y="101.5" class="st7" width="178.9" height="194.4"/>
		<rect x="797.9" y="111.3" class="st10" width="149.4" height="174.7"/>
		<rect x="783.2" y="153.9" class="st7" width="178.9" height="6.6"/>
		<g>
			<rect x="773.9" y="295.9" class="st4" width="197.4" height="18.6"/>
			<path class="st4" d="M971.4,314.6H773.8v-18.8h197.6V314.6z M774,314.4h197.2v-18.4H774V314.4z"/>
		</g>
		<g>
			<rect x="773.9" y="89" class="st4" width="197.4" height="12.5"/>
			<path class="st4" d="M971.4,101.7H773.8V89h197.6V101.7z M774,101.5h197.2V89.1H774V101.5z"/>
		</g>
	</g>
	<g id="plant_1">
		<path class="st11" d="M456.1,367.5c-0.2,0.3-0.5,0.6-0.7,0.9c-1.1,1.3-2.2,2.4-3.4,3.1c-8.8,5.6-17,6.5-19.1,16.7
			c-0.4,1.9-0.5,3.7-0.7,5.3c-0.1,0.3-0.1,0.6-0.2,0.9c-0.3,1.2-0.7,2.3-1.6,3.3c-0.2,0.3-0.5,0.6-0.8,0.8c-0.5,0.5-1.2,1-2,1.4
			c-4.4,2.6-10,1.9-14.1,5c-4,3-3.6,7.6-5.9,11.3c-2.3,3.8-6.9,5.3-9.9,8.6c-2.6,2.9-4.8,7.5-5,11.1v-2.5c1.5-4.5,2.9-9.7,3.3-14.4
			c0.4-4.9-1.4-9,0.8-13.7c1.8-3.9,5.7-5.9,8.2-9.3c2.9-4.1,1.2-9,4.2-13.1c2.5-3.5,7.2-5.5,9.8-8.8c2.8-3.5,3.2-7.8,6.9-11
			c0.1-0.1,0.2-0.2,0.3-0.2c0,0,0,0,0,0c0.5-0.4,1-0.7,1.4-1c1.3-0.8,2.6-1.2,3.9-1.5h0c0.4-0.1,0.8-0.1,1.2-0.2
			c2.3-0.3,4.7-0.2,7.4-0.8c4.8-1.1,7-5.6,12.3-5.9C462.7,352.9,460.5,361.7,456.1,367.5z"/>
		<path class="st11" d="M405.9,325.5c0,0.5-0.1,0.9-0.1,1.3c0,0.2-0.1,0.4-0.1,0.6c-0.7,2.8-2.5,4.9-3.8,7.3
			c-0.1,0.2-0.2,0.4-0.3,0.6c-0.5,0.9-0.8,1.8-1.1,2.8c-1,4.6,0,10.7,1.5,14.7c1.6,4.5,3.1,7.9,0.7,12.6c-2,3.8-5.7,7.1-7.4,10.9
			c-1.5,3.5-0.7,7.4-0.6,11.1c0,0.2,0,0.4,0,0.7c0,0.8,0,1.6-0.1,2.4c-0.6,4.4-2.9,7.1-5.7,10.8c-2.5,3.3-4.8,6.9-6.4,10.6
			c-1.4,3.3-0.8,8.6-2.8,11.3l-0.7,0.9c-3.9-8.8-1-18.8-6.3-27.2c-6.5-10.4,3.3-14.5,4.8-24.3c0.8-5-3.9-9.2-3.3-14.4
			c0.1-1.2,0.5-2.1,1.1-3c0.2-0.3,0.4-0.5,0.6-0.8c1.9-2.4,5-4,6.3-7c1.9-4.7-2.1-9-1.8-13.7c0.2-4.8,4.6-6.4,8-9.9
			c3-3.2,3.4-9.8,9.9-9.1C404,315.4,406.1,321.5,405.9,325.5z"/>
		<path class="st11" d="M371,435.8c-2.7-3.4-3-7.8-5.7-11.3c-3-3.9-9.8-4-12.2-7.5c-1.4-2,0-4.6-0.7-6.8c-0.8-2.5-2.7-3.8-4.9-5.3
			c-3.5-2.3-4.8-3.2-5.7-5.2c-0.1-0.3-0.3-0.6-0.4-0.9c-0.3-0.9-0.6-1.9-0.9-3.3c0-0.1-0.1-0.2-0.1-0.4c-0.1-0.3-0.2-0.6-0.4-0.9
			c-2.4-5.2-9.6-4.8-12.7-9.7c-1.6-2.6-1.1-5.7-0.6-8.7l0-0.1c0-0.3,0.1-0.5,0.1-0.8c0.4-2.3,0.6-4.6,0-6.7
			c-1.8-5.4-7.3-9.1-8.5-14.9c-1.1-5.4,3.4-10.5,10.1-7.8c3.7,1.5,5.6,4.2,7,7.3c0,0,0,0,0,0c0.2,0.4,0.4,0.9,0.5,1.3
			c0.5,1.3,0.9,2.6,1.3,3.9c0.1,0.5,0.3,0.9,0.4,1.3c1.1,3.3,2.4,6.5,4.9,8.8c2.6,2.3,5.5,3.9,7.3,6.3c0.2,0.3,0.4,0.6,0.6,1
			c0.3,0.6,0.6,1.2,0.8,1.9c1.3,4.9-0.4,8.5,3.4,12.7c2.9,3.2,6.1,5.2,7.9,8.9c0.1,0.3,0.3,0.6,0.4,1c0.1,0.1,0.1,0.3,0.2,0.4
			c0,0,0,0,0,0c1.5,4.4,1.6,8.5,2,13.1C365.8,421.3,371.7,427.6,371,435.8z"/>
		<g>
			<path class="st12" d="M383.6,477C383.5,477,383.5,477,383.6,477c-0.5,0-0.8-0.4-0.7-0.8c0-0.2,0.1-0.4,0.2-0.5
				c0.2-1.1-0.5-6.3-1-8.3c-1.2-5.1-2.4-21.5-3-31.2c-0.2-2.5-0.3-4.6-0.4-5.8c-1-11.6-1.1-20.9-0.3-29.3c0.9-10.7,3.2-19.9,7-28
				c1.9-4.1,1.6-8.3,1.3-12.2c-0.3-4.6-0.7-9.4,2.4-14.2c2.8-4.4,3.2-9.4,3.7-14.6c0.3-3.8,0.6-7.7,2-11.3c0.1-0.4,0.6-0.6,0.9-0.4
				c0.4,0.1,0.6,0.6,0.4,0.9c-1.3,3.5-1.6,7.3-1.9,11c-0.4,5.2-0.9,10.6-3.9,15.3c-2.8,4.4-2.5,8.7-2.1,13.3c0.3,4.2,0.6,8.5-1.5,13
				c-8.5,18.1-8,39.8-6.6,56.6c0.1,1.2,0.2,3.3,0.4,5.8c0.7,9.7,1.8,26,3,31c0.2,0.9,0.6,3,0.8,5c0.5,3.9,0.1,4.3-0.1,4.6
				C384,476.9,383.8,477,383.6,477z M383.6,475.6C383.6,475.6,383.6,475.6,383.6,475.6C383.6,475.6,383.6,475.6,383.6,475.6z"/>
		</g>
		<g>
			<path class="st12" d="M389.6,466.3c-0.4,0-0.7-0.3-0.7-0.7c0-24.4,4.1-43.1,12.5-57.4c2.1-3.5,5.4-6.5,8.5-9.3
				c3.3-3,6.7-6,8.7-9.7c0.7-1.4,1.1-2.8,1.5-4.2c0.8-2.8,1.6-5.7,4.9-8c1.5-1,2.8-1.8,4-2.4c2.5-1.4,4.5-2.6,6.8-5.7
				c2.2-3.1,3.8-4.3,7.5-5.8c0.6-0.2,1.3-0.5,2-0.8c2.4-0.8,6-2.1,5.9-3.7c0-0.4,0.3-0.7,0.7-0.8c0.4,0,0.7,0.3,0.8,0.7
				c0.1,2.7-3.7,4.1-6.9,5.2c-0.7,0.3-1.4,0.5-2,0.7c-3.7,1.6-4.9,2.7-6.9,5.4c-2.4,3.3-4.7,4.6-7.2,6.1c-1.2,0.7-2.4,1.4-3.8,2.4
				c-2.8,2-3.6,4.5-4.3,7.2c-0.4,1.5-0.9,3-1.6,4.4c-2,3.9-5.6,7.1-9,10.1c-3.1,2.7-6.3,5.6-8.2,8.9c-8.3,14-12.3,32.5-12.3,56.6
				C390.3,466,390,466.3,389.6,466.3z"/>
		</g>
		<g>
			<path class="st12" d="M377.6,477c0,0-0.1,0-0.1,0c-0.4-0.1-0.7-0.4-0.6-0.8c0.3-2-1.1-12-3.9-24.6c-3.2-14.2-7-25.9-10.3-32.1
				c-1-1.9-1.5-3.7-2-5.6c-0.6-2.4-1.3-4.7-2.8-6.7c-1.1-1.4-2.5-2.5-3.9-3.6c-2-1.5-4-3.1-5.1-5.4c-1-2.1-1.2-4.3-1.4-6.4
				c-0.2-2.4-0.4-4.7-1.7-6.7c-1.2-1.8-3.2-3.4-5.2-4.9c-1.2-0.9-2.4-1.9-3.5-2.9c-4.4-4.2-5.9-9.8-7.4-15.2c-0.8-2.9-1.6-6-2.9-8.7
				c-0.2-0.4,0-0.8,0.3-1c0.4-0.2,0.8,0,1,0.3c1.3,2.8,2.2,5.9,3,8.9c1.5,5.5,2.8,10.6,7,14.5c1,0.9,2.1,1.8,3.4,2.8
				c2.1,1.6,4.2,3.3,5.6,5.3c1.5,2.3,1.8,4.9,2,7.4c0.2,2.1,0.4,4.1,1.3,5.9c0.9,2,2.8,3.4,4.7,4.8c1.5,1.1,3,2.3,4.2,3.8
				c1.8,2.3,2.5,4.8,3.1,7.2c0.5,1.8,1,3.6,1.9,5.3c7.8,14.6,15.2,52.8,14.4,57.7C378.2,476.8,377.9,477,377.6,477z"/>
		</g>
		<path class="st13" d="M381.5,500.7c-16.5,0-19.6-5-24.3-44.1c10.6,0,36.1,0,48.6,0C400.9,495.7,398,500.7,381.5,500.7z"/>
		<g>
			<path class="st12" d="M392.7,338.9c-0.1,0-0.2,0-0.2,0c-0.3-0.1-0.4-0.4-0.3-0.6c2.5-4.3,7.5-7.8,12-11l0.8-0.5
				c0.2-0.2,0.6-0.1,0.8,0.1c0.2,0.2,0.2,0.5-0.1,0.6l-0.8,0.5c-4.4,3.1-9.3,6.5-11.7,10.6C393.1,338.8,392.9,338.9,392.7,338.9z"/>
		</g>
		<g>
			<path class="st12" d="M391.3,345c-0.2,0-0.4-0.1-0.5-0.3c-0.1-0.2,0-0.5,0.3-0.6c2.4-0.9,3.9-2.9,5.5-5c1.3-1.7,2.6-3.5,4.4-4.6
				c0.2-0.2,0.6-0.1,0.8,0.1c0.2,0.2,0.1,0.5-0.1,0.6c-1.7,1.1-2.9,2.7-4.2,4.4c-1.6,2.1-3.3,4.4-6,5.4
				C391.4,345,391.3,345,391.3,345z"/>
		</g>
		<g>
			<path class="st12" d="M387.5,369.3l-0.4-0.7c-2.9-4.9-6.1-10.4-11.2-14c0,0,0,0,0,0c-0.2,0.3-0.4,0.5-0.6,0.8
				c4.9,3.4,8,8.8,10.8,13.6l0.2,0.3c-0.1,0.1-0.1,0.3,0,0.4c0,0.1,0.1,0.1,0.1,0.2c0.2,0.2,0.4,0.2,0.5,0.2h0
				c0.2,0,0.4-0.1,0.6-0.3C387.6,369.6,387.6,369.4,387.5,369.3z"/>
		</g>
		<g>
			<path class="st12" d="M380.6,390.3c-0.2,0-0.4-0.1-0.5-0.3c-0.1-0.2,0-0.5,0.3-0.6c0.3-0.1,0.5-0.2,0.8-0.3
				c2-0.8,3.9-1.5,5.6-2.7l0.1-0.1c1.1-0.7,2.1-1.4,3.3-2c0.4-0.2,1.2-0.6,1.8-0.9c0.4-0.2,0.9-0.4,1-0.5c0.2-0.1,0.5-0.1,0.7,0.1
				c0.2,0.2,0.2,0.5-0.1,0.6c-0.1,0.1-0.2,0.1-1.2,0.6c-0.6,0.3-1.4,0.6-1.8,0.8c-1.1,0.6-2.1,1.2-3.1,1.9l-0.1,0.1
				c-1.9,1.3-3.8,2-5.8,2.8c-0.2,0.1-0.5,0.2-0.8,0.3C380.8,390.2,380.7,390.3,380.6,390.3z"/>
		</g>
		<g>
			<path class="st12" d="M380.1,392.5c-0.3,0-0.5-0.2-0.5-0.5c0-0.3,0.2-0.5,0.5-0.5c4.1,0,9.2-1.5,13.2-3.8
				c0.2-0.2,0.7-0.4,0.9-0.5c0.2,0,0.5,0.1,0.6,0.3c0.1,0.2,0,0.4-0.2,0.5C390.3,390.8,384.6,392.5,380.1,392.5
				C380.1,392.5,380.1,392.5,380.1,392.5z"/>
		</g>
		<g>
			<path class="st12" d="M335.9,354c-0.3,0.6-0.6,1.2-1,1.8c-0.6,1-1.1,2-1.4,2.8c-0.6,1.8-0.9,3.6-1.3,5.4
				c-0.1,0.6-0.2,1.3-0.3,1.9c0,0.2-0.3,0.4-0.5,0.4c0,0-0.1,0-0.1,0c-0.3,0-0.5-0.3-0.4-0.5c0.1-0.6,0.2-1.3,0.3-1.9
				c0.3-1.8,0.7-3.7,1.3-5.6c0.3-0.8,0.9-1.9,1.5-2.9c0.5-0.9,1.1-1.9,1.4-2.8C335.6,353.1,335.7,353.6,335.9,354z"/>
		</g>
		<g>
			<path class="st12" d="M337.7,359.3c-0.2,0.4-0.5,0.8-0.7,1.1c-0.6,1-1.1,1.9-1.5,2.6c-0.8,1.7-1.2,3.2-1.5,4.7
				c-0.2,0.7-0.3,1.5-0.6,2.3c-0.1,0.2-0.3,0.4-0.5,0.4c0,0-0.1,0-0.1,0c-0.3-0.1-0.5-0.3-0.4-0.6c0.2-0.8,0.4-1.6,0.6-2.3
				c0.4-1.6,0.7-3.1,1.6-4.9c0.4-0.8,1-1.7,1.6-2.7c0.4-0.7,0.9-1.4,1.2-2.1L337.7,359.3z"/>
		</g>
		<g>
			<path class="st12" d="M326.9,374.7c1.5,0.1,2.9,0.3,4.3,0.5c2,0.3,3.8,0.6,5.7,0.6c0.3,0,0.5,0.2,0.5,0.5c0,0.3-0.2,0.5-0.5,0.5
				c0,0,0,0,0,0c-2,0-4-0.3-5.9-0.6c-1.4-0.2-2.8-0.4-4.3-0.5L326.9,374.7z"/>
		</g>
		<g>
			<path class="st12" d="M350.5,375.5c-0.2,0.3-0.4,0.7-0.6,1c-0.5,0.8-1,1.5-1.2,2c-0.8,1.7-1.7,3.5-2.3,5.6
				c-0.1,0.2-0.3,0.3-0.5,0.3c0,0-0.1,0-0.1,0c-0.3-0.1-0.5-0.3-0.4-0.6c0.7-2.2,1.5-4,2.4-5.8c0.3-0.6,0.8-1.3,1.3-2.1
				c0.3-0.5,0.6-1,1-1.5C350.1,374.8,350.3,375.1,350.5,375.5z"/>
		</g>
		<g>
			<path class="st12" d="M432.8,360.1c-0.5,1.8-0.9,3.6-1.3,5.2c-0.1,0.5-0.2,1.1-0.3,1.6c-0.1,0.6-0.3,1.3-0.5,1.9
				c-0.5,2-1.1,4.2-0.9,6.1c0,0.3-0.2,0.5-0.5,0.5c0,0,0,0,0,0c-0.3,0-0.5-0.2-0.5-0.4c-0.2-2.1,0.4-4.3,0.9-6.4
				c0.2-0.7,0.3-1.3,0.5-1.9c0.1-0.5,0.2-1,0.3-1.6c0.3-1.5,0.7-3.2,1.2-4.9h0C432.1,360.2,432.4,360.2,432.8,360.1z"/>
		</g>
		<g>
			<path class="st12" d="M427.8,361.8c-0.9,2.9-1.7,5.8-2.1,8.8c-0.1,0.5-0.2,1-0.3,1.6c-0.4,2-0.8,4.2-0.3,5.9
				c0.1,0.2-0.1,0.5-0.4,0.6c0,0-0.1,0-0.1,0c-0.2,0-0.5-0.1-0.5-0.3c-0.6-1.9-0.1-4.2,0.3-6.3c0.1-0.6,0.2-1.1,0.3-1.6
				c0.4-2.6,1.1-5.1,1.8-7.6c0,0,0,0,0,0C426.8,362.4,427.3,362,427.8,361.8z"/>
		</g>
		<g>
			<path class="st12" d="M456.1,367.5c-0.2,0.3-0.5,0.6-0.7,0.9c-0.5,0-1,0-1.5-0.1c-2.4-0.1-5.6-0.2-8.7-0.6c-2-0.3-4-0.5-6.6-0.7
				c-0.3,0-0.5-0.2-0.5-0.5c0-0.3,0.3-0.4,0.6-0.4c2.6,0.2,4.6,0.4,6.7,0.7c3.1,0.4,6.2,0.6,8.6,0.6
				C454.7,367.4,455.4,367.4,456.1,367.5z"/>
		</g>
	</g>
	<g id="electrician_standing">
		<g>
			<path class="st4" d="M278.5,247.8l-0.2-0.2c-0.2-0.2-0.1-0.6,0.1-0.8l14.5-12.3c0.3-0.2,2.2-1.6,2.4-1.4l0.2,0.2
				c0.2,0.2-1.5,1.9-1.8,2.2l-14.5,12.3C279,248,278.6,248,278.5,247.8z"/>
			<path class="st8" d="M283.2,245.4c-5.1,4.3-9.3,7.7-10.2,6.8c-0.8-1,3.1-4.7,8.2-9.1c5.1-4.3,9.5-7.6,10.3-6.6
				C292.4,237.4,288.3,241,283.2,245.4z"/>
		</g>
		<path class="st14" d="M242.2,233.3c-0.4,0.6,1,4.6-0.4,6.1c-1.4,1.5-3.2,4.4-3.2,4.4l5.8,6.4c0,0,4.5-3.7,7-6.2
			c2.5-2.5,5.9-9.8,5.9-9.8s-7.1-6.2-7.4-5.9C249.7,228.6,242.2,233.3,242.2,233.3z"/>
		<path class="st15" d="M240.5,240.9c0,0-11.4,9.9-16.2,13.3c-2.8,2-7.6,4.5-11,6.1c0.8,6.8,0.7,13.7-0.3,20.5
			c7.8-5.2,18.4-13.8,21.9-17.1c5-4.9,11.4-13.6,11.4-13.6L240.5,240.9z"/>
		<g>
			<path class="st4" d="M262.6,287.6c-0.1,0-0.2,0-0.3,0c-4.5-0.1-7.7-1.6-9.8-4.7c-1.9-2.7-2.8-6.3-3.9-10.5c-0.2-1-0.5-2-0.8-3
				c-2.4-9-2.6-18.6-0.4-29.4l1.6,0.3c-2.1,10.5-2,19.9,0.4,28.6c0.3,1,0.5,2,0.8,3c1,4,1.9,7.5,3.7,10c1.8,2.6,4.5,3.9,8.5,4
				c0.1,0,0.1,0,0.2,0c7.2,0,8.7-11.3,10-20.4c0.5-3.8,1-7.1,1.8-9.4c2.8-7.8,5.8-10.4,6-10.5l1.1,1.2c0,0-2.8,2.5-5.5,9.8
				c-0.7,2.1-1.2,5.4-1.7,9c-0.7,4.8-1.4,10.2-3,14.4C269.3,285.2,266.5,287.6,262.6,287.6z"/>
		</g>
		<path class="st14" d="M264.3,252.3c0.7-1.5,6.7-8.3,8.5-8.7c1.7-0.4,5.7-1.8,8-1.8s8.7-0.4,8.5,1.1c-0.2,1.6-3.2,4.1-3.2,4.1
			s-0.5,2.6-1.2,5.3c-0.7,2.7-0.2,4.7-2.5,5.6s-13.2,1.6-13.2,1.6l-4.7,1.6l-3.5-6.7L264.3,252.3z"/>
		<path class="st16" d="M228.1,485.8c1.8,2.4,4.6,4.4,7.1,6.3c2.9,2.2,6.2,1.8,9.6,2.6c1.8,0.4,2,2.3,1.4,3.8
			c-0.7,1.8-2.6,1.3-4.5,1.5c-3.8,0.4-5.4-0.3-10-0.5c-3.8-0.2-9.3,0.4-13.2,0.4c-2,0-3.3-0.3-5.3-0.2c-2.5,0.2-2.1-1.2-2.1-3.3
			c0-4.6,2.5-8.9,2.8-10.6L228.1,485.8z"/>
		<path class="st16" d="M181.9,485.8c1.8,2.4,4.6,4.4,7.1,6.3c2.9,2.2,6.2,1.8,9.6,2.6c1.8,0.4,2,2.3,1.4,3.8
			c-0.7,1.8-2.6,1.3-4.5,1.5c-3.8,0.4-5.4-0.3-10-0.5c-3.8-0.2-9.3,0.4-13.2,0.4c-2,0-3.3-0.3-5.3-0.2c-2.5,0.2-2.1-1.2-2.1-3.3
			c0-4.6,2.5-8.9,2.8-10.6L181.9,485.8z"/>
		<path class="st17" d="M175,182.7c0,0,25.2,1.5,28.7,1.7c3.5,0.3,18.7,1.8,18.7,1.8s-7.6-6.7-12.5-7.6s-15.6-3.4-18.9-2.5
			C187.7,177.1,174.4,182.8,175,182.7z"/>
		<path class="st14" d="M185.4,197.1c-0.2,0.5,0.2,7.8-1.3,11.1c-1.5,3.3-4.2,5.6-4.2,5.6l-1.3,5.5l27.7,1.5c0,0-3.2-5.9-3.7-9.3
			c-0.5-3.5,2.1-14.4,2.1-14.4H185.4z"/>
		<path class="st14" d="M211.3,204.9c-1.7,1.8-4.3,2.5-8.6,1.7c-1.1-0.2-2.3-0.5-3.6-0.9c-7.3-2.3-15-6-15-17.1
			c0-11.1,8.6-19.4,16.2-19.4c13.8,0,13.8,9,13.8,20.1C214.1,195.6,214.2,201.8,211.3,204.9z"/>
		<path class="st16" d="M214,183.3c0,0-5.9-2.7-5.9-2.2s-2.6,7.9-2.6,7.9h-2.7c0,0-1.3-3.6-2.7-3.6c-1.5,0-1.6,6.3-2.7,7.7
			s-6.6,8.8-8.7,9.6c-2.2,0.8-4,1.1-4.5,0c-0.5-1-1.9-8.3-3.6-13.8c-0.1-0.3-0.2-0.5-0.3-0.8c-0.2-0.5-0.3-1-0.3-1.6
			c-0.5-5.7,4.1-14.4,4.1-14.4c2.5-5.6,5.3-7.8,12.9-11.1c7.6-3.3,11.1,2.9,16.1,7.1S214,183.3,214,183.3z"/>
		<path class="st18" d="M196.2,178.1l-0.1,2.5c0,0-0.1,0.1-0.2,0.1c-1.1,0.9-5.3,4.4-7.9,6c-2.3,1.4-5.9,2-7.5,2.2
			c-0.1-0.3-0.2-0.5-0.3-0.8c-0.2-0.5-0.3-1-0.3-1.6c1.1-0.1,5.5-0.7,8.1-2.3C191.1,182.5,196.2,178.1,196.2,178.1z"/>
		<path class="st19" d="M175,182.7c0.5,0,15-1.5,22.7-0.9s23.7,4.8,25.1,4.4c0.4-0.1,0.7-0.3,0.8-0.5c0.3-0.5,0.1-1.1-0.5-1.3
			c-1.4-0.3-5-1.5-5.8-4.6c-1-3.9,2.3-21.3-18.1-21.3c-15.9,0-16.9,5.9-20.7,19.3c-0.5,1.9-4.2,4-4.2,4L175,182.7z"/>
		<path class="st18" d="M180.9,212.9c0,0,8.5,3.4,13.2,3.4c4.7,0,10,1.4,10,1.4s7.8,1.9,12.9,21.2s2.5,59.7,2.5,59.7h-48
			c0,0-7.6-27.8-6.2-42.3c1.2-12.3,5.4-30.4,10.2-39.4C176.5,215.2,179.9,213.3,180.9,212.9z"/>
		<path class="st15" d="M202.7,271.6c2.1,4.4,4.2,8.8,6.3,13.2c4.6-1.3,8.9-3.6,12.6-6.5c-5.1-10.6-10.1-21.3-15.2-31.9
			c-1.1-2.2-2.2-4.5-4.2-6c-7.8-5.8-8.2,5.5-7.3,10C196.3,257.9,199.5,264.8,202.7,271.6z"/>
		<path class="st4" d="M204.2,273.4c-2-0.5-3.7-1.2-4.9-2.3c-15.4-13.6-12-17.5-12.3-21c-0.6-0.3-5.2-1.9-5.2-1.9s-1,4.9-3.1,4.9
			c-4.6,0-8.2,1.3-8.9-2s0.2-18.7,2.4-24.2c2.2-5.5,3-9.4,7.6-13.4c0,0-6.1,2.2-9.7,12.7c-3.6,10.6-7.7,25.9-3.1,48.1
			c4.6,22.3,6.2,25.9,2.9,41.2c-3.3,15.3-4.5,23.3-4.8,42.2c-0.3,18.9,3.9,49.6,2.8,58.3c-1.1,8.7-3.6,19.5-2.8,34.5
			c0.8,14.9,2.6,35.7,2.6,35.7h15.3c0,0,2.2-36.8,4-47.3c1.8-10.6,13.5-100.1,13.5-100.1l22.3-2.4c0,0,0.8-12.2,0.2-25.6
			c-0.2-3.2-0.4-6.9-0.6-10.7C213.2,293,209.5,282.7,204.2,273.4z"/>
		<path class="st16" d="M204.2,273.4c5.4,9.3,9,19.5,18,26.7c-0.7-12.4-1.6-26.1-1.6-26.1S211,275.1,204.2,273.4z"/>
		<path class="st4" d="M181.4,249.3c0.1-0.2,0.8-7.4,2.7-13.2c2.2-6.7,7-15.3,11.5-17.8s6.2-3.5,10-0.3c-1.6-0.6-5.7,1.3-8.3,4.5
			s-9,11.7-9.7,19.3c-0.7,6.8-0.5,8.3-0.5,8.3L181.4,249.3z"/>
		<polygon class="st16" points="191.1,408.7 182.7,342.4 187.9,349.5 195.2,377.7 		"/>
		<path class="st4" d="M181.9,332c0,0.8-0.3,9.8,3.8,25.7c4.1,15.8,12.6,38.8,14.2,45.9c1.6,7.1,2.5,6.6,2.2,16.9
			s-1.1,20.5,3.3,34.1c4.4,13.6,8.4,31.7,8.4,31.7h14.5c0,0-2.7-20.7-3.3-36.8c-0.5-16.1,0.5-24.6,0.5-34.4c0-9.8-0.5-40.1-1.4-49.7
			c-0.8-9.6-2.5-46.1-2.5-46.1L181.9,332z"/>
		<path class="st18" d="M193,241.2c0,0,5,13.5,10.7,21.4c5.7,7.9,15.7,24.7,20,25c4.3,0.3,26.9-12.5,32.7-16.6
			c5.7-4.1,13.4-11.7,13.4-11.7l-4.4-9.9c0,0-12.8,8.1-18,10.6c-5.2,2.5-16,5.6-16,5.6s-8.4-14.5-13.6-26.2
			c-3.8-8.6-6.9-21.7-16.5-15.6C191.7,230,191.9,235.6,193,241.2z"/>
		
			<ellipse transform="matrix(0.9847 -0.1744 0.1744 0.9847 -29.9038 37.6126)" class="st14" cx="199.1" cy="189" rx="3.3" ry="5.1"/>
		<path class="st20" d="M211.3,204.9c-1.7,1.8-4.3,2.5-8.6,1.7c-1-3.1-1.3-6.8-1.7-10c0.6,1.4,1.3,2.8,2.3,4
			C205.4,202.8,208.5,203.7,211.3,204.9z"/>
		<g>
			<path class="st21" d="M253.5,241.1l-6.4-0.7c-1.1-0.1-1.8-1.1-1.5-2.2l5.5-21.7c0.3-1.1,1.4-1.9,2.6-1.9l5.1,0.2
				c1.2,0,3,1.8,2.7,2.9l-5.2,21.6C255.9,240.4,254.7,241.2,253.5,241.1z"/>
			<path class="st22" d="M251.3,240.8l-6.3-0.7c-1.1-0.1-1.8-1.1-1.5-2.2l5.4-21.5c0.3-1.1,1.4-1.9,2.5-1.9l6.5,0.1
				c1.2,0,2,0.9,1.7,2.1L254,239C253.7,240.1,252.5,240.9,251.3,240.8z"/>
			<path class="st4" d="M253.9,224.4l-3.3-0.2c-1.1-0.1-1.8-1-1.6-2.1l0.8-3.1c0.3-1.1,1.4-1.9,2.6-1.9l3.3,0.1c1.2,0,1.9,1,1.6,2.1
				l-0.8,3.2C256.2,223.6,255,224.5,253.9,224.4z"/>
			<path class="st4" d="M246.6,229.9c0.5-2.2,2.8-3.8,5.1-3.7c2.3,0.1,3.8,2.1,3.2,4.3c-0.6,2.2-2.9,3.9-5.2,3.6
				C247.4,234,246.1,232.1,246.6,229.9z"/>
			<path class="st6" d="M247.2,230c0.5-1.8,2.4-3.2,4.4-3.1c2,0.1,3.2,1.8,2.8,3.7c-0.5,1.9-2.5,3.3-4.5,3.1
				C247.9,233.5,246.7,231.8,247.2,230z"/>
			<g>
				<path class="st6" d="M247.6,232.8L247.6,232.8c-0.2-0.2-0.1-0.6,0.1-0.9l5.1-4.2c0.3-0.2,0.7-0.3,1,0l0,0
					c0.2,0.2,0.2,0.6-0.1,0.9l-5.2,4.2C248.2,233,247.8,233,247.6,232.8z"/>
				<path class="st4" d="M248,233.2c-0.2,0-0.5-0.1-0.6-0.3l0,0c-0.1-0.2-0.2-0.4-0.2-0.6c0-0.3,0.2-0.5,0.4-0.7l5.1-4.2
					c0.4-0.3,1-0.3,1.3,0c0.1,0.2,0.2,0.4,0.2,0.6c0,0.3-0.2,0.5-0.4,0.7l-5.2,4.2C248.5,233.1,248.3,233.2,248,233.2z M247.8,232.6
					c0.1,0.1,0.4,0.1,0.5,0l5.2-4.2c0.1-0.1,0.2-0.2,0.2-0.3c0-0.1,0-0.1-0.1-0.2c-0.1-0.1-0.4-0.1-0.6,0l-5.1,4.2
					c-0.1,0.1-0.2,0.2-0.2,0.3C247.8,232.5,247.8,232.5,247.8,232.6L247.8,232.6z"/>
			</g>
		</g>
		<path class="st14" d="M242.8,235.5c0.4,0.4,1,0,1.3-0.5c0.3-0.4,0.4-1,0.6-1.5c0.4-1.6,0.8-3.2,1.3-4.8c0.1-0.4,0.3-0.8,0.6-1
			c0.3-0.2,0.7-0.3,1.1-0.4c1.1-0.3,1.9-1.5,1.8-2.8c0-0.2,0-0.4-0.2-0.5c-0.1-0.1-0.3-0.1-0.4,0c-0.9,0.2-1.8,0.4-2.7,0.5
			c-0.4,0.1-0.7,0.1-1,0.3c-0.5,0.3-0.8,0.9-1.1,1.4c-0.9,1.2-2.6,1.9-2.9,3.5C241,231.2,242,234.7,242.8,235.5z"/>
		<path class="st14" d="M259.1,225.1c0.6-0.3,1.4-0.4,1.9,0c0.2,0.2,0.3,0.4,0.4,0.6c0.4,0.9,0.2,2-0.1,3c-0.3,1-0.8,1.8-1.2,2.8
			c-0.5,1.5-0.7,3.1-1.3,4.6c-0.7,1.4-2.2,2.7-3.7,2.3c-1.1-0.3-1.9-1.2-2.1-2.3c-0.3-1.1-0.1-2.2,0.2-3.3c0.5-1.8,1.2-3.8,2.4-5.3
			C256.2,226.4,257.8,225.7,259.1,225.1z"/>
		<circle class="st4" cx="249" cy="237.3" r="1.5"/>
		
			<rect x="247.5" y="238.1" transform="matrix(0.9781 0.2082 -0.2082 0.9781 55.4663 -46.4231)" class="st4" width="1.6" height="4.5"/>
	</g>
	<g id="electrician_on_a_stepladder">
		<rect x="531.3" y="-47.1" class="st7" width="3.2" height="97.8"/>
		<path class="st19" d="M577.1,75.5L577.1,75.5c-0.1,0.3-0.3,0.6-0.5,0.9c-3,3-20.8,7.5-42.5,7.5c-23.1,0-43.8-5.2-45.3-8.2
			c0-0.1-0.1-0.2-0.1-0.3v0c-0.1-0.6,0-1.1,0.3-1.6c9.8-14.2,43.9-27.7,43.9-27.7s29.7,12.8,43.9,27.7
			C577.2,74.3,577.3,74.9,577.1,75.5z"/>
		<g>
			<path class="st17" d="M577.1,75.5L577.1,75.5c0,0.3-0.2,0.6-0.5,0.9c-3,3-20.8,7.5-42.5,7.5c-23.1,0-43.8-5.2-45.3-8.2
				c-0.1-0.1-0.1-0.2-0.1-0.3v0c0-3,20.2-4.5,44.1-4.5C556.7,70.9,577.1,72.6,577.1,75.5z"/>
		</g>
		<g>
			<g>
				
					<rect x="532.2" y="71.3" transform="matrix(1.191631e-02 -0.9999 0.9999 1.191631e-02 452.8371 607.5531)" class="st4" width="3.3" height="6.6"/>
			</g>
			<path class="st3" d="M525.7,87.5c0,3.9,3.5,7.1,8,7.2c4.4,0.1,8.1-3.1,8.1-7c0-2.6-2.8-5.1-2.8-5.1c-0.7-0.6-1.2-1.7-1.2-2.6
				l0-1.2c0-0.8-0.9-1.7-1.9-1.7l-4.5-0.1c-0.9,0-1.7,0.7-1.7,1.5l0,1.4c0,0.8-0.6,2-1.2,2.5C528.6,82.5,525.8,84.9,525.7,87.5z"/>
			<g>
				<g>
					<g>
						<path class="st23" d="M532.7,76.9l0.4,0c0,0.2-0.1,4-0.2,5c-0.1,1-0.2,2.1-0.7,3.3c-0.5,1.2-0.7,1.8-0.8,1.8l-0.3-0.2
							c0,0,0.3-0.6,0.7-1.8c0.5-1.2,0.6-2.3,0.7-3.2C532.6,80.9,532.7,76.9,532.7,76.9z"/>
					</g>
					<g>
						<path class="st23" d="M530.4,85.4l0,0.4c-0.4,0-0.8,0.3-0.8,0.8c0,0.4,0.3,0.8,0.8,0.8c0.4,0,0.7-0.4,0.9-0.8l0.4,0.1
							c-0.2,0.5-0.6,1.1-1.2,1.1c-0.6,0-1.1-0.5-1.1-1.2C529.2,85.9,529.8,85.3,530.4,85.4z"/>
					</g>
				</g>
				<g>
					<g>
						<path class="st23" d="M534.8,76.9c0,0,0,4,0.1,4.9c0.1,1,0.2,2.1,0.6,3.3c0.4,1.2,0.7,1.8,0.7,1.8l-0.3,0.1
							c0,0-0.3-0.6-0.7-1.8c-0.4-1.2-0.6-2.4-0.6-3.4c-0.1-1-0.1-4.8-0.1-5L534.8,76.9z"/>
					</g>
					<g>
						<path class="st23" d="M536.9,85.4c0.6,0,1.1,0.5,1.1,1.2c0,0.6-0.5,1.2-1.2,1.1c-0.6,0-1-0.6-1.2-1.1l0.4-0.1
							c0.1,0.4,0.4,0.8,0.8,0.8c0.4,0,0.8-0.3,0.8-0.8c0-0.4-0.3-0.8-0.8-0.8L536.9,85.4z"/>
					</g>
				</g>
				<g>
					
						<rect x="533.5" y="82.3" transform="matrix(1.191219e-02 -0.9999 0.9999 1.191219e-02 441.7281 618.1858)" class="st23" width="0.4" height="6.5"/>
				</g>
			</g>
			<polygon class="st7" points="532.8,71.1 535,71.2 535.3,71.4 532.5,71.4 			"/>
			
				<rect x="533.2" y="73.3" transform="matrix(1.139179e-02 -0.9999 0.9999 1.139179e-02 450.8353 609.7897)" class="st7" width="1.2" height="7.2"/>
			<path class="st7" d="M530.4,72.9c0,0,2-1.5,2.1-1.5l2.8,0c0.1,0,2.1,1.5,2.1,1.6l0,0c0,0-0.1,0.1-0.1,0.1l-6.7-0.1
				C530.5,73,530.4,73,530.4,72.9L530.4,72.9z"/>
		</g>
		<path class="st7" d="M513.8,105.3c0,0,0.1-1.1,2.8-0.5c2.8,0.7,8,2.5,7.3,4.1c-0.8,1.6-3.6,2.3-5.1,1.9
			C517.3,110.5,512.2,108.7,513.8,105.3z"/>
		<path class="st14" d="M514.4,106.1c0.4-0.2,3.6-9.5,4.4-11.1s4.5-8.4,4.5-8.4s7.2-3.1,9.1-2.6s2.8,0.6,2.7,2.2
			c-0.1,1.6,0.1,4-1.1,6.3c-1.2,2.3-1.6,3.8-3.7,4.9c-2,1.1-3.6,2.2-4.3,2.4c-0.6,0.2-3,10.1-3,10.1l-5.5,0.5L514.4,106.1z"/>
		<path class="st7" d="M558.6,95.1c0,0-0.4-1,2.4-1.3c2.8-0.3,8.3-0.3,8.2,1.3s-2.5,3.2-4,3.3C563.7,98.6,558.3,98.6,558.6,95.1z"/>
		<path class="st14" d="M559.5,104.3c0,0,1.4-8,0-13.4c-1.4-5.4,0.5-6.7-2.1-8.2c-2.5-1.5-2.6-0.5-3-4.9c-0.4-4.4-2.9-10.3,0-11.3
			c2.9-1,10.3,1.5,10.3,1.5l6.4,8.5c0,0-0.2,7.2-1.9,10.6c-1.7,3.4,0.6,13.8,0,14.7c-0.6,1,0,5.9,0,5.9L559.5,104.3z"/>
		<path class="st10" d="M576,185.8c-0.2,1-1.9,18.5-4,27.1c-2.2,8.6-5.3,18.1-5.3,18.1l-37.1-4.1l-6.7-14l-3.5-6l-0.2-0.3l5.9-19
			l1.6-7.7c0.4,0.1,2.1,0,3.3,0c1.8-0.1,4.2-0.4,6.5-0.7c3.8-0.5,7.4-1,7.4-1l24.8,5.6C568.7,183.7,576.2,184.9,576,185.8z"/>
		<path class="st19" d="M535.1,140.2c0,0,14.8-11.7,24.9-3c10.1,8.7,6.3,17.4,3.8,22.6c-2.4,5.2-5.9,6.3-5.9,6.3L535.1,140.2z"/>
		<path class="st17" d="M560.6,169.9c-5.5,5-16.3,2.2-24-6.3c-7.7-8.5-9.4-19.5-3.9-24.5c1.4-1.3,3.1-2,5-2.3
			c5.7-0.9,13.2,2.3,19,8.6c3.6,4,5.9,8.5,6.8,12.7C564.5,162.9,563.6,167.2,560.6,169.9z"/>
		<path class="st14" d="M543.3,167.5c-0.8,0-3.3,8.2-4.1,10.6c-0.8,2.5-2.2,4.1-2.2,4.1l7.6,5l15.3-5.8c0,0-1.9-8.9-2.1-15.3
			c-0.2-6.3-0.8-18.3-0.8-18.3L543.3,167.5z"/>
		<path class="st16" d="M536,434.5c-1.7,2.5-4.3,4.7-6.7,6.8c-2.8,2.4-6.1,2.2-9.4,3.2c-1.8,0.6-1.9,2.5-1.1,3.9
			c0.9,1.7,2.7,1.2,4.5,1.2c3.8,0.1,5.4-0.7,9.9-1.2c3.8-0.4,9.3-0.2,13.2-0.5c1.9-0.1,3.3-0.5,5.2-0.5c2.5,0,2-1.3,1.8-3.4
			c-0.3-4.5-3-8.8-3.5-10.4L536,434.5z"/>
		<path class="st20" d="M546.1,170.3c-2.8-1.3-6.5-2.8-8.8-0.1c1.6,3,4.2,5,8.3,5c3.1,0,6.5-2.4,8.9-6.2
			C551.9,170.5,549.1,171.6,546.1,170.3z"/>
		<path class="st14" d="M548.1,140.3c-9.2-4.4-10.4-1.9-12.3,11.9c-0.8,5.9-0.9,13.2,1.5,18c2.3-2.7,6-1.2,8.8,0.1
			c3,1.3,5.7,0.2,8.4-1.2c2.1-3.2,3.5-7.5,3.5-12C558.1,147.4,554,143.1,548.1,140.3z"/>
		<rect x="539.2" y="183.1" class="st10" width="8.4" height="5.5"/>
		<path class="st16" d="M539.9,141.1c-0.8,0.6-1.6,1.3-2.2,2.3c-0.9,1.4-2.4,2.4-2.4,4.1c0,1.6,0.6,1.5,0.8,1.8
			c0.1,0.3,0.7-1.4,1-1.5c1.1-0.5,0.6-0.3,1.6-1c0.5-0.4,1.2-0.8,1.7-0.3c0.1,0.1,0.2,0.2,0.3,0.3c0.1,0.1,0.3,0,0.4,0
			c1-0.3,2-0.7,3-1.2c1.1-0.6,2.2-1.5,3.4-1.2c0.6,0.2,1.1,0.6,1.7,0.6c0.4,0,2.4,3.1,2.6,3.4c0.3,0.4,1.8,1.6,1.9,2.8
			c0,0.9,0.1,1.8,0.3,2.6c0.2,0.5,0.5,1,0.7,1.5c0.4,0.8,0.8,1.7,1.1,2.6c0.2,0.7,0.5,1.6,1.1,1.9c0.6,0.1,1.7-0.2,1.6-0.4
			c0,0,0-2.9-0.5-5.4c-0.5-2.5-0.1-6.7-4.8-10.2C548.5,140.2,541.1,140.2,539.9,141.1z"/>
		<path class="st5" d="M543.4,183.1l1.9,7.6c0,0,10-7,12.8-9.4c2.8-2.4,2.3-1.8,2.8-1.4c0.4,0.4-1.5-3.3-1.5-3.3s-1.7,2.5-6.3,4.1
			C549.3,182.1,546.2,183.2,543.4,183.1z"/>
		<path class="st4" d="M556,196.3c-2.1,7.1-2,14.6-2,14.6l-8.2-1.4l-2.4-0.4c0,0,2.5-4.6,4.3-10.2c0.7-2,2.6-6.5,3.8-8.7
			c2.1-3.9,6.6-9.9,6.6-9.9l1.6,0.5c1.8-0.1,0.9,1.3,3.2,1C561.4,184.3,557.6,190.6,556,196.3z"/>
		<path class="st17" d="M563.5,158.1l-1.4,4.5c0,0-3-0.2-4.7-8.2c-1.9-9.2-5.9-12.6-12.5-12.8c-4.7-0.1-7.5,1.9-8,2.9l0.8-7.8
			c5.7-0.9,13.2,2.3,19,8.6C560.4,149.4,562.7,153.9,563.5,158.1z"/>
		<path class="st5" d="M536.4,179.1l3-1.8c0,0,1.5,4.8,3.9,5.8c-1.2,3.2-5.5,6.7-5.5,6.7S536.3,182.9,536.4,179.1z"/>
		<path class="st14" d="M558.5,158.5c0.7-2.1,0.4-4-0.7-4.4c-1.1-0.3-2.4,1.1-3.1,3.1c-0.7,2.1-0.4,4,0.7,4.4
			C556.4,161.9,557.8,160.5,558.5,158.5z"/>
		<path class="st10" d="M522.6,207.5c-0.7-0.2-12.9-14.8-18.6-24.4c-5.6-9.4-13.9-25.3-12.8-28.5c1.1-3.2,13.4-39.5,22.6-49.3
			c3.9,4.7,3.7,3.9,10.1,3.6c-1.8,8.1-12.1,44.2-12.5,45.1c-0.4,0.9,3.7,7.7,8,15c4.3,7.3,9.2,13.2,9.2,13.2L522.6,207.5z"/>
		<path class="st10" d="M560,198.3c-1.7-1.3-4.7-27.9-2.5-40.6c2.2-12.6,2.2-18.1,0.5-22.2c-1.7-4.1-0.1-34.9,0.7-40.4
			c3,1.4,5.2,3.1,10.6,0c2.5,6.5,8,34.6,7.9,41.4c-0.1,6.1-0.2,11.5-0.2,16.5s2.5,17.6-1.5,37.5c-4,19.9-8.8,22.3-8.8,22.3
			L560,198.3z"/>
		<path class="st4" d="M517,206.5c0.2-1.5,32.5,0.5,36.9,3.4c0.7,6.2,0,13.1,4,15.6c4.1,2.5,9.9,2,9.9,2s-3,10.2-1.1,23.9
			c1.8,13.8,1.8,12.5,1.8,12.5l-50.5,2.1c0,0,0-7.7-1.8-21C514.3,231.8,515.9,214,517,206.5z"/>
		<path class="st4" d="M529.5,193.7c-2.1,7.1-2,14.6-2,14.6l-8.2-1.4l-2.4-0.4c0,0,1.7-3.9,3.9-9.7c1.5-4.1,3-7,4.2-9.2
			c2.1-3.9,4.5-7.3,4.5-7.3l0.4-0.5c1.8-0.1,4.2-0.4,6.5-0.7C535,181.7,531.2,188.1,529.5,193.7z"/>
		<path class="st4" d="M517.9,264.3l-2.1,19.7l20.7,12.5l33.2-2.7c0,0,0.8-12.8,0-20.5c-0.9-9.1-2.9-20.3-2.9-20.3L517.9,264.3z"/>
		<path class="st4" d="M536.5,295.4c-0.3-0.5,0.5,28.8,0.2,38c-0.3,9.3,0.5,23.2,1.1,33.6s-0.1,41.2-0.6,48.3
			c-0.5,7.1-1.3,19.2-1.3,19.2s14.4,0.5,14.1-0.9c-0.3-1.4,2.2-23.5,5.5-38.3c3.3-14.7,1.1-22.3,1.9-32.7
			c0.8-10.4,6.8-33.1,7.9-43.4c1.1-10.4,4.2-25.6,4.2-25.6L536.5,295.4z"/>
		<path class="st4" d="M518.4,272.7c0,0-6.6,12.1-12.1,23.3c-5.5,11.2-16.7,30.3-17,35.8s3.3,21,8.2,34.4
			c4.9,13.4,12.2,32.6,12.2,32.6l13.6-3.7c0,0-4.3-34.6-6.7-43.1c-2.5-8.5-5.6-11.7-4.5-14.7c1.2-3,27.1-40.7,27.1-40.7L518.4,272.7
			z"/>
		<g>
			<path class="st5" d="M549.1,378.2h-66.7c-1,0-1.9-0.8-1.9-1.9v-1c0-1,0.8-1.9,1.9-1.9h66.7c1,0,1.9,0.8,1.9,1.9v1
				C551,377.3,550.1,378.2,549.1,378.2z"/>
			<path class="st5" d="M557.3,415.4h-65.7c-1.3,0-2.4-1.1-2.4-2.4l0,0c0-1.3,1.1-2.4,2.4-2.4h65.7c1.3,0,2.4,1.1,2.4,2.4l0,0
				C559.7,414.3,558.6,415.4,557.3,415.4z"/>
			<path class="st5" d="M564.1,452.6h-65.7c-1.3,0-2.4-1.1-2.4-2.4l0,0c0-1.3,1.1-2.4,2.4-2.4h65.7c1.3,0,2.4,1.1,2.4,2.4l0,0
				C566.5,451.5,565.4,452.6,564.1,452.6z"/>
			<path class="st5" d="M571.9,489.8h-65.7c-1.2,0-2.3-1.1-2.3-2.4l0,0c0-1.3,1.1-2.4,2.4-2.4H572c1.3,0,2.4,1.1,2.4,2.4l0,0
				C574.4,488.7,573.4,489.8,571.9,489.8z"/>
		</g>
		<g>
			<path class="st7" d="M565.8,499.6l-45.2-224.4c-1.7-8.3-6-16.1-12.2-22c-6.1-5.8-13.1-8.9-19.8-8.9c-5.6,0-10.5,2.2-14,6.5
				c-4.6,5.6-6.2,14-4.4,23l45.2,224.4l-7.1,1.4l-45.2-224.4c-2.2-11.1-0.1-21.7,5.9-29c4.8-5.9,11.8-9.2,19.6-9.2
				c8.6,0,17.4,3.9,24.8,10.9c7.3,6.9,12.4,16.1,14.3,25.8L573,498.2L565.8,499.6z"/>
		</g>
		<rect x="571.7" y="331.8" class="st5" width="0" height="0"/>
		<path class="st16" d="M509.7,398.8c-1.1,2.8-3.3,5.5-5.2,8c-2.2,2.9-5.5,3.4-8.5,5.1c-1.6,0.9-1.3,2.8-0.3,4.1
			c1.2,1.5,2.9,0.6,4.7,0.3c3.8-0.7,5.1-1.8,9.5-3.2c3.6-1.2,9.1-2.1,12.8-3.2c1.9-0.5,3.1-1.2,5-1.6c2.4-0.5,1.7-1.7,1.1-3.7
			c-1.2-4.4-4.8-8-5.5-9.5L509.7,398.8z"/>
		<g>
			<polygon class="st7" points="483.2,499.7 478,498.1 530,334.6 482.5,334.6 430,499.7 424.8,498.1 478.6,329.1 537.5,329.1 			"/>
		</g>
		<path class="st5" d="M543.4,336.6h-74.1c-1.8,0-3.3-1.5-3.3-3.3v-1.8c0-1.8,1.5-3.3,3.3-3.3h74.1c1.8,0,3.3,1.5,3.3,3.3v1.8
			C546.7,335.1,545.2,336.6,543.4,336.6z"/>
		<path class="st16" d="M572.3,500h-7.2c-1.2,0-2.1-1-2.1-2.1v-1.1c0-1.2,1-2.1,2.1-2.1h7.2c1.2,0,2.1,1,2.1,2.1v1.1
			C574.4,499,573.5,500,572.3,500z"/>
		<path class="st16" d="M515,500h-7.2c-1.2,0-2.1-1-2.1-2.1v-1.1c0-1.2,1-2.1,2.1-2.1h7.2c1.2,0,2.1,1,2.1,2.1v1.1
			C517.1,499,516.2,500,515,500z"/>
		<path class="st16" d="M483.1,500h-4c-1,0-1.8-0.8-1.8-1.8l0,0c0-1,0.8-1.8,1.8-1.8h4c1,0,1.8,0.8,1.8,1.8l0,0
			C484.9,499.2,484.1,500,483.1,500z"/>
		<path class="st16" d="M429.4,500h-4c-1,0-1.8-0.8-1.8-1.8l0,0c0-1,0.8-1.8,1.8-1.8h4c1,0,1.8,0.8,1.8,1.8l0,0
			C431.2,499.2,430.4,500,429.4,500z"/>
	</g>
	<g id="electrician_sat_down">
		<path class="st24" d="M728.7,388.8c0.1,0.4,1.8,16.1,2.8,17.4c1,1.3,3.1,10.9,3.1,10.9l-13.6,0.6l-4.5-26.6L728.7,388.8z"/>
		<path class="st4" d="M823.9,386.4v14.2c0,2.2-1.8,4-4,4h-32.6c-2.2,0-4-1.8-4-4v-14.2c0-2.2,1.8-4,4-4h32.6
			C822.1,382.4,823.9,384.2,823.9,386.4z"/>
		<g>
			<path class="st25" d="M823.9,386.4v14.2c0,2.2-1.8,4-4,4h-32.6c-2.2,0-4-1.8-4-4v-14.2c0-2.2,1.8-4,4-4h32.6
				C822.1,382.4,823.9,384.2,823.9,386.4z"/>
			<g>
				<circle class="st26" cx="794.2" cy="393.5" r="6.6"/>
				<g>
					<circle class="st27" cx="791.4" cy="393.5" r="1.5"/>
					<circle class="st27" cx="796.9" cy="393.5" r="1.5"/>
				</g>
			</g>
			<g>
				<circle class="st26" cx="813.8" cy="393.5" r="6.6"/>
				<g>
					<circle class="st27" cx="811.1" cy="393.5" r="1.5"/>
					<circle class="st27" cx="816.6" cy="393.5" r="1.5"/>
				</g>
			</g>
			<circle class="st28" cx="803.6" cy="393.5" r="1.5"/>
		</g>
		<path class="st29" d="M723.6,363c-3.3-3.1-8.7-1.5-10.7,5c-1.1,3.6-2.4,15.7-3.4,26c1.2,0,2.5-0.1,3.8,0.2
			c3.1,0.5,13.7-1.1,16.7-2c-0.4-5.2-1.4-8.9-2.5-13.2C725.4,370.6,726.9,366.1,723.6,363z"/>
		<g>
			
				<rect x="781.8" y="404.9" transform="matrix(0.6864 -0.7272 0.7272 0.6864 -46.5258 703.527)" class="st6" width="21.3" height="1.6"/>
			<polygon class="st6" points="800.3,398.5 799.8,398 799.2,397.4 800.5,394.9 803,393.5 803.5,394 804.1,394.5 802.8,397 			"/>
			<path class="st30" d="M782.5,419.8c0.7-0.8,1.3-1,2.1-1.6c0.8-0.6,2.5-1.6,2.8-2.4c0.2-0.6-0.1-1-0.8-1.7c-0.3-0.3-0.7-0.6-1.1-1
				c-1.5-1.4-2-2.1-2.8-1.7c-0.8,0.4-1.7,2.1-2.2,2.9c-0.5,0.8-0.7,1.4-1.4,2.2c-0.2,0.2-0.5,0.4-1,0.7c-1.5,0.9-4.1,2.4-5.5,3.9
				c-1.1,1.1-2.6,3.3-3.3,5.2c-0.5,1.5-0.6,2.9,0.3,3.7c0.6,0.5,1.4,0.7,2.3,0.5c0.7-0.1,1.4-0.4,2.2-0.8c1.7-0.9,3.4-2.3,4.3-3.3
				C780.1,424.5,781.7,420.6,782.5,419.8z"/>
		</g>
		<path class="st24" d="M731.5,406.2l40.4-15.4l5,7.8c0,0-11.7,6.6-23,12.5c-5,2.6-20.3,8.3-20.3,8.3L731.5,406.2z"/>
		<path class="st16" d="M641.9,485.2c-2.2,2.1-3.8,2.9-4.5,4.9c-1.3,3.4,5.6,4.7,5.2,8.1c-0.2,1.9-1.5,1.7-3.7,1.6
			c-1.9-0.1-4.1,0.4-6.6-1.6c-3.2-2.6-7.1-5.4-7-9.4c0.1-3.9,2.1-8.1,3.9-11.5c2-3.6,3.1-5.2,4.2-7c1.9-3.2,3.5-2.6,5.5-2
			c5.1,1.6,4.8,1.5,6.4,2.2L641.9,485.2z"/>
		<path class="st16" d="M731.2,486.2c1.8,2.4,4.6,4.4,7.1,6.3c2.9,2.2,6.2,1.8,9.6,2.6c1.8,0.4,2,2.3,1.4,3.8
			c-0.7,1.8-2.6,1.3-4.5,1.5c-3.8,0.4-5.4-0.3-10-0.5c-3.8-0.2-9.3,0.4-13.2,0.4c-2,0-3.3-0.3-5.3-0.2c-2.5,0.2-2.1-1.2-2.1-3.3
			c0-4.6,2.5-8.9,2.8-10.6L731.2,486.2z"/>
		<path class="st4" d="M718.2,433.6c-0.1,0.9-2.7,15.5-2,24.6s0.2,29.1,0.2,29.1h16.3c0,0,4.9-34.7,6.3-43.6
			c1.4-8.9,6.2-18.2,3.1-22.3c-3.1-4.1-11.1-8.7-15.1-5.2C722.9,419.6,719.4,424.9,718.2,433.6z"/>
		<path class="st22" d="M666.1,388.5c0,0,11.7-26.7,20.7-31.7c9-4.9,14.5-9.6,21.2-10.7c6.7-1.1,16.6,8.6,16.6,14.1
			c0,5.5,0.6,9.1-1.3,15.9c-1.9,6.8-11.7,25.1-16.4,27.2s-5.2,8-18,3.9C676.2,403.2,663.1,402.1,666.1,388.5z"/>
		<path class="st4" d="M741.7,430.3c0,0-17.1,6-22.7,9.5c-3.9,2.5-15.8,9.3-24.3,13.6c-2.7,1.4-5.1,2.5-6.7,3.2
			c-0.6,0.2-1.1,0.4-1.5,0.5c-4.6,1.4-20.2,0.7-25.9,1.7s-5.2,2.1-12-2.4c-6.1-4-13.4-9-13.4-18.3c0-9.3,9.3-28,14.5-38.6
			c5.2-10.6,23.3-32.2,30.6-38.2c7.4-6.1,22.8-16.2,29.1-13.7c7.3,2.8,8.7,12.6,9.5,20.7c0.8,8.1,1,14.7-4.1,22.4
			c-2,3.1-4.8,6.5-7.6,9.8c-4.2,4.9-8.5,9.6-10.6,12.2c-0.7,0.9-1.3,1.9-2.1,2.8c-3.4,3.7-8.6,9.5-9.1,10.3c0,0,0,0,0.1,0
			c0.4-0.1,5.2-1.3,8-2.4c5.2-2,13.6-5.2,19.6-6c9.6-1.3,17.8-3.7,24.1,0C743.6,421.3,741.7,430.3,741.7,430.3z"/>
		<path class="st22" d="M709.1,389.4c-1.7,1.7-3.3,3.3-4.9,4.8c-3.9,3.4-7.7,5.8-11.8,6.4c-3.3,0.5-7-0.2-11.1-2.4
			c-0.5-0.3-21.1-13.8,2.8-35.2c19.5-17.4,25.7-12.4,28-7.3C714.3,360.8,718.2,380.1,709.1,389.4z"/>
		<path class="st31" d="M707.3,400.6c-4.2,4.9-8.5,9.6-10.6,12.2c-0.7,0.9-1.4,1.8-2.1,2.8c-0.5-5-1.5-10.1-2.3-15.1
			c4.2-0.6,7.9-3,11.8-6.4C705.3,396.2,706.3,398.4,707.3,400.6z"/>
		<path class="st29" d="M704.1,394.1c-3.9,3.4-7.7,5.8-11.8,6.4c0-0.2-0.1-0.4-0.1-0.6c-0.6-3.9-1.3-7.7-2-11.6
			c-0.7-4-1.4-8.1-1.4-12.2c0-0.4,0.1-0.9,0.4-1.1c0.4-0.2,0.8,0.1,1.1,0.3c1.6,1.3,3,2.9,4.3,4.5
			C698.2,384.4,701.4,389.1,704.1,394.1z"/>
		<path class="st22" d="M713.3,369.5c-1.5-6.8-4.4-16.3-10-16c-18.2,0.9-16.1,13-14.7,20.8c1.5,8.4,5.3,17.6,11.1,26.3
			c0.3,0.4,0.6,0.9,0.9,1.3c5.6-4.5,11.8-8.6,18.5-10.9C716.6,382.5,714.1,373.3,713.3,369.5z"/>
		<path class="st16" d="M694.7,453.4c-2.7,1.4-5.1,2.5-6.7,3.2l-16.6-25.2L694.7,453.4z"/>
		<path class="st32" d="M753.1,419.9c-6.1-1.5-27.4-9-28.4-10.4c-0.6-0.8-3.3-10-5.7-18.5c-6.8,2.3-13,6.4-18.5,10.9
			c5.7,9,13.3,23.8,15.7,25c2.5,1.3,17.5,3.1,23.8,3.9c6.4,0.8,24.9,3.6,24.9,3.6s1.3-10.2,1.5-10.7
			C766.6,423.2,759.3,421.4,753.1,419.9z"/>
		<path class="st32" d="M754,322.7c-0.2,2.5-0.5,5.1-0.7,7.4c-0.5,4.3-1.1,7.6-1.1,7.6l-20.4,10.8c0,0-3.5,6.1-4.9,7.5
			c-1.3,1.5-2,3.8-2.2,4.2c-0.1,0.4-1.5,0.7-5.7-5.6c-4.2-6.3-10.9-8.5-10.9-8.5c0.7-0.4,4.5-0.2,7.3-3.8c0.9-1.1,1.7-2.4,2.4-3.7
			c1.6-2.9,2.7-6.1,2.9-8.9c0.4-4,0.7-11,2.3-13c1.6-1.9,10.7-8.2,18.4-5.2C749.2,314.6,754.4,315.8,754,322.7z"/>
		<path class="st32" d="M747.5,347c-4.9,7.2-7.2,11-9.7,12.1c-2.2,1-4.4-0.1-8.6-2.7c-0.6-0.4-1.1-0.8-1.6-1.3
			c-3.6-4.2-4-13.4,0.5-20.7c5.1-8.3,14.7-11,19.7-7.9C756.8,332,752.9,339,747.5,347z"/>
		<path class="st33" d="M753.9,322.7c-0.2,2.5-0.5,5.1-0.7,7.4c-0.6,0.7-1.2,1.3-1.9,1.8c-2.8,1.8-6.4,1.1-9.6,1.9
			c-3.1,0.8-5.8,3-7.2,5.9c-0.8-0.5-1.7-0.9-2.6-1.3c0.2-0.8,0.5-1.6,0.7-2.3c0.1-0.3,0.2-0.7-0.1-0.9c-0.2-0.2-0.4-0.1-0.6-0.1
			c-2.7,0.3-5,2-7.4,3.1c-2.1,1-4.8,1.5-6.7,0.4c0,0,0,0,0,0c1.1-2.1,2-4.3,2.5-6.4c0.2-0.9,0.3-1.7,0.4-2.5c0,0,0,0,0,0
			c0.4-4,0.7-11,2.3-12.9c0.9-1.1,4.1-3.5,8.2-5c0.4-0.1,0.7-0.2,1.1-0.3c2.9-0.9,6.2-1.1,9.2,0.1
			C749.2,314.6,754.4,315.8,753.9,322.7z"/>
		<path class="st18" d="M735.4,329.3c-3.3,2.3-10.6,2.8-15.1,2.9h0c0.2-0.9,0.3-1.7,0.4-2.5c0,0,0,0,0,0c0,0,0,0,0,0
			c4.4-0.3,11.2-0.9,13.8-2.7C739,324.1,740.9,325.4,735.4,329.3z"/>
		<path class="st19" d="M713.5,325.3c0.5,0.2,15.3,3.7,22.9,5.3c13.2,2.9,19.3,11.2,20.8,11.3c0.4,0,1.3-0.6,1.3-0.6
			c0.5-0.3,1-1.5,0.5-1.8c-1.3-0.7-3.6-3.4-3.4-6.7c0.2-4.1,8.7-16.7-11.9-23.6c-15.1-5.1-17.8,0.7-25.4,12.4
			c-1.1,1.6-5.2,2.6-5.2,2.6L713.5,325.3z"/>
		
			<ellipse transform="matrix(0.2511 -0.968 0.968 0.2511 223.7079 957.6588)" class="st32" cx="730.7" cy="334.3" rx="4.7" ry="2.5"/>
		<path class="st4" d="M672.4,432.7c0.2,0.2,18.6,25,24.8,34c5.7,8.3,14,17.2,11.6,24s-2.3,9.8-9.3,9.1
			c-6.9-0.7-57.5-13.8-57.5-13.8s-1.1-4.2,0-8.4c1.1-4.2,3.6-7.8,3.6-7.8s28.2,4,27.7,4s-13.8-7.4-20.6-13.6s-14.4-12.9-13.8-16.9
			S658,414.3,672.4,432.7z"/>
		<path class="st32" d="M765,423c0,0,4.7-2.4,7.6-4.3c2.9-1.8,1.8-1.6,5.2-2.4s9.8-0.7,9.8,0.7c0,3.8-2.7,4.6-2.9,5.6
			s-0.6,3.6-1.8,6.2s-2.4,4.6-3.6,5.1c-1.2,0.5-5.6,0.7-9.1,0.5c-3.5-0.2-5.9-0.1-5.9-0.1L765,423z"/>
		<path class="st24" d="M737.7,359.1c-2.2,1-4.4-0.1-8.6-2.7c-0.6-0.4-1.1-0.8-1.6-1.3c-0.1-2.5-0.1-5.2,0.2-7.6
			c0.1-1,0.3-1.9,0.6-2.9c0.2-0.7,1-1.9,1-2.6c0.1,2.2,0.1,4.4,0.6,6.5c0.8,3.4,2.7,6.6,5.5,8.8C736.2,357.8,737,358.4,737.7,359.1z
			"/>
		<path class="st24" d="M768.1,392.7c1,0,16.5-9.5,18.2-9.6c3.6-0.3,11.3-3.2,12-2.2c0.7,0.9-2.5,3.6-4.2,5
			c-1.6,1.3-10.6,5.4-7.7,7.4s6.6,2.6,5.7,4.6c-0.9,2-4.9,1.6-7.6,0.9c-2.7-0.7-2.9-1.2-5-0.9s-7.2,3.1-7.2,3.1L768.1,392.7z"/>
		<path class="st16" d="M688.4,425.2c-2,4.7-4.5,12.8-6.3,20.4c-0.5-0.7-1.3-2.1-3.2-4.2c-0.7-0.7,3.1-9.5,6.5-15.5c0,0,0,0,0.1,0
			C685.9,425.9,687.7,425.4,688.4,425.2z"/>
	</g>
	<g id="plant_2">
		<path class="st34" d="M897.6,397.1c-6.7-1.5-11.8-11.8-10.6-18c0.7-3.5,3.3-6.6,3.8-10.1c0.7-4.6-1.7-8.4-1.9-12.6
			c-0.3-6.4,6.9-13.5,12.8-16.1c8.8-3.8,13.5,2.6,15.3,10.6c3.1,13.9,3.2,34.9-8.1,45.1c-2.3,2.1-5.4,4.1-8.5,2.4L897.6,397.1z"/>
		<path class="st34" d="M882.6,442.7c2.4-2.6,3.1-7.6,2.8-11c-0.4-4.5-3.1-6.4-5-10.2c-1.7-3.4-1.1-7.6-3.3-10.9
			c-2.5-3.7-7-4.4-11.1-4.4c-20.6,0.1-12.8,26.5-0.8,33.8c5.5,3.4,9.3,5.4,15.2,4.4L882.6,442.7z"/>
		<path class="st34" d="M913.7,430.9c-1.5-8.5-4.1-14.9,3.6-21.8c2.9-2.6,6.5-3.5,9.6-5.7c3.4-2.5,4.7-5.7,7.3-8.8
			c2.6-3.2,7.3-5.6,11.5-4.9c6.1,1,7.2,7.6,7.6,12.9c0.6,6.7-1.9,16.8-8.2,20.8c-3.6,2.3-6.3,2.2-8.5,6.1c-2,3.4-2.5,7.1-5.1,10.2
			c-5.3,6.5-13.9,4.6-16.5-3.6c-0.2-0.6-0.3-1.5-0.3-1.9L913.7,430.9z"/>
		<g>
			<path class="st12" d="M898.5,476.7c-0.1,0-0.1,0-0.2,0c-0.4-0.1-0.6-0.5-0.5-0.9c0.8-3.7-0.8-8.7-2.2-13.2
				c-0.6-2-1.2-3.9-1.6-5.6c-3.4-16-0.5-31.2,2.3-45.9c0.4-1.9,0.8-4,1.1-5.9c1.6-8.7,2.7-16,3-25c0.1-3,0.5-6.2,0.8-9.5
				c0.6-5.8,1.3-11.8,0.6-17.1c-0.1-0.4,0.2-0.8,0.6-0.8c0.4-0.1,0.8,0.2,0.8,0.6c0.8,5.5,0.1,11.6-0.6,17.5
				c-0.4,3.3-0.7,6.4-0.8,9.4c-0.3,9.1-1.4,16.4-3,25.2c-0.4,2-0.8,4-1.1,5.9c-2.9,15.3-5.7,29.7-2.3,45.4c0.4,1.6,0.9,3.5,1.6,5.5
				c1.5,4.6,3.1,9.9,2.2,13.9C899.1,476.5,898.8,476.7,898.5,476.7z"/>
		</g>
		<g>
			<path class="st12" d="M902.5,366.1c-0.2,0-0.4-0.1-0.5-0.3c-0.2-0.3-0.1-0.6,0.2-0.7c2.7-1.6,5.8-4.4,6.9-7
				c0.1-0.3,0.4-0.4,0.7-0.3c0.3,0.1,0.4,0.4,0.3,0.7c-1.2,2.8-4.5,5.8-7.3,7.5C902.7,366.1,902.6,366.1,902.5,366.1z"/>
		</g>
		<g>
			<path class="st12" d="M900.8,387.1c-0.2,0-0.3-0.1-0.4-0.2c-1.4-1.9-5.4-7.4-6.8-9.7c-0.2-0.3-0.1-0.6,0.2-0.7
				c0.3-0.2,0.6-0.1,0.7,0.2c1.3,2.2,5.2,7.7,6.7,9.6c0.2,0.2,0.1,0.6-0.1,0.8C901,387.1,900.9,387.1,900.8,387.1z"/>
		</g>
		<g>
			<path class="st12" d="M890.5,474.2C890.5,474.2,890.5,474.2,890.5,474.2c-0.5,0-0.8-0.4-0.7-0.8c0.3-2.6-0.4-6.3-1-9.5
				c-0.2-1.3-0.5-2.5-0.6-3.7c-1.4-9.4-4.3-16.7-8.9-22.2c-1.8-2.2-3.9-4.4-5.9-6.5c-3.3-3.4-6.7-6.9-9.1-10.9
				c-0.2-0.3-0.1-0.8,0.2-1c0.3-0.2,0.8-0.1,1,0.2c2.3,3.8,5.7,7.3,8.9,10.6c2,2.1,4.1,4.3,6,6.5c4.7,5.8,7.7,13.3,9.2,22.9
				c0.2,1.1,0.4,2.3,0.6,3.6c0.6,3.4,1.4,7.2,1.1,10C891.2,474,890.9,474.2,890.5,474.2z"/>
		</g>
		<g>
			<path class="st12" d="M870.2,427.3c-0.1,0-0.1,0-0.2,0c-0.3-0.1-0.4-0.4-0.4-0.7c0.9-2.8,1.9-7.3,2.3-10.2
				c0.1-0.3,0.3-0.5,0.6-0.4c0.3,0.1,0.5,0.3,0.4,0.6c-0.5,2.9-1.5,7.5-2.4,10.3C870.7,427.2,870.4,427.3,870.2,427.3z"/>
		</g>
		<g>
			<path class="st12" d="M867.3,434.8c-0.3,0-0.5-0.2-0.5-0.5c0-0.3,0.2-0.6,0.5-0.6c1.7-0.2,3.1-0.4,4.5-0.6c1.4-0.2,2.6-0.4,4-0.5
				c0.3,0,0.6,0.2,0.6,0.5s-0.2,0.6-0.5,0.6c-1.3,0.2-2.6,0.3-4,0.5C870.5,434.4,869.1,434.6,867.3,434.8
				C867.4,434.8,867.4,434.8,867.3,434.8z"/>
		</g>
		<g>
			<path class="st12" d="M905,470.4c-0.4,0-0.7-0.3-0.7-0.7c0-11.2,2.4-22.4,6.6-31.4c3.8-8.1,9.4-14,15.2-20.2
				c2.6-2.7,5.3-5.6,7.8-8.6c0.9-1.1,2.4-3,3.9-4.9c1.4-1.8,2.8-3.6,3.5-4.4c0.3-0.3,0.7-0.3,1-0.1c0.3,0.3,0.3,0.7,0.1,1
				c-0.7,0.8-2,2.5-3.4,4.3c-1.5,1.9-3,3.8-3.9,4.9c-2.6,3.1-5.2,5.9-7.8,8.7c-5.8,6.1-11.3,12-15,19.8c-4.2,8.9-6.5,19.8-6.5,30.8
				C905.7,470.1,905.4,470.4,905,470.4z"/>
		</g>
		<g>
			<path class="st12" d="M932.6,412.7C932.6,412.7,932.5,412.7,932.6,412.7c-0.4,0-0.6-0.3-0.5-0.6c0.4-3.8,0.8-7.3,1.1-9.9
				c0-0.3,0.3-0.5,0.6-0.5c0.3,0,0.5,0.3,0.5,0.6c-0.3,2.6-0.7,6.1-1.1,9.9C933.1,412.5,932.8,412.7,932.6,412.7z"/>
		</g>
		<g>
			<path class="st12" d="M922.2,424.4c-0.1,0-0.2,0-0.3,0c-0.3,0-0.5-0.2-0.5-0.5c0-0.3,0.2-0.5,0.5-0.5c0,0,0,0,0,0
				c2.9,0,7.9-0.2,12.3-0.6c0.3,0,0.6,0.2,0.6,0.5c0,0.3-0.2,0.6-0.5,0.6C930,424.2,925.2,424.4,922.2,424.4z"/>
		</g>
		<path class="st13" d="M895.5,501c-15.6,0-18.5-4.5-22.9-38.9c10,0,34.1,0,45.9,0C913.9,496.6,911.1,501,895.5,501z"/>
	</g>
	<g id="plant_3">
		<g>
			<path class="st34" d="M915.7,258.3c-0.5-3.3-0.7-6.7-0.8-10c0-3.3,0.1-6.6,0.2-9.9c0.1-3.3,0.3-6.6,0.4-9.9
				c0.1-3.3,0.3-6.6,0.7-9.9c0.8-6.6,2.2-13,3.6-19.5l0.6-2.4c0.1-0.4,0.2-0.8,0.3-1.2c0.1-0.4,0.2-0.8,0.4-1.2
				c0.5-1.6,1-3.1,1.5-4.7c0.5-1.6,0.9-3.2,1.3-4.7c0.2-0.8,0.4-1.6,0.5-2.4c0.1-0.4,0.1-0.8,0.1-1.2c0-0.2,0-0.4,0-0.6
				c0-0.2,0-0.2,0,0c0,0.2,0,0.4,0,0.6c0,0.4,0,0.8-0.1,1.2c-0.1,0.8-0.3,1.6-0.4,2.4c-0.3,1.6-0.7,3.2-1.2,4.8
				c-0.4,1.6-0.9,3.2-1.3,4.8c-0.1,0.4-0.2,0.8-0.3,1.2c-0.1,0.4-0.2,0.8-0.3,1.2l-0.5,2.4c-1.2,6.5-2.4,12.9-2.9,19.5
				c-0.3,3.3-0.4,6.5-0.4,9.8c0,3.3,0,6.6,0,9.9c0,3.3,0,6.6,0.1,9.8c0.1,3.3,0.5,6.5,1.1,9.6L915.7,258.3z"/>
		</g>
		<g>
			<path class="st34" d="M913.5,256.6c-0.1,0-0.2,0-0.3-0.1c-6.3-6.7-8-16.7-8.7-23.7c-0.1-1.1-0.2-2.2-0.3-3.2
				c-0.3-3.2-0.5-6.2-1.4-9.3c-1.2-4-2.2-7.7-2.2-12.1c0-4.7,0-12.5-3.8-16.2c-0.1-0.1-0.1-0.4,0-0.5c0.1-0.1,0.4-0.1,0.5,0
				c4,3.9,4,11.9,4,16.7c0,4.3,1,8,2.2,11.9c0.9,3.2,1.2,6.2,1.4,9.4c0.1,1,0.2,2.1,0.3,3.2c0.7,6.9,2.4,16.7,8.5,23.3
				c0.1,0.1,0.1,0.4,0,0.5C913.7,256.6,913.6,256.6,913.5,256.6z"/>
		</g>
		<g>
			<path class="st34" d="M919.5,257.5c-0.1,0-0.2,0-0.3-0.1c-0.1-0.1-0.1-0.1-0.1-0.2c0-0.1-0.1-0.1-0.1-0.2
				c-0.1-0.2-0.1-0.4,0.1-0.5c0,0,0,0,0,0c0.1-4.6,1.7-9.1,3.3-13.4c0.5-1.4,1.1-2.9,1.5-4.4c1.7-5.4,4.5-10,9.3-15.2
				c0.6-0.6,1.2-1.3,1.8-1.9c2.1-2.3,4.2-4.6,6.1-7c0.1-0.2,0.4-0.2,0.5-0.1c0.2,0.1,0.2,0.4,0.1,0.5c-1.9,2.5-4.1,4.8-6.1,7.1
				c-0.6,0.6-1.2,1.3-1.8,1.9c-4.7,5.2-7.4,9.7-9.1,15c-0.5,1.5-1,3-1.5,4.4c-1.6,4.4-3.2,9-3.3,13.7c0.1,0.2,0,0.3-0.1,0.5
				C919.7,257.5,919.6,257.5,919.5,257.5z M919.2,257.3L919.2,257.3L919.2,257.3z"/>
		</g>
		<path class="st34" d="M920.6,195.6c0.1,0,0.1,0,0.2,0c0.2-0.1,0.3-0.3,0.2-0.5c-0.7-1.5-2.2-3-3.6-4.5c-0.9-0.9-1.7-1.8-2.4-2.6
			c-0.5-0.7-1-1.4-1.5-2.1c0.1,0,0.3,0.1,0.5,0.1c0.2,0,0.4,0,0.6-0.1c0.7-0.2,1.2-1,1.6-2.4c1.1-3.5,0.9-9.9-0.3-11.2
			c0,0-0.1-0.1-0.2,0c-0.8,0.5-3.8,8.5-3.2,11.9c-0.1-0.2-0.3-0.4-0.4-0.6c-0.5-0.8-1.1-1.7-1.6-2.5c0.2-0.2,0.3-0.4,0.4-0.7
			c0.5-1.1,0-2.8-1.3-4.8c-1.8-2.6-4.8-5.2-6.8-5c-0.1,0-0.3,0.1-0.3,0.5c-0.1,1,0.8,3.4,2,5.7c0.7,1.3,2.5,4.4,4.3,4.9
			c0.2,0,0.3,0.1,0.5,0.1c0.3,0,0.5-0.1,0.8-0.2c0.5,0.8,1.1,1.6,1.6,2.4c1,1.5,1.9,3,3,4.4c0.7,0.9,1.6,1.8,2.5,2.7
			c1.4,1.4,2.8,2.9,3.5,4.3C920.3,195.5,920.4,195.6,920.6,195.6z"/>
		<path class="st34" d="M924,209.2c2-1.9,3.8-3.6,5-5.5c0.4-0.6,2.1-3.5,2.3-5.5c0,0,0,0,0,0c1.1,0,2.6-2.9,3.1-4.5
			c0.1-0.3,0.2-0.6,0.3-0.9c0.7-2,1.7-5,0.7-6.4c-0.1-0.1-0.2-0.1-0.3-0.1c-1.1,0.4-4.7,8.2-4.7,9.2c0,0.9,0.1,1.5,0.2,1.9
			c0,0.1-0.1,0.1-0.1,0.2c0,1.4-1.2,3.9-2.2,5.6c-1.1,1.8-2.9,3.5-4.9,5.4c-2.9,2.8-5.9,5.7-6.6,9c0,0.2,0.1,0.4,0.3,0.4
			c0,0,0,0,0.1,0c0.2,0,0.3-0.1,0.4-0.3C918.2,214.7,921.2,211.9,924,209.2z"/>
		<path class="st34" d="M926.9,221.7c0.5-1.4,0.9-2.8,1.2-4.2c0.2,0,0.3,0,0.5-0.1c0.8-0.4,1.3-1.6,1.5-2.3l0-0.1
			c0.8-2.1,1.3-6.6-0.5-8.2l-0.1-0.1l-0.1,0.1c-1.4,1.7-2.2,3.3-2.5,5.4l0,0.1c-0.3,1.9-0.6,4.4,0.5,4.9c-0.3,1.3-0.8,2.8-1.2,4.1
			c-0.5,1.5-1,2.9-1.1,4.1c-0.5,3.2-0.5,6.7,0,10.2c0,0.2,0.2,0.3,0.4,0.3c0,0,0,0,0,0c0.2,0,0.3-0.2,0.3-0.4c-0.5-3.5-0.5-6.9,0-10
			C926,224.5,926.4,223.2,926.9,221.7z"/>
		<path class="st34" d="M899.4,196.5l0.2,0l-0.5-0.8c0.4,0.4,0.9,0.8,1.5,1l0.1,0l0,0c0.8-0.7,1.3-1.6,1.4-2.7
			c0.3-3.7-4-8.6-6.3-11.2c-0.2-0.2-0.4-0.4-0.5-0.6l-0.1-0.1l-0.1,0.1c-1.8,1.5-1,6.9-0.4,8.8C895.3,193,897.5,196,899.4,196.5z"/>
		<path class="st34" d="M899.2,214.1c0.5,0.1,1,0.2,1.3,0.2c0.7,0,1.2-0.2,1.3-0.6c0.6-1.3-2-4.2-3.6-5.4c-1.3-1-7.2-4.1-8.6-2.9
			c-0.5,0.4-0.4,1.2,0.2,2.3C891.5,210.8,895.2,213.3,899.2,214.1z"/>
		<path class="st34" d="M902.3,209.2c0.1,0,0.3,0.1,0.4,0.1c1.7,0,4.4-2.5,5.1-4.4c0.1-0.3,0.3-0.7,0.4-1c1-2.6,2.4-6,1.7-8.4l0-0.1
			l-0.1,0c-4.5-0.2-7.6,7.7-8.2,10.5C901.1,208.3,901.7,209,902.3,209.2z"/>
		<path class="st34" d="M910.4,208.6c-2.8,0.3-5.2,2.7-6.9,7.1c-0.8,2-0.8,3.4,0,3.9c0.2,0.1,0.5,0.2,0.8,0.2c0.9,0,2.3-0.7,3.7-2.1
			c1.2-1.2,5.1-6.5,4.2-8.4C912,208.7,911.4,208.5,910.4,208.6z"/>
		<path class="st34" d="M909.9,222.7c-2.4,1.5-4.7,5.7-4.9,8.3c-0.1,1.2,0.1,2,0.7,2.2c0.1,0.1,0.3,0.1,0.5,0.1
			c1.3,0,3.2-1.4,4.1-2.7c1.1-1.4,2.9-6.9,1.7-8.2C911.6,222,910.9,222.1,909.9,222.7z"/>
		<path class="st34" d="M912.4,187.2c-1.7-0.6-5.8-2-7.5-0.5c-0.6,0.5-0.8,1-0.6,1.6c0.7,1.8,5.7,3.1,7.2,3.1c0,0,0.1,0,0.1,0
			c2.2,0,3.1-0.8,3.3-1.6C915.1,188.9,914.1,187.8,912.4,187.2z"/>
		<path class="st34" d="M923,186.5c0.1,0,0.2,0,0.3-0.1c1.1-0.5,0.8-4.1,0.6-5.6c-0.2-1.4-2.2-7.2-3.7-7.3c0,0,0,0,0,0
			c-0.5,0-0.9,0.7-1.1,2c-0.5,3,0.3,7.6,2.2,9.8C922,186.2,922.5,186.5,923,186.5z"/>
		<path class="st34" d="M924.5,182c0,0,0.2-0.4,0.4-0.4l0,0l0,0c3.3-2.9,5-10.7,3.9-14.4l0-0.1l-0.1,0
			C923.2,168.1,924.5,182,924.5,182z"/>
		<path class="st34" d="M933.1,180.5c0.7-0.9,1-1.8,0.8-2.6l0-0.1l0,0c-1.8-0.5-4-0.1-6,1.3c-2.1,1.4-3.6,3.6-3.7,5.5l0.2,0
			c-0.1,0.1-0.1,0.3-0.3,0.4l-0.2,0.2l0.2,0C926.1,185.2,931.1,183.1,933.1,180.5z M924.3,184.1c0,0.2,0,0.3-0.1,0.5
			C924.2,184.4,924.3,184.3,924.3,184.1z"/>
		<path class="st34" d="M924.5,194.3c-0.5,0-0.9,0.6-1.2,2c-0.4,1.7-0.8,7.9,1.4,9.2c0.5,0.3,0.9,0.4,1.2,0.4c0.2,0,0.4,0,0.6-0.1
			c1-0.6,0.9-2.7,0.8-4.2C927.2,200.2,925.9,194.4,924.5,194.3z"/>
		<path class="st34" d="M930.9,201.6c0.5,0.7,1.7,1.1,3.5,1.1c0,0,0.1,0,0.1,0c2.7,0,6.3-0.9,7.2-2.2c0.1-0.2,0.2-0.5-0.2-0.8
			c-1.5-1.3-8.8-1.9-10.7-0.2C930.4,199.8,930.1,200.5,930.9,201.6z"/>
		<path class="st34" d="M926,222.1c-0.3-1.9-3.7-4.5-4.9-4.9l-0.1,0.2c0,0,0,0,0,0c0,0.1,0.1,0.4,0.2,0.8c0.4,1.6,1.1,5,2.7,5.6
			c0.1,0.1,0.3,0.1,0.4,0.1c0.4,0,0.8-0.2,1.2-0.5C925.9,223,926.1,222.6,926,222.1z"/>
		<path class="st34" d="M931.8,217.7c0-0.1-0.1-0.2-0.4-0.2c-1,0-4.1,2.9-4.3,3.4c-0.4,1-0.4,1.7,0.1,2.1c0.2,0.1,0.4,0.2,0.6,0.2
			c0.6,0,1.4-0.4,2.1-1.1C931,221.2,932.4,218.9,931.8,217.7z"/>
		<path class="st34" d="M938.3,207.6c-1.1,0.4-1.9,1.7-2.4,3.6c-0.5,2.6-0.3,6.1,1.1,7.4l0.4,0.2l0,0c2.9-1.7,2.3-8.4,0.9-11.1
			L938.3,207.6L938.3,207.6z"/>
		<path class="st34" d="M946.1,205.7L946.1,205.7l-0.1,0c-2,0.8-5.9,6.4-5.2,8.6c0.1,0.4,0.5,0.9,1.4,0.9c0.2,0,0.5,0,0.7-0.1
			c2-0.4,2.6-3.1,3-4.5C945.9,210.6,946.3,205.9,946.1,205.7z"/>
		<path class="st34" d="M932.9,226.2c-1.6,0.6-2.4,1.2-2.3,1.8c0.2,1.1,3.3,1.8,5.3,1.8c0.1,0,0.1,0,0.2,0c1.9,0,5.3-0.5,6.6-2.8
			c0.1-0.2,0.1-0.3,0-0.5C941.8,225.4,933.6,225.9,932.9,226.2z"/>
		<path class="st34" d="M903.9,235.9c-1-1.5-1.7-2.5-2.8-3.3c0.6-0.3,1-0.7,1.1-1.4c0.6-2.8-2.9-8.5-4.2-9.8l0,0l-0.1,0.1
			c0.1,0.1,0,1.1-0.1,2c-0.2,2.1-0.6,5.2,0,7.3c-0.7-0.5-1.2-1.2-1.7-1.9c-0.1-0.2-0.3-0.4-0.4-0.6c0.5-0.7,0.4-2.1-0.2-4.4
			c-0.6-2-3.2-6.3-4.4-6.1c-0.6,0.1-0.8,1.1-0.6,3c0.1,0.7,0.7,6.4,3.1,7.6c0.5,0.2,0.9,0.3,1.2,0.3c0.1,0,0.2,0,0.2,0
			c0.2,0.2,0.3,0.4,0.5,0.6c0.7,1,1.4,2,2.7,2.7c0.1,0.2,0.3,0.4,0.4,0.5c0.3,0.3,0.7,0.4,1.2,0.4c0.1,0,0.2,0,0.3,0
			c1.1,0.6,1.8,1.4,2.5,2.5c-2.6-0.7-7.1-0.7-9.2,1.7c-0.6,0.7-0.8,1.2-0.5,1.5c0.2,0.4,0.9,0.5,1.8,0.5c1.6,0,3.9-0.5,4.7-0.8
			l0.1,0c1.5-0.5,3.3-1,3.4-2.7c0.1,0.2,0.3,0.4,0.4,0.7c0.1,0.2,0.4,0.5,0.7,0.9c0.4,0.5,1.3,1.6,1.3,1.9c-0.1,0.2,0,0.3,0.2,0.4
			c0.1,0,0.1,0.1,0.2,0.1c0.1,0,0.2-0.1,0.3-0.2c0.3-0.5-0.2-1.2-1.4-2.7C904.2,236.4,904,236.1,903.9,235.9z"/>
		<polygon class="st13" points="927.4,296.2 903.6,296.2 896.6,254.3 934.3,254.3 		"/>
	</g>
</g>
</svg>
