<?xml version="1.0" encoding="utf-8"?>
<!-- Generator: Adobe Illustrator 19.0.0, SVG Export Plug-In . SVG Version: 6.00 Build 0)  -->
<svg version="1.1" xmlns="http://www.w3.org/2000/svg" xmlns:xlink="http://www.w3.org/1999/xlink" x="0px" y="0px"
	 viewBox="0 0 1000 1000" style="enable-background:new 0 0 1000 1000;" xml:space="preserve">
<style type="text/css">
	.st0{fill:#005F73;}
	.st1{fill:#2D2D2D;}
	.st2{fill:#FFFFFF;}
	.st3{fill:#C8BDFF;}
	.st4{fill:#4C4C4C;}
	.st5{fill:#F2F2F2;}
	.st6{fill:#A7C957;}
	.st7{fill:#F7B5E6;}
	.st8{fill:#727272;}
	.st9{fill:#A5A5A5;}
	.st10{fill:#8E8E8E;}
	.st11{fill:#201600;}
	.st12{fill:#3F3A36;}
	.st13{fill:#191919;}
	.st14{fill:#B8F5FF;}
	.st15{fill:#E29578;}
	.st16{fill:#FFD4F2;}
	.st17{fill:#A8E0E5;}
	.st18{fill:#D3D3D3;}
	.st19{fill:#9390BF;}
	.st20{fill:#FF9F9F;}
	.st21{fill:#915959;}
</style>
<g id="Back">
	<rect class="st0" width="1000" height="1000"/>
</g>
<g id="cats">
	<g>
		<g>
			<path class="st1" d="M254.2,37.7c26.9,17.7,60.6,27.1,97.5,27.1c36.9,0,70.6-9.4,97.5-27.1C465.1,27.3,478,14.3,487.2,0H216.3
				C225.4,14.3,238.4,27.3,254.2,37.7z"/>
			<path d="M251.5,41.9c27.7,18.2,62.4,27.9,100.3,27.9c37.9,0,72.5-9.6,100.3-27.9C469.4,30.4,483.5,16,493.1,0h-11.9
				c-22,32.3-66.4,59.8-129.4,59.8c-63,0-107.5-27.5-129.4-59.8h-11.9C220,16,234.1,30.4,251.5,41.9z"/>
		</g>
	</g>
	<g>
		<polygon class="st2" points="350.5,10.9 353.7,1.5 347.3,0.8 		"/>
	</g>
	<g>
		<polygon class="st2" points="372.4,10.9 375.6,0.8 369.3,1.5 		"/>
	</g>
	<g>
		<g>
			<path class="st3" d="M678.8,58c4.1,0.2,8.3,0.3,12.3,0.3c36.9,0,70.6-9.4,97.5-27.1c13.4-8.8,24.8-19.5,33.5-31.3H560.2
				C582.2,29.5,622.5,54.7,678.8,58z"/>
			<path d="M586.9,32.7C612.1,50.5,643.8,61,678.5,63c4.2,0.2,8.5,0.4,12.6,0.4c37.9,0,72.5-9.6,100.3-27.9
				c15-9.9,27.6-22,36.9-35.4h-12.5c-23.3,29.4-65.9,53.3-124.7,53.3c-4.1,0-8.1-0.1-12-0.3c-52.6-3-90.9-25.6-112.6-53H554
				C562.5,12.2,573.6,23.4,586.9,32.7z"/>
		</g>
	</g>
	<g>
		<path class="st4" d="M352.4,3c1.4,0,2.8-0.1,4-0.4c2.7-0.5,4.4-1.5,5.5-2.7h-21.5c0,0,0,0,0,0C343.5,1.9,348.1,3,352.4,3z"/>
	</g>
	<g>
		<path class="st4" d="M366.2,2.7c1.3,0.2,2.6,0.4,4,0.4c4.3,0,8.9-1.1,12-3c0,0,0,0,0,0h-21.5C361.8,1.2,363.6,2.1,366.2,2.7z"/>
	</g>
	<g>
		<g>
			<path class="st5" d="M893.1,0c8.6,11.3,19.6,21.6,32.6,30.1c21.1,13.9,46.5,22.6,74.3,25.8V0H893.1z"/>
			<path d="M899.5,0h-12.6c9.2,13,21.5,24.7,36.1,34.3c21.9,14.4,48.2,23.5,77,26.6v-10C953.9,45.6,919.8,24.9,899.5,0z"/>
		</g>
	</g>
	<g>
		<g>
			<path class="st5" d="M120.8,30.1c13-8.5,24-18.8,32.6-30.1H0v55.9c7.6,0.9,15.3,1.3,23.3,1.3C60.2,57.2,93.9,47.8,120.8,30.1z"/>
			<path d="M123.5,34.3C138.1,24.7,150.4,13,159.6,0H147C123.5,28.9,81.2,52.2,23.3,52.2c-8.1,0-15.8-0.5-23.3-1.3v10
				c7.6,0.8,15.4,1.3,23.3,1.3C61.1,62.2,95.8,52.5,123.5,34.3z"/>
		</g>
	</g>
	<g>
		<g>
			<path class="st2" d="M998.3,0c-10.6,12.5-23.1,23.5-35.4,34.3c-2.2,1.9-4.5,3.9-6.8,5.8c13.1,5.1,27.7,8.9,43.8,10.8V0H998.3z"/>
		</g>
		<g>
			<path class="st2" d="M104.4,34c-4.6,2.3-16.9-15.3-19.5-18.2C80.2,10.5,75.5,5.2,70.8,0H0v50.8c7.5,0.9,15.4,1.3,23.5,1.3
				C55.4,52.2,82.5,45.1,104.4,34z"/>
		</g>
	</g>
	<g>
		<g>
			<path class="st6" d="M59.8,55.3l-4.3-0.4l-1,4.2c-17.6,71.8-6.5,110.9-6,112.6l1.1,3.8l4-0.2c0.9-0.1,21.9-1.3,45-6
				c32.1-6.6,51.7-16.5,58.4-29.6c4.3-8.5,3.2-17.8-3.2-27.7C121.6,62.2,62.4,55.6,59.8,55.3z"/>
			<path d="M96.5,60.1c-19.7-8-35.5-9.7-36.1-9.7l-8.7-0.9l-2.1,8.4c-18,73.1-6.4,113.5-5.9,115.2l2.3,7.6l7.9-0.5
				c0.9-0.1,22.2-1.3,45.7-6.1c34.1-7,54.4-17.6,61.8-32.2c3.5-7,5.8-18.3-3.4-32.6C144.1,87.7,122.8,70.7,96.5,60.1z M53.3,170.2
				c0,0-11.5-38.7,6-109.9c0,0,59,6,90.2,54.3C180.8,162.9,53.3,170.2,53.3,170.2z"/>
		</g>
		<g>
			<path class="st6" d="M315.8,54.9l-4.3,0.4c-2.5,0.3-61.7,6.9-93.9,56.6c-6.4,9.9-7.5,19.2-3.2,27.7c6.6,13.1,26.3,23,58.4,29.6
				c23.1,4.7,44.1,6,45,6l4,0.2l1.1-3.8c0.5-1.6,11.7-40.8-6-112.6L315.8,54.9z"/>
			<path d="M319.6,49.5l-8.7,0.9c-0.7,0.1-16.4,1.7-36.1,9.7c-26.3,10.7-47.6,27.6-61.5,49.1c-9.3,14.3-7,25.7-3.4,32.6
				c7.5,14.7,27.7,25.2,61.8,32.2c23.5,4.8,44.8,6.1,45.7,6.1l7.9,0.5l2.3-7.6c0.5-1.7,12-42.1-5.9-115.2L319.6,49.5z M318,170.2
				c0,0-127.5-7.3-96.3-55.6s90.2-54.3,90.2-54.3C329.4,131.6,318,170.2,318,170.2z"/>
		</g>
		<g>
			<path class="st6" d="M235.1,100.2c-6.8-2.4-13.8-4.3-20.6-5.7c-3.2-0.7-6.6-1.3-9.8-1.7c-6.4-0.9-12.8-1.3-19-1.3
				c-0.6,0-1.2,0-1.8,0c-3.3,0-6.6,0.2-9.8,0.5c-6.8,0.6-13.8,1.7-20.7,3.3c-43.8,10.1-86.3,40.1-105.7,74.7
				c-10.8,19.2-13.6,38.2-8,54.9c7.6,23,24.9,44.2,48.5,59.8c26.9,17.7,60.6,27.1,97.5,27.1c36.9,0,70.6-9.4,97.5-27.1
				c23.7-15.6,40.9-36.8,48.5-59.8c7.3-21.9,0.2-47.6-19.9-72.2C293,129.8,265.1,110.7,235.1,100.2z"/>
			<path d="M236.8,95.5c-7-2.5-14.2-4.4-21.3-5.9c-3.3-0.7-6.8-1.3-10.2-1.8c-6.6-0.9-13.2-1.4-19.7-1.4c-0.6,0-1.3,0-1.9,0
				c-3.3,0-6.8,0.2-10.1,0.5c-7,0.6-14.2,1.7-21.4,3.4c-22.5,5.2-44.8,15.3-64.4,29.4c-19.4,13.8-34.8,30.3-44.6,47.8
				c-11.5,20.5-14.4,40.9-8.4,58.9c8,24,25.9,46.2,50.5,62.4c27.7,18.2,62.4,27.9,100.3,27.9c37.9,0,72.5-9.6,100.3-27.9
				c24.6-16.2,42.5-38.3,50.5-62.4c7.9-23.6,0.5-51-20.8-77C296.3,125.9,267.6,106.2,236.8,95.5z M327,223.3
				c-13.7,41.2-63.3,83.4-141.3,83.4c-78,0-127.6-42.2-141.3-83.4c-15.6-46.8,43.4-107.8,110.2-123.2c6.6-1.5,13.3-2.6,20-3.2
				c3.1-0.3,6.3-0.4,9.4-0.5c0.6,0,1.1,0,1.7,0c6.1,0,12.2,0.4,18.3,1.3c3.2,0.4,6.4,1,9.5,1.7c6.8,1.4,13.5,3.3,20,5.6
				C293,125.7,341.2,180.4,327,223.3z"/>
		</g>
	</g>
	<g>
		<path class="st7" d="M274.3,197.3c-8.2-7.5-17.9-8.1-20.7-8.1c-0.6,0-1,0-1,0c-25.3,1.2-34.4,27.7-34.8,28.8l-0.7,2.2l2.2,0.9
			c9.7,4,19.3,6.3,28.5,6.7c1.1,0.1,2.3,0.1,3.4,0.1c0,0,0,0,0,0c7.2,0,14.1-1.1,20.5-3.4c7.9-2.8,12.1-6.3,12.3-6.4l1.2-1l-0.4-1.5
			C282.7,207.9,279.2,201.8,274.3,197.3z"/>
		<g>
			<path d="M276,195.4c-8.6-7.9-18.6-8.7-22.4-8.7c-0.6,0-0.9,0-1.1,0c-26.9,1.3-36.6,29.3-37,30.5l-1.5,4.4l4.3,1.8
				c10,4.1,19.9,6.5,29.3,6.9c1.2,0.1,2.4,0.1,3.5,0.1c7.5,0,14.7-1.2,21.4-3.5c8.2-2.9,12.6-6.5,13.1-6.9l2.5-2.1l-0.8-3.1
				C285,206.8,281.2,200.2,276,195.4z M270.8,222.2c-5,1.8-11.6,3.3-19.7,3.3c-1.1,0-2.2,0-3.3-0.1c-8-0.4-17.2-2.2-27.6-6.6
				c0,0,8.7-26,32.5-27.1c0,0,0.3,0,0.8,0c2.7,0,11.5,0.6,19,7.4c4,3.6,7.6,9,9.8,17.1C282.4,216.2,278.4,219.5,270.8,222.2z"/>
		</g>
	</g>
	<g>
		<g>
			<path class="st8" d="M715.6,53.7l-4.3-0.4l-1,4.2c-17.6,71.8-6.5,110.9-6,112.6l1.1,3.8l4-0.2c0.9-0.1,21.9-1.3,45-6
				c32.1-6.6,51.7-16.5,58.4-29.6c4.3-8.5,3.2-17.8-3.2-27.7C777.4,60.6,718.1,54,715.6,53.7z"/>
			<path d="M752.3,58.5c-19.7-8-35.5-9.7-36.1-9.7l-8.7-0.9l-2.1,8.4c-18,73.1-6.4,113.5-5.9,115.2l2.3,7.6l7.9-0.5
				c0.9-0.1,22.2-1.3,45.7-6.1c34.1-7,54.4-17.6,61.8-32.2c3.5-7,5.8-18.3-3.4-32.6C799.8,86.1,778.6,69.1,752.3,58.5z M709.1,168.6
				c0,0-11.5-38.7,6-109.9c0,0,59,6,90.2,54.3C836.6,161.3,709.1,168.6,709.1,168.6z"/>
		</g>
		<g>
			<path class="st8" d="M971.5,53.3l-4.3,0.4c-2.5,0.3-61.7,6.9-93.9,56.6c-6.4,9.9-7.5,19.2-3.2,27.7c6.6,13.1,26.3,23,58.4,29.6
				c23.1,4.7,44.1,6,45,6l4,0.2l1.1-3.8c0.5-1.6,11.7-40.8-6-112.6L971.5,53.3z"/>
			<path d="M975.4,47.9l-8.7,0.9c-0.7,0.1-16.4,1.7-36.1,9.7c-26.3,10.7-47.6,27.6-61.5,49.1c-9.3,14.3-7,25.7-3.4,32.6
				c7.5,14.7,27.7,25.2,61.8,32.2c23.5,4.8,44.8,6.1,45.7,6.1l7.9,0.5l2.3-7.6c0.5-1.7,12-42.1-5.9-115.2L975.4,47.9z M973.8,168.6
				c0,0-127.5-7.3-96.3-55.6c31.2-48.3,90.2-54.3,90.2-54.3C985.2,130,973.8,168.6,973.8,168.6z"/>
		</g>
		<g>
			<path class="st9" d="M841.4,89.8c-48.4,0-102.3,27.8-131,67.6c-16.3,22.6-21.7,46-15.1,65.9c7.6,23,24.9,44.2,48.5,59.8
				c26.9,17.7,60.6,27.1,97.5,27.1c36.9,0,70.6-9.4,97.5-27.1c23.7-15.6,40.9-36.8,48.5-59.8c6.6-19.9,1.3-43.3-15.1-65.9
				C943.7,117.6,889.9,89.8,841.4,89.8z"/>
			<path d="M918.7,105.4c-25.1-13.4-51.9-20.6-77.3-20.6c-25.4,0-52.1,7.1-77.3,20.6c-23.5,12.6-44,30-57.8,49.1
				c-17.3,24-22.9,49-15.8,70.4c8,24,25.9,46.2,50.5,62.4c27.7,18.2,62.4,27.9,100.3,27.9c37.9,0,72.5-9.6,100.3-27.9
				c24.6-16.2,42.5-38.3,50.5-62.4c7.1-21.4,1.5-46.4-15.8-70.4C962.7,135.4,942.2,118,918.7,105.4z M982.7,221.7
				c-13.7,41.2-63.3,83.4-141.3,83.4c-78,0-127.6-42.2-141.3-83.4c-18-54,63.3-126.9,141.3-126.9
				C919.5,94.8,1000.7,167.7,982.7,221.7z"/>
		</g>
		<path class="st10" d="M841.4,94.8c-2.4,0-4.8,0.1-7.2,0.2c11.7,6.9,17.6,21.7,18.8,34.9c2,21.8-4.3,42.9,0,64.7
			c3.7,18.7,12.8,36.9,28.3,48.5c18.2,13.6,45.9,15.3,64.1,29c18.7-14.7,31.3-32.7,37.2-50.5C1000.7,167.7,919.5,94.8,841.4,94.8z"
			/>
	</g>
	<g>
		<path class="st2" d="M790.7,185.9c-0.4,0-0.7,0-1.1,0c-0.2,0-24.8,0.3-32.3,28l-0.4,1.3l0.9,1c0.5,0.6,12.9,13.8,33.3,13.8
			c0,0,0,0,0,0c10.6,0,21.4-3.6,32.1-10.8l1.3-0.9l-0.2-1.5C824.3,216.6,820.1,185.9,790.7,185.9z"/>
		<path d="M820.9,200.2c-4.6-7.7-13.7-16.8-30.2-16.8c-0.4,0-0.8,0-1.1,0c-1,0-7.2,0.2-14.4,3.8c-6.9,3.4-16.1,10.8-20.2,26.1
			l-0.7,2.7l1.9,2c0.5,0.6,13.7,14.6,35.1,14.6c11.1,0,22.4-3.8,33.5-11.2l2.6-1.7l-0.4-3.1C826.8,216.2,825.7,208.2,820.9,200.2z
			 M791.2,227.5c-19.5,0-31.5-13-31.5-13c7.1-26.2,29.9-26.2,29.9-26.2c0.4,0,0.7,0,1.1,0c27.5,0,31.2,28.8,31.2,28.8
			C810.4,224.9,800,227.5,791.2,227.5z"/>
	</g>
	<g>
		<path class="st2" d="M908.3,185.9C908.3,185.9,908.3,185.9,908.3,185.9c-0.4,0-0.8,0-1.1,0c-29.3,0-33.6,30.7-33.7,31l-0.2,1.5
			l1.3,0.9c10.7,7.1,21.5,10.8,32.1,10.8c0,0,0,0,0,0c20.4,0,32.8-13.2,33.3-13.8l0.9-1l-0.4-1.3
			C933.1,186.3,908.5,185.9,908.3,185.9z"/>
		<path d="M922.7,187.2c-7.2-3.6-13.4-3.8-14.4-3.8c-0.4,0-0.8,0-1.1,0c-16.5,0-25.5,9.1-30.2,16.8c-4.9,8-5.9,16-6,16.4l-0.4,3.1
			l2.6,1.7c11.1,7.4,22.4,11.2,33.5,11.2c21.5,0,34.6-14,35.1-14.6l1.9-2l-0.7-2.7C938.8,198,929.7,190.6,922.7,187.2z M906.7,227.5
			c-8.8,0-19.2-2.6-30.7-10.3c0,0,3.7-28.8,31.2-28.8c0.3,0,0.7,0,1.1,0c0,0,22.8,0,29.9,26.2C938.2,214.6,926.2,227.5,906.7,227.5z
			"/>
	</g>
	<circle class="st11" cx="793.4" cy="208" r="18.4"/>
	<circle class="st11" cx="904.5" cy="208" r="18.4"/>
	<g>
		<path class="st12" d="M920.6,236.9h-34.6c-0.5,0-0.9,0.4-0.9,0.9c0,0.5,0.4,0.9,0.9,0.9h34.6c0.5,0,0.9-0.4,0.9-0.9
			C921.5,237.3,921.1,236.9,920.6,236.9z"/>
	</g>
	<g>
		<path class="st12" d="M907.1,243h-19.7c-0.5,0-0.9,0.4-0.9,0.9c0,0.5,0.4,0.9,0.9,0.9h19.7c0.5,0,0.9-0.4,0.9-0.9
			C908,243.4,907.6,243,907.1,243z"/>
	</g>
	<g>
		<path class="st12" d="M814.8,236.9h-34.6c-0.5,0-0.9,0.4-0.9,0.9c0,0.5,0.4,0.9,0.9,0.9h34.6c0.5,0,0.9-0.4,0.9-0.9
			C815.7,237.3,815.3,236.9,814.8,236.9z"/>
	</g>
	<g>
		<path class="st12" d="M813.5,243h-19.7c-0.5,0-0.9,0.4-0.9,0.9c0,0.5,0.4,0.9,0.9,0.9h19.7c0.5,0,0.9-0.4,0.9-0.9
			C814.4,243.4,814,243,813.5,243z"/>
	</g>
	<circle class="st2" cx="802" cy="215.8" r="4.5"/>
	<circle class="st2" cx="913.2" cy="215.8" r="4.5"/>
	<g>
		<g>
			<path class="st13" d="M561.5,310.4l-4.3-0.4l-1,4.2c-17.6,71.8-6.5,110.9-6,112.6l1.1,3.8l4-0.2c0.9-0.1,21.9-1.3,45-6
				c32.1-6.6,51.7-16.5,58.4-29.6c4.3-8.5,3.2-17.8-3.2-27.7C623.2,317.2,564,310.6,561.5,310.4z"/>
			<path d="M598.1,315.1c-19.7-8-35.5-9.7-36.1-9.7l-8.7-0.9l-2.1,8.4c-18,73.1-6.4,113.5-5.9,115.2l2.3,7.6l7.9-0.5
				c0.9-0.1,22.2-1.3,45.7-6.1c34.1-7,54.4-17.6,61.8-32.2c3.5-7,5.8-18.3-3.4-32.6C645.7,342.8,624.5,325.8,598.1,315.1z
				 M555,425.3c0,0-11.5-38.7,6-109.9c0,0,59,6,90.2,54.3C682.4,418,555,425.3,555,425.3z"/>
		</g>
		<g>
			<path class="st13" d="M817.4,309.9l-4.3,0.4c-2.5,0.3-61.7,6.9-93.9,56.6c-6.4,9.9-7.5,19.2-3.2,27.7c6.6,13.1,26.3,23,58.4,29.6
				c23.1,4.7,44.1,6,45,6l4,0.2l1.1-3.8c0.5-1.6,11.7-40.8-6-112.6L817.4,309.9z"/>
			<path d="M821.2,304.5l-8.7,0.9c-0.7,0.1-16.4,1.7-36.1,9.7c-26.3,10.7-47.6,27.6-61.5,49.1c-9.3,14.3-7,25.7-3.4,32.6
				c7.5,14.7,27.7,25.2,61.8,32.2c23.5,4.8,44.8,6.1,45.7,6.1l7.9,0.5l2.3-7.6c0.5-1.7,12-42.1-5.9-115.2L821.2,304.5z M819.6,425.3
				c0,0-127.5-7.3-96.3-55.6c31.2-48.3,90.2-54.3,90.2-54.3C831.1,386.6,819.6,425.3,819.6,425.3z"/>
		</g>
		<g>
			<path class="st1" d="M687.3,346.5c-48.4,0-102.3,27.8-131,67.6c-16.3,22.6-21.7,46-15.1,65.9c7.6,23,24.9,44.2,48.5,59.8
				c26.9,17.7,60.6,27.1,97.5,27.1c36.9,0,70.6-9.4,97.5-27.1c23.7-15.6,40.9-36.8,48.5-59.8c6.6-19.9,1.3-43.3-15.1-65.9
				C789.6,374.3,735.7,346.5,687.3,346.5z"/>
			<path d="M764.6,362c-25.1-13.4-51.9-20.6-77.3-20.6c-25.4,0-52.1,7.1-77.3,20.6c-23.5,12.6-44,30-57.8,49.1
				c-17.3,24-22.9,49-15.8,70.4c8,24,25.9,46.2,50.5,62.4c27.7,18.2,62.4,27.9,100.3,27.9c37.9,0,72.5-9.6,100.3-27.9
				c24.6-16.2,42.5-38.3,50.5-62.4c7.1-21.4,1.5-46.4-15.8-70.4C808.6,392,788.1,374.6,764.6,362z M828.6,478.3
				c-13.7,41.2-63.3,83.4-141.3,83.4c-78,0-127.6-42.2-141.3-83.4c-18-54,63.3-126.9,141.3-126.9
				C765.4,351.5,846.6,424.3,828.6,478.3z"/>
		</g>
	</g>
	<g>
		<path class="st4" d="M766.5,488.6h-34.6c-0.5,0-0.9,0.4-0.9,0.9c0,0.5,0.4,0.9,0.9,0.9h34.6c0.5,0,0.9-0.4,0.9-0.9
			C767.4,489,767,488.6,766.5,488.6z"/>
	</g>
	<g>
		<path class="st4" d="M752.9,494.6h-19.7c-0.5,0-0.9,0.4-0.9,0.9c0,0.5,0.4,0.9,0.9,0.9h19.7c0.5,0,0.9-0.4,0.9-0.9
			C753.8,495,753.4,494.6,752.9,494.6z"/>
	</g>
	<g>
		<path class="st4" d="M660.6,488.6h-34.6c-0.5,0-0.9,0.4-0.9,0.9c0,0.5,0.4,0.9,0.9,0.9h34.6c0.5,0,0.9-0.4,0.9-0.9
			C661.5,489,661.1,488.6,660.6,488.6z"/>
	</g>
	<g>
		<path class="st4" d="M659.4,494.6h-19.7c-0.5,0-0.9,0.4-0.9,0.9c0,0.5,0.4,0.9,0.9,0.9h19.7c0.5,0,0.9-0.4,0.9-0.9
			C660.3,495,659.9,494.6,659.4,494.6z"/>
	</g>
	<g>
		<path class="st14" d="M636.7,442.5c-0.3,0-0.6,0-1,0c-0.4-0.1-1.1-0.1-2.1-0.1c-5.6,0-19.1,2.4-25.2,24.8l-0.3,1l0.5,0.9
			c0.3,0.6,8.5,15.5,27.1,15.5c0,0,0,0,0,0c8.9,0,18.7-3.5,29-10.4l1.1-0.7l0-1.3c0-0.5,0.2-13.1-8.2-21.7
			C652.5,445.2,645.5,442.5,636.7,442.5z"/>
		<path d="M636.7,440c-0.3,0-0.5,0-0.8,0c-0.5-0.1-1.3-0.1-2.3-0.1c-2.8,0-8.4,0.6-14,4.6c-6.3,4.5-10.9,11.9-13.6,22.1l-0.5,1.9
			l0.9,1.8c0.4,0.7,9.3,16.8,29.3,16.8c9.4,0,19.6-3.6,30.4-10.8l2.2-1.4l0.1-2.6c0-0.6,0.3-14.1-8.9-23.6
			C653.8,442.9,646.2,440,636.7,440z M663.3,472c-11.1,7.4-20.2,10-27.6,10c-17.3,0-24.9-14.2-24.9-14.2c5.7-20.8,18-23,22.8-23
			c1.2,0,2,0.1,2,0.1c0.4,0,0.8,0,1.1,0C664,445,663.3,472,663.3,472z"/>
	</g>
	<g>
		<path class="st14" d="M756.2,442.4c-1.1,0-1.9,0.1-2.3,0.1c-0.3,0-0.7,0-1,0c-8.8,0-15.9,2.6-21.1,7.8c-8.6,8.6-8.7,21.2-8.7,21.7
			l0,1.3l1.1,0.7c10.3,6.9,20.3,10.4,29.5,10.4c0,0,0,0,0,0c19.1,0,28.4-14.7,28.8-15.4l0.6-0.9l-0.3-1
			C776.8,444.8,762.2,442.4,756.2,442.4z"/>
		<path d="M756.2,439.9c-1.1,0-1.9,0.1-2.4,0.1c-0.3,0-0.6,0-0.8,0c0,0,0,0,0,0c-9.5,0-17.2,2.9-22.8,8.6
			c-9.3,9.4-9.4,22.9-9.4,23.5l0,2.7l2.2,1.5c10.8,7.2,21.1,10.8,30.9,10.8c20.5,0,30.5-15.9,30.9-16.5l1.1-1.8l-0.6-2.1
			C778.6,441.8,761.4,439.9,756.2,439.9z M753.8,482c-7.7,0-17-2.6-28.1-10c0,0-0.1-27,27.3-27c0.4,0,0.7,0,1.1,0
			c0,0,0.8-0.1,2.1-0.1c5.2,0,18.6,2.1,24.2,23C780.5,467.9,771.8,482,753.8,482z"/>
	</g>
	<g>
		<g>
			<path class="st15" d="M472,95.4c-2.4,0-5.5,0.4-9.3,1.2c-5.1,1.1-10.9,1.6-17,1.6c-24.9,0-57-8.4-95.5-24.9l-0.5-0.2
				c-1.1-0.5-2.2-0.7-3.3-0.7c-2.4,0-4.8,1.1-6.4,3c-1.6,1.9-2.3,4.3-1.9,6.7c9.3,56,26.8,86.4,33.8,96.9c1.6,2.3,4.1,3.7,6.9,3.7
				c1.9,0,3.8-0.7,5.3-1.9c4.1-3.4,14.2-10.2,25.8-18.1c60.1-40.9,74.1-53,71.4-61.8C480.7,98.3,478.5,95.4,472,95.4z"/>
			<path d="M472.1,90.4c-2.8,0-6.1,0.4-10.3,1.3c-4.8,1-10.2,1.5-16,1.5c-24.2,0-55.7-8.3-93.6-24.5l-0.5-0.2
				c-1.7-0.7-3.5-1.1-5.3-1.1h0c-3.9,0-7.6,1.7-10.2,4.7c-2.5,3-3.6,6.9-3,10.8c9.4,56.9,27.4,88.1,34.6,98.8
				c2.5,3.7,6.6,5.9,11.1,5.9c3.1,0,6-1.1,8.4-3c4-3.2,13.9-10,25.5-17.9c14.7-10,33-22.4,47.2-33.2c8-6.1,13.9-11,18-15.1
				c3.5-3.5,10.8-10.7,8.2-19.1C485.4,96.6,482.4,90.4,472.1,90.4z M381.1,176.8c-0.6,0.5-1.4,0.8-2.1,0.8c-1.1,0-2.1-0.5-2.8-1.5
				c-6.1-9-23.8-39-33-94.9c-0.4-2.1,1.3-3.9,3.3-3.9c0.4,0,0.9,0.1,1.3,0.3c12.8,5.5,59,25.6,98,25.6c6.3,0,12.3-0.5,18-1.7
				c3.5-0.7,6.2-1.1,8.3-1.1C499.7,100.4,397.9,163.1,381.1,176.8z"/>
		</g>
		<g>
			<path class="st15" d="M644.3,48.1l-5,1.5c-1.7,0.5-41.4,12.6-92,55.3c-8.6,7.3-11.9,14.8-9.7,22.4c3.7,12.6,22.8,23.2,58.5,32.2
				c25.1,6.4,49.7,9.7,49.9,9.7l4.2,0.6l1.2-4.1c0.5-1.6,11.7-40.8-6-112.6L644.3,48.1z"/>
			<path d="M647.9,41.9l-10.1,3c-1.7,0.5-42.4,12.9-93.8,56.3c-12.8,10.8-13.2,21-11.2,27.7c4.3,14.7,24,26,62.1,35.7
				c25.4,6.5,49.5,9.7,50.5,9.8l8.5,1.1l2.4-8.2c0.5-1.7,12-42.1-5.9-115.2L647.9,41.9z M646.7,164.4c0,0-140.2-18.5-96.3-55.6
				c50.4-42.5,90.2-54.3,90.2-54.3C658.2,125.7,646.7,164.4,646.7,164.4z"/>
		</g>
		<g>
			<path class="st16" d="M514.4,86.9c-48.4,0-102.3,27.8-131,67.6c-16.3,22.6-21.7,46-15.1,65.9c7.6,23,24.9,44.2,48.5,59.8
				c26.9,17.7,60.6,27.1,97.5,27.1c36.9,0,70.6-9.4,97.5-27.1c23.7-15.6,40.9-36.8,48.5-59.8c6.6-19.9,1.3-43.3-15.1-65.9
				C616.7,114.7,562.8,86.9,514.4,86.9z"/>
			<path d="M591.7,102.5c-25.1-13.4-51.9-20.6-77.3-20.6c-25.4,0-52.1,7.1-77.3,20.6c-23.5,12.6-44,30-57.8,49.1
				c-17.3,24-22.9,49-15.8,70.4c8,24,25.9,46.2,50.5,62.4c27.7,18.2,62.4,27.9,100.3,27.9c37.9,0,72.5-9.6,100.3-27.9
				c24.6-16.2,42.5-38.3,50.5-62.4c7.1-21.4,1.5-46.4-15.8-70.4C635.7,132.5,615.2,115,591.7,102.5z M655.7,218.8
				c-13.7,41.2-63.3,83.4-141.3,83.4c-78,0-127.6-42.2-141.3-83.4c-18-54,63.3-126.9,141.3-126.9
				C592.5,91.9,673.7,164.8,655.7,218.8z"/>
		</g>
	</g>
	<g>
		<path class="st11" d="M593.6,232.7H559c-0.5,0-0.9,0.4-0.9,0.9c0,0.5,0.4,0.9,0.9,0.9h34.6c0.5,0,0.9-0.4,0.9-0.9
			C594.5,233.1,594.1,232.7,593.6,232.7z"/>
	</g>
	<g>
		<path class="st11" d="M580,238.7h-19.7c-0.5,0-0.9,0.4-0.9,0.9c0,0.5,0.4,0.9,0.9,0.9H580c0.5,0,0.9-0.4,0.9-0.9
			C581,239.1,580.5,238.7,580,238.7z"/>
	</g>
	<g>
		<path class="st11" d="M487.7,232.7h-34.6c-0.5,0-0.9,0.4-0.9,0.9c0,0.5,0.4,0.9,0.9,0.9h34.6c0.5,0,0.9-0.4,0.9-0.9
			C488.6,233.1,488.2,232.7,487.7,232.7z"/>
	</g>
	<g>
		<path class="st11" d="M486.5,238.7h-19.7c-0.5,0-0.9,0.4-0.9,0.9c0,0.5,0.4,0.9,0.9,0.9h19.7c0.5,0,0.9-0.4,0.9-0.9
			C487.4,239.1,487,238.7,486.5,238.7z"/>
	</g>
	<g>
		<path class="st17" d="M463.7,181.6c-0.4,0-0.7,0-1,0c-0.1,0-3.2,0-7.5,1.2c-4.8,1.4-11.7,4.5-17.3,11.4c-3.4,4.2-6,9.4-7.6,15.4
			l-0.4,1.3l0.9,1c0.3,0.3,6.5,7,17.4,11l0.1,0l0.2,0.1c1.2,0.4,2.3,0.8,3.5,1.1l0.2,0c3.9,1,7.9,1.6,11.9,1.6c0,0,0,0,0,0
			c10.6,0,21.4-3.6,32.1-10.8l1.3-0.9l-0.2-1.5C497.3,212.3,493,181.6,463.7,181.6z"/>
		<path d="M493.9,195.9c-4.6-7.7-13.7-16.8-30.2-16.8c-0.4,0-0.7,0-1.1,0c-0.6,0-3.8,0.1-8.1,1.3c-5.1,1.5-12.5,4.8-18.5,12.2
			c-3.6,4.5-6.4,10-8.1,16.3l-0.7,2.7l1.9,2c0.3,0.3,6.9,7.4,18.3,11.6l0,0l0.3,0.1c1.2,0.4,2.5,0.8,3.7,1.2l0.2,0l0.1,0
			c4.1,1.1,8.3,1.6,12.5,1.6c11.1,0,22.4-3.8,33.5-11.2l2.6-1.7l-0.4-3.1C499.8,212,498.7,203.9,493.9,195.9z M464.2,223.3
			c-4.1,0-7.9-0.6-11.4-1.5c0,0-0.1,0-0.1,0c-1.2-0.3-2.3-0.7-3.3-1.1c0,0,0,0-0.1,0c-10.5-3.8-16.6-10.3-16.6-10.3
			c1.7-6.2,4.2-10.9,7.1-14.5c5.1-6.3,11.4-9.2,16-10.6c4-1.1,6.8-1.1,6.8-1.1c0.4,0,0.7,0,1,0c27.5,0,31.2,28.8,31.2,28.8
			C483.4,220.6,473,223.3,464.2,223.3z"/>
	</g>
	<g>
		<path class="st17" d="M581.3,181.6C581.3,181.6,581.3,181.6,581.3,181.6c-0.4,0-0.8,0-1.1,0c-3.7,0-7.1,0.5-10.3,1.5
			c-14.5,4.4-20.2,17.5-22.3,24.9c-0.8,2.7-1,4.6-1,4.7l-0.2,1.5l1.3,0.9c1.7,1.1,3.4,2.2,5.1,3.1c5.3,3,10.7,5.1,16,6.3
			c3.7,0.8,7.3,1.3,11,1.3c0,0,0,0,0,0c20.4,0,32.8-13.2,33.3-13.8l0.9-1l-0.4-1.3C606,182,581.5,181.6,581.3,181.6z"/>
		<path d="M595.7,182.9c-7.2-3.6-13.4-3.8-14.4-3.8c-0.4,0-0.8,0-1.2,0c-3.9,0-7.6,0.5-11,1.6c-15.7,4.8-21.8,18.7-24,26.6
			c-0.8,2.9-1.1,4.8-1.1,5l-0.4,3.1l2.6,1.7c1.7,1.1,3.5,2.2,5.3,3.2c5.5,3.1,11.1,5.3,16.7,6.6c3.8,0.9,7.7,1.3,11.5,1.3
			c21.5,0,34.6-14,35.1-14.6l1.9-2L616,209C611.8,193.7,602.7,186.4,595.7,182.9z M579.7,223.3c-3.3,0-6.7-0.4-10.4-1.2
			c-4.8-1.1-9.9-3.1-15.4-6.1c-1.6-0.9-3.3-1.9-5-3c0,0,0.2-1.7,1-4.3c1.9-6.6,7.1-19.1,20.6-23.2c2.8-0.9,6-1.4,9.6-1.4
			c0.4,0,0.7,0,1.1,0c0,0,22.8,0,29.9,26.2C611.1,210.3,599.2,223.3,579.7,223.3z"/>
	</g>
	<path class="st11" d="M456.5,185.2c-0.2,0-0.5,0-0.7,0c-4.7,1.3-10.9,4.2-16,10.6c-1.1,2.4-1.8,5.1-1.8,7.9c0,7.6,4.6,14.2,11.2,17
		c0,0,0,0,0.1,0c1.1,0.5,2.2,0.8,3.3,1.1c0,0,0.1,0,0.1,0c1.2,0.2,2.4,0.4,3.7,0.4c10.2,0,18.4-8.3,18.4-18.4
		S466.7,185.2,456.5,185.2z"/>
	<path class="st11" d="M570.5,185.5c-13.5,4.1-18.8,16.5-20.6,23.2c0.8,2.8,2.1,5.3,4,7.3c5.4,3,10.5,5,15.4,6.1
		c9.4-0.8,16.9-8.7,16.9-18.4C586.1,194.5,579.4,186.8,570.5,185.5z"/>
	<circle class="st2" cx="465.2" cy="211.5" r="4.5"/>
	<circle class="st2" cx="576.3" cy="211.5" r="4.5"/>
	<g>
		<path class="st11" d="M264.9,238.5h-34.6c-0.5,0-0.9,0.4-0.9,0.9c0,0.5,0.4,0.9,0.9,0.9h34.6c0.5,0,0.9-0.4,0.9-0.9
			C265.8,238.9,265.4,238.5,264.9,238.5z"/>
	</g>
	<g>
		<path class="st11" d="M251.3,244.6h-19.7c-0.5,0-0.9,0.4-0.9,0.9c0,0.5,0.4,0.9,0.9,0.9h19.7c0.5,0,0.9-0.4,0.9-0.9
			C252.2,245,251.8,244.6,251.3,244.6z"/>
	</g>
	<g>
		<path class="st11" d="M159,238.5h-34.6c-0.5,0-0.9,0.4-0.9,0.9c0,0.5,0.4,0.9,0.9,0.9H159c0.5,0,0.9-0.4,0.9-0.9
			C159.9,238.9,159.5,238.5,159,238.5z"/>
	</g>
	<g>
		<path class="st11" d="M157.7,244.6H138c-0.5,0-0.9,0.4-0.9,0.9c0,0.5,0.4,0.9,0.9,0.9h19.7c0.5,0,0.9-0.4,0.9-0.9
			C158.6,245,158.2,244.6,157.7,244.6z"/>
	</g>
	<path class="st11" d="M252.7,191.7c-7.9,2.1-13.8,9.3-13.8,17.8c0,6.7,3.6,12.6,8.9,15.8c9.6,0.5,17.3-1.2,23-3.2
		c3.1-3.3,5-7.7,5-12.6c0-3.9-1.2-7.5-3.2-10.4C263.6,190.9,252.7,191.7,252.7,191.7z"/>
	<circle class="st2" cx="266" cy="217.4" r="4.5"/>
	<g>
		<g>
			<path class="st18" d="M218.3,303.4L214,303l-1,4.2c-17.6,71.8-6.5,110.9-6,112.6l1.1,3.8l4-0.2c0.9-0.1,21.9-1.3,45-6
				c32.1-6.6,51.7-16.5,58.4-29.6c4.3-8.5,3.2-17.8-3.2-27.7C280,310.3,220.8,303.7,218.3,303.4z"/>
			<path d="M254.9,308.2c-19.7-8-35.5-9.7-36.1-9.7l-8.7-0.9l-2.1,8.4c-18,73.1-6.4,113.5-5.9,115.2l2.3,7.6l7.9-0.5
				c0.9-0.1,22.2-1.3,45.7-6.1c34.1-7,54.4-17.6,61.8-32.2c3.5-7,5.8-18.3-3.4-32.6C302.5,335.9,281.2,318.9,254.9,308.2z
				 M211.7,418.4c0,0-11.5-38.7,6-109.9c0,0,59,6,90.2,54.3S211.7,418.4,211.7,418.4z"/>
		</g>
		<g>
			<path class="st18" d="M474.2,303l-4.3,0.4c-2.5,0.3-61.7,6.9-93.9,56.6c-6.4,9.9-7.5,19.2-3.2,27.7c6.6,13.1,26.3,23,58.4,29.6
				c23.1,4.7,44.1,6,45,6l4,0.2l1.1-3.8c0.5-1.6,11.7-40.8-6-112.6L474.2,303z"/>
			<path d="M478,297.6l-8.7,0.9c-0.7,0.1-16.4,1.7-36.1,9.7c-26.3,10.7-47.6,27.6-61.5,49.1c-9.3,14.3-7,25.7-3.4,32.6
				c7.5,14.7,27.7,25.2,61.8,32.2c23.5,4.8,44.8,6.1,45.7,6.1l7.9,0.5l2.3-7.6c0.5-1.7,12-42.1-5.9-115.2L478,297.6z M476.4,418.4
				c0,0-127.5-7.3-96.3-55.6c31.2-48.3,90.2-54.3,90.2-54.3C487.9,379.7,476.4,418.4,476.4,418.4z"/>
		</g>
		<g>
			<path class="st18" d="M344.2,339.2c-48.4,0-102.3,27.8-131,67.6c-16.3,22.6-21.7,46-15.1,65.9c7.6,23,24.9,44.2,48.5,59.8
				c26.9,17.7,60.6,27.1,97.5,27.1s70.6-9.4,97.5-27.1c23.7-15.6,40.9-36.8,48.5-59.8c6.6-19.9,1.3-43.3-15.1-65.9
				C446.5,366.9,392.7,339.2,344.2,339.2z"/>
			<path d="M421.5,354.7c-25.1-13.4-51.9-20.6-77.3-20.6c-25.4,0-52.1,7.1-77.3,20.6c-23.5,12.6-44,30-57.8,49.1
				c-17.3,24-22.9,49-15.8,70.4c8,24,25.9,46.2,50.5,62.4c27.7,18.2,62.4,27.9,100.3,27.9c37.9,0,72.5-9.6,100.3-27.9
				c24.6-16.2,42.5-38.3,50.5-62.4c7.1-21.4,1.5-46.4-15.8-70.4C465.5,384.7,445,367.3,421.5,354.7z M485.5,471
				c-13.7,41.2-63.3,83.4-141.3,83.4c-78,0-127.6-42.2-141.3-83.4c-18-54,63.3-126.9,141.3-126.9C422.3,344.2,503.5,417,485.5,471z"
				/>
		</g>
	</g>
	<g>
		<path class="st11" d="M424,480.7h-34.6c-0.5,0-0.9,0.4-0.9,0.9c0,0.5,0.4,0.9,0.9,0.9H424c0.5,0,0.9-0.4,0.9-0.9
			C424.9,481.1,424.5,480.7,424,480.7z"/>
	</g>
	<g>
		<path class="st11" d="M410.4,486.7h-19.7c-0.5,0-0.9,0.4-0.9,0.9c0,0.5,0.4,0.9,0.9,0.9h19.7c0.5,0,0.9-0.4,0.9-0.9
			C411.3,487.1,410.9,486.7,410.4,486.7z"/>
	</g>
	<g>
		<path class="st11" d="M318.1,480.7h-34.6c-0.5,0-0.9,0.4-0.9,0.9c0,0.5,0.4,0.9,0.9,0.9h34.6c0.5,0,0.9-0.4,0.9-0.9
			C319,481.1,318.6,480.7,318.1,480.7z"/>
	</g>
	<g>
		<path class="st11" d="M316.8,486.7h-19.7c-0.5,0-0.9,0.4-0.9,0.9c0,0.5,0.4,0.9,0.9,0.9h19.7c0.5,0,0.9-0.4,0.9-0.9
			C317.7,487.1,317.3,486.7,316.8,486.7z"/>
	</g>
	<path class="st18" d="M406.4,517.4c-8.5-9.5-17.1-19-25.6-28.6c-7.6-8.5-17.5-24.5-30.9-22.3c-10.8,1.8-15.1,14.8-20.4,22.7
		c-12.2,18-28.7,32.5-44.9,46.8c-2.2,1.9-4.5,3.9-6.8,5.8c19.2,7.6,41.8,12.1,67.4,12.1c31.9,0,59-7,80.9-18.2
		C421.3,538,409,520.3,406.4,517.4z"/>
	<polygon class="st2" points="686.1,507.8 689.2,498.5 682.9,497.8 	"/>
	<polygon class="st2" points="708,507.8 711.2,497.8 704.9,498.5 	"/>
	<ellipse class="st11" cx="639.6" cy="464.6" rx="7.2" ry="18.4"/>
	<circle class="st2" cx="643.3" cy="472.4" r="4.5"/>
	<ellipse class="st11" cx="752.4" cy="464.3" rx="7.2" ry="18.4"/>
	<circle class="st2" cx="756.1" cy="472" r="4.5"/>
	<g>
		<path class="st4" d="M185.7,96.4c-0.6,0-1.1,0-1.7,0l0.2,79.9c0,5.5,4.5,10,10,10h0c5.5,0,10-4.5,10-10L204,97.7
			C197.9,96.9,191.8,96.4,185.7,96.4z"/>
	</g>
	<g>
		<path class="st4" d="M154.5,100.1l0.2,68.2c0,5.5,4.5,10,10,10h0c5.5,0,10-4.5,10-10l-0.2-71.4C167.8,97.5,161.1,98.6,154.5,100.1
			z"/>
	</g>
	<g>
		<path class="st4" d="M213.5,99.4l0.2,69c0,5.5,4.5,10,10,10h0c5.5,0,10-4.5,10-10l-0.1-63.3C226.9,102.7,220.2,100.8,213.5,99.4z"
			/>
	</g>
	<g>
		<path class="st19" d="M180,325.4c-1.1,0-2.2,0.2-3.3,0.7l-0.5,0.2c-38.5,16.5-70.6,24.9-95.5,24.9c0,0,0,0,0,0
			c-6.2,0-11.9-0.5-17-1.6c-3.8-0.8-6.8-1.2-9.3-1.2c-6.4,0-8.7,2.9-9.4,5.4c-2.7,8.8,11.3,20.9,71.4,61.8
			c11.6,7.9,21.7,14.7,25.8,18.1c1.5,1.2,3.4,1.9,5.3,1.9c0,0,0,0,0,0c2.8,0,5.4-1.4,6.9-3.7c7.1-10.5,24.6-40.9,33.8-96.9
			c0.4-2.4-0.3-4.9-1.9-6.7C184.8,326.5,182.5,325.4,180,325.4z"/>
		<path d="M180,320.4c-1.8,0-3.6,0.4-5.3,1.1l-0.5,0.2c-37.9,16.3-69.3,24.5-93.6,24.5c-5.8,0-11.2-0.5-16-1.5
			c-4.1-0.8-7.5-1.3-10.3-1.3c0,0,0,0,0,0c-10.4,0-13.4,6.2-14.2,8.9c-2.6,8.4,4.7,15.7,8.2,19.1c4.1,4.1,10,9,18,15.1
			c14.1,10.8,32.5,23.2,47.2,33.2c11.5,7.8,21.5,14.6,25.5,17.9c2.4,1.9,5.4,3,8.4,3c4.4,0,8.6-2.2,11.1-5.9
			c7.3-10.8,25.2-41.9,34.6-98.8c0.6-3.9-0.4-7.8-3-10.8C187.6,322.1,183.9,320.4,180,320.4z M183.3,334.3
			c-9.3,55.9-27,85.9-33,94.9c-0.7,1-1.7,1.5-2.8,1.5c-0.7,0-1.5-0.2-2.1-0.8c-16.8-13.7-118.7-76.4-91-76.4c2,0,4.8,0.3,8.3,1.1
			c5.7,1.2,11.8,1.7,18,1.7c39,0,85.2-20,98-25.6c0.4-0.2,0.9-0.3,1.3-0.3C182,330.4,183.7,332.1,183.3,334.3z"/>
	</g>
	<g>
		<g>
			<path class="st19" d="M979.2,358c-50.6-42.7-90.3-54.8-92-55.3l-5-1.5l-1.3,5.1c-17.6,71.8-6.5,110.9-6,112.6l1.2,4.1l4.2-0.6
				c0.2,0,24.8-3.3,49.9-9.7c35.7-9.1,54.9-19.6,58.5-32.2C991.1,372.9,987.8,365.3,979.2,358z"/>
			<g>
				<path d="M982.4,354.2c-51.4-43.3-92.1-55.8-93.8-56.3l-10.1-3l-2.5,10.2c-18,73.1-6.4,113.5-5.9,115.2l2.4,8.2l8.5-1.1
					c1-0.1,25.1-3.3,50.5-9.8c38.1-9.7,57.8-21,62.1-35.7C995.6,375.2,995.2,365,982.4,354.2z M879.7,417.5c0,0-11.5-38.7,6-109.9
					c0,0,39.8,11.9,90.2,54.3C1019.9,398.9,879.7,417.5,879.7,417.5z"/>
			</g>
		</g>
		<g>
			<path class="st3" d="M999.5,340.6c-46.9,4.4-97,33.8-121.7,71.6c-14,21.4-18.1,42.6-11.9,61.3c13.3,40,59.8,82.2,133.7,86.5
				c0.1,0,0.2,0,0.3,0V340.6C999.8,340.6,999.7,340.6,999.5,340.6z"/>
			<path d="M870.7,471.9c-17-51.3,55.2-119.4,129.3-126.3v-10c-0.3,0-0.6,0-0.9,0.1c-24.5,2.3-49.7,10.8-72.7,24.7
				c-21.9,13.2-40.6,30.6-52.7,49.1c-7,10.7-11.7,21.5-13.9,32.2c-2.5,11.7-2,23,1.5,33.4c7.5,22.6,24.1,43.8,46.6,59.7
				c25.2,17.8,56.9,28.2,91.6,30.2c0.2,0,0.4,0,0.6,0v-10C928.9,550.9,883.7,510.9,870.7,471.9z"/>
		</g>
	</g>
	<g>
		<g>
			<path class="st3" d="M109.6,533.2c23.7-15.6,40.9-36.8,48.5-59.8c6.6-19.9,1.3-43.3-15.1-65.9C114.3,367.8,60.5,340,12,340
				c-3.9,0-7.9,0.2-12,0.6v219.4c4,0.2,8.1,0.3,12,0.3C48.9,560.3,82.6,550.9,109.6,533.2z"/>
			<path d="M112.3,537.4c24.6-16.2,42.5-38.3,50.5-62.4c7.1-21.4,1.5-46.4-15.8-70.4c-13.8-19.1-34.3-36.5-57.8-49.1
				C64.2,342.1,37.4,335,12,335c-3.9,0-7.9,0.2-12,0.5v10c4-0.4,8-0.6,12-0.6c78,0,159.3,72.8,141.3,126.9
				c-13.7,41.2-63.3,83.4-141.3,83.4c-4.1,0-8.1-0.1-12-0.3v10c4,0.2,8.1,0.3,12,0.3C49.9,565.3,84.6,555.6,112.3,537.4z"/>
		</g>
	</g>
	<g>
		<path class="st20" d="M994.5,476.3c0,1.4,2.3,4.1,5.5,5.1v-8.1C996.8,473.6,994.5,474.8,994.5,476.3z"/>
	</g>
	<g>
		<path class="st20" d="M10.1,476.3c0-1.8-3.5-3.2-7.8-3.2c-0.8,0-1.6,0-2.3,0.1v8.1c0.7,0.2,1.5,0.3,2.3,0.3
			C6.6,481.7,10.1,478,10.1,476.3z"/>
	</g>
	<g>
		<path class="st11" d="M962.9,480.8h-34.6c-0.5,0-0.9,0.4-0.9,0.9c0,0.5,0.4,0.9,0.9,0.9h34.6c0.5,0,0.9-0.4,0.9-0.9
			C963.8,481.2,963.4,480.8,962.9,480.8z"/>
	</g>
	<g>
		<path class="st11" d="M961.6,486.8h-19.7c-0.5,0-0.9,0.4-0.9,0.9c0,0.5,0.4,0.9,0.9,0.9h19.7c0.5,0,0.9-0.4,0.9-0.9
			C962.5,487.2,962.1,486.8,961.6,486.8z"/>
	</g>
	<g>
		<path class="st11" d="M73.3,480.8H38.7c-0.5,0-0.9,0.4-0.9,0.9c0,0.5,0.4,0.9,0.9,0.9h34.6c0.5,0,0.9-0.4,0.9-0.9
			C74.2,481.2,73.8,480.8,73.3,480.8z"/>
	</g>
	<g>
		<path class="st11" d="M59.7,486.8H40c-0.5,0-0.9,0.4-0.9,0.9c0,0.5,0.4,0.9,0.9,0.9h19.7c0.5,0,0.9-0.4,0.9-0.9
			C60.6,487.2,60.2,486.8,59.7,486.8z"/>
	</g>
	<g>
		<path class="st7" d="M88.5,447.3c-5.6-6.9-12.5-10-17.3-11.4c-4.2-1.2-7.3-1.2-7.4-1.2c0,0,0,0,0,0c-0.4,0-0.7,0-1.1,0
			c-29.3,0-33.6,30.7-33.7,31l-0.2,1.5l1.3,0.9c10.7,7.1,21.5,10.8,32.1,10.8h0c4,0,8.1-0.5,12-1.6l0.2,0c1.2-0.3,2.4-0.7,3.5-1.1
			l0.2-0.1c10.9-4,17.2-10.7,17.4-10.9l0.9-1l-0.4-1.3C94.5,456.7,92,451.6,88.5,447.3z"/>
		<path d="M90.5,445.8c-6-7.4-13.4-10.7-18.5-12.2c-4.3-1.2-7.5-1.3-8.1-1.3c-0.4,0-0.8,0-1.1,0c-16.5,0-25.5,9.1-30.2,16.8
			c-4.9,8-5.9,16-6,16.4l-0.4,3.1l2.6,1.7c11.1,7.4,22.4,11.2,33.5,11.2c4.2,0,8.4-0.6,12.5-1.6l0.1,0l0.2,0
			c1.2-0.3,2.5-0.7,3.7-1.2l0.3-0.1l0.1,0c11.4-4.2,18-11.3,18.3-11.6l1.9-2l-0.7-2.7C96.8,455.8,94.1,450.3,90.5,445.8z
			 M77.1,473.8C77.1,473.8,77.1,473.8,77.1,473.8c-1.1,0.4-2.2,0.8-3.4,1.1c0,0-0.1,0-0.1,0c-3.4,0.9-7.2,1.5-11.4,1.5
			c-8.8,0-19.2-2.6-30.7-10.3c0,0,3.7-28.8,31.2-28.8c0.3,0,0.7,0,1,0c0,0,2.8,0,6.8,1.1c4.7,1.3,10.9,4.2,16,10.6
			c2.9,3.6,5.5,8.3,7.1,14.5C93.7,463.4,87.7,470,77.1,473.8z"/>
	</g>
	<g>
		<path class="st7" d="M978.9,461c-2.1-7.4-7.8-20.5-22.3-24.9c-3.2-1-6.7-1.5-10.3-1.5c-0.4,0-0.8,0-1.1,0c-0.2,0-24.8,0.3-32.3,28
			l-0.4,1.3l0.9,1c0.5,0.6,12.9,13.8,33.3,13.8h0c3.6,0,7.3-0.4,11-1.3c5.3-1.2,10.7-3.4,16-6.3c1.8-1,3.4-2,5.1-3.1l1.3-0.9
			l-0.2-1.5C980,465.6,979.7,463.8,978.9,461z"/>
		<path d="M981.3,460.4c-2.2-7.9-8.3-21.8-24-26.6c-3.4-1-7.1-1.6-11-1.6c-0.4,0-0.8,0-1.2,0c-1,0-7.2,0.2-14.4,3.8
			c-6.9,3.4-16.1,10.8-20.2,26.1l-0.7,2.7l1.9,2c0.5,0.6,13.7,14.6,35.1,14.6c3.8,0,7.7-0.4,11.5-1.3c5.6-1.3,11.2-3.5,16.7-6.6
			c1.8-1,3.6-2.1,5.3-3.2l2.6-1.7l-0.4-3.1C982.4,465.2,982.2,463.2,981.3,460.4z M972.5,469.1c-5.4,3-10.5,5-15.4,6.1
			c-3.7,0.8-7.1,1.2-10.4,1.2c-19.5,0-31.5-13-31.5-13c7.1-26.2,29.9-26.2,29.9-26.2c0.4,0,0.7,0,1.1,0c3.6,0,6.8,0.5,9.6,1.4
			c13.5,4.1,18.8,16.5,20.6,23.2c0.7,2.6,1,4.3,1,4.3C975.8,467.1,974.2,468.1,972.5,469.1z"/>
	</g>
	<g>
		<path class="st11" d="M70.6,438.4c-0.2,0-0.5,0-0.7,0c-10.2,0-18.4,8.3-18.4,18.4c0,10.2,8.3,18.4,18.4,18.4
			c1.3,0,2.5-0.1,3.7-0.4c0,0,0.1,0,0.1,0c1.2-0.2,2.3-0.6,3.3-1.1c0,0,0,0,0.1,0c6.6-2.8,11.2-9.4,11.2-17c0-2.8-0.6-5.5-1.8-7.9
			C81.5,442.6,75.3,439.7,70.6,438.4z"/>
	</g>
	<g>
		<path class="st11" d="M955.9,438.5c-8.8,1.4-15.6,9-15.6,18.2c0,9.7,7.4,17.6,16.9,18.4c4.8-1.1,9.9-3.1,15.4-6.1
			c1.9-2.1,3.2-4.6,4-7.3C974.7,455.1,969.4,442.7,955.9,438.5z"/>
	</g>
	<g>
		<circle class="st2" cx="61.3" cy="464.6" r="4.5"/>
	</g>
	<g>
		<circle class="st2" cx="950.1" cy="464.6" r="4.5"/>
	</g>
	<g>
		<path class="st11" d="M176.6,217.8c-16-13.1-30.2-18.2-42.2-15.4c-13,3.1-18.3,14.4-18.5,14.9c-0.6,1.3,0,2.7,1.2,3.3
			c1.3,0.6,2.7,0,3.3-1.2c0-0.1,4.5-9.7,15.1-12.1c10.4-2.4,23.1,2.4,37.8,14.4c0.5,0.4,1,0.6,1.6,0.6c0.7,0,1.4-0.3,1.9-0.9
			C177.8,220.2,177.6,218.6,176.6,217.8z"/>
	</g>
	<g>
		<path class="st11" d="M119.9,211.9c0,0-1.8,0.5-3.4-0.3c-1.4-0.8-2.4-2.4-3-4.8c-0.3-1.3-1.7-2.1-3-1.8c-1.3,0.3-2.1,1.7-1.8,3
			c1,3.9,2.9,6.6,5.6,8c1.6,0.8,3.1,1.1,4.4,1.1c1.6,0,2.7-0.4,2.9-0.4c1.3-0.5,2-1.9,1.5-3.1C122.6,212.2,121.2,211.4,119.9,211.9z
			"/>
	</g>
	<g>
		<path class="st11" d="M124.2,207.4c0,0-1.5,0.5-2.8-0.2c-1.7-0.9-2.6-3.1-3-4.9c-0.3-1.3-1.7-2.1-3-1.8c-1.3,0.3-2.1,1.7-1.8,3
			c1,4,2.9,6.7,5.6,8c1.4,0.7,2.8,0.9,3.9,0.9c1.6,0,2.8-0.4,3-0.5c1.3-0.5,1.9-2,1.4-3.2C126.9,207.5,125.4,206.9,124.2,207.4z"/>
	</g>
	<g>
		<path class="st11" d="M198,238.9c0-1.4-1.2-2.5-2.6-2.4c-1.4,0-2.5,1.2-2.4,2.6l0,0.6c0.1,5.8-0.1,7.9-3.8,8.8
			c-3.7,0.9-8.8-0.2-11.7-2.5c-1.1-0.9-2.7-0.7-3.5,0.4c-0.9,1.1-0.7,2.7,0.4,3.5c3.1,2.5,7.7,3.9,12,3.9c1.4,0,2.8-0.2,4-0.5
			c7.8-1.9,7.7-8.8,7.6-13.8L198,238.9z"/>
	</g>
	<g>
		<path class="st11" d="M213.1,246c-2.9,2.3-8,3.4-11.7,2.5c-3.6-0.9-3.9-3-3.8-8.8l0-0.6c0-1.4-1.1-2.5-2.4-2.6
			c-1.4,0-2.5,1.1-2.6,2.4l0,0.6c-0.1,5-0.3,11.8,7.6,13.8c1.3,0.3,2.6,0.5,4,0.5c4.3,0,8.9-1.4,12-3.9c1.1-0.9,1.3-2.4,0.4-3.5
			C215.8,245.3,214.2,245.1,213.1,246z"/>
	</g>
	<path class="st20" d="M195.4,230.8c-4.3,0-7.8,1.4-7.8,3.2s3.5,5.4,7.8,5.4c4.3,0,7.8-3.7,7.8-5.4S199.7,230.8,195.4,230.8z"/>
	<g>
		<path class="st11" d="M524.2,230.6c-1.4,0-2.5,1.2-2.5,2.5c0.2,10.3-7.2,10.7-7.9,10.7c-3.5-0.1-6.2-1-7.9-2.9
			c-2.7-3-2.4-7.6-2.4-7.6c0.1-1.4-0.9-2.6-2.3-2.7c-1.4-0.1-2.6,0.9-2.7,2.3c0,0.3-0.6,6.7,3.6,11.4c2.7,3,6.6,4.5,11.6,4.6
			c0.2,0,5.2-0.1,8.9-3.9c2.8-2.8,4.1-6.8,4-11.9C526.7,231.7,525.6,230.6,524.2,230.6z"/>
	</g>
	<g>
		<path class="st11" d="M547.2,230.6c-1.4,0.1-2.4,1.3-2.3,2.7c0,0,0.4,4.6-2.4,7.6c-1.7,1.9-4.4,2.9-7.9,2.9c-0.8,0-8.2-0.4-8-10.7
			c0-1.4-1.1-2.5-2.5-2.5c-1.4-0.1-2.5,1.1-2.5,2.5c-0.1,5.1,1.3,9.1,4,11.9c3.8,3.8,8.7,3.9,9,3.9c5-0.1,8.9-1.6,11.6-4.6
			c4.2-4.7,3.7-11.1,3.6-11.4C549.7,231.5,548.5,230.5,547.2,230.6z"/>
	</g>
	<path class="st20" d="M524.1,225c-4.3,0-7.8,1.4-7.8,3.2c0,1.8,3.5,5.4,7.8,5.4c4.3,0,7.8-3.7,7.8-5.4
		C532,226.4,528.5,225,524.1,225z"/>
	<g>
		<path class="st12" d="M853.8,237.7c0-1.4-1.2-2.5-2.6-2.4c-1.4,0-2.5,1.2-2.4,2.6l0,0.6c0.1,5.8-0.1,7.9-3.8,8.8
			c-3.7,0.9-8.8-0.2-11.7-2.5c-1.1-0.9-2.7-0.7-3.5,0.4c-0.9,1.1-0.7,2.7,0.4,3.5c3.1,2.5,7.7,3.9,12,3.9c1.4,0,2.8-0.2,4-0.5
			c7.8-1.9,7.7-8.8,7.6-13.8L853.8,237.7z"/>
	</g>
	<g>
		<path class="st12" d="M869,244.7c-2.9,2.3-8,3.4-11.7,2.5c-3.6-0.9-3.9-3-3.8-8.8l0-0.6c0-1.4-1.1-2.5-2.4-2.6
			c-1.4,0-2.5,1.1-2.6,2.4l0,0.6c-0.1,5-0.3,11.8,7.6,13.8c1.3,0.3,2.6,0.5,4,0.5c4.3,0,8.9-1.4,12-3.9c1.1-0.9,1.3-2.4,0.4-3.5
			C871.6,244.1,870.1,243.9,869,244.7z"/>
	</g>
	<path class="st20" d="M851.2,229.2c-4.3,0-7.8,1.4-7.8,3.2s3.5,5.4,7.8,5.4c4.3,0,7.8-3.7,7.8-5.4S855.5,229.2,851.2,229.2z"/>
	<g>
		<path class="st11" d="M357.1,480.8c0-1.1-1.2-1.9-2.6-1.9c-1.4,0-2.5,0.9-2.4,2l0,0.5c0.1,4.5-0.1,6.1-3.8,6.8
			c-3.7,0.7-8.8-0.1-11.7-1.9c-1.1-0.7-2.7-0.5-3.5,0.3c-0.9,0.8-0.7,2.1,0.4,2.7c3.1,1.9,7.7,3,12,3c1.4,0,2.8-0.1,4-0.4
			c7.8-1.5,7.7-6.8,7.6-10.7L357.1,480.8z"/>
	</g>
	<g>
		<path class="st11" d="M372.3,486.3c-2.9,1.8-8,2.6-11.7,1.9c-3.6-0.7-3.9-2.3-3.8-6.8l0-0.5c0-1.1-1.1-2-2.4-2
			c-1.4,0-2.5,0.8-2.6,1.9l0,0.5c-0.1,3.9-0.3,9.2,7.6,10.7c1.3,0.2,2.6,0.4,4,0.4c4.3,0,8.9-1.1,12-3c1.1-0.7,1.3-1.9,0.4-2.7
			C374.9,485.8,373.4,485.6,372.3,486.3z"/>
	</g>
	<path class="st21" d="M354.5,473c-4.3,0-7.8,1.4-7.8,3.2c0,1.8,3.5,5.4,7.8,5.4c4.3,0,7.8-3.7,7.8-5.4
		C362.3,474.4,358.8,473,354.5,473z"/>
	<g>
		<path class="st11" d="M329.6,460.9c-13.2,13-28.4,16.9-45.1,11.8c-12.7-3.9-21.6-11.8-21.7-11.9c-1-0.9-2.6-0.8-3.5,0.2
			c-0.9,1-0.8,2.6,0.2,3.5c0.3,0.2,17.2,15.2,38.9,15.2c10.9,0,23-3.8,34.7-15.3c1-1,1-2.5,0-3.5
			C332.2,459.9,330.6,459.9,329.6,460.9z"/>
	</g>
	<g>
		<path class="st11" d="M440.1,460.8c-0.1,0.1-9,8-21.7,11.9c-16.7,5.1-31.9,1.1-45.1-11.8c-1-1-2.6-1-3.5,0c-1,1-1,2.6,0,3.5
			c11.7,11.5,23.8,15.3,34.7,15.3c21.6,0,38.6-15,38.9-15.2c1-0.9,1.1-2.5,0.2-3.5C442.7,460,441.1,459.9,440.1,460.8z"/>
	</g>
	<g>
		<path class="st4" d="M699.5,488.4c0-1.1-1.2-1.9-2.6-1.9c-1.4,0-2.5,0.9-2.4,2l0,0.5c0.1,4.5-0.1,6.1-3.8,6.8
			c-3.7,0.7-8.8-0.1-11.7-1.9c-1.1-0.7-2.7-0.5-3.5,0.3c-0.9,0.8-0.7,2.1,0.4,2.7c3.1,1.9,7.7,3,12,3c1.4,0,2.8-0.1,4-0.4
			c7.8-1.5,7.7-6.8,7.6-10.7L699.5,488.4z"/>
	</g>
	<g>
		<path class="st4" d="M714.7,493.9c-2.9,1.8-8,2.6-11.7,1.9c-3.6-0.7-3.9-2.3-3.8-6.8l0-0.5c0-1.1-1.1-2-2.4-2
			c-1.4,0-2.5,0.8-2.6,1.9l0,0.5c-0.1,3.9-0.3,9.2,7.6,10.7c1.3,0.2,2.6,0.4,4,0.4c4.3,0,8.9-1.1,12-3c1.1-0.7,1.3-1.9,0.4-2.7
			C717.4,493.4,715.8,493.3,714.7,493.9z"/>
	</g>
	<path class="st20" d="M697,480.9c-4.3,0-7.8,1.4-7.8,3.2s3.5,5.4,7.8,5.4c4.3,0,7.8-3.7,7.8-5.4S701.4,480.9,697,480.9z"/>
	<g>
		<g>
			<path class="st6" d="M376.7,556.7l-4.3-0.4l-1,4.2c-17.6,71.8-6.5,110.9-6,112.6l1.1,3.8l4-0.2c0.9-0.1,21.9-1.3,45-6
				c32.1-6.6,51.7-16.5,58.4-29.6c4.3-8.5,3.2-17.8-3.2-27.7C438.4,563.6,379.2,557,376.7,556.7z"/>
			<path d="M413.3,561.5c-19.7-8-35.5-9.7-36.1-9.7l-8.7-0.9l-2.1,8.4c-18,73.1-6.4,113.5-5.9,115.2l2.3,7.6l7.9-0.5
				c0.9-0.1,22.2-1.3,45.7-6.1c34.1-7,54.4-17.6,61.8-32.2c3.5-7,5.8-18.3-3.4-32.6C460.9,589.1,439.6,572.1,413.3,561.5z
				 M370.1,671.6c0,0-11.5-38.7,6-109.9c0,0,59,6,90.2,54.3C497.6,664.3,370.1,671.6,370.1,671.6z"/>
		</g>
		<g>
			<path class="st6" d="M632.6,556.3l-4.3,0.4c-2.5,0.3-61.7,6.9-93.9,56.6c-6.4,9.9-7.5,19.2-3.2,27.7c6.6,13.1,26.3,23,58.4,29.6
				c23.1,4.7,44.1,6,45,6l4,0.2l1.1-3.8c0.5-1.6,11.7-40.8-6-112.6L632.6,556.3z"/>
			<path d="M636.4,550.9l-8.7,0.9c-0.7,0.1-16.4,1.7-36.1,9.7c-26.3,10.7-47.6,27.6-61.5,49.1c-9.3,14.3-7,25.7-3.4,32.6
				c7.5,14.7,27.7,25.2,61.8,32.2c23.5,4.8,44.8,6.1,45.7,6.1l7.9,0.5l2.3-7.6c0.5-1.7,12-42.1-5.9-115.2L636.4,550.9z M634.8,671.6
				c0,0-127.5-7.3-96.3-55.6c31.2-48.3,90.2-54.3,90.2-54.3C646.3,633,634.8,671.6,634.8,671.6z"/>
		</g>
		<g>
			<path class="st6" d="M551.9,601.6c-6.8-2.4-13.8-4.3-20.6-5.7c-3.2-0.7-6.6-1.3-9.8-1.7c-6.4-0.9-12.8-1.3-19-1.3
				c-0.6,0-1.2,0-1.8,0c-3.3,0-6.6,0.2-9.8,0.5c-6.8,0.6-13.8,1.7-20.7,3.3c-43.8,10.1-86.3,40.1-105.7,74.7
				c-10.8,19.2-13.6,38.2-8,54.9c7.6,23,24.9,44.2,48.5,59.8c26.9,17.7,60.6,27.1,97.5,27.1c36.9,0,70.6-9.4,97.5-27.1
				c23.7-15.6,40.9-36.8,48.5-59.8c7.3-21.9,0.2-47.6-19.9-72.2C609.8,631.2,581.9,612.1,551.9,601.6z"/>
			<path d="M553.6,596.9c-7-2.5-14.2-4.4-21.3-5.9c-3.3-0.7-6.8-1.3-10.2-1.8c-6.6-0.9-13.2-1.4-19.7-1.4c-0.6,0-1.3,0-1.9,0
				c-3.3,0-6.8,0.2-10.1,0.5c-7,0.6-14.2,1.7-21.4,3.4c-22.5,5.2-44.8,15.3-64.4,29.4c-19.4,13.8-34.8,30.3-44.6,47.8
				c-11.5,20.5-14.4,40.9-8.4,58.9c8,24,25.9,46.2,50.5,62.4c27.7,18.2,62.4,27.9,100.3,27.9c37.9,0,72.5-9.6,100.3-27.9
				c24.6-16.2,42.5-38.3,50.5-62.4c7.9-23.6,0.5-51-20.8-77C613.1,627.3,584.4,607.6,553.6,596.9z M643.8,724.7
				c-13.7,41.2-63.3,83.4-141.3,83.4c-78,0-127.6-42.2-141.3-83.4c-15.6-46.8,43.4-107.8,110.2-123.2c6.6-1.5,13.3-2.6,20-3.2
				c3.1-0.3,6.3-0.4,9.4-0.5c0.6,0,1.1,0,1.7,0c6.1,0,12.2,0.4,18.3,1.3c3.2,0.4,6.4,1,9.5,1.6c6.8,1.4,13.5,3.3,20,5.6
				C609.8,627.1,658,681.8,643.8,724.7z"/>
		</g>
	</g>
	<g>
		<path class="st7" d="M591.1,698.7c-8.2-7.5-17.9-8.1-20.7-8.1c-0.6,0-1,0-1,0c-25.3,1.2-34.4,27.7-34.8,28.8l-0.7,2.2l2.2,0.9
			c9.7,4,19.3,6.3,28.5,6.7c1.1,0.1,2.3,0.1,3.4,0.1c0,0,0,0,0,0c7.2,0,14.1-1.1,20.5-3.4c7.9-2.8,12.1-6.3,12.3-6.4l1.2-1l-0.4-1.5
			C599.5,709.3,596,703.2,591.1,698.7z"/>
		<g>
			<path d="M592.8,696.8c-8.6-7.9-18.6-8.7-22.4-8.7c-0.6,0-0.9,0-1.1,0c-26.9,1.3-36.6,29.3-37,30.5l-1.5,4.4l4.3,1.8
				c10,4.1,19.9,6.5,29.3,6.9c1.2,0.1,2.4,0.1,3.5,0.1c7.5,0,14.7-1.2,21.4-3.5c8.2-2.9,12.6-6.5,13.1-6.9l2.5-2.1l-0.8-3.1
				C601.8,708.2,598,701.6,592.8,696.8z M587.6,723.6c-5,1.8-11.6,3.3-19.7,3.3c-1.1,0-2.2,0-3.3-0.1c-8-0.4-17.2-2.2-27.6-6.6
				c0,0,8.7-26,32.5-27.1c0,0,0.3,0,0.8,0c2.7,0,11.5,0.6,19,7.4c4,3.6,7.6,9,9.8,17.1C599.2,717.6,595.2,720.9,587.6,723.6z"/>
		</g>
	</g>
	<g>
		<g>
			<path class="st8" d="M42.1,556.2l-4.3-0.4l-1,4.2c-17.6,71.8-6.5,110.9-6,112.6l1.1,3.8l4-0.2c0.9-0.1,21.9-1.3,45-6
				c32.1-6.6,51.7-16.5,58.4-29.6c4.3-8.5,3.2-17.8-3.2-27.7C103.8,563,44.6,556.4,42.1,556.2z"/>
			<path d="M78.7,560.9c-19.7-8-35.5-9.7-36.1-9.7l-8.7-0.9l-2.1,8.4c-18,73.1-6.4,113.5-5.9,115.2l2.3,7.6l7.9-0.5
				c0.9-0.1,22.2-1.3,45.7-6.1c34.1-7,54.4-17.6,61.8-32.2c3.5-7,5.8-18.3-3.4-32.6C126.3,588.6,105,571.6,78.7,560.9z M35.5,671.1
				c0,0-11.5-38.7,6-109.9c0,0,59,6,90.2,54.3C163,663.8,35.5,671.1,35.5,671.1z"/>
		</g>
		<g>
			<path class="st8" d="M298,555.7l-4.3,0.4c-2.5,0.3-61.7,6.9-93.9,56.6c-6.4,9.9-7.5,19.2-3.2,27.7c6.6,13.1,26.3,23,58.4,29.6
				c23.1,4.7,44.1,6,45,6l4,0.2l1.1-3.8c0.5-1.6,11.7-40.8-6-112.6L298,555.7z"/>
			<path d="M301.8,550.3l-8.7,0.9c-0.7,0.1-16.4,1.7-36.1,9.7c-26.3,10.7-47.6,27.6-61.5,49.1c-9.3,14.3-7,25.7-3.4,32.6
				c7.5,14.7,27.7,25.2,61.8,32.2c23.5,4.8,44.8,6.1,45.7,6.1l7.9,0.5l2.3-7.6c0.5-1.7,12-42.1-5.9-115.2L301.8,550.3z M300.2,671.1
				c0,0-127.5-7.3-96.3-55.6c31.2-48.3,90.2-54.3,90.2-54.3C311.7,632.4,300.2,671.1,300.2,671.1z"/>
		</g>
		<g>
			<path class="st9" d="M167.9,592.3c-48.4,0-102.3,27.8-131,67.6c-16.3,22.6-21.7,46-15.1,65.9c7.6,23,24.9,44.2,48.5,59.8
				c26.9,17.7,60.6,27.1,97.5,27.1s70.6-9.4,97.5-27.1c23.7-15.6,40.9-36.8,48.5-59.8c6.6-19.9,1.3-43.3-15.1-65.9
				C270.2,620.1,216.3,592.3,167.9,592.3z"/>
			<path d="M245.2,607.8c-25.1-13.4-51.9-20.6-77.3-20.6c-25.4,0-52.1,7.1-77.3,20.6c-23.5,12.6-44,30-57.8,49.1
				c-17.3,24-22.9,49-15.8,70.4c8,24,25.9,46.2,50.5,62.4c27.7,18.2,62.4,27.9,100.3,27.9c37.9,0,72.5-9.6,100.3-27.9
				c24.6-16.2,42.5-38.3,50.5-62.4c7.1-21.4,1.5-46.4-15.8-70.4C289.2,637.8,268.6,620.4,245.2,607.8z M309.2,724.2
				c-13.7,41.2-63.3,83.4-141.3,83.4S40.3,765.4,26.6,724.2c-18-54,63.3-126.9,141.3-126.9S327.2,670.1,309.2,724.2z"/>
		</g>
		<path class="st10" d="M167.9,597.3c-2.4,0-4.8,0.1-7.2,0.2c11.7,6.9,17.6,21.7,18.8,34.9c2,21.8-4.3,42.9,0,64.7
			c3.7,18.7,12.8,36.9,28.3,48.5c18.2,13.6,45.9,15.3,64.1,29c18.7-14.7,31.3-32.7,37.2-50.5C327.2,670.1,245.9,597.3,167.9,597.3z"
			/>
	</g>
	<g>
		<path class="st2" d="M117.2,688.3c-0.4,0-0.7,0-1.1,0c-0.2,0-24.8,0.3-32.3,28l-0.4,1.3l0.9,1c0.5,0.6,12.9,13.8,33.3,13.8
			c0,0,0,0,0,0c10.6,0,21.4-3.6,32.1-10.8l1.3-0.9l-0.2-1.5C150.8,719,146.5,688.3,117.2,688.3z"/>
		<path d="M147.3,702.7c-4.6-7.7-13.7-16.8-30.2-16.8c-0.4,0-0.8,0-1.1,0c-1,0-7.2,0.2-14.4,3.8c-6.9,3.4-16.1,10.8-20.2,26.1
			l-0.7,2.7l1.9,2c0.5,0.6,13.7,14.6,35.1,14.6c11.1,0,22.4-3.8,33.5-11.2l2.6-1.7l-0.4-3.1C153.3,718.7,152.2,710.7,147.3,702.7z
			 M117.6,730c-19.5,0-31.5-13-31.5-13c7.1-26.2,29.9-26.2,29.9-26.2c0.4,0,0.7,0,1.1,0c27.5,0,31.2,28.8,31.2,28.8
			C136.8,727.3,126.5,730,117.6,730z"/>
	</g>
	<g>
		<path class="st2" d="M234.7,688.4C234.7,688.4,234.7,688.4,234.7,688.4c-0.4,0-0.8,0-1.1,0c-29.3,0-33.6,30.7-33.7,31l-0.2,1.5
			l1.3,0.9c10.7,7.1,21.5,10.8,32.1,10.8c0,0,0,0,0,0c20.4,0,32.8-13.2,33.3-13.8l0.9-1l-0.4-1.3C259.5,688.7,235,688.4,234.7,688.4
			z"/>
		<path d="M249.2,689.6c-7.2-3.6-13.4-3.8-14.4-3.8c-0.4,0-0.8,0-1.1,0c-16.5,0-25.5,9.1-30.2,16.8c-4.9,8-5.9,16-6,16.4l-0.4,3.1
			l2.6,1.7c11.1,7.4,22.4,11.2,33.5,11.2c21.5,0,34.6-14,35.1-14.6l1.9-2l-0.7-2.7C265.3,700.4,256.1,693.1,249.2,689.6z M233.1,730
			c-8.8,0-19.2-2.6-30.7-10.3c0,0,3.7-28.8,31.2-28.8c0.3,0,0.7,0,1.1,0c0,0,22.8,0,29.9,26.2C264.6,717,252.7,730,233.1,730z"/>
	</g>
	<circle class="st11" cx="119.8" cy="710.4" r="18.4"/>
	<circle class="st11" cx="231" cy="710.4" r="18.4"/>
	<g>
		<path class="st12" d="M247.1,739.4h-34.6c-0.5,0-0.9,0.4-0.9,0.9c0,0.5,0.4,0.9,0.9,0.9h34.6c0.5,0,0.9-0.4,0.9-0.9
			C248,739.8,247.6,739.4,247.1,739.4z"/>
	</g>
	<g>
		<path class="st12" d="M233.5,745.4h-19.7c-0.5,0-0.9,0.4-0.9,0.9c0,0.5,0.4,0.9,0.9,0.9h19.7c0.5,0,0.9-0.4,0.9-0.9
			C234.4,745.8,234,745.4,233.5,745.4z"/>
	</g>
	<g>
		<path class="st12" d="M141.2,739.4h-34.6c-0.5,0-0.9,0.4-0.9,0.9c0,0.5,0.4,0.9,0.9,0.9h34.6c0.5,0,0.9-0.4,0.9-0.9
			C142.1,739.8,141.7,739.4,141.2,739.4z"/>
	</g>
	<g>
		<path class="st12" d="M139.9,745.4h-19.7c-0.5,0-0.9,0.4-0.9,0.9c0,0.5,0.4,0.9,0.9,0.9h19.7c0.5,0,0.9-0.4,0.9-0.9
			C140.8,745.8,140.4,745.4,139.9,745.4z"/>
	</g>
	<circle class="st2" cx="128.4" cy="718.2" r="4.5"/>
	<circle class="st2" cx="239.6" cy="718.2" r="4.5"/>
	<g>
		<g>
			<path class="st15" d="M788.9,596.8c-2.4,0-5.5,0.4-9.3,1.2c-5.1,1.1-10.9,1.6-17,1.6c-24.9,0-57-8.4-95.5-24.9l-0.5-0.2
				c-1.1-0.5-2.2-0.7-3.3-0.7c-2.4,0-4.8,1.1-6.4,3c-1.6,1.9-2.3,4.3-1.9,6.7c9.3,56,26.8,86.4,33.8,96.9c1.6,2.3,4.1,3.7,6.9,3.7
				c1.9,0,3.8-0.7,5.3-1.9c4.1-3.4,14.2-10.2,25.8-18.1c60.1-40.9,74.1-53,71.4-61.8C797.5,599.7,795.3,596.8,788.9,596.8z"/>
			<path d="M788.9,591.8c-2.8,0-6.1,0.4-10.3,1.3c-4.8,1-10.2,1.5-16,1.5c-24.2,0-55.7-8.3-93.6-24.5l-0.5-0.2
				c-1.7-0.7-3.5-1.1-5.3-1.1h0c-3.9,0-7.6,1.7-10.2,4.7c-2.5,3-3.6,6.9-3,10.8c9.4,56.9,27.4,88.1,34.6,98.8
				c2.5,3.7,6.6,5.9,11.1,5.9c3.1,0,6-1.1,8.4-3c4-3.2,13.9-10,25.5-17.9c14.7-10,33-22.4,47.2-33.2c8-6.1,13.9-11,18-15.1
				c3.5-3.5,10.8-10.7,8.2-19.1C802.2,598,799.2,591.8,788.9,591.8z M697.9,678.2c-0.6,0.5-1.4,0.8-2.1,0.8c-1.1,0-2.1-0.5-2.8-1.5
				c-6.1-9-23.8-39-33-94.9c-0.4-2.1,1.3-3.9,3.3-3.9c0.4,0,0.9,0.1,1.3,0.3c12.8,5.5,59,25.6,98,25.6c6.3,0,12.3-0.5,18-1.7
				c3.5-0.7,6.2-1.1,8.3-1.1C816.5,601.8,714.7,664.5,697.9,678.2z"/>
		</g>
		<g>
			<path class="st15" d="M961.1,549.5l-5,1.5c-1.7,0.5-41.4,12.6-92,55.3c-8.6,7.3-11.9,14.8-9.7,22.4c3.7,12.6,22.8,23.2,58.5,32.2
				c25.1,6.4,49.7,9.7,49.9,9.7l4.2,0.6l1.2-4.1c0.5-1.6,11.7-40.8-6-112.6L961.1,549.5z"/>
			<path d="M964.7,543.3l-10.1,3c-1.7,0.5-42.4,12.9-93.8,56.3c-12.8,10.8-13.2,21-11.2,27.7c4.3,14.7,24,26,62.1,35.7
				c25.4,6.5,49.5,9.7,50.5,9.8l8.5,1.1l2.4-8.2c0.5-1.7,12-42.1-5.9-115.2L964.7,543.3z M963.6,665.8c0,0-140.2-18.5-96.3-55.6
				c50.4-42.5,90.2-54.3,90.2-54.3C975,627.1,963.6,665.8,963.6,665.8z"/>
		</g>
		<g>
			<path class="st18" d="M831.2,588.3c-48.4,0-102.3,27.8-131,67.6c-16.3,22.6-21.7,46-15.1,65.9c7.6,23,24.9,44.2,48.5,59.8
				c26.9,17.7,60.6,27.1,97.5,27.1c36.9,0,70.6-9.4,97.5-27.1c23.7-15.6,40.9-36.8,48.5-59.8c6.6-19.9,1.3-43.3-15.1-65.9
				C933.5,616.1,879.7,588.3,831.2,588.3z"/>
			<path d="M908.5,603.9c-25.1-13.4-51.9-20.6-77.3-20.6c-25.4,0-52.1,7.1-77.3,20.6c-23.5,12.6-44,30-57.8,49.1
				c-17.3,24-22.9,49-15.8,70.4c8,24,25.9,46.2,50.5,62.4c27.7,18.2,62.4,27.9,100.3,27.9c37.9,0,72.5-9.6,100.3-27.9
				c24.6-16.2,42.5-38.3,50.5-62.4c7.1-21.4,1.5-46.4-15.8-70.4C952.5,633.9,932,616.4,908.5,603.9z M972.5,720.2
				c-13.7,41.2-63.3,83.4-141.3,83.4c-78,0-127.6-42.2-141.3-83.4c-18-54,63.3-126.9,141.3-126.9
				C909.3,593.3,990.5,666.2,972.5,720.2z"/>
		</g>
	</g>
	<g>
		<path class="st11" d="M910.4,734.1h-34.6c-0.5,0-0.9,0.4-0.9,0.9s0.4,0.9,0.9,0.9h34.6c0.5,0,0.9-0.4,0.9-0.9
			S910.9,734.1,910.4,734.1z"/>
	</g>
	<g>
		<path class="st11" d="M896.9,740.1h-19.7c-0.5,0-0.9,0.4-0.9,0.9s0.4,0.9,0.9,0.9h19.7c0.5,0,0.9-0.4,0.9-0.9
			S897.4,740.1,896.9,740.1z"/>
	</g>
	<g>
		<path class="st11" d="M804.6,734.1H770c-0.5,0-0.9,0.4-0.9,0.9s0.4,0.9,0.9,0.9h34.6c0.5,0,0.9-0.4,0.9-0.9
			S805.1,734.1,804.6,734.1z"/>
	</g>
	<g>
		<path class="st11" d="M803.3,740.1h-19.7c-0.5,0-0.9,0.4-0.9,0.9s0.4,0.9,0.9,0.9h19.7c0.5,0,0.9-0.4,0.9-0.9
			S803.8,740.1,803.3,740.1z"/>
	</g>
	<g>
		<path class="st17" d="M780.5,683c-0.4,0-0.7,0-1,0c-0.1,0-3.2,0-7.5,1.2c-4.8,1.4-11.7,4.5-17.3,11.4c-3.4,4.2-6,9.4-7.6,15.4
			l-0.4,1.3l0.9,1c0.3,0.3,6.5,7,17.4,11l0.1,0l0.2,0.1c1.2,0.4,2.3,0.8,3.5,1.1l0.2,0c3.9,1,7.9,1.6,11.9,1.6c0,0,0,0,0,0
			c10.6,0,21.4-3.6,32.1-10.8l1.3-0.9l-0.2-1.5C814.1,713.7,809.8,683,780.5,683z"/>
		<path d="M810.7,697.3c-4.6-7.7-13.7-16.8-30.2-16.8c-0.4,0-0.7,0-1.1,0c-0.6,0-3.8,0.1-8.1,1.3c-5.1,1.5-12.5,4.8-18.5,12.2
			c-3.6,4.5-6.4,10-8.1,16.3l-0.7,2.7l1.9,2c0.3,0.3,6.9,7.4,18.3,11.6l0,0l0.3,0.1c1.2,0.4,2.5,0.8,3.7,1.2l0.2,0l0.1,0
			c4.1,1.1,8.3,1.6,12.5,1.6c11.1,0,22.4-3.8,33.5-11.2l2.6-1.7l-0.4-3.1C816.6,713.4,815.5,705.4,810.7,697.3z M781,724.7
			c-4.1,0-7.9-0.6-11.4-1.5c0,0-0.1,0-0.1,0c-1.2-0.3-2.3-0.7-3.3-1c0,0,0,0-0.1,0c-10.5-3.8-16.6-10.3-16.6-10.3
			c1.7-6.2,4.2-10.9,7.1-14.5c5.1-6.3,11.4-9.2,16-10.6c4-1.1,6.8-1.1,6.8-1.1c0.4,0,0.7,0,1,0c27.5,0,31.2,28.8,31.2,28.8
			C800.2,722,789.8,724.7,781,724.7z"/>
	</g>
	<g>
		<path class="st17" d="M898.1,683C898.1,683,898.1,683,898.1,683c-0.4,0-0.8,0-1.1,0c-3.7,0-7.1,0.5-10.3,1.5
			c-14.5,4.4-20.2,17.5-22.3,24.9c-0.8,2.7-1,4.6-1,4.7l-0.2,1.5l1.3,0.9c1.7,1.1,3.4,2.2,5.1,3.1c5.3,3,10.7,5.1,16,6.3
			c3.7,0.8,7.3,1.3,11,1.3c0,0,0,0,0,0c20.4,0,32.8-13.2,33.3-13.8l0.9-1l-0.4-1.3C922.9,683.4,898.3,683,898.1,683z"/>
		<path d="M912.5,684.3c-7.2-3.6-13.4-3.8-14.4-3.8c-0.4,0-0.8,0-1.2,0c-3.9,0-7.6,0.5-11,1.6c-15.7,4.8-21.8,18.7-24,26.6
			c-0.8,2.9-1.1,4.8-1.1,5l-0.4,3.1l2.6,1.7c1.7,1.1,3.5,2.2,5.3,3.2c5.5,3.1,11.1,5.3,16.7,6.6c3.8,0.9,7.7,1.3,11.5,1.3
			c21.5,0,34.6-14,35.1-14.6l1.9-2l-0.7-2.7C928.6,695.1,919.5,687.8,912.5,684.3z M896.5,724.7c-3.3,0-6.7-0.4-10.4-1.2
			c-4.8-1.1-9.9-3.1-15.4-6.1c-1.6-0.9-3.3-1.9-5-3c0,0,0.2-1.7,1-4.3c1.9-6.6,7.1-19.1,20.6-23.2c2.8-0.9,6-1.4,9.6-1.4
			c0.4,0,0.7,0,1.1,0c0,0,22.8,0,29.9,26.2C927.9,711.7,916,724.7,896.5,724.7z"/>
	</g>
	<path class="st11" d="M773.4,686.6c-0.2,0-0.5,0-0.7,0c-4.7,1.3-10.9,4.2-16,10.6c-1.1,2.4-1.8,5.1-1.8,7.9c0,7.6,4.6,14.2,11.2,17
		c0,0,0,0,0.1,0c1.1,0.5,2.2,0.8,3.3,1c0,0,0.1,0,0.1,0c1.2,0.2,2.4,0.4,3.7,0.4c10.2,0,18.4-8.3,18.4-18.4
		C791.8,694.9,783.5,686.6,773.4,686.6z"/>
	<path class="st11" d="M887.4,686.9c-13.5,4.1-18.8,16.5-20.6,23.2c0.8,2.8,2.1,5.3,4,7.3c5.4,3,10.5,5,15.4,6.1
		c9.4-0.8,16.9-8.7,16.9-18.4C903,695.9,896.2,688.2,887.4,686.9z"/>
	<circle class="st2" cx="782" cy="712.9" r="4.5"/>
	<circle class="st2" cx="893.1" cy="712.9" r="4.5"/>
	<g>
		<path class="st11" d="M581.7,739.9h-34.6c-0.5,0-0.9,0.4-0.9,0.9s0.4,0.9,0.9,0.9h34.6c0.5,0,0.9-0.4,0.9-0.9
			S582.2,739.9,581.7,739.9z"/>
	</g>
	<g>
		<path class="st11" d="M568.1,746h-19.7c-0.5,0-0.9,0.4-0.9,0.9s0.4,0.9,0.9,0.9h19.7c0.5,0,0.9-0.4,0.9-0.9S568.6,746,568.1,746z"
			/>
	</g>
	<g>
		<path class="st11" d="M475.8,739.9h-34.6c-0.5,0-0.9,0.4-0.9,0.9s0.4,0.9,0.9,0.9h34.6c0.5,0,0.9-0.4,0.9-0.9
			S476.3,739.9,475.8,739.9z"/>
	</g>
	<g>
		<path class="st11" d="M474.5,746h-19.7c-0.5,0-0.9,0.4-0.9,0.9s0.4,0.9,0.9,0.9h19.7c0.5,0,0.9-0.4,0.9-0.9S475,746,474.5,746z"/>
	</g>
	<path class="st11" d="M569.5,693.1c-7.9,2.1-13.8,9.3-13.8,17.8c0,6.7,3.6,12.6,8.9,15.8c9.6,0.5,17.3-1.2,23-3.2
		c3.1-3.3,5-7.7,5-12.6c0-3.9-1.2-7.5-3.2-10.4C580.4,692.3,569.5,693.1,569.5,693.1z"/>
	<circle class="st2" cx="582.8" cy="718.8" r="4.5"/>
	<g>
		<path class="st4" d="M502.5,597.8c-0.6,0-1.1,0-1.7,0l0.2,79.9c0,5.5,4.5,10,10,10h0c5.5,0,10-4.5,10-10l-0.2-78.6
			C514.7,598.3,508.6,597.8,502.5,597.8z"/>
	</g>
	<g>
		<path class="st4" d="M471.3,601.5l0.2,68.2c0,5.5,4.5,10,10,10h0c5.5,0,10-4.5,10-10l-0.2-71.4C484.6,598.9,477.9,600,471.3,601.5
			z"/>
	</g>
	<g>
		<path class="st4" d="M530.3,600.8l0.2,69c0,5.5,4.5,10,10,10h0c5.5,0,10-4.5,10-10l-0.1-63.3C543.7,604.1,537,602.2,530.3,600.8z"
			/>
	</g>
	<g>
		<path class="st11" d="M493.4,719.2c-16-13.1-30.2-18.2-42.2-15.4c-13,3.1-18.3,14.4-18.5,14.9c-0.6,1.3,0,2.7,1.2,3.3
			c1.3,0.6,2.7,0,3.3-1.2c0-0.1,4.5-9.7,15.1-12.1c10.4-2.4,23.1,2.4,37.8,14.4c0.5,0.4,1,0.6,1.6,0.6c0.7,0,1.4-0.3,1.9-0.9
			C494.6,721.6,494.5,720,493.4,719.2z"/>
	</g>
	<g>
		<path class="st11" d="M436.7,713.3c0,0-1.8,0.5-3.4-0.3c-1.4-0.8-2.4-2.4-3-4.8c-0.3-1.3-1.7-2.1-3-1.8c-1.3,0.3-2.1,1.7-1.8,3
			c1,3.9,2.9,6.6,5.6,8c1.6,0.8,3.1,1.1,4.4,1.1c1.6,0,2.7-0.4,2.9-0.4c1.3-0.5,2-1.9,1.5-3.1C439.5,713.6,438,712.8,436.7,713.3z"
			/>
	</g>
	<g>
		<path class="st11" d="M441,708.8c0,0-1.5,0.5-2.8-0.2c-1.7-0.9-2.6-3.1-3-4.9c-0.3-1.3-1.7-2.1-3-1.8c-1.3,0.3-2.1,1.7-1.8,3
			c1,4,2.9,6.7,5.6,8c1.4,0.7,2.8,0.9,3.9,0.9c1.6,0,2.8-0.4,3-0.5c1.3-0.5,1.9-2,1.4-3.2C443.7,708.9,442.3,708.3,441,708.8z"/>
	</g>
	<g>
		<path class="st11" d="M514.8,740.3c0-1.4-1.2-2.5-2.6-2.4c-1.4,0-2.5,1.2-2.4,2.6l0,0.6c0.1,5.8-0.1,7.9-3.8,8.8
			c-3.7,0.9-8.8-0.2-11.7-2.5c-1.1-0.9-2.7-0.7-3.5,0.4c-0.9,1.1-0.7,2.7,0.4,3.5c3.1,2.5,7.7,3.9,12,3.9c1.4,0,2.8-0.2,4-0.5
			c7.8-1.9,7.7-8.8,7.6-13.8L514.8,740.3z"/>
	</g>
	<g>
		<path class="st11" d="M529.9,747.4c-2.9,2.3-8,3.4-11.7,2.5c-3.6-0.9-3.9-3-3.8-8.8l0-0.6c0-1.4-1.1-2.5-2.4-2.6
			c-1.4,0-2.5,1.1-2.6,2.4l0,0.6c-0.1,5-0.3,11.8,7.6,13.8c1.3,0.3,2.6,0.5,4,0.5c4.3,0,8.9-1.4,12-3.9c1.1-0.9,1.3-2.4,0.4-3.5
			C532.6,746.7,531,746.5,529.9,747.4z"/>
	</g>
	<path class="st20" d="M512.2,732.2c-4.3,0-7.8,1.4-7.8,3.2s3.5,5.4,7.8,5.4c4.3,0,7.8-3.7,7.8-5.4S516.5,732.2,512.2,732.2z"/>
	<g>
		<path class="st11" d="M841,732c-1.4,0-2.5,1.2-2.5,2.5c0.2,10.3-7.2,10.7-7.9,10.7c-3.5-0.1-6.2-1-7.9-2.9c-2.7-3-2.4-7.6-2.4-7.6
			c0.1-1.4-0.9-2.6-2.3-2.7c-1.4-0.1-2.6,0.9-2.7,2.3c0,0.3-0.6,6.7,3.6,11.4c2.7,3,6.6,4.5,11.6,4.6c0.2,0,5.2-0.1,8.9-3.9
			c2.8-2.8,4.1-6.8,4-11.9C843.5,733.1,842.4,732,841,732z"/>
	</g>
	<g>
		<path class="st11" d="M864,732c-1.4,0.1-2.4,1.3-2.3,2.7c0,0,0.4,4.6-2.4,7.6c-1.7,1.9-4.4,2.9-7.9,2.9c-0.8,0-8.2-0.4-8-10.7
			c0-1.4-1.1-2.5-2.5-2.5c-1.4-0.1-2.5,1.1-2.5,2.5c-0.1,5.1,1.3,9.1,4,11.9c3.8,3.8,8.7,3.9,9,3.9c5-0.1,8.9-1.6,11.6-4.6
			c4.2-4.7,3.7-11.1,3.6-11.4C866.6,732.9,865.3,731.9,864,732z"/>
	</g>
	<path class="st20" d="M841,726.4c-4.3,0-7.8,1.4-7.8,3.2s3.5,5.4,7.8,5.4c4.3,0,7.8-3.7,7.8-5.4S845.3,726.4,841,726.4z"/>
	<g>
		<path class="st12" d="M180.3,740.1c0-1.4-1.2-2.5-2.6-2.4c-1.4,0-2.5,1.2-2.4,2.6l0,0.6c0.1,5.8-0.1,7.9-3.8,8.8
			c-3.7,0.9-8.8-0.2-11.7-2.5c-1.1-0.9-2.7-0.7-3.5,0.4c-0.9,1.1-0.7,2.7,0.4,3.5c3.1,2.5,7.7,3.9,12,3.9c1.4,0,2.8-0.2,4-0.5
			c7.8-1.9,7.7-8.8,7.6-13.8L180.3,740.1z"/>
	</g>
	<g>
		<path class="st12" d="M195.4,747.2c-2.9,2.3-8,3.4-11.7,2.5c-3.6-0.9-3.9-3-3.8-8.8l0-0.6c0-1.4-1.1-2.5-2.4-2.6
			c-1.4,0-2.5,1.1-2.6,2.4l0,0.6c-0.1,5-0.3,11.8,7.6,13.8c1.3,0.3,2.6,0.5,4,0.5c4.3,0,8.9-1.4,12-3.9c1.1-0.9,1.3-2.4,0.4-3.5
			C198.1,746.5,196.5,746.3,195.4,747.2z"/>
	</g>
	<path class="st20" d="M177.6,731.7c-4.3,0-7.8,1.4-7.8,3.2s3.5,5.4,7.8,5.4c4.3,0,7.8-3.7,7.8-5.4S181.9,731.7,177.6,731.7z"/>
	<g>
		<g>
			<path class="st13" d="M225.9,808.4l-4.3-0.4l-1,4.2c-17.6,71.8-6.5,110.9-6,112.6l1.1,3.8l4-0.2c0.9-0.1,21.9-1.3,45-6
				c32.1-6.6,51.7-16.5,58.4-29.6c4.3-8.5,3.2-17.8-3.2-27.7C287.7,815.3,228.4,808.7,225.9,808.4z"/>
			<path d="M262.6,813.2c-19.7-8-35.5-9.7-36.1-9.7l-8.7-0.9l-2.1,8.4c-18,73.1-6.4,113.5-5.9,115.2l2.3,7.6l7.9-0.5
				c0.9-0.1,22.2-1.3,45.7-6.1c34.1-7,54.4-17.6,61.8-32.2c3.5-7,5.8-18.3-3.4-32.6C310.1,840.8,288.9,823.8,262.6,813.2z
				 M219.4,923.3c0,0-11.5-38.7,6-109.9c0,0,59,6,90.2,54.3C346.9,916,219.4,923.3,219.4,923.3z"/>
		</g>
		<g>
			<path class="st13" d="M481.8,808l-4.3,0.4c-2.5,0.3-61.7,6.9-93.9,56.6c-6.4,9.9-7.5,19.2-3.2,27.7c6.6,13.1,26.3,23,58.4,29.6
				c23.1,4.7,44.1,6,45,6l4,0.2l1.1-3.8c0.5-1.6,11.7-40.8-6-112.6L481.8,808z"/>
			<path d="M485.7,802.5l-8.7,0.9c-0.7,0.1-16.4,1.7-36.1,9.7c-26.3,10.7-47.6,27.6-61.5,49.1c-9.3,14.3-7,25.7-3.4,32.6
				c7.5,14.7,27.7,25.2,61.8,32.2c23.5,4.8,44.8,6.1,45.7,6.1l7.9,0.5l2.3-7.6c0.5-1.7,12-42.1-5.9-115.2L485.7,802.5z M484.1,923.3
				c0,0-127.5-7.3-96.3-55.6c31.2-48.3,90.2-54.3,90.2-54.3C495.5,884.6,484.1,923.3,484.1,923.3z"/>
		</g>
		<g>
			<path class="st1" d="M482.7,912.1c-28.7-39.8-82.6-67.6-131-67.6c-48.4,0-102.3,27.8-131,67.6c-16.3,22.6-21.7,46-15.1,65.9
				c2.5,7.6,6.1,15,10.6,22h270.9c4.5-7.1,8.1-14.5,10.6-22C504.4,958.1,499,934.7,482.7,912.1z"/>
			<path d="M486.8,909.2c-13.8-19.1-34.3-36.5-57.8-49.1c-25.1-13.4-51.9-20.6-77.3-20.6c-25.4,0-52.1,7.1-77.3,20.6
				c-23.5,12.6-44,30-57.8,49.1c-17.3,24-22.9,49-15.8,70.4c2.3,7,5.5,13.9,9.5,20.5h11.9c-5.2-7.7-9.2-15.7-11.9-23.6
				c-18-54,63.3-126.9,141.3-126.9c78,0,159.3,72.8,141.3,126.9c-2.6,7.9-6.6,15.9-11.9,23.6h11.9c3.9-6.6,7.1-13.4,9.5-20.5
				C509.7,958.1,504.1,933.1,486.8,909.2z"/>
		</g>
	</g>
	<g>
		<path class="st4" d="M430.9,991.6h-34.6c-0.5,0-0.9,0.4-0.9,0.9s0.4,0.9,0.9,0.9h34.6c0.5,0,0.9-0.4,0.9-0.9
			S431.4,991.6,430.9,991.6z"/>
	</g>
	<g>
		<path class="st4" d="M417.4,997.7h-19.7c-0.5,0-0.9,0.4-0.9,0.9c0,0.5,0.4,0.9,0.9,0.9h19.7c0.5,0,0.9-0.4,0.9-0.9
			C418.3,998.1,417.9,997.7,417.4,997.7z"/>
	</g>
	<g>
		<path class="st4" d="M325.1,991.6h-34.6c-0.5,0-0.9,0.4-0.9,0.9s0.4,0.9,0.9,0.9h34.6c0.5,0,0.9-0.4,0.9-0.9
			S325.6,991.6,325.1,991.6z"/>
	</g>
	<g>
		<path class="st4" d="M323.8,997.7H304c-0.5,0-0.9,0.4-0.9,0.9c0,0.5,0.4,0.9,0.9,0.9h19.7c0.5,0,0.9-0.4,0.9-0.9
			C324.7,998.1,324.3,997.7,323.8,997.7z"/>
	</g>
	<g>
		<path class="st14" d="M301.1,940.6c-0.3,0-0.6,0-1,0c-0.4-0.1-1.1-0.1-2.1-0.1c-5.6,0-19.1,2.4-25.2,24.8l-0.3,1l0.5,0.9
			c0.3,0.6,8.5,15.5,27.1,15.5c0,0,0,0,0,0c8.9,0,18.7-3.5,29-10.4l1.1-0.7l0-1.3c0-0.5,0.2-13.1-8.2-21.7
			C316.9,943.2,309.9,940.6,301.1,940.6z"/>
		<path d="M301.1,938.1c-0.3,0-0.5,0-0.8,0c-0.5-0.1-1.3-0.1-2.3-0.1c-2.8,0-8.4,0.6-14,4.6c-6.3,4.5-10.9,11.9-13.6,22.1l-0.5,1.9
			l0.9,1.8c0.4,0.7,9.3,16.8,29.3,16.8c9.4,0,19.6-3.6,30.4-10.8l2.2-1.4l0.1-2.6c0-0.6,0.3-14.1-8.9-23.6
			C318.2,941,310.6,938.1,301.1,938.1z M327.7,970.1c-11.1,7.4-20.2,10-27.6,10c-17.3,0-24.9-14.2-24.9-14.2c5.7-20.8,18-23,22.8-23
			c1.2,0,2,0.1,2,0.1c0.4,0,0.8,0,1.1,0C328.4,943.1,327.7,970.1,327.7,970.1z"/>
	</g>
	<g>
		<path class="st14" d="M420.7,940.4c-1.1,0-1.9,0.1-2.3,0.1c-0.3,0-0.7,0-1,0c-8.8,0-15.9,2.6-21.1,7.8c-8.6,8.6-8.7,21.2-8.7,21.7
			l0,1.3l1.1,0.7c10.3,6.9,20.3,10.4,29.5,10.4c0,0,0,0,0,0c19.1,0,28.4-14.7,28.8-15.4l0.6-0.9l-0.3-1
			C441.2,942.9,426.7,940.4,420.7,940.4z"/>
		<path d="M420.7,937.9c-1.1,0-1.9,0.1-2.4,0.1c-0.3,0-0.6,0-0.8,0c0,0,0,0,0,0c-9.5,0-17.2,2.9-22.8,8.6
			c-9.3,9.4-9.4,22.9-9.4,23.5l0,2.7l2.2,1.5c10.8,7.2,21.1,10.8,30.9,10.8c20.5,0,30.5-15.9,30.9-16.5l1.1-1.8l-0.6-2.1
			C443,939.9,425.8,937.9,420.7,937.9z M418.2,980.1c-7.7,0-17-2.6-28.1-10c0,0-0.1-27,27.3-27c0.4,0,0.7,0,1.1,0
			c0,0,0.8-0.1,2.1-0.1c5.2,0,18.6,2.1,24.2,23C444.9,965.9,436.2,980.1,418.2,980.1z"/>
	</g>
	<g>
		<g>
			<path class="st18" d="M897.5,800.8l-4.3-0.4l-1,4.2c-17.6,71.8-6.5,110.9-6,112.6l1.1,3.8l4-0.2c0.9-0.1,21.9-1.3,45-6
				c32.1-6.6,51.7-16.5,58.4-29.6c4.3-8.5,3.2-17.8-3.2-27.7C959.2,807.6,900,801,897.5,800.8z"/>
			<path d="M934.1,805.5c-19.7-8-35.5-9.7-36.1-9.7l-8.7-0.9l-2.1,8.4c-18,73.1-6.4,113.5-5.9,115.2l2.3,7.6l7.9-0.5
				c0.9-0.1,22.2-1.3,45.7-6.1c34.1-7,54.4-17.6,61.8-32.2c0.4-0.7,0.7-1.4,1-2.2v-21.7c-1-2.8-2.5-5.7-4.4-8.7
				C981.7,833.2,960.4,816.2,934.1,805.5z M890.9,915.7c0,0-11.5-38.7,6-109.9c0,0,59,6,90.2,54.3
				C1018.4,908.4,890.9,915.7,890.9,915.7z"/>
		</g>
		<g>
			<path d="M882,968.8c-16.2-48.7,48.1-112.6,118-124.8v-10.1c-18.1,2.9-36.4,9.2-54,18.6c-23.5,12.6-44,30-57.8,49.1
				c-17.3,24-22.9,49-15.8,70.4c3.3,9.8,8.2,19.3,14.5,28.1h12.6C891.4,990,885.5,979.4,882,968.8z"/>
		</g>
		<g>
			<path class="st18" d="M1000,838.9c-41.6,7.1-83.6,32-107.7,65.5c-16.3,22.6-21.7,46-15.1,65.9c3.4,10.4,8.9,20.4,15.9,29.7H1000
				V838.9z"/>
			<path d="M882,968.8c-16.2-48.7,48.1-112.6,118-124.8v-10.1c-18.1,2.9-36.4,9.2-54,18.6c-23.5,12.6-44,30-57.8,49.1
				c-17.3,24-22.9,49-15.8,70.4c3.2,9.8,8.1,19.2,14.4,28.1h12.6C891.4,990,885.5,979.3,882,968.8z"/>
		</g>
	</g>
	<g>
		<g>
			<path class="st18" d="M153.4,800.3l-4.3,0.4c-2.5,0.3-61.7,6.9-93.9,56.6c-6.4,9.9-7.5,19.2-3.2,27.7c6.6,13.1,26.3,23,58.4,29.6
				c23.1,4.7,44.1,6,45,6l4,0.2l1.1-3.8c0.5-1.6,11.7-40.8-6-112.6L153.4,800.3z"/>
			<path d="M157.2,794.9l-8.7,0.9c-0.7,0.1-16.4,1.7-36.1,9.7c-26.3,10.7-47.6,27.6-61.5,49.1c-9.3,14.3-7,25.7-3.4,32.6
				c7.5,14.7,27.7,25.2,61.8,32.2c23.5,4.8,44.8,6.1,45.7,6.1l7.9,0.5l2.3-7.6c0.5-1.7,12-42.1-5.9-115.2L157.2,794.9z M155.6,915.7
				c0,0-127.5-7.3-96.3-55.6c31.2-48.3,90.2-54.3,90.2-54.3C167.1,877,155.6,915.7,155.6,915.7z"/>
		</g>
		<g>
			<path d="M47.3,974.6c-4.7-4.9-10.6-9.9-17.2-9.9c-0.7,0-1.4,0.1-2.1,0.2c-7.9,1.3-12.4,9.4-16.4,16.3C8.2,987,4.3,992.4,0,997.6
				v2.4h10.9c3.4-4.4,6.5-8.9,9.4-13.7l0.6-0.9c2.7-4.5,6-10.1,8.9-10.6c0.1,0,0.3,0,0.4,0c1.5,0,4.5,1.2,10.1,6.9
				c5.8,5.9,11.4,12.2,17,18.5h13.4C62.9,991.4,55.3,982.7,47.3,974.6z"/>
		</g>
	</g>
	<g>
		<g>
			<path class="st11" d="M996.6,984H962c-0.5,0-0.9,0.4-0.9,0.9s0.4,0.9,0.9,0.9h34.6c0.5,0,0.9-0.4,0.9-0.9S997.1,984,996.6,984z"
				/>
		</g>
	</g>
	<g>
		<g>
			<path class="st11" d="M995.3,990h-19.7c-0.5,0-0.9,0.4-0.9,0.9c0,0.5,0.4,0.9,0.9,0.9h19.7c0.5,0,0.9-0.4,0.9-0.9
				C996.2,990.4,995.8,990,995.3,990z"/>
		</g>
	</g>
	<g>
		<path class="st2" d="M1000,998c-0.5,0.7-1.1,1.3-1.7,2h1.7V998z"/>
	</g>
	<g>
		<ellipse class="st11" cx="304" cy="962.6" rx="7.2" ry="18.4"/>
	</g>
	<g>
		<circle class="st2" cx="307.8" cy="970.4" r="4.5"/>
	</g>
	<g>
		<ellipse class="st11" cx="416.8" cy="962.3" rx="7.2" ry="18.4"/>
	</g>
	<g>
		<circle class="st2" cx="420.5" cy="970.1" r="4.5"/>
	</g>
	<g>
		<path class="st19" d="M859.1,823.4c-1.1,0-2.2,0.2-3.3,0.7l-0.5,0.2c-38.5,16.5-70.6,24.9-95.5,24.9c0,0,0,0,0,0
			c-6.2,0-11.9-0.5-17-1.6c-3.8-0.8-6.8-1.2-9.3-1.2c-6.4,0-8.7,2.9-9.4,5.4c-2.7,8.8,11.3,20.9,71.4,61.8
			c11.6,7.9,21.7,14.7,25.8,18.1c1.5,1.2,3.4,1.9,5.3,1.9c0,0,0,0,0,0c2.8,0,5.4-1.4,6.9-3.7c7.1-10.5,24.6-40.9,33.8-96.9
			c0.4-2.4-0.3-4.9-1.9-6.7C863.9,824.5,861.5,823.4,859.1,823.4z"/>
		<path d="M859.1,818.4c-1.8,0-3.6,0.4-5.3,1.1l-0.5,0.2c-37.9,16.3-69.3,24.5-93.6,24.5c-5.8,0-11.2-0.5-16-1.5
			c-4.1-0.8-7.5-1.3-10.3-1.3c0,0,0,0,0,0c-10.4,0-13.4,6.2-14.2,8.9c-2.6,8.4,4.7,15.7,8.2,19.1c4.1,4.1,10,9,18,15.1
			c14.1,10.8,32.5,23.2,47.2,33.2c11.5,7.8,21.5,14.6,25.5,17.9c2.4,1.9,5.4,3,8.4,3c4.4,0,8.6-2.2,11.1-5.9
			c7.3-10.8,25.2-41.9,34.6-98.8c0.6-3.9-0.4-7.8-3-10.8C866.7,820.1,863,818.4,859.1,818.4z M862.4,832.3
			c-9.3,55.9-27,85.9-33,94.9c-0.7,1-1.7,1.5-2.8,1.5c-0.7,0-1.5-0.2-2.1-0.8c-16.8-13.7-118.7-76.4-91-76.4c2,0,4.8,0.3,8.3,1.1
			c5.7,1.2,11.8,1.7,18,1.7c39,0,85.2-20,98-25.6c0.4-0.2,0.9-0.3,1.3-0.3C861,828.4,862.7,830.2,862.4,832.3z"/>
	</g>
	<g>
		<g>
			<path class="st19" d="M658.3,856.1c-50.6-42.7-90.3-54.8-92-55.3l-5-1.5l-1.3,5.1c-17.6,71.8-6.5,110.9-6,112.6l1.2,4.1l4.2-0.6
				c0.2,0,24.8-3.3,49.9-9.7c35.7-9.1,54.9-19.6,58.5-32.2C670.1,870.9,666.9,863.4,658.3,856.1z"/>
			<g>
				<path d="M661.5,852.3c-51.4-43.3-92.1-55.8-93.8-56.3l-10.1-3l-2.5,10.2c-18,73.1-6.4,113.5-5.9,115.2l2.4,8.2l8.5-1.1
					c1-0.1,25.1-3.3,50.5-9.8c38.1-9.7,57.8-21,62.1-35.7C674.7,873.3,674.3,863.1,661.5,852.3z M558.8,915.5c0,0-11.5-38.7,6-109.9
					c0,0,39.8,11.9,90.2,54.3C699,897,558.8,915.5,558.8,915.5z"/>
			</g>
		</g>
		<g>
			<path class="st3" d="M822.1,905.6c-28.7-39.8-82.6-67.6-131-67.6c-4,0-8.2,0.2-12.5,0.6c-46.9,4.4-97,33.8-121.7,71.6
				c-14,21.4-18.1,42.6-11.9,61.3c3.2,9.6,8.3,19.2,15.2,28.5h261.9c6.6-9,11.7-18.6,15-28.5C843.8,951.6,838.4,928.2,822.1,905.6z"
				/>
			<path d="M826.1,902.7c-13.8-19.1-34.3-36.5-57.8-49.1c-25.1-13.5-51.9-20.6-77.3-20.6c-4.2,0-8.5,0.2-12.9,0.6
				c-24.5,2.3-49.7,10.8-72.7,24.7c-21.9,13.2-40.6,30.6-52.7,49.1c-7,10.7-11.7,21.5-13.9,32.2c-2.5,11.7-2,23,1.5,33.4
				c3.1,9.3,7.7,18.4,13.7,26.9h12.4c-7.7-9.7-13.3-19.9-16.6-30.1c-17-51.3,55.2-119.4,129.3-126.3c4-0.4,8-0.6,12-0.6
				c78,0,159.3,72.8,141.3,126.9c-3.4,10.2-9,20.4-16.6,30.1h12.5c5.9-8.5,10.5-17.6,13.6-26.9C849,951.6,843.4,926.7,826.1,902.7z"
				/>
		</g>
	</g>
	<g>
		<path class="st20" d="M681.4,976.1c-0.8,0-1.6,0-2.3,0.1c-3.2,0.4-5.5,1.6-5.5,3c0,1.4,2.3,4.1,5.5,5.1c0.7,0.2,1.5,0.3,2.3,0.3
			c4.3,0,7.8-3.7,7.8-5.4C689.2,977.5,685.7,976.1,681.4,976.1z"/>
	</g>
	<g>
		<path class="st11" d="M642,983.8h-34.6c-0.5,0-0.9,0.4-0.9,0.9c0,0.5,0.4,0.9,0.9,0.9H642c0.5,0,0.9-0.4,0.9-0.9
			C642.9,984.2,642.5,983.8,642,983.8z"/>
	</g>
	<g>
		<path class="st11" d="M640.7,989.8H621c-0.5,0-0.9,0.4-0.9,0.9c0,0.5,0.4,0.9,0.9,0.9h19.7c0.5,0,0.9-0.4,0.9-0.9
			C641.6,990.2,641.2,989.8,640.7,989.8z"/>
	</g>
	<g>
		<path class="st11" d="M752.4,983.8h-34.6c-0.5,0-0.9,0.4-0.9,0.9c0,0.5,0.4,0.9,0.9,0.9h34.6c0.5,0,0.9-0.4,0.9-0.9
			C753.3,984.2,752.9,983.8,752.4,983.8z"/>
	</g>
	<g>
		<path class="st11" d="M738.8,989.8h-19.7c-0.5,0-0.9,0.4-0.9,0.9c0,0.5,0.4,0.9,0.9,0.9h19.7c0.5,0,0.9-0.4,0.9-0.9
			C739.7,990.2,739.3,989.8,738.8,989.8z"/>
	</g>
	<g>
		<path class="st7" d="M767.6,945.4c-5.6-6.9-12.5-10-17.3-11.4c-4.2-1.2-7.3-1.2-7.4-1.2c0,0,0,0,0,0c-0.4,0-0.7,0-1.1,0
			c-29.3,0-33.6,30.7-33.7,31l-0.2,1.5l1.3,0.9c10.7,7.1,21.5,10.8,32.1,10.8c0,0,0,0,0,0c4,0,8.1-0.5,12-1.6l0.2,0
			c1.2-0.3,2.4-0.7,3.5-1.1l0.2-0.1c10.9-4,17.2-10.7,17.4-10.9l0.9-1l-0.4-1.3C773.6,954.8,771,949.6,767.6,945.4z"/>
		<path d="M769.6,943.8c-6-7.4-13.4-10.7-18.5-12.2c-4.3-1.2-7.5-1.3-8.1-1.3c-0.4,0-0.8,0-1.1,0c-16.5,0-25.5,9.1-30.2,16.8
			c-4.9,8-5.9,16-6,16.4l-0.4,3.1l2.6,1.7c11.1,7.4,22.4,11.2,33.5,11.2c4.2,0,8.4-0.6,12.5-1.6l0.1,0l0.2,0
			c1.2-0.3,2.5-0.7,3.7-1.2l0.3-0.1l0.1,0c11.4-4.2,18-11.3,18.3-11.6l1.9-2l-0.7-2.7C775.9,953.8,773.2,948.3,769.6,943.8z
			 M756.2,971.8C756.2,971.8,756.2,971.8,756.2,971.8c-1.1,0.4-2.2,0.8-3.4,1.1c0,0-0.1,0-0.1,0c-3.4,0.9-7.2,1.5-11.4,1.5
			c-8.8,0-19.2-2.6-30.7-10.3c0,0,3.7-28.8,31.2-28.8c0.3,0,0.7,0,1,0c0,0,2.8,0,6.8,1.1c4.7,1.3,10.9,4.2,16,10.6
			c2.9,3.6,5.5,8.3,7.1,14.5C772.8,961.4,766.8,968,756.2,971.8z"/>
	</g>
	<g>
		<path class="st7" d="M658,959.1c-2.1-7.4-7.8-20.5-22.3-24.9c-3.2-1-6.7-1.5-10.3-1.5c-0.4,0-0.8,0-1.1,0c-0.2,0-24.8,0.3-32.3,28
			l-0.4,1.3l0.9,1c0.5,0.6,12.9,13.8,33.3,13.8h0c3.6,0,7.3-0.4,11-1.3c5.3-1.2,10.7-3.4,16-6.3c1.8-1,3.4-2,5.1-3.1l1.3-0.9
			l-0.2-1.5C659,963.7,658.8,961.8,658,959.1z"/>
		<path d="M660.4,958.4c-2.2-7.9-8.3-21.8-24-26.6c-3.4-1-7.1-1.6-11-1.6c-0.4,0-0.8,0-1.2,0c-1,0-7.2,0.2-14.4,3.8
			c-6.9,3.4-16.1,10.8-20.2,26.1l-0.7,2.7l1.9,2c0.5,0.6,13.7,14.6,35.1,14.6c3.8,0,7.7-0.4,11.5-1.3c5.6-1.3,11.2-3.5,16.7-6.6
			c1.8-1,3.6-2.1,5.3-3.2l2.6-1.7l-0.4-3.1C661.5,963.2,661.2,961.3,660.4,958.4z M651.6,967.1c-5.4,3-10.5,5-15.4,6.1
			c-3.7,0.8-7.1,1.2-10.4,1.2c-19.5,0-31.5-13-31.5-13c7.1-26.2,29.9-26.2,29.9-26.2c0.4,0,0.7,0,1.1,0c3.6,0,6.8,0.5,9.6,1.4
			c13.5,4.1,18.8,16.5,20.6,23.2c0.7,2.6,1,4.3,1,4.3C654.9,965.2,653.2,966.2,651.6,967.1z"/>
	</g>
	<g>
		<path class="st11" d="M749.7,936.4c-0.2,0-0.5,0-0.7,0c-10.2,0-18.4,8.3-18.4,18.4s8.3,18.4,18.4,18.4c1.3,0,2.5-0.1,3.7-0.4
			c0,0,0.1,0,0.1,0c1.2-0.2,2.3-0.6,3.3-1c0,0,0,0,0.1,0c6.6-2.8,11.2-9.4,11.2-17c0-2.8-0.6-5.5-1.8-7.9
			C760.6,940.6,754.3,937.7,749.7,936.4z"/>
	</g>
	<g>
		<path class="st11" d="M635,936.6c-8.8,1.4-15.6,9-15.6,18.2c0,9.7,7.4,17.6,16.9,18.4c4.8-1.1,9.9-3.1,15.4-6.1
			c1.9-2.1,3.2-4.6,4-7.3C653.7,953.1,648.5,940.7,635,936.6z"/>
	</g>
	<g>
		<circle class="st2" cx="740.4" cy="962.6" r="4.5"/>
	</g>
	<g>
		<circle class="st2" cx="629.2" cy="962.6" r="4.5"/>
	</g>
	<g>
		<path class="st4" d="M364,992l0-0.5c0-1.1-1.2-1.9-2.6-1.9c-1.4,0-2.5,0.9-2.4,2l0,0.5c0.1,4.5-0.1,6.1-3.8,6.8
			c-3.7,0.7-8.8-0.1-11.7-1.9c-1.1-0.7-2.7-0.5-3.5,0.3c-0.9,0.8-0.7,2.1,0.4,2.7h21.5C364.1,997.7,364.1,994.5,364,992z"/>
	</g>
	<g>
		<path class="st4" d="M382.6,997.3c-0.9-0.8-2.4-1-3.5-0.3c-2.9,1.8-8,2.6-11.7,1.9c-3.6-0.7-3.9-2.3-3.8-6.8l0-0.5
			c0-1.1-1.1-2-2.4-2c-1.4,0-2.5,0.8-2.6,1.9l0,0.5c-0.1,2.6-0.2,5.7,2,8h21.5C383.3,999.3,383.5,998.1,382.6,997.3z"/>
	</g>
	<g>
		<path class="st20" d="M361.5,983.9c-4.3,0-7.8,1.4-7.8,3.2c0,1.8,3.5,5.4,7.8,5.4c4.3,0,7.8-3.7,7.8-5.4
			C369.3,985.3,365.8,983.9,361.5,983.9z"/>
	</g>
	<path class="st18" d="M154.2,904.4c-28.7-39.8-82.6-67.6-131-67.6c-7.7,0-15.5,0.7-23.3,2V1000h153.4c7.1-9.3,12.5-19.3,15.9-29.7
		C175.9,950.5,170.6,927.1,154.2,904.4z"/>
	<g>
		<path class="st11" d="M102.5,984H67.9c-0.5,0-0.9,0.4-0.9,0.9s0.4,0.9,0.9,0.9h34.6c0.5,0,0.9-0.4,0.9-0.9S103,984,102.5,984z"/>
	</g>
	<g>
		<path class="st11" d="M88.9,990H69.2c-0.5,0-0.9,0.4-0.9,0.9c0,0.5,0.4,0.9,0.9,0.9h19.7c0.5,0,0.9-0.4,0.9-0.9
			C89.8,990.4,89.4,990,88.9,990z"/>
	</g>
	<g>
		<path class="st2" d="M28.3,964.8c-10.8,1.8-15.1,14.8-20.4,22.7c-2.5,3.6-5.1,7.1-7.9,10.5v2h70.8c-3.8-4.3-7.7-8.6-11.5-12.8
			C51.6,978.7,41.8,962.6,28.3,964.8z"/>
	</g>
	<g>
		<g>
			<path class="st11" d="M35.6,984.1c0-1.1-1.2-1.9-2.6-1.9c-1.4,0-2.5,0.9-2.4,2l0,0.5c0.1,4.5-0.1,6.1-3.8,6.8
				c-3.7,0.7-8.8-0.1-11.7-1.9c-1.1-0.7-2.7-0.5-3.5,0.3c-0.9,0.8-0.7,2.1,0.4,2.7c3.1,1.9,7.7,3,12,3c1.4,0,2.8-0.1,4-0.4
				c7.8-1.5,7.7-6.8,7.6-10.7L35.6,984.1z"/>
		</g>
	</g>
	<g>
		<path class="st11" d="M50.8,989.6c-2.9,1.8-8,2.6-11.7,1.9c-3.6-0.7-3.9-2.3-3.8-6.8l0-0.5c0-1.1-1.1-2-2.4-2
			c-1.4,0-2.5,0.8-2.6,1.9l0,0.5c-0.1,3.9-0.3,9.2,7.6,10.7c1.3,0.2,2.6,0.4,4,0.4c4.3,0,8.9-1.1,12-3c1.1-0.7,1.3-1.9,0.4-2.7
			C53.4,989.1,51.9,988.9,50.8,989.6z"/>
	</g>
	<g>
		<g>
			<path class="st21" d="M33,976.3c-4.3,0-7.8,1.4-7.8,3.2s3.5,5.4,7.8,5.4s7.8-3.7,7.8-5.4S37.3,976.3,33,976.3z"/>
		</g>
	</g>
	<g>
		<g>
			<path class="st11" d="M963,971c-12.7-3.9-21.6-11.8-21.7-11.9c-1-0.9-2.6-0.8-3.5,0.2c-0.9,1-0.8,2.6,0.2,3.5
				c0.3,0.2,17.2,15.2,38.9,15.2c7.3,0,15.2-1.7,23.2-6.4v-5.9C988.8,973.3,976.4,975.1,963,971z"/>
		</g>
		<g>
			<path class="st11" d="M11.6,959.2c-1-1-2.5-1-3.5,0c-2.6,2.6-5.3,4.8-8.1,6.6v5.9c3.9-2.3,7.7-5.2,11.6-8.9
				C12.6,961.8,12.6,960.2,11.6,959.2z"/>
		</g>
	</g>
	<g>
		<path class="st11" d="M118.6,959.1c-0.1,0.1-9,8-21.7,11.9c-16.7,5.1-31.9,1.1-45.1-11.8c-1-1-2.6-1-3.5,0c-1,1-1,2.6,0,3.5
			c11.7,11.5,23.8,15.3,34.7,15.3c21.6,0,38.6-15,38.9-15.2c1-0.9,1.1-2.5,0.2-3.5C121.2,958.3,119.6,958.2,118.6,959.1z"/>
	</g>
	<path d="M158.3,901.5c-13.8-19.1-34.3-36.5-57.8-49.1c-25.1-13.4-51.9-20.6-77.3-20.6c-7.7,0-15.4,0.7-23.3,1.9V844
		c7.7-1.3,15.5-2.1,23.3-2.1c78,0,159.3,72.8,141.3,126.9c-3.5,10.6-9.4,21.3-17.6,31.2h12.6c6.3-8.8,11.2-18.3,14.5-28.1
		C181.2,950.5,175.6,925.5,158.3,901.5z"/>
</g>
</svg>
