<?xml version="1.0" encoding="utf-8"?>
<!-- Generator: Adobe Illustrator 25.4.1, SVG Export Plug-In . SVG Version: 6.00 Build 0)  -->
<svg version="1.1" id="Layer_1" xmlns="http://www.w3.org/2000/svg" xmlns:xlink="http://www.w3.org/1999/xlink" x="0px" y="0px"
	 viewBox="0 0 1000 1000" style="enable-background:new 0 0 1000 1000;" xml:space="preserve">
<style type="text/css">
	.st0{fill:#FFFFFF;}
	.st1{fill:#D4E9EF;}
	.st2{fill:#2790B0;}
	.st3{fill:#2B4E72;}
	.st4{fill:#CF4444;}
	.st5{fill:#EBBB54;}
	.st6{fill:#7DBCD0;}
	.st7{fill:#1D6C84;}
	.st8{opacity:0.21;fill:#272E36;}
	.st9{fill:#84692F;}
	.st10{fill:#B08C3F;}
	.st11{fill:#191F24;}
	.st12{fill:#FFA55F;}
	.st13{fill:#F6E2CA;}
	.st14{fill:#E39253;}
	.st15{opacity:0.12;}
	.st16{fill:#32526E;}
	.st17{opacity:0.85;fill:#DC9964;}
	.st18{fill:#203B56;}
	.st19{fill:#9B3333;}
	.st20{fill:#872C2C;}
</style>
<g>
	<g>
		<rect y="0" class="st0" width="1000" height="1000"/>
		<rect x="0" y="907.2" class="st1" width="1000" height="92.8"/>
	</g>
	<path class="st2" d="M1000,0v907.2H865.6c-23.9,0-43.2-19.3-43.2-43.2v0c0-69.9-56.7-126.6-126.6-126.6h0
		c-69.9,0-126.6-56.7-126.6-126.6V316.8c0-27.5-22.3-49.9-49.9-49.9h-77.8c-26.9,0-48.6-21.8-48.6-48.6v0
		c0-26.9-21.8-48.6-48.6-48.6H0V0H1000z"/>
	<g>
		<path class="st3" d="M514.4,826.3c0,1.2-1,2.2-2.2,2.2H509V943c0,4.7-24.8,8.6-55.4,8.6c-30.6,0-55.4-3.8-55.4-8.6V828.4h-3.2
			c-1.2,0-2.2-1-2.2-2.2c0-9.3-0.9-8.9,5.4-8.9v-17.1H509v17.1C515.1,817.4,514.4,816.7,514.4,826.3z"/>
		<path class="st2" d="M432.4,928.1c0,2,1.6,3.7,3.7,3.7c2,0,3.7-1.6,3.7-3.7c0-2-3.7-7-3.7-7S432.4,926.1,432.4,928.1z"/>
		<path class="st2" d="M458.8,877.7c0,3.4,2.8,6.2,6.2,6.2c3.4,0,6.2-2.8,6.2-6.2c0-3.4-6.2-11.7-6.2-11.7S458.8,874.3,458.8,877.7z
			"/>
		<path class="st4" d="M519.2,820.4h-4.7v5.1h1.3c0.4,0,0.7,0.3,0.8,0.7c-0.2,16.7-6.9,33.7-18.6,46.9
			c-12.2,13.8-27.9,21.4-44.2,21.4c-16.3,0-32-7.6-44.2-21.4c-11.6-13.2-18.4-30.2-18.6-46.8c0-0.5,0.4-0.8,0.8-0.8h1.3v-5.1h-4.8
			c-1.3,0-2.4,1.1-2.4,2.4v2.7c0,2,0.1,3.9,0.3,5.8c2.7,32.4,27.7,63.1,59.5,67.8c2.7,0.4,14.2,0.4,17.2-0.1
			c31.4-5,56.1-35.5,58.8-67.7c0.1-1.3,0.2-5.7,0.2-8.5C521.6,821.5,520.5,820.4,519.2,820.4z"/>
		<polygon class="st5" points="466.4,890.5 466.4,891.5 440.9,891.5 440.9,890.5 437.3,890.5 437.3,900.6 440.9,900.6 440.9,899.5 
			466.4,899.5 466.4,900.6 470,900.6 470,890.5 		"/>
		<path class="st2" d="M488.3,811.8c0.1,1.4,0.1,5.4-1.9,5.6c-1.8,0.2-1.7-6.6-3.9-6.2c-2,0.3-1.2,7.8-1.2,7.8
			c0.2,2.7,1.6,10.6-0.8,11.1c-1.8,0.4-3.6-14.6-4.8-12.2c-2.5,4.9-2.4,22-2.4,22c0.1,2.1-0.6,7.3-3.6,7.5c-3.3,0.1-3.1-6-4.6-5.9
			c-3.3,0.3-4.6,14.2-4.6,14.2c0,1.6-0.1,7.5-5,7.6c-3.6,0.1-4.4-21.7-8.7-21.9c-2.1-0.1-3,11.2-5.8,11.1
			c-5.1-0.3-1.3-32.5-5.1-32.5c-5,0-6.4,17.2-10.6,16.7c-6.8-0.7-7.6-26.2-7.6-29.9c9.7,1.3,22.2,2,35.8,2c13.6,0,26.1-0.8,35.7-2
			C489,808.5,488.6,810.2,488.3,811.8z"/>
		<ellipse class="st6" cx="453.7" cy="800.3" rx="55.4" ry="8.6"/>
		<path class="st7" d="M509,800c-9.3-1.1-21-1.8-33.6-1.8c-30.6,0-55.4,3.8-55.4,8.6c0,0.1,0,0.2,0,0.3c-13.3-1.6-21.8-4-21.8-6.8
			c0-4.7,24.8-8.6,55.4-8.6C483.7,791.7,508.1,795.4,509,800z"/>
	</g>
	<g>
		<g>
			<path class="st8" d="M226.3,210.9c-0.5-4.2-4.1-7.4-8.1-7.3c-3.6,0.1-6.3,3.1-6.3,6.8c0,0.3,0,0.6,0.1,0.9l4.6,40.3h-93l-3-40.3
				c-0.3-4.2-3.7-7.6-7.7-7.8h-0.2c-3.8,0-6.7,3.2-6.4,7.3L147,907.2l-57.2,31.3c-6.5,3.5-5.7,6.5,1.6,6.6
				c7.3,0.1,18.5-2.7,24.8-6.2l38.7-21.6h119.7l-36.7,21.6c-6,3.5-4.6,6.3,3.1,6.2c7.7-0.1,18.8-3.1,24.7-6.6l52.1-31.3L226.3,210.9
				z M284.5,843.7H168.2l-4.6-61.1h113.9L284.5,843.7z M276,770H162.7l-4.6-61.6H269L276,770z M267.5,695.7H157.1l-4.6-61.3h108
				L267.5,695.7z M124.6,264.3h93.5l7,61.4h-95.9L124.6,264.3z M130.2,338.3h96.4l7,61.4h-98.8L130.2,338.3z M135.8,412.3h99.3
				l7,61.4H140.4L135.8,412.3z M141.3,486.3h102.2l7,61.4H145.9L141.3,486.3z M146.9,560.3H252l7,61.4H151.5L146.9,560.3z
				 M284.1,911.7H164.9l8.1-4.5l-3.8-50.8h116.8l5.8,50.8L284.1,911.7z"/>
			<g>
				<g>
					<rect x="112" y="318.3" class="st5" width="109.6" height="11.9"/>
					<rect x="112" y="251.5" class="st5" width="109.6" height="11.9"/>
					<rect x="101.8" y="744.6" class="st5" width="130" height="11.9"/>
					<rect x="101.8" y="804.9" class="st5" width="130" height="11.9"/>
					<rect x="101.8" y="669" class="st5" width="130" height="11.9"/>
					<rect x="101.8" y="596.4" class="st5" width="130" height="11.9"/>
					<rect x="101.8" y="874.2" class="st5" width="130" height="11.9"/>
					<rect x="101.8" y="526.9" class="st5" width="130" height="11.9"/>
					<rect x="101.8" y="457.3" class="st5" width="130" height="11.9"/>
					<rect x="101.8" y="387.8" class="st5" width="130" height="11.9"/>
					<g>
						<path class="st5" d="M121.1,210.9L106,931.8c-0.2,7.4-6.2,13.3-13.6,13.3l0,0c-7.7,0-13.9-6.4-13.6-14.1l27.9-720.5
							c0.2-3.9,3.4-7,7.4-6.9C118.1,203.7,121.2,207,121.1,210.9z"/>
						<polygon class="st9" points="125.5,248.8 125.2,260.6 120,260.6 120.3,248.8 						"/>
						<polygon class="st9" points="104.3,756.4 115.1,756.4 115.3,744.6 103.2,744.6 						"/>
						<polygon class="st9" points="108.4,816.8 113.6,816.8 113.8,804.9 108.6,804.9 						"/>
						<polygon class="st9" points="106.1,680.9 116.5,680.9 116.8,669 106.3,669 						"/>
						<polygon class="st9" points="112.7,608.3 118,608.3 118.2,596.4 113,596.4 						"/>
						<polygon class="st9" points="114.2,538.7 119.4,538.7 119.7,526.9 114.5,526.9 						"/>
						<polygon class="st9" points="115.7,469.2 120.9,469.2 121.1,457.3 115.9,457.3 						"/>
						<polygon class="st9" points="117.1,399.7 122.3,399.7 122.6,387.8 117.4,387.8 						"/>
						<polygon class="st9" points="118.6,330.2 123.8,330.2 124,318.3 118.8,318.3 						"/>
						<polygon class="st9" points="107.2,874.2 106.9,886.1 112.2,886.1 112.4,874.2 						"/>
						<path class="st10" d="M121.1,210.9L106,931.8c-0.2,7.4-6.2,13.3-13.6,13.3c-4.3,0-8.1-2-10.6-5.1c7-0.3,12.7-6,12.9-13.1
							l21.6-720.7c0-0.8-0.1-1.5-0.3-2.2C119,204.9,121.1,207.7,121.1,210.9z"/>
						<path class="st5" d="M241.1,945.1L241.1,945.1c-7.4,0-13.4-5.9-13.6-13.3l-15.1-720.9c-0.1-3.9,3-7.2,6.9-7.3
							c3.9-0.1,7.2,2.9,7.4,6.9L254.7,931C255,938.7,248.8,945.1,241.1,945.1z"/>
						<path class="st10" d="M254.7,931c0.3,7.7-5.9,14.1-13.6,14.1c-2,0-3.9-0.4-5.6-1.2c5-2.1,8.4-7.1,8.2-12.9l-23-727.3
							c3.3,0.6,5.8,3.3,5.9,6.8L254.7,931z"/>
					</g>
				</g>
				<g>
					<path class="st10" d="M256.4,930.9c0.3,8.7-6.6,15.9-15.3,15.9c-8.3,0-15.1-6.7-15.3-15l-0.1-6.7l1.7-1.1
						c0,2.3,6.1,4.3,13.5,4.3s13.5-1.9,13.5-4.3l1.8,1.1L256.4,930.9z"/>
					<path class="st9" d="M256.4,930.9c0.3,8.7-6.6,15.9-15.3,15.9c-5.7,0-10.7-3.2-13.4-7.8c0,0,0,0,0,0c2.5,1.9,5.7,3,9.1,3
						c8.6,0,15.5-7.1,15.3-15.6c1.4-0.7,2.3-1.5,2.3-2.4l1.8,1.1L256.4,930.9z"/>
				</g>
				<g>
					<path class="st10" d="M108.1,930.9c0.3,8.7-6.6,15.9-15.3,15.9c-8.3,0-15.1-6.7-15.3-15l-0.1-6.7l1.7-1.1
						c0,2.3,6.1,4.3,13.5,4.3c7.5,0,13.5-1.9,13.5-4.3l1.8,1.1L108.1,930.9z"/>
					<path class="st9" d="M108.1,930.9c0.3,8.7-6.6,15.9-15.3,15.9c-5.7,0-10.7-3.2-13.4-7.8c0,0,0,0,0,0c2.5,1.9,5.7,3,9.1,3
						c8.6,0,15.5-7.1,15.3-15.6c1.4-0.7,2.3-1.5,2.3-2.4l1.8,1.1L108.1,930.9z"/>
				</g>
			</g>
		</g>
		<g>
			<g>
				<path class="st12" d="M97.3,353.3c0.8-1.1,10-14,15.7-21.6l-7.6-6.9l24-50.9l-13.4-4.2l-38.6,51.8c-1.9,2.9-1.7,6.6,0.5,9.3
					C81.1,334.7,86.3,340.1,97.3,353.3z"/>
				<g>
					<g>
						<path class="st12" d="M147,246.8c0,0.5-0.1,1.2-0.3,2.5c0,0.2,0,0.8,0.1,1.2c0,0,0,0.6,0.1,2.1c0.1,1.5,0.5,1.7,0,2.6
							c-0.5,1-1.1,2.5-2,3.6c-0.8,1.1-2,2.4-3.3,4.7c-1.4,2.3-5.5,3.3-7,4.3c-2.2,1.6-4.5,3.7-5.3,6.1l-13.4-4.2
							c0.5-1.6,0.9-2.9,1.1-3.4c0.5-1.6,0.4-6.2,1.2-9.1c0.9-2.9,2.4-8,3.5-9.9c1-1.8,3.8-2.5,4.7-1.2c0.1,0.1,0.2,0.1,0.2,0
							c0.3-0.8,1-2.6,3.3-2.2c0.8,0.2,1.1,0.5,1.4,1c0.3,0.4,1,0.4,1.3,0c0.5-0.8,1.4-1.5,2.8-1.3c1.6,0.2,2.3,1.3,2.6,2.4
							c0.3-0.4,0.8-0.6,1.6-0.7c0.5-0.1,0.9,0,1.3,0.2c1.8,0.7,1.9,2.1,2.2,3.8l0-0.1c0.4-1.3,1.3-2.7,2.8-2.9
							C145.9,246.2,147,246.2,147,246.8z"/>
						<path class="st13" d="M146.8,250.4c-0.1-0.5,0.6-2.7,0.2-3.8c-0.6-0.3-1.1-0.3-1.4,0.2C145.1,247.9,146.1,249.5,146.8,250.4z"
							/>
						<path class="st14" d="M138.4,245.5l-1.4,4.3c-0.1,0.2-0.2,0.3-0.4,0.2c-0.1,0-0.1-0.1-0.2-0.2c0-0.1,0-0.2,0-0.2l1.3-4.3
							c0.1,0.2,0.1,0.4,0.2,0.5C138.1,245.8,138.2,245.7,138.4,245.5z"/>
						<path class="st14" d="M132.5,245l-1.1,3.5c0,0.2-0.2,0.3-0.4,0.2c-0.2,0-0.3-0.2-0.2-0.4l1-3.2
							C132,245.2,132.3,245.1,132.5,245z"/>
						<path class="st14" d="M126.8,245.7l-1,3.3c-0.1,0.2-0.2,0.3-0.4,0.2c-0.1,0-0.1-0.1-0.2-0.2c0-0.1,0-0.2,0-0.2l1-3.1
							c0.1,0.1,0.2,0.2,0.3,0.3c0.1,0.1,0.2,0.1,0.2,0C126.7,245.9,126.7,245.8,126.8,245.7z"/>
						<g>
							<path class="st14" d="M143.5,248.2C143.5,248.2,143.5,248.1,143.5,248.2c0.1,2.1-0.2,5-0.5,6c-1.1,3.3-2.3,5.8-2.3,5.8
								c0,0,0.7-2.7,1.6-6c0.7-2.4,0.6-4.6,0.5-6.2c0.1,0.4,0.2,0.9,0.3,1.5l0-0.1C143.2,248.8,143.3,248.5,143.5,248.2z"/>
						</g>
					</g>
				</g>
				<path class="st14" d="M105.4,324.8l7.6,6.9c-1.2,1.7-2.7,3.6-4.1,5.5l-9.8-11.8l30.3-51.6L105.4,324.8z"/>
			</g>
			<g>
				<g>
					<path class="st12" d="M266.9,236.8c-0.2,1.1-0.3,2.9-0.3,3.4c0,0.2-0.2,3.2-0.2,3.5c-0.2,2.6-0.7,4.5-0.7,4.5
						c-1,2-1.4,4.1-1.6,6c-2-1.1-1.9-2.3-1-5.5c0-0.8,0.4-1.4,0.5-1.9c0.1-0.5,0.4-1.3,0.7-1.9c0.1-0.4,0.9-2,1.3-2.7
						c0.3-0.5,0.7-1,0.9-1.3c-1.1,0-1.9-0.6-2-1.4C264.5,238.8,265.8,237.7,266.9,236.8z"/>
					<g>
						<path class="st13" d="M264.6,239c0.1,0,0.2,0.1,0.4,0.1c0.3,0,1-0.6,1.1-0.8c0.1-0.2,0.2-0.6,0.1-0.9
							C265.7,237.8,264.9,238.4,264.6,239z"/>
						<path class="st15" d="M263.6,251.1c0.3,0.4,0.4,0.8,0.3,1.3c-0.1,0.5-0.2,1-0.2,1.5c0.1,0.1,0.2,0.1,0.3,0.2
							c0.2-1.9,0.7-4,1.6-6c0,0,0.5-1.9,0.7-4.5c0-0.3,0.2-3.2,0.2-3.4c0-0.5,0.1-2.3,0.3-3.4c-0.1,0.1-0.3,0.2-0.4,0.4
							c-0.2,1.2-0.2,2.8-0.2,3.1c0,0,0,0.2,0,0.5c0.1,0,0.2,0,0.3,0c-0.1,0.1-0.2,0.3-0.3,0.4c-0.1,0.9-0.1,2.2-0.2,2.5
							c-0.4,4.6-1.3,3.4-1.6,3.1c-0.5-0.5-0.4-1.3-0.3-2c-0.1,0.3-0.3,0.8-0.4,1.2c0,0.4,0.2,0.8,0.5,1c0.1,0.1,0.3,0.2,0.4,0.4
							c0.4,0.4,0.6,0.9,0.4,1.5c-0.8,2.5-1.3,1.9-1.5,1.5c-0.3-0.7-0.4-1.2-0.4-1.8c-0.1,0.2-0.2,0.5-0.2,0.9c0.1,0.3,0.2,0.7,0.4,1
							C263.4,250.7,263.5,250.9,263.6,251.1z"/>
					</g>
				</g>
				<g>
					<g>
						<path class="st16" d="M308.1,190.2v9.2c0,1.5-1,2.9-2.4,3.5l-32,12c-1.4,0.5-2.3,1.8-2.3,3.3v3h-2.5v-3c0-2.5,1.5-4.7,3.9-5.6
							l32-12c0.5-0.2,0.8-0.7,0.8-1.2v-9.2c0-0.7-0.5-1.2-1.2-1.2h-5.6v-2.5h5.6C306.4,186.5,308.1,188.2,308.1,190.2z"/>
					</g>
					<path class="st2" d="M303.8,178.7v18.3c0,1.9-1.6,3.5-3.5,3.5h-69.6c-1.9,0-3.5-1.6-3.5-3.5v-18.3c0-1.9,1.6-3.5,3.5-3.5h69.6
						C302.2,175.2,303.8,176.7,303.8,178.7z"/>
					<g>
						<path class="st2" d="M266.1,222.1l0.4,35c1.1,0.3,2.4,0.5,3.7,0.5s2.6-0.2,3.7-0.5l0.4-35c0-0.5-0.4-0.9-0.9-0.9H267
							C266.5,221.1,266.1,221.6,266.1,222.1z M270.1,256c-0.7,0-1.3-0.6-1.3-1.3s0.6-1.3,1.3-1.3s1.3,0.6,1.3,1.3
							S270.9,256,270.1,256z"/>
					</g>
				</g>
				<path class="st12" d="M276.1,259.6h-11.9c-0.2-1.8-0.6-6.8,1.6-11.5c0.4-1.7,0.6-3.3,0.6-4.8c0-0.7,0.5-6.6,0.5-6.6
					c0.1-1.1,1-1.9,1.9-1.9c1,0,1.8,0.8,1.9,1.9c0,0,0.4,6.8,0.6,7.8c0.5,2.7,1.7,4.9,2.6,5.7l0.1-12.4c1.5,2.7,3.5,6.6,3.6,7.8
					C277.8,247.3,276.3,258,276.1,259.6z"/>
				<polygon class="st12" points="276.1,259.6 272.6,317.1 253.7,345.4 235.8,325 253.4,308.8 264.6,263.2 264.2,259.6 				"/>
				<path class="st14" d="M276.1,259.6l-3.5,57.5l-18.9,28.3c-4-4.5-0.8-0.9-18-20.4l2-1.9l20,8.5l11.5-16.1L276.1,259.6z"/>
				<g>
					<path class="st13" d="M268.4,238.7c-0.4-0.1-1.1-0.6-1.2-2.4c0,0,0.4-0.9,1.5-0.9c1.1,0,1.5,0.9,1.5,0.9c0,2.2-0.9,2.5-1.3,2.5
						C268.9,238.7,268.6,238.7,268.4,238.7z"/>
				</g>
			</g>
			<g>
				<g>
					<g>
						<path class="st12" d="M196.8,321.7c-4.4,2.8-7.6,6.4-8.2,8.7c-0.3,1.2-0.3,3.4-0.2,5.1h-31c0-0.8,0.2-3-2-6l23.1-52.6l3.1-2.7
							c0,0,6.1,6.6,7,7.9c1,1.3,2,4.8,2,7.8l5.8,6.3l-1,4.1c0,0,2.1,4,2.8,5.3c0.7,1.3,0.5,4.4,0.9,5.9c0.5,1.5,0.9,1.7,1.3,3.7
							S201.2,318.9,196.8,321.7z"/>
						<path class="st17" d="M191.7,290.9l-0.9,2.3c0,0-0.9-1-1.1-2.4c-0.2-1.4,0.3-5.5,0.3-5.5c0.4,1.4,0.7,3.1,0.7,4.6L191.7,290.9
							z"/>
						<path class="st14" d="M184.6,314.1c-0.1-0.9-0.9-3.2-2.5-4.6c-0.9-0.8-2.3-2.4-2.3-4.8c-0.1-5.7-8.8-3.6-4.5,5.6
							c1.4,2.9,3.5,4.4,5.4,5c0.8,0.3,1.6,0.7,2.2,1.4c2.6,2.6,6.2,7.5,5.7,13.7c0.5-2.2,3.8-5.9,8.2-8.7c2.9-1.8,3.7-3.2,3.8-4.5
							C200.5,317.1,191.6,317.8,184.6,314.1z"/>
						<path class="st18" d="M137.6,299.4c2.2,9.1,6.2,12.9,10.6,19.5c4.3,6.6,7.3,10.5,7.3,10.5c8-1.8,19.2-1.4,19.2-1.4
							s0.7-1.5,0.4-3.5c-3.1-21.3,0.3-22.3,0.6-22.6c3-2.2,7.9,4.3,7.9,4.3l4.3-4.8c-0.5-0.9-6.5-10.1-9.1-16.3
							c-2.2-5.4,3.6-11.4,3.6-11.4s-13.8-15.5-37.8,5.6C144.6,279.3,134.6,287.2,137.6,299.4z"/>
					</g>
				</g>
				<g>
					<path class="st19" d="M201.7,272.2L201.7,272.2c0,0-0.1-6.7-6-7.8c-2.4-0.4-8,0.9-15,5.8l2,19
						C182.8,289.2,202.4,282.2,201.7,272.2z"/>
					<path class="st20" d="M182.8,289.2l-1.1-10.5c4.9-1.7,16.8-6.8,14.7-14.2c5.2,1.4,5.4,7.7,5.4,7.7l0,0
						C202.4,282.2,182.8,289.2,182.8,289.2z"/>
					<path class="st4" d="M148.8,319.9c0,0-22.8-23.3-5.1-42.6c17.7-19.3,37.1-7,37.1-7s3.1,1.8,3.8,5.3c2.5,14-9.4,29.3-23.5,42.4
						C156.8,321.8,151.6,321.8,148.8,319.9z"/>
					<path class="st19" d="M162.1,299c-1.2,0-2.2,1-2.2,2.2s1,2.2,2.2,2.2c1.2,0,2.2-1,2.2-2.2S163.3,299,162.1,299z M162.1,302.6
						c-0.7,0-1.3-0.6-1.3-1.3c0-0.7,0.6-1.3,1.3-1.3c0.7,0,1.3,0.6,1.3,1.3C163.4,302,162.8,302.6,162.1,302.6z"/>
					<path class="st18" d="M163.4,301.2c0,0.7-0.6,1.3-1.3,1.3c-0.7,0-1.3-0.6-1.3-1.3c0-0.7,0.6-1.3,1.3-1.3
						C162.8,299.9,163.4,300.5,163.4,301.2z"/>
					<path class="st19" d="M172,283.9c-1.2,0-2.2,1-2.2,2.2c0,1.2,1,2.2,2.2,2.2c1.2,0,2.2-1,2.2-2.2
						C174.1,284.8,173.2,283.9,172,283.9z M172,287.4c-0.7,0-1.3-0.6-1.3-1.3c0-0.7,0.6-1.3,1.3-1.3s1.3,0.6,1.3,1.3
						C173.3,286.8,172.7,287.4,172,287.4z"/>
					<path class="st18" d="M173.3,286c0,0.7-0.6,1.3-1.3,1.3s-1.3-0.6-1.3-1.3c0-0.7,0.6-1.3,1.3-1.3S173.3,285.3,173.3,286z"/>
				</g>
			</g>
			<path class="st4" d="M256.8,347.5c-7.8,9.3-18.3,21.9-32.3,38.7c-6.1-30.3-14.3-41.4-14.6-41.7v0l25.4-21.3L256.8,347.5z"/>
			<g>
				<path class="st18" d="M116.6,745.3c0,0-1.3,5.1,1.8,7.1c2.8,1.8,5.9,3.8,5.9,3.8v2.5l3,4.3c10.3,6.8,18.8,0.5,18.8,0.5v-6.9
					c-7.9,4.9-17,2.6-20.4-1.3C120.9,749.6,116.9,753.5,116.6,745.3z"/>
				<path class="st3" d="M116.6,745.4C116.6,745.4,116.6,745.3,116.6,745.4c0.1,1.2,0.2,2.2,0.4,3.1c1.2,4,4.7,2,8.7,6.9
					c3.1,3.7,11.4,6,19,2.1c0.4-0.2,0.9-0.5,1.3-0.7c0.7-1.9,1-9-0.2-12.9c-12.3-6.7-17-9.3-20.3-10.4c-2-0.6-4.2,0.1-5.4,1.8
					C118.3,737.6,116.9,741.1,116.6,745.4z"/>
				<path class="st18" d="M123,740.3l14.6,13.6l9-4.4c-0.1-2.1-0.3-4.2-0.8-5.8c-12.3-6.7-17-9.3-20.3-10.4
					C123.9,732.8,123,740.3,123,740.3z"/>
			</g>
			<path class="st19" d="M256.8,347.5c-13.9,16.7-29.5,35.3-32.3,38.7c-6.1-30.3-14.3-41.4-14.6-41.7v0l1.8-1.5
				c0.8,1,7.4,10.8,13,33.8c11.7-13.5,12.8-14.8,28.7-33.2L256.8,347.5z"/>
			<path class="st4" d="M88.8,347.5c7.8,9.3,18.3,21.9,32.3,38.7c6.1-30.3,14.3-41.4,14.6-41.7v0l-25.4-21.3L88.8,347.5z"/>
			<g>
				<path class="st4" d="M224.5,386.2c-4.1,24.6-6.1,36.7-7.1,42.9h-89.2c-1-6.2-3.1-18.3-7.1-42.9c6.1-30.7,14.6-41.7,14.6-41.7
					s5.4,0.3,10.7,0.6l2.8-5.2c1.1-0.5,2.3-0.9,3.6-1.3l1.8-3.8c7.9-4.1,28.6-4.1,36.5,0l1.8,3.8c1.3,0.4,2.5,0.8,3.6,1.3l2.8,5.2
					c5.3-0.3,10.7-0.6,10.7-0.6S218.4,355.5,224.5,386.2z"/>
			</g>
			<path class="st19" d="M88.8,347.5c13.9,16.7,29.5,35.3,32.3,38.7c6.1-30.3,14.3-41.4,14.6-41.7v0l-1.8-1.5
				c-0.8,1-7.4,10.8-13,33.8c-11.7-13.5-12.8-14.8-28.7-33.2L88.8,347.5z"/>
			<path class="st3" d="M215.7,457.6c0.4-11.1,1.1-20.9,2.1-30.4l-17.2-6.5c2.3-27.1,1-11.5,6.5-76.1l-6.5,0.4
				c-5.6,41.4-6.9,50.6-7.8,57.4h-39.8c-0.9-6.8-2.2-16-7.8-57.4l-6.5-0.4c5.5,64.6,4.2,49,6.5,76.1l-17.2,6.5
				c1,9.5,1.6,19.3,2.1,30.4c0.8,22.6,0.6,50.7-0.4,93.2h-0.2L124.4,740l13.6,9.5l8.7-4.2l26.1-194.4l43.2-31.2
				C215,477.2,214.8,480.3,215.7,457.6z"/>
			<g>
				<g>
					<path class="st18" d="M192.2,667.6c2,0.2,10.8,0.7,14.5-1.3c3.8-2,6-2,6-2c5.5,0,7.3-0.9,7.8-1.9c0.5-1-0.2-3.3-0.2-3.3
						c1.2,1.2,2.2,4.9,0.7,6.5c-1.5,1.7-9.8,1.8-9.8,1.8l-0.1,4.3c-2.1,1.7-4.2,3.1-6.8,3.9c-8.4,2.4-13.7,0.8-16.2-0.2
						c-0.8-0.3-1.3-1.1-1.3-1.9v-5.9c0-0.7,0.1-1.2,0.3-1.7l0,0C187.1,665.9,187.2,667,192.2,667.6z"/>
					<path class="st3" d="M220.5,662.4c-0.5,1-2.3,1.9-7.8,1.9c0,0-2.2-0.1-6,2c-3.8,2-12.5,1.6-14.5,1.3c-2.5-0.3-3.7-0.7-4.4-1.1
						c-0.7-0.4-0.7-0.6-0.7-0.6s-1.7-8.7,2.6-17.4c3.7-3.5,14.5,7,18.9-1.7c0.4-0.7,0.4-1.5,0.2-2.2c3.5,4.6,4.7,6.7,6.6,8.7
						c3.1,0.9,4.7,3.2,4.9,5.9C220.3,659.1,221,661.4,220.5,662.4z"/>
					<path class="st18" d="M215.7,653.4l-20.5,6.1l-7.9-3.7c0.4-2.3,1.2-4.8,2.4-7.3c3.8-3.5,21.2-1,22,0c1.5,2.1,2.5,3.4,3.7,4.7
						C215.5,653.3,215.6,653.4,215.7,653.4z"/>
				</g>
				<g>
					<g>
						<polygon class="st3" points="214,651.3 196.1,655.3 187.5,651.1 192.2,585.9 172.8,550.9 165.7,519.7 216,519.7 226.4,573.9 
													"/>
					</g>
				</g>
				<path class="st18" d="M226.4,573.9L214,651.3l-17.9,4l7.6-61.8l-11.6-7.6l-19.3-35l-26.1,194.4l-8.7,4.2l27.7-229.9
					c50.7,0.1,34.8-98.9,34.8-98.9l17.2,6.5c-1,9.5-1.6,19.3-2.1,30.4c-0.8,22.6-0.7,19.5,0.3,62L226.4,573.9z"/>
			</g>
		</g>
	</g>
</g>
</svg>
