<?xml version="1.0" encoding="utf-8"?>
<!-- Generator: Adobe Illustrator 25.4.1, SVG Export Plug-In . SVG Version: 6.00 Build 0)  -->
<svg version="1.1" id="Layer_1" xmlns="http://www.w3.org/2000/svg" xmlns:xlink="http://www.w3.org/1999/xlink" x="0px" y="0px"
	 viewBox="0 0 1000 500" style="enable-background:new 0 0 1000 500;" xml:space="preserve">
<style type="text/css">
	.st0{fill:url(#SVGID_1_);}
	.st1{fill:#9BBECD;}
	.st2{fill:#0D80B5;}
	.st3{fill:url(#SVGID_00000176039936110963140510000007724436390869930430_);}
	.st4{opacity:0.48;fill:#3C6174;enable-background:new    ;}
	.st5{opacity:0.76;fill:#3C6174;enable-background:new    ;}
	.st6{fill:none;stroke:#FFFFFF;stroke-width:54.6987;stroke-miterlimit:10;}
	.st7{fill:none;stroke:#FFFFFF;stroke-width:54.6987;stroke-linecap:round;stroke-miterlimit:10;}
	.st8{fill:#C11021;}
	.st9{fill:#0388C3;}
	.st10{fill:#F2F3F4;}
	.st11{fill:#DADDE0;}
	.st12{fill:#04688F;}
	.st13{fill:#233033;}
	.st14{fill:#FFFFFF;}
	.st15{fill:#C0C0C0;}
	.st16{fill:#B4B4B4;}
	.st17{fill:#D69F96;}
	.st18{fill:#E8AFA3;}
	.st19{fill:#151924;}
	.st20{fill:#090917;}
	.st21{fill:#1B3C6D;}
	.st22{fill:#D50000;}
	.st23{fill:#EE0000;}
	.st24{fill:#C3D0DB;}
	.st25{fill:none;stroke:#1B3C6D;stroke-width:15.5601;stroke-miterlimit:10;}
	.st26{fill:none;stroke:#30527A;stroke-width:9.6438;stroke-linecap:round;stroke-miterlimit:10;}
	.st27{fill:#FFFFFF;stroke:#1B3C6D;stroke-width:10.3734;stroke-miterlimit:10;}
	.st28{fill:#637D84;}
	.st29{fill:#869193;}
	.st30{fill:#E6E7E8;}
	
		.st31{opacity:0.53;clip-path:url(#SVGID_00000174596239536869467430000011579900524585823654_);fill:#BCBCBC;enable-background:new    ;}
	.st32{fill:#F5F6F7;}
</style>
<g>
	
		<radialGradient id="SVGID_1_" cx="945.5451" cy="-1192.5417" r="332.9392" gradientTransform="matrix(2.2369 0 0 -1.5303 -1616.09 -1582.5966)" gradientUnits="userSpaceOnUse">
		<stop  offset="1.583810e-02" style="stop-color:#DDEFF2"/>
		<stop  offset="0.1621" style="stop-color:#D8EBEE"/>
		<stop  offset="0.3329" style="stop-color:#CAE0E4"/>
		<stop  offset="0.5161" style="stop-color:#B2CED3"/>
		<stop  offset="0.7079" style="stop-color:#92B4BB"/>
		<stop  offset="0.9046" style="stop-color:#68939D"/>
		<stop  offset="0.9995" style="stop-color:#51818C"/>
	</radialGradient>
	<rect x="-5" y="-77.5" class="st0" width="1008" height="639.7"/>
	<g>
		<ellipse class="st1" cx="118.2" cy="318.8" rx="38" ry="38"/>
		<ellipse class="st1" cx="322.7" cy="318.8" rx="38" ry="38"/>
		<ellipse class="st1" cx="186.9" cy="300.4" rx="44.1" ry="44.1"/>
		
			<ellipse transform="matrix(3.835903e-02 -0.9993 0.9993 3.835903e-02 -71.966 525.9985)" class="st1" cx="237.3" cy="300.4" rx="23.9" ry="23.9"/>
		<ellipse class="st1" cx="286.8" cy="309.4" rx="23.9" ry="23.9"/>
		<ellipse class="st1" cx="356.6" cy="316.2" rx="23.9" ry="23.9"/>
	</g>
	<ellipse class="st2" cx="946.7" cy="331.8" rx="10.7" ry="10.7"/>
	
		<linearGradient id="SVGID_00000080925408842441191060000011903704891273422735_" gradientUnits="userSpaceOnUse" x1="499" y1="-62.1" x2="499" y2="77.9" gradientTransform="matrix(1 0 0 -1 0 500)">
		<stop  offset="0" style="stop-color:#2C495E"/>
		<stop  offset="0.3731" style="stop-color:#3C6274"/>
		<stop  offset="0.9995" style="stop-color:#5D93A1"/>
	</linearGradient>
	
		<rect x="-5" y="422.1" style="fill:url(#SVGID_00000080925408842441191060000011903704891273422735_);" width="1008" height="140"/>
	<ellipse class="st4" cx="227.3" cy="461.6" rx="178.3" ry="14.9"/>
	<ellipse class="st4" cx="555.1" cy="460.2" rx="124.2" ry="10"/>
	<ellipse class="st5" cx="771.1" cy="487.4" rx="98.5" ry="10"/>
	<path class="st6" d="M642.4,121.4v195.1c0,8.4-6.8,15.3-15.3,15.3H336c-8.4,0-15.3-6.8-15.3-15.3"/>
	<path class="st7" d="M704.4,121.4v195.1c0,8.4,6.8,15.3,15.3,15.3h226.9"/>
	<path class="st8" d="M649.3,253.4h-14c-1.4,0-2.6-1.2-2.6-2.6v-5.3c0-1.4,1.2-2.6,2.6-2.6h14c1.4,0,2.6,1.2,2.6,2.6v5.3
		C651.9,252.2,650.7,253.4,649.3,253.4z"/>
	<path class="st9" d="M711.4,253.4h-14c-1.4,0-2.6-1.2-2.6-2.6v-5.3c0-1.4,1.2-2.6,2.6-2.6h14c1.4,0,2.6,1.2,2.6,2.6v5.3
		C714,252.2,712.8,253.4,711.4,253.4z"/>
	<g>
		<g>
			
				<ellipse transform="matrix(0.8661 -0.4998 0.4998 0.8661 97.5918 334.19)" class="st2" cx="672.7" cy="-15.1" rx="20.2" ry="20.2"/>
			<rect x="600.1" y="14.5" class="st10" width="145.1" height="224.8"/>
			<rect x="600.1" y="161.8" class="st10" width="145.1" height="77.4"/>
			<rect x="600.1" y="158.4" class="st11" width="145.1" height="5.3"/>
			<g>
				<g>
					
						<ellipse transform="matrix(0.1227 -0.9924 0.9924 0.1227 451.8181 881.6145)" class="st12" cx="724.6" cy="185.2" rx="5.7" ry="5.7"/>
					
						<ellipse transform="matrix(0.9924 -0.1227 0.1227 0.9924 -20.1326 90.4858)" class="st12" cx="724.6" cy="208.7" rx="5.7" ry="5.7"/>
				</g>
				<circle class="st12" cx="620.7" cy="196.9" r="5.7"/>
				<path class="st13" d="M699.4,216.9h-55.3c-5.8,0-10.6-4.7-10.6-10.6v-18.7c0-5.8,4.7-10.6,10.6-10.6h55.3
					c5.8,0,10.6,4.7,10.6,10.6v18.7C710,212.1,705.3,216.9,699.4,216.9z"/>
			</g>
			<path class="st14" d="M689.3,14.5v-27.4c0-9.2-7.5-16.7-16.7-16.7l0,0c-9.2,0-16.7,7.5-16.7,16.7v27.4H689.3z"/>
		</g>
		<rect x="609.1" y="29.1" class="st13" width="127.1" height="121.8"/>
		<polygon class="st14" points="696.8,169.1 609.1,150.9 609.1,29.1 696.8,47.3 		"/>
	</g>
	<g>
		<g>
			<polygon class="st15" points="699.3,92.3 705.8,98.8 706.3,93.4 			"/>
			<path class="st15" d="M707.7,80.3l-7.5,4.6l7.1,1.1l-1.1,13l7.9-1.1l34.6,19.2c0.4,0.2,1,0.2,1.4-0.2c1.3-1.4,2.2-3,2.8-5.1
				c0.1-0.5-0.1-1-0.5-1.3l-34.6-19.2l-5.5-8.6L707.7,80.3z"/>
		</g>
		
			<rect x="707.8" y="92.8" transform="matrix(8.579478e-02 -0.9963 0.9963 8.579478e-02 555.6039 792.7753)" class="st16" width="4" height="1.6"/>
	</g>
	<g>
		<path class="st17" d="M781.5,150.8c8.3,7.5,25.3,15.1,31.7,20.9c5,4.5,8.3,25.9,2,29.8c-6.3,4-11.3,6.4-15.5,2.8
			c-1.7-1.4-32.7-29.7-39.7-40.9c-10.4-16.8-21.3-39.3-21.3-39.3l13.8-6.8C752.4,117.2,773.1,143.3,781.5,150.8z"/>
		<path class="st18" d="M727.1,194c0,0-10.9,4.4-11.9,3.7s-8.2-38.9-8.2-38.9l-13.2,2.3c0,0-1.4,40.2,0.7,52.6
			c2.1,12.4,12.1,9.1,20.2,7.8c7.9-1.3,19.8-4,19.8-4L727.1,194z"/>
		<path class="st14" d="M766.9,178.2c0,0-7.7,0-11.6,1.7c-5.3,2.3-32.5,14.7-32.5,14.7l7.5,28.3c0,0,12.5-2.1,13.3,0.4
			s1.7,27.4,1.2,34.9c-0.4,7.5-2.1,28.7-2.1,28.7l76.5,0.4c0,0-1.7-27-0.8-43.7c1-18,7.7-50,4.4-60.8s-19.9-19.5-19.9-19.5
			l-12.3,13.5L766.9,178.2z"/>
		<path class="st18" d="M763.8,127.5c0,0-6.2,10-6.9,18.3c-0.8,9.5,0.3,18.2,1.2,21.9s4.2,4.2,5.7,4.2s3.3-0.7,3.3-0.7l-0.2,7
			c0,0,5.9,3.6,13.6,3.1c7.7-0.5,10.1-2.4,10.1-2.4l-0.5-12L763.8,127.5z"/>
		<path class="st19" d="M766.1,147.1c0,0,3.6,9.2,6.5,13.8s6.9,6,6.9,6h10.6c0,0,3.5-2.2,6.6-10.8
			C799.7,147.5,766.1,147.1,766.1,147.1z"/>
		<path class="st20" d="M737.7,473.8c0,0-14.5,4.9-17.8,8.4c-1.9,2.1-1,5.2-1,5.2h40.6c0,0,0.5-4.3,0.5-7.4s-2.3-5-2.3-5
			L737.7,473.8z"/>
		<path class="st20" d="M800.5,475.4c0,0-1.1,3.7-1.1,7.5c0,3.2,0.3,4.2,0.9,4.5s22.9,0,22.9,0s3.1-0.7,3.5-4.9
			c0.3-4.2-6.3-8.6-6.3-8.6L800.5,475.4z"/>
		<path class="st21" d="M801.5,179.3l-12,35l-25-36.3c0,0-2.7-0.3-6,0.5c-1.9,0.4-3.3,1.2-3.3,1.2s12,43.7,12.3,53.2
			c0.3,12.2-10.4,27.2-14.8,33c-4.4,5.8-9.8,12.4-9.8,12.4s-5.7,74.5-6.5,126.5s-0.8,70.2-0.8,70.2l22.5,0.8c0,0,8.9-72.5,10.1-81.8
			c1.2-9.3,10.9-53.1,10.9-53.1s8.1,43.8,9.7,51.2c1.6,7.4,11.3,84,11.3,84l20.7-1.2c0,0,2.9-89.8,2.6-103.8
			c-0.4-14-3.9-95.8-3.9-95.8s-10.1-14-10.9-34.1c-0.8-20.2,2.7-57.9,2.7-57.9C808.1,181.9,804.9,180.2,801.5,179.3z"/>
		<path d="M692.2,171c0,0,0.5-9.4,0.2-17c-0.2-4.8-2-7.2-2.2-8.3c-1.3-6,1-21.2,5.6-22.5c6.8-1.9,4.7,10.2,7,13.7
			c0,0,0.7-2.4,1.4-2.3c2,0.2,1.7,3.9,1.5,5c-0.5,3.6-0.1,9-0.1,10.2c0,1.5,4.5,19.4,4.5,19.4S696.6,172.8,692.2,171z"/>
		<path d="M759.8,125.9c0,0-8.6-10.3-11.8-18.4c-3-7.6-8.4-9.1-16.3-9.6c-2.1-0.1-1.8,2.9-2.2,5.2c-0.5,2.3-2.4,1.5-2.4,2.6
			c0.1,2.4,5.7,8.6,6.4,10c4.8,8,11,21.7,11,21.7L759.8,125.9z"/>
		<g>
			<path class="st22" d="M758.3,128c0,0-3.5-0.8-4.5,1.3s-1.2,7.6,6.2,16.3s18,13.3,30.6,12.3c12.7-1,14.9-7.6,15.3-9.2
				c0.4-1.6-0.6-3.5-2.2-4.7C802.2,142.9,758.3,128,758.3,128z"/>
			<path class="st23" d="M756.5,129.8c-0.7-2.8,2.8-8.6,7.7-12.9c3.2-2.8,5.8-2.1,5.8-2.1s1-3.1,5-3.5s10.4-0.6,12.1-0.2
				c1.7,0.4,3.2,2.2,3.2,2.2s6.1,2.3,10.7,9.7c4.5,7.2,3,22.1,2.8,23.1c-0.1,1-4.5,7.7-17.4,7.2
				C772.3,152.8,758.4,139.2,756.5,129.8z"/>
			<path class="st22" d="M790.3,113.4c0,0-1.5-1.8-3.2-2.2c-1.7-0.4-8.1-0.2-12.1,0.2c-3.8,0.4-4.8,3.1-5,3.4
				c1.7,2.1,3.7,4.8,5.2,7.4c4.4,8,5.4,22.2,5.8,22c0.4-0.2,1.2-9.6-1.9-18.5c-3.1-8.9-6.7-10.2-5.7-11.8c0.7-1,9.5-1.7,12-1.8
				c1.7,0,4.2,1.8,3.6,1.9c-0.9,0.2-4.2,0.3-3.1,0.8c1.1,0.5,2.5,0,4,0.7s7.5,4.8,10.1,11c3.1,7.3,3.5,15.7,4.1,17.6
				c0.3-4.5,0.6-15.3-3-21.1C796.4,115.7,790.3,113.4,790.3,113.4z"/>
			<path class="st22" d="M767.4,145.7c9.1,7.8,16.1,9,19.3,9.1c12.9,0.6,17-7.5,17.1-8.6c0.1-1,1.5-14.7-2.3-22.2
				c0.2,1.3-0.9,1.6-1.1,2.8c-0.1,0.9,0.7,2.4,0.9,4c1.1,7.6-4.9,20.6-17,20.6C775.9,151.4,770.3,147.3,767.4,145.7z"/>
		</g>
	</g>
	<g>
		<path class="st24" d="M468.4,343.7h-31.7c-4.7,0-8.5-3.8-8.5-8.5v-7.7c0-4.7,3.8-8.5,8.5-8.5h31.7c4.7,0,8.5,3.8,8.5,8.5v7.7
			C476.8,339.9,473,343.7,468.4,343.7z"/>
		<path class="st14" d="M464.5,345.8h-24c-4.9,0-8.9-4-8.9-8.9v-11c0-4.9,4-8.9,8.9-8.9h24c4.9,0,8.9,4,8.9,8.9v11
			C473.4,341.7,469.4,345.8,464.5,345.8z"/>
		<g>
			<path class="st25" d="M463.7,318.7l-6-3.5c-3.3-1.9-7.3-1.9-10.5,0l-6,3.5c-3.3,1.9-5.3,5.3-5.3,9.1v6.9c0,3.8,2,7.2,5.3,9.1
				l6,3.5c3.3,1.9,7.3,1.9,10.5,0l6-3.5c3.3-1.9,5.3-5.3,5.3-9.1v-6.9C469,324.1,467,320.6,463.7,318.7z"/>
			<line class="st26" x1="452.5" y1="313.6" x2="452.5" y2="349"/>
			<line class="st26" x1="467.8" y1="322.5" x2="437.1" y2="340.2"/>
			<line class="st26" x1="437.1" y1="322.5" x2="467.8" y2="340.2"/>
			<path class="st27" d="M455.5,333c-1,1.7-3.1,2.2-4.7,1.3c-1.7-1-2.2-3.1-1.3-4.7c1-1.7,3.1-2.2,4.7-1.3
				C455.9,329.3,456.4,331.4,455.5,333z"/>
		</g>
	</g>
	<g>
		<path class="st28" d="M434.3,332.5c0.1-0.1,0.1-0.1,0.2-0.2l0,0l7.9-6.2c1-0.8,2.6-0.5,3.7,0.6s1.3,2.7,0.5,3.7l-5,6l23.7,24.2
			c1,1,0.9,2.5,0,3.5c-1,1-2.5,0.9-3.5,0L434.2,336C433.3,335,433.3,333.5,434.3,332.5z"/>
		<path class="st23" d="M444.6,349.5l4.2-4.1c0.5-0.5,0.5-1.3,0-1.7l-0.6-0.6c-0.6-0.6-0.6-1.7,0-2.3l3.2-3.1l0,0l1.9-1.9
			c0.4-0.4,1-0.5,1.4-0.2c0.6,0.4-0.2,3-0.2,3l41.1,42c0.6,0.6,0.6,1.7,0,2.3l-2,1.9c-0.6,0.6-1.7,0.6-2.3,0l-26.6-27.2l-4,2.7
			c-0.4,0.4-1.1,0.4-1.6,0l-1.2-1.2c-0.4-0.4-0.9-1.7-0.5-2.1c0,0,2.7-2.7,2.6-2.9l-1.6-2.8c-0.6-0.6-1.6-0.6-2.3,0l-5.7,4.4
			c-1,0.9-2.5,0.9-3.4,0l-2.7-2.7C443.6,352,443.7,350.5,444.6,349.5z"/>
		<path class="st28" d="M456.8,357.7l2.9-2.8c1-1,1-2.6,0-3.6l0,0c-1-1-2.6-1-3.6,0l-2.9,2.8c-1,1-1,2.6,0,3.6l0,0
			C454.2,358.6,455.8,358.6,456.8,357.7z"/>
	</g>
	<g>
		<path class="st18" d="M515.3,242.1c0,0-5.8,7.3-4.4,13.5c1.4,6.2,3.3,6.4,3.6,9.9c0.2,1.7-0.7,10.3,0.7,11.5
			c0.6,0.5,3.7-0.4,3.7-0.4s1.9,3.6,3.7,6.3c1.8,2.7,4.3,7.2,8,6.4c3.7-0.8,7.2-5.5,8.2-6.7c0.9-1,1.5-0.2,2.5,0.4s7.7,8.1,7.7,8.1
			l16-18.9c0,0-8.2-3.9-11.5-7.6c-3.2-3.7-4.2-16-12.4-18.9S524.4,236.3,515.3,242.1z"/>
		<path class="st19" d="M517.8,250.1c5.5-0.2,10.6,3.8,11.5,5.2c0.9,1.4,3.4,5.2,4.4,3.9s-1-5.8,1.3-6.6c2.2-0.8,5.2,1,6.3,3.7
			c1,2.7,0.8,2.9,2.1,4.4s5.7,3.5,7.4,3.9s3.2,1.7,3.5,0.6c0.2-1.2-0.2-3.5,0.5-5.9s2.1-7.1-0.3-14.4c-2.4-7.3-10.2-16.1-24.7-12.5
			s-16.6,5.7-18.1,8.8c-1.5,3.1,0.2,10.4,0.2,10.4S514.2,250.3,517.8,250.1z"/>
		<g>
			<path class="st23" d="M557.4,248.4c0,0-0.7-13-7.9-19.3c-9.9-8.7-24.9-7.6-31.9-4.7c-5.8,2.4-7.9,6-8,7c0,0.7,0.1,1.3,0.1,1.3
				c-2.2,2.9-2.2,5.1-2.2,8.5s0.2,9.2,0.2,9.2L557.4,248.4z"/>
			<path class="st22" d="M558.9,250.2c-2.4,2.3-6.7,2.2-13,2.3c-12.5,0.4-22.3,1.3-27.6,2.5c-5.3,1.2-11.6,4.4-16.3,2.3
				c-2.2-1,1.6-3.5,3-4.8s2.4-3.9,2.7-4.1c0,0,0,0.2,0,0.4s0.3,0.3,0.8,0.4c2.8,0.5,13.2,0,23.3-0.3c11.8-0.2,23.3-0.5,24.7-1.7
				c0.5-0.4,0.6-1,0.6-1.1v-0.3C557.1,245.8,561.6,247.6,558.9,250.2z"/>
			<path class="st22" d="M507.5,241.1c0-3.4,0-5.6,2.2-8.5c0,0-0.2-0.6-0.1-1.3c0.1-1,2.2-4.7,8-7c7-2.9,22-3.9,31.9,4.7
				c7.2,6.3,7.9,19.3,7.9,19.3l-20.6,0.8c0.2-0.1,0.3-0.1,0.6-0.2c5.5-1.3,9.5-6.2,10.8-8.9c1.2-2.7,0.6-10.4-7-12.7
				c-7.5-2.3-14.5-1.6-21.2,1c-5.2,2-8.6,5.3-10.3,9.8c-1.6,4-1.9,8.8-1.9,10.6C507.6,246.8,507.5,243.4,507.5,241.1z"/>
		</g>
		<path class="st18" d="M543.6,292.3l-16.4,18.2c0,0-35.2,7-40.5,8.1s-19-4.6-20.4-5.1c-5.6-2.1-10.8-3.4-10.6-1.5
			c0.2,1.8,14.3,7.6,14.3,9.7c0,1.2-3.8-1-5.6,0c-2.7,1.3,2,1.3,8.1,4.7c2.9,1.6,5.8,2.1,8.8,1.6c3.9-0.7,5.9-0.4,9.4-0.3
			c5.5,0.3,47.3,2,52.9-0.7s25.2-20.2,24.4-24.9C567.1,297.3,543.6,292.3,543.6,292.3z"/>
		<path class="st20" d="M515.8,434.6c0,0-5.3,9-9.6,10.2c-4.3,1.2-12.4,0.6-15.5,4.3s-3.7,8.4-2.1,8.7c1.6,0.3,48,0.5,49.4-0.5
			s1.7-7.3,1.1-12.2c-0.6-4.9-2.5-8-3.1-10.4s-1.2-3.3-1.2-3.3L515.8,434.6z"/>
		<path class="st20" d="M635.6,411.8c0,0,5.8-1.4,7.8-2.6c4.7-2.7,13.2-3.7,14.5-0.7c1.1,2.4,5.6,28.1,4.8,35.4s-10.3,13.7-16,13.7
			c-5.8,0-4.2-6.4-3.1-10.5c1.1-4.1-1.3-8.5-2-9.7c-1.6-2.6-5.4-5.9-5.4-5.9L635.6,411.8z"/>
		<path class="st18" d="M548.6,325.5c0,0-8,15.6-9.8,17.4s-16,6.2-26.5,11c-10.4,4.7-22.3,6.7-23.6,6.5c-10.5-1.6-13.4-0.6-13.4-0.6
			l2.3,2.3c-2,0.6-4,1.4-5.6,1.4c-2,0-2-1.3-2.4-1.1c-1.8,0.8,4.1,13,8.1,13.3c3.3,0.2,5.2-0.3,8.6-1.5c4.4-1.6,3.1-2.6,12.7-3.9
			c14.9-2,49.2-6.8,55.5-10.6c2.9-1.8,15.7-23,16-26.6C570.8,329.5,548.6,325.5,548.6,325.5z"/>
		<path class="st14" d="M528.9,306.7l17.3-18.8c0,0,11.4-17.7,22.1-15.1c10.7,2.6,24.6,10.7,36.1,29.6s12.9,29.8,12.9,29.8
			s-11.1,19.1-19.9,23.2c-7.2,3.4-23.4-21.9-23.4-21.9l-5,7.8l-23-12.9l3.3-14.2l-0.9,11.4L528.9,306.7z"/>
		<path class="st21" d="M547.9,318.1c0,0,7.1-18.7,6.8-20.3c-1-4.7,0.2-15.6,5.2-18.5c5.1-2.9,12.7-1.7,17.5,2
			c19.8,15.1,24,32,25,42.9c1.3,14.9-2,24.8-8.3,24.1c-6.3-0.7-19.9-17.6-19.9-17.6l-5.1,10.5l-1.8-1l-3.3,6.2
			c0,0,6.8,10.4,5.4,10.7c-1.5,0.2-67.3,1-69.5,4.4s-3.9,7.3-1,16.9c2.9,9.7,14.8,57.8,14.8,57.8l23.2-1.7l-7-45.7l38.5,8
			c0,0-16.5,42.6-16.2,47.2c0.2,4.6,7.5,13.8,12.8,13.8s73.2-24.1,73.2-24.1s0.4-6.5-0.4-14.2c-0.5-4.7-1.7-8-1.7-8l-34.5,7.7
			c0,0,24.4-21.3,26.6-31.9c2.2-10.6,7.3-14.8-6.3-47.9c-13.6-33.2-22-43.7-35-56c-10.2-9.6-18-10.8-24.6-9.3
			c-8.7,1.9-11.8,10.4-13.2,17.3c-1.1,5.2-0.9,16.8-0.9,16.8l-4.1,2.4L547.9,318.1z"/>
		<path class="st18" d="M493.7,359.8c4.7-0.9,12-2.8,18.6-5.8c10.5-4.8,24.7-9.2,26.5-11c0.2-0.2,0.5-0.6,0.8-1.1l21.7,8.6
			c-2.9,4.6-5.7,8.5-6.9,9.3c-6.3,3.8-40.6,8.6-55.5,10.6c-1.3,0.2-2.4,0.3-3.4,0.5L493.7,359.8z"/>
	</g>
	<g>
		<path class="st12" d="M350,158h-9.4c-15.5,0-28.2,12.6-28.4,28.1h-0.6c-0.4,0-0.6,0.3-0.6,0.6v1.3c0,0.4,0.3,0.6,0.6,0.6h10
			c0.4,0,0.6-0.3,0.6-0.6v-1.3c0-0.4-0.3-0.6-0.6-0.6H321c0.2-10.7,8.9-19.3,19.6-19.3h9.4c10.8,0,19.6,8.8,19.6,19.6v120.1h8.8
			V186.4C378.3,170.8,365.6,158,350,158z"/>
		<rect x="364.9" y="289.1" class="st12" width="23.5" height="9.9"/>
		<rect x="383.6" y="262.5" class="st12" width="4.8" height="33.2"/>
	</g>
	<g>
		<g>
			<path class="st29" d="M98.4,457.7c-0.9,1.8,0.4,3.9,2.4,3.9h6.2c0.9,0,1.7-0.5,2.2-1.2l22.7-33.9l-14.2-8L98.4,457.7z"/>
			<path class="st29" d="M356.3,457.7l-19.4-39.2l-14.2,8l22.7,33.9c0.5,0.7,1.3,1.2,2.2,1.2h6.2
				C355.8,461.6,357.2,459.5,356.3,457.7z"/>
		</g>
		<g>
			<g>
				<path id="SVGID_00000040548450000691688520000001255439818511626158_" class="st30" d="M320.8,433H133.9
					c-29.5,0-54.3-22.2-57.5-51.5l-7.9-72.1h317.9l-7.9,72.1C375.1,410.8,350.3,433,320.8,433z"/>
			</g>
			<g>
				<defs>
					<path id="SVGID_00000002369241653306190880000000703116559407525566_" d="M320.8,433H133.9c-29.5,0-54.3-22.2-57.5-51.5
						l-7.9-72.1h317.9l-7.9,72.1C375.1,410.8,350.3,433,320.8,433z"/>
				</defs>
				<clipPath id="SVGID_00000088120098184458775380000016019187776176286640_">
					<use xlink:href="#SVGID_00000002369241653306190880000000703116559407525566_"  style="overflow:visible;"/>
				</clipPath>
				
					<path style="opacity:0.53;clip-path:url(#SVGID_00000088120098184458775380000016019187776176286640_);fill:#BCBCBC;enable-background:new    ;" d="
					M80.3,300.4c0,0,4,70.8,21,94.1c10.3,14.1,16.9,20.8,51.1,24c41.5,3.9,209.3,3.7,209.3,3.7l-39,33.2L64.6,440l-5-141L80.3,300.4
					z"/>
			</g>
		</g>
		<path class="st32" d="M391.7,316.2H62.9c-4.7,0-8.6-3.9-8.6-8.6l0,0c0-4.7,3.9-8.6,8.6-8.6h328.8c4.7,0,8.6,3.9,8.6,8.6l0,0
			C400.3,312.3,396.5,316.2,391.7,316.2z"/>
	</g>
</g>
</svg>
