<?xml version="1.0" encoding="utf-8"?>
<!-- Generator: Adobe Illustrator 19.0.0, SVG Export Plug-In . SVG Version: 6.00 Build 0)  -->
<svg version="1.1" id="Layer_1" xmlns="http://www.w3.org/2000/svg" xmlns:xlink="http://www.w3.org/1999/xlink" x="0px" y="0px"
	 viewBox="0 0 1000 300" style="enable-background:new 0 0 1000 300;" xml:space="preserve">
<style type="text/css">
	.st0{display:none;}
	.st1{display:inline;fill:#FFFFFF;}
	.st2{display:inline;fill:#DDDB00;}
</style>
<g id="XMLID_1_" class="st0">
	<path id="XMLID_9_" class="st1" d="M206.6,239.2V60.8c0-7.7,1.7-13.5,5.2-17.4s8.2-5.9,14.2-5.9s10.8,1.9,14.4,5.8
		c3.6,3.9,5.5,9.7,5.5,17.5v178.4c0,7.8-1.9,13.6-5.5,17.5c-3.7,3.9-8.5,5.9-14.3,5.9s-10.4-2-14-6.1
		C208.4,252.5,206.6,246.7,206.6,239.2"/>
	<path id="XMLID_29_" class="st1" d="M189.5,126.5c0-0.1,0-0.1,0-0.2v-17.7l0,0c0-7,0.2-12.1,0-17.2c-0.4-9.4-6.1-16.4-14.6-18
		c-11.3-2.1-19.9,2.1-23.8,11.6c-0.6,1.5-1.2,3-2,4.9c-2.2-1.3-3.9-2.3-5.7-3.3C118.2,72.1,91.5,68.8,64,78.4
		c-37.3,13-60.2,44.1-63.6,83.8L0,162.4c0,0-4.8,71.2,61.2,94.2v-0.1c15.6,6.1,32.4,7.7,50,4.2c13.1-2.6,25.5-8.6,38.5-13.2
		c2.1,7.6,6.8,14.2,17,15c14.7,1.1,22.7-6,22.7-20.8c0.1-26.8,0-53.7,0-80.5l0,0v-21.9C189.5,134.9,189.5,130.7,189.5,126.5
		 M126.1,213.3c-19.8,13.8-45.3,12.8-65-1.9c-5.5-4.9-22.8-22.4-21.4-47.1c0.1-1,0.2-2.1,0.3-3.1c0.2-1.3,0.3-2.6,0.6-3.9
		c0.3-1.4,0.7-2.8,1-4.1c0.4-1.4,0.7-2.7,1.2-4.1c0.3-0.8,0.7-1.6,1-2.3c0.7-1.7,1.5-3.5,2.4-5.3c6.5-12.1,17.1-21.5,30.7-26
		c21.9-7.3,44.5-0.7,59.8,16.8c2.4,3.1,6.7,9.1,9.6,16.9c0.5,1.5,1.1,3.1,1.5,4.6c0.2,0.7,0.4,1.4,0.6,2.2
		C153.4,178.1,145,200.1,126.1,213.3"/>
	<path id="XMLID_6_" class="st1" d="M302.8,113.1V60.8c0-7.8-1.8-13.6-5.5-17.5c-3.6-3.9-8.4-5.8-14.4-5.8s-10.7,2-14.2,5.9
		s-5.2,9.8-5.2,17.4v178.4c0,7.5,1.8,13.3,5.4,17.3s8.3,6.1,14,6.1c5.9,0,10.6-2,14.3-5.9c3.7-3.9,5.5-9.7,5.5-17.5v-20.7
		c-10.2-15-16.1-33.2-16.1-52.7C286.7,146.3,292.6,128.2,302.8,113.1"/>
	<path id="XMLID_5_" class="st2" d="M430.4,112.5c0.6-14-9.5-9.5-9.5-9.5l-23.5,14c-16.8-6.2-34.4,0.8-34.4,0.8l-21.5-13.7
		c0,0-10-5.7-12,8.6l0.5,29.9c-0.2,1.8-0.5,3.6-0.7,5.4c-2.9,8.8-11.6,42.5,18.1,64.6c1.1,0.8,6,3.9,7.2,4.7
		c15.2,8.3,32.9,8.7,48.1,2.1c34.9-15.3,33.5-57.4,33.5-57.9c-0.8-8.4-4.7-17.1-4.7-17.1L430.4,112.5z"/>
	<path id="XMLID_4_" class="st1" d="M851.7,80.4c0-5.6,0.2-11.3-0.1-16.9c-0.2-3.1-0.7-6.3-1.9-9.1c-3.8-8.3-12.8-12.4-22-10.4
		c-9,1.9-15,9.5-15,19.8c-0.1,36.2-0.1,72.3,0,108.5c0,16.7,4.5,32.2,13.2,46.5c12.8,21.1,31.1,35.3,54.7,42.4
		c15.1,4.5,28.1-6.1,26.1-21.4c-1.1-8.6-6.5-13.5-14.6-16.1c-22.1-7.1-35.9-22.1-39.5-45c-1.6-10.4-0.8-21.3-0.7-31.9
		c0-1.2,2.8-3.3,4.4-3.5c4.8-0.5,9.6-0.1,14.4-0.2c11.8-0.4,20.2-8.7,20.2-19.7c0-10.9-8.5-19.3-20.2-19.7c-4.8-0.2-9.6-0.1-14.4,0
		c-3.5,0.1-4.8-1.4-4.7-4.9C851.8,92.5,851.7,86.4,851.7,80.4"/>
	<path id="XMLID_3_" class="st1" d="M979.8,103.5c-4.8-0.2-9.6-0.1-14.4,0h-0.1h-27.4c-0.4,0.1-0.9,0.3-1.2,0.4
		c-8.9,1.9-14.9,9.4-15,19.6c0,11.9,0,96.6,0,108.5h0.1c0,3.4-0.1,6.8,0,10.2c0.2,3.1,0.7,6.3,1.9,9.1c3.8,8.3,12.8,12.4,22,10.4
		c9-1.9,15-9.5,15-19.8c0-6.2,0-12.4,0-18.6h-0.1c0.1-21.2,0.2-73.2,0.2-76.6c0-1.2,2.8-3.3,4.4-3.5c4.8-0.5,9.6-0.1,14.4-0.2
		c11.8-0.4,20.2-8.7,20.2-19.7C1000,112.3,991.5,103.9,979.8,103.5"/>
	<path id="XMLID_2_" class="st1" d="M798.7,121.8c0-0.1,0-0.1,0-0.2V104l0,0c0-7,0.2-12.1,0-17.2c-0.4-9.4-6.1-16.4-14.6-17.9
		c-11.2-2.1-19.9,2.1-23.7,11.6c-0.6,1.5-1.2,3-2,4.9c-2.1-1.3-3.9-2.3-5.7-3.3c-25.2-14.5-51.7-17.8-79.2-8.3
		c-39.5,13.8-63.1,47.6-64.2,90.6c-0.6,24.1-16.5,45-39.5,51.7c-1.4,0.3-7,1.6-8.4,1.8c-22.5,3.3-37.9-6.8-47.3-17
		c-0.9-0.9-1.5-1.8-2.3-2.7c-4.2-5.1-7.1-9.8-8.5-12.6c-8.5-17.6-3.9-34.1,2.2-45.7l0,0c0,0,0.1-0.2,0.2-0.3c3.8-7.2,8-12.3,10-14.4
		c2.7-2.9,6-5.7,9.9-8c20.7-12.8,38-10.3,48.8-6c4,1.7,14,6.4,18.4,13L611.7,92c0.8-2.9-0.7-4.8-4.1-7c-30.3-19.3-62-22.5-94.3-6.8
		c-21.5,10.5-36.6,25.8-45.2,45.4h-0.2c-0.4,1-0.6,1.9-1,2.9c-1.2,3.1-2.3,6.2-3.2,9.5c-0.3,1.3-0.7,2.6-0.9,3.9
		c-0.8,3.3-1.3,6.7-1.8,10.3c-0.1,0.8-0.2,1.5-0.3,2.2c-0.2,1.8-0.5,3.4-0.6,5.2c-0.5,9.9,0.5,19.3,2.7,28.2
		c1.7,8,3.6,12.9,3.6,12.9l0.5,0.2c16.7,41.4,61.5,66.9,109.5,55.8c41.9-9.6,71.1-46.8,72.3-92c0.6-24.3,15.2-44.6,37.4-52
		c21.8-7.3,44.4-0.7,59.7,16.7c2.4,3.1,6.7,9.1,9.6,16.9c0.5,1.5,1.1,3.1,1.5,4.6c0.2,0.7,0.4,1.4,0.6,2.2c5,22.1-3.4,44-22.3,57.2
		c-21.3,14.9-49.4,12.7-69.4-5.4c-1-0.9-2.2-1.8-3.9-3.3c-0.6,1-1,1.7-1.4,2.4c-5.4,9.8-11,19.6-16.1,29.6c-0.7,1.4,0.3,4.8,1.7,5.8
		c22.1,16.9,47.2,23.5,74.5,18c13-2.6,25.4-8.6,38.4-13.2c2.1,7.6,6.8,14.2,16.9,14.9c14.7,1.1,22.6-6,22.6-20.8
		c0.1-26.8,0-53.5,0-80.3l0,0v-21.9C798.6,130.2,798.7,126,798.7,121.8"/>
</g>
<g id="XMLID_10_" class="st0">
	<path id="XMLID_23_" class="st1" d="M203.8,237.9V62.1c0-7.6,1.7-13.3,5.2-17.2s8.1-5.8,14-5.8s10.6,1.9,14.2,5.7
		c3.6,3.8,5.4,9.6,5.4,17.3v175.8c0,7.7-1.8,13.4-5.5,17.3c-3.6,3.8-8.3,5.8-14.1,5.8c-5.7,0-10.3-2-13.8-6
		C205.5,251,203.8,245.3,203.8,237.9"/>
	<path id="XMLID_22_" class="st1" d="M259.8,237.9V62.1c0-7.6,1.7-13.3,5.2-17.2s8.1-5.8,14-5.8s10.6,1.9,14.2,5.7s5.4,9.6,5.4,17.3
		v175.8c0,7.7-1.8,13.4-5.5,17.3c-3.6,3.8-8.3,5.8-14.1,5.8c-5.7,0-10.3-2-13.8-6C261.5,251,259.8,245.3,259.8,237.9"/>
	<path id="XMLID_19_" class="st1" d="M186.9,126.8c0-0.1,0-0.1,0-0.2v-17.4l0,0c0-6.9,0.2-11.9,0-17c-0.3-9.3-6.1-16.2-14.4-17.7
		c-11.1-2-19.6,2.1-23.4,11.4c-0.6,1.5-1.2,3-2,4.8c-2.1-1.2-3.9-2.3-5.6-3.3c-24.9-14.1-51.2-17.4-78.3-8
		C26.4,92.2,3.9,122.9,0.6,161.9l-0.4,0.2c0,0-4.7,70.2,60.3,92.9v-0.1c15.4,6,31.9,7.6,49.3,4.1c12.9-2.6,25.1-8.5,37.9-13
		c2.1,7.5,6.7,14,16.7,14.7c14.5,1.1,22.3-5.9,22.4-20.5c0.1-26.4,0-52.9,0-79.3l0,0v-21.6C186.9,135.1,186.9,131,186.9,126.8
		 M124.4,212.4c-19.5,13.6-44.7,12.6-64-1.8c-5.5-4.9-22.5-22.1-21.1-46.5c0.1-1,0.2-2,0.3-3c0.1-1.3,0.3-2.5,0.6-3.8
		c0.3-1.4,0.6-2.7,1-4.1c0.4-1.4,0.7-2.7,1.2-4.1c0.3-0.8,0.6-1.5,1-2.3c0.7-1.7,1.4-3.4,2.3-5.2c6.4-11.9,16.9-21.1,30.2-25.6
		c21.6-7.2,43.8-0.7,58.9,16.5c2.4,3,6.6,9,9.5,16.6c0.5,1.5,1.1,3,1.5,4.5c0.2,0.7,0.4,1.4,0.6,2.1
		C151.3,177.7,143,199.3,124.4,212.4"/>
	<path id="XMLID_18_" class="st1" d="M801,122.3c0-0.1,0-0.1,0-0.2v-17.4l0,0c0-6.9,0.2-11.9,0-17c-0.3-9.3-6.1-16.2-14.4-17.7
		c-11.1-2-19.6,2.1-23.4,11.4c-0.6,1.5-1.2,3-2,4.8c-2.1-1.2-3.8-2.3-5.6-3.3c-24.9-14.3-51.1-17.6-78.2-8.2
		c-39,13.6-62.3,47-63.4,89.5c-0.6,23.8-16.3,44.4-39,51.1c-1.4,0.3-6.9,1.6-8.3,1.8c-22.3,3.3-37.4-6.7-46.7-16.8
		c-0.8-0.9-1.5-1.8-2.2-2.6c-4.2-5-7-9.7-8.4-12.5c-8.4-17.4-3.8-33.7,2.2-45.1l0,0c0,0,0.1-0.2,0.2-0.3c3.8-7.1,7.9-12.1,9.9-14.3
		c2.7-2.9,6-5.6,9.8-7.9c20.4-12.6,37.5-10.1,48.2-5.9c3.9,1.7,13.8,6.3,18.2,12.9l18.7-31.7c0.7-2.8-0.7-4.8-4-6.9
		c-29.9-19.1-61.3-22.2-93.2-6.7c-21.2,10.3-36.2,25.5-44.6,44.8h-0.2c-0.4,0.9-0.6,1.9-0.9,2.8c-1.2,3-2.3,6.2-3.1,9.4
		c-0.3,1.3-0.7,2.5-0.9,3.8c-0.7,3.3-1.3,6.7-1.7,10.1c-0.1,0.7-0.2,1.5-0.3,2.2c-0.2,1.7-0.5,3.4-0.6,5.1c-0.5,9.8,0.5,19,2.6,27.9
		c1.7,7.9,3.6,12.8,3.6,12.8l0.5,0.2c16.5,40.9,60.8,66,108.2,55.1c41.4-9.5,70.2-46.3,71.4-90.9c0.6-24,15.1-44.1,37-51.4
		c21.6-7.2,43.8-0.7,58.9,16.5c2.4,3,6.6,9,9.5,16.6c0.5,1.5,1.1,3,1.5,4.5c0.2,0.7,0.4,1.4,0.6,2.1c4.9,21.8-3.3,43.5-22,56.5
		c-21,14.7-48.8,12.5-68.5-5.3c-1-0.9-2.1-1.8-3.9-3.2c-0.6,1-1,1.7-1.4,2.4c-5.4,9.7-10.9,19.4-15.9,29.3c-0.7,1.4,0.3,4.8,1.6,5.8
		c21.9,16.7,46.7,23.2,73.6,17.8c12.9-2.6,25.1-8.5,37.9-13c2.1,7.5,6.7,14,16.7,14.7c14.5,1.1,22.3-5.9,22.4-20.5
		c0.1-26.4,0-52.9,0-79.3l0,0v-21.6C801,130.6,801,126.5,801,122.3"/>
	<path id="XMLID_17_" class="st1" d="M853.4,81.4c0-5.6,0.2-11.2-0.1-16.7c-0.2-3-0.6-6.2-1.9-9c-3.7-8.2-12.7-12.2-21.7-10.3
		c-8.9,1.9-14.8,9.4-14.8,19.5c-0.1,35.7-0.1,71.4,0,107.1c0,16.5,4.5,31.8,13,45.9c12.6,20.9,30.7,34.9,54,41.8
		c15,4.5,27.8-6,25.8-21.1c-1.1-8.5-6.5-13.4-14.5-15.9c-21.8-7-35.4-21.8-39-44.5c-1.6-10.3-0.8-21-0.7-31.5c0-1.2,2.7-3.3,4.4-3.5
		c4.7-0.5,9.5-0.1,14.2-0.2c11.6-0.4,20-8.6,20-19.4s-8.4-19.1-19.9-19.5c-4.7-0.2-9.5-0.1-14.3,0c-3.5,0.1-4.8-1.4-4.7-4.8
		C853.5,93.4,853.4,87.4,853.4,81.4"/>
	<path id="XMLID_16_" class="st1" d="M980,104.2c-4.7-0.2-9.5-0.1-14.3,0h-0.1h-27.1c-0.4,0.1-0.8,0.3-1.2,0.4
		c-8.8,1.9-14.7,9.3-14.8,19.3c0,11.8,0,95.4,0,107.2h0.1c0,3.4-0.1,6.7,0.1,10.1c0.2,3,0.6,6.2,1.9,8.9
		c3.7,8.2,12.7,12.2,21.7,10.3c8.9-1.9,14.8-9.4,14.8-19.5c0-6.1,0-12.3,0-18.4H961c0.1-20.9,0.2-72.3,0.2-75.7
		c0-1.2,2.7-3.3,4.4-3.5c4.7-0.5,9.5-0.1,14.2-0.2c11.6-0.4,20-8.6,20-19.4C999.9,113,991.5,104.6,980,104.2"/>
	<path id="XMLID_13_" class="st1" d="M382.3,70.7c-51.4,0-93,41.6-93,93s41.6,93,93,93s93-41.6,93-93S433.6,70.7,382.3,70.7
		 M404.3,220.7c-15.5,6.7-33.5,6.3-49-2.2c-1.3-0.8-6.2-3.9-7.4-4.7c-30.2-22.5-21.4-56.8-18.4-65.7c0.3-1.8,0.5-3.6,0.8-5.5
		l-0.5-30.4c2-14.6,12.2-8.8,12.2-8.8l21.9,13.9c0,0,17.9-7.1,35-0.9l23.9-14.2c0,0,10.2-4.6,9.7,9.7l1.1,32.5c0,0,4,8.8,4.8,17.4
		C438.4,162.4,439.8,205.2,404.3,220.7"/>
</g>
<g>
	<path d="M203,238.1V61.9c0-7.6,1.7-13.3,5.2-17.2c3.5-3.9,8.1-5.8,14-5.8c5.9,0,10.6,1.9,14.2,5.8c3.6,3.8,5.4,9.6,5.4,17.3v176.2
		c0,7.7-1.8,13.5-5.5,17.3c-3.6,3.8-8.4,5.8-14.2,5.8c-5.7,0-10.3-2-13.9-6C204.8,251.2,203,245.5,203,238.1"/>
	<path d="M259.2,238.1V61.9c0-7.6,1.7-13.3,5.2-17.2c3.5-3.9,8.1-5.8,14-5.8c5.9,0,10.6,1.9,14.2,5.8c3.6,3.8,5.4,9.6,5.4,17.3
		v176.2c0,7.7-1.8,13.5-5.5,17.3c-3.6,3.8-8.4,5.8-14.2,5.8c-5.7,0-10.3-2-13.9-6C260.9,251.2,259.2,245.5,259.2,238.1"/>
	<path d="M186.1,126.8c0-0.1,0-0.1,0-0.2l0-17.5c0,0,0,0,0,0c0-6.9,0.2-12,0-17c-0.3-9.3-6.1-16.2-14.4-17.8
		c-11.1-2.1-19.7,2.1-23.5,11.5c-0.6,1.5-1.2,3-2,4.9c-2.1-1.2-3.9-2.3-5.6-3.3c-24.9-14.3-51.2-17.7-78.4-8.2
		C25.2,92.1,2.7,122.8-0.7,162l-0.4,0.2c0,0-4.7,70.4,60.5,93.1l0-0.1c15.5,6,32,7.6,49.4,4.1c12.9-2.6,25.2-8.5,38-13.1
		c2.1,7.5,6.7,14,16.8,14.8c14.5,1.1,22.4-5.9,22.4-20.6c0.1-26.5,0-53,0-79.5l0,0l0-21.7C186.1,135.1,186.1,130.9,186.1,126.8
		 M123.4,212.5c-19.5,13.7-44.8,12.6-64.2-1.8c-5.5-4.9-22.5-22.2-21.2-46.6c0.1-1,0.2-2,0.3-3c0.1-1.3,0.3-2.5,0.6-3.8
		c0.3-1.4,0.7-2.7,1-4.1c0.4-1.4,0.7-2.7,1.2-4.1c0.3-0.8,0.6-1.5,1-2.3c0.7-1.7,1.4-3.5,2.4-5.2c6.4-12,16.9-21.2,30.3-25.6
		c21.6-7.2,44-0.7,59.1,16.6c2.4,3,6.6,9,9.5,16.7c0.5,1.5,1.1,3,1.5,4.6c0.2,0.7,0.4,1.4,0.6,2.1
		C150.4,177.7,142.2,199.5,123.4,212.5"/>
	<path d="M801.7,122.3c0-0.1,0-0.1,0-0.2l0-17.5c0,0,0,0,0,0c0-6.9,0.2-12,0-17c-0.3-9.3-6.1-16.2-14.4-17.8
		c-11.1-2.1-19.7,2.1-23.5,11.5c-0.6,1.5-1.2,3-2,4.9c-2.1-1.2-3.9-2.3-5.6-3.3c-24.9-14.3-51.2-17.7-78.4-8.2
		c-39.1,13.6-62.5,47.2-63.5,89.7c-0.6,23.9-16.3,44.5-39.1,51.2c-1.4,0.3-6.9,1.6-8.3,1.8c-22.3,3.3-37.5-6.7-46.8-16.8
		c-0.8-0.9-1.5-1.8-2.3-2.7c-4.2-5-7-9.7-8.4-12.5c-8.4-17.4-3.8-33.8,2.2-45.3l0,0c0,0,0.1-0.2,0.2-0.3c3.8-7.1,8-12.2,9.9-14.3
		c2.7-2.9,6-5.6,9.8-8c20.5-12.6,37.6-10.2,48.3-5.9c3.9,1.7,13.9,6.4,18.2,12.9l18.7-31.8c0.7-2.8-0.7-4.8-4.1-6.9
		c-30-19.1-61.4-22.3-93.4-6.7c-21.3,10.4-36.3,25.6-44.7,44.9h-0.2c-0.4,0.9-0.6,1.9-0.9,2.8c-1.2,3.1-2.3,6.2-3.1,9.4
		c-0.3,1.3-0.7,2.6-0.9,3.8c-0.7,3.3-1.3,6.7-1.7,10.2c-0.1,0.7-0.2,1.5-0.3,2.2c-0.2,1.7-0.5,3.4-0.6,5.2
		c-0.5,9.8,0.5,19.1,2.6,27.9c1.7,7.9,3.6,12.8,3.6,12.8l0.5,0.2c16.6,41,60.9,66.2,108.4,55.3c41.5-9.6,70.4-46.4,71.6-91.1
		c0.6-24.1,15.1-44.2,37.1-51.5c21.6-7.2,44-0.7,59.1,16.6c2.4,3,6.6,9,9.5,16.7c0.5,1.5,1.1,3,1.5,4.6c0.2,0.7,0.4,1.4,0.6,2.1
		c4.9,21.9-3.3,43.6-22.1,56.7c-21.1,14.7-48.9,12.6-68.7-5.3c-1-0.9-2.1-1.8-3.9-3.3c-0.6,1-1,1.7-1.4,2.4
		c-5.4,9.7-10.9,19.4-16,29.3c-0.7,1.4,0.3,4.8,1.6,5.8c21.9,16.7,46.8,23.3,73.8,17.9c12.9-2.6,25.2-8.5,38-13.1
		c2.1,7.5,6.7,14,16.8,14.8c14.5,1.1,22.4-5.9,22.4-20.6c0.1-26.5,0-53,0-79.5l0,0l0-21.7C801.7,130.6,801.7,126.4,801.7,122.3"/>
	<path d="M854.3,81.3c0-5.6,0.2-11.2-0.1-16.8c-0.2-3-0.6-6.3-1.9-9c-3.8-8.2-12.7-12.3-21.8-10.3c-8.9,1.9-14.8,9.4-14.9,19.6
		c-0.1,35.8-0.1,71.6,0,107.4c0,16.5,4.5,31.9,13.1,46c12.7,20.9,30.8,34.9,54.2,42c15,4.5,27.8-6,25.9-21.2
		c-1.1-8.5-6.5-13.4-14.5-16c-21.9-7.1-35.5-21.9-39.1-44.6c-1.6-10.3-0.8-21-0.7-31.6c0-1.2,2.7-3.3,4.4-3.5
		c4.7-0.5,9.5-0.1,14.3-0.2c11.7-0.4,20-8.6,20-19.5c0-10.8-8.4-19.2-20-19.6c-4.8-0.2-9.5-0.1-14.3,0c-3.5,0.1-4.8-1.4-4.7-4.8
		C854.4,93.3,854.3,87.3,854.3,81.3"/>
	<path d="M981.2,104.1c-4.8-0.2-9.5-0.1-14.3,0c0,0-0.1,0-0.1,0h-27.2c-0.4,0.1-0.8,0.3-1.2,0.4c-8.8,1.9-14.7,9.3-14.8,19.4
		c0,11.8,0,95.6,0,107.4h0.1c0,3.4-0.1,6.7,0.1,10.1c0.2,3,0.6,6.3,1.9,9c3.8,8.2,12.7,12.3,21.8,10.3c8.9-1.9,14.8-9.4,14.9-19.6
		c0-6.1,0-12.3,0-18.4h-0.1c0.1-21,0.2-72.5,0.2-75.9c0-1.2,2.7-3.3,4.4-3.5c4.7-0.5,9.5-0.1,14.3-0.2c11.7-0.4,20-8.6,20-19.5
		C1001.2,112.9,992.7,104.5,981.2,104.1"/>
	<path d="M382,70.5c-51.5,0-93.2,41.7-93.2,93.2c0,51.5,41.7,93.2,93.2,93.2s93.2-41.7,93.2-93.2C475.2,112.3,433.5,70.5,382,70.5
		 M404.1,220.9c-15.6,6.7-33.6,6.3-49.1-2.2c-1.3-0.8-6.2-3.9-7.4-4.7c-30.3-22.5-21.5-56.9-18.5-65.9c0.3-1.8,0.5-3.7,0.8-5.5
		l-0.5-30.5c2-14.6,12.2-8.8,12.2-8.8l22,14c0,0,18-7.1,35.1-0.9l24-14.3c0,0,10.3-4.6,9.7,9.7l1.1,32.6c0,0,4,8.8,4.8,17.4
		C438.3,162.4,439.6,205.3,404.1,220.9"/>
</g>
</svg>
