<?xml version="1.0" encoding="utf-8"?>
<!-- Generator: Adobe Illustrator 19.0.0, SVG Export Plug-In . SVG Version: 6.00 Build 0)  -->
<svg version="1.1" id="_x2DC_รรฐ_x5F_1" xmlns="http://www.w3.org/2000/svg" xmlns:xlink="http://www.w3.org/1999/xlink" x="0px"
	 y="0px" viewBox="0 0 4000 2000" style="enable-background:new 0 0 4000 2000;" xml:space="preserve">
<style type="text/css">
	.st0{fill:#8CC1CF;}
	.st1{fill:#2A9DBC;}
	.st2{fill:#202539;}
	.st3{fill:#FFFFFF;}
	.st4{fill:#FFE78A;}
	.st5{fill:#FFFDFF;}
	.st6{fill:#FF8056;}
</style>
<g>
	<rect class="st0" width="4000" height="2000"/>
	<g>
		<g>
			<ellipse class="st1" cx="745.5" cy="1648.1" rx="228.4" ry="45.2"/>
		</g>
		<g>
			<g>
				<path class="st2" d="M737.4,1586.8c0,0,8,75,90.1,75.1s0.6-87,0.6-87L737.4,1586.8z"/>
			</g>
			<g>
				<path class="st2" d="M874,1458.3c0,0,53,15.3,74.2-46c21.3-61.3,32.5-100.6,86.3-80.3c53.8,20.3,40,171.7-131.4,175.4
					L874,1458.3z"/>
			</g>
			<g>
				<path class="st3" d="M485,1295.9c-17.9-33.6-18.7-73.9-1.9-108.1c27-55.1,83.6-132.6,193.6-144.7
					c205.2-22.5,274,148.9,269,279.1c-5,130.1-191.5,141.4-257.8,122.6C628.7,1428,552.4,1422.2,485,1295.9z"/>
			</g>
			<g>
				<path class="st2" d="M509,1227.6c-0.5,0-1.1-0.2-1.5-0.7c-20.6-25.5-51.1-42.9-83.6-47.5c-1-0.1-1.7-1.1-1.6-2.1
					c0.1-1,1.1-1.7,2.1-1.6c33.4,4.8,64.8,22.6,86,48.9c0.7,0.8,0.5,2-0.3,2.6C509.8,1227.5,509.4,1227.6,509,1227.6z"/>
			</g>
			<g>
				<path class="st2" d="M500.2,1246.4c-0.4,0-0.8-0.1-1.2-0.4c-24.1-19.3-59.4-24.2-87.9-12.3c-1,0.4-2.1,0-2.5-1
					c-0.4-1,0-2.1,1-2.5c29.7-12.5,66.5-7.3,91.7,12.8c0.8,0.6,0.9,1.8,0.3,2.6C501.3,1246.1,500.8,1246.4,500.2,1246.4z"/>
			</g>
			<g>
				<path class="st2" d="M413.1,1294.9c-0.4,0-0.9-0.2-1.2-0.5c-0.8-0.7-0.9-1.9-0.2-2.6c21.3-24.7,57-36.5,88.9-29.5
					c1,0.2,1.7,1.2,1.4,2.2c-0.2,1-1.2,1.6-2.2,1.4c-30.5-6.8-64.8,4.6-85.2,28.3C414.1,1294.7,413.6,1294.9,413.1,1294.9z"/>
			</g>
			<g>
				<path class="st3" d="M977.1,1626.2c-17.5,45-71.3,21.3-71.3,21.3c-65.1,30-87.6-21.3-87.6-21.3s-66.9,13.1-98.1,2.1
					c-44-15.6-99.3-13.5-133.1-41c-17.7-14.5-27.9-34-33.3-55.4c-16.5-65.7,13.2-148,13.2-148l218.4,35.3c0,0,65.9,10,114.1,38.2
					c34.5,20.2,26.2,79.3,26.2,79.3C965.7,1547.1,994.6,1581.2,977.1,1626.2z"/>
			</g>
			<g>
				<path class="st3" d="M651.9,1520.5c0,0-30.7,76.3-65.7,93.3c-35,17-33.1,79.3,51.6,64.4s105.8-70.7,129.8-142.3L651.9,1520.5z"
					/>
			</g>
			<g>
				<path class="st3" d="M598.5,1530.4c0,0-80.2-7.4-96.8-43.9c0,0-76.1,9.2-74.9-54.4c1.2-63.5,65.8-65.9,85.8-55.3
					c20.1,10.6,80.2,30.4,85.8,55.7C604.1,1458,598.5,1530.4,598.5,1530.4z"/>
			</g>
			<g>
				<path class="st2" d="M909,1648.3c-0.5,0-0.9-0.2-1.3-0.5c-0.8-0.7-0.8-1.9-0.1-2.7c15-16.2,23.4-38.2,23-60.2
					c0-1,0.8-1.9,1.8-1.9c1,0,1.9,0.8,1.9,1.8c0.4,23-8.4,45.9-24,62.9C910,1648.1,909.5,1648.3,909,1648.3z"/>
			</g>
			<g>
				<g>
					<path class="st3" d="M779.5,1079c0,0,97.2-82,170.2-38.4c73,43.5-5.8,229.6-5.8,229.6S878,1108.2,779.5,1079z"/>
				</g>
				<g>
					<path class="st2" d="M845.3,1106.8c-3-2.9-2.6-7.9,0.9-10.2c15.8-10.6,55.7-34.2,75.5-18c20,16.3-3.8,60.1-14.3,77.1
						c-2.2,3.6-7.2,4.2-10.2,1.3c-2.4-6.8-8.1-19.8-20.6-31.6C864.7,1114,852.2,1109,845.3,1106.8z"/>
				</g>
			</g>
			<g>
				<g>
					<path class="st3" d="M547,1102.6c0,0,51.3-157.6,117.8-158.6s85.7,111.2,85.7,111.2L547,1102.6z"/>
				</g>
				<g>
					<path class="st2" d="M610.7,1074.6c-6.4,1.1-11.1-5.6-8.5-11.9c11.1-26.6,30-92.7,71.1-79.9c23.6,7.4,18.9,49.6,19.6,69.4
						c0.2,4.6-3,8.7-7.3,9.5c-6.9-2.5-21.5-6.6-40.1-3C628.8,1061.9,616.7,1069.9,610.7,1074.6z"/>
				</g>
			</g>
			<g>
				<g>
					
						<ellipse transform="matrix(0.9097 0.4152 -0.4152 0.9097 592.4686 -206.4744)" class="st2" cx="771.1" cy="1259.3" rx="36.8" ry="43.5"/>
				</g>
				<g>
					
						<ellipse transform="matrix(0.9623 -0.2721 0.2721 0.9623 -307.9597 256.0101)" class="st3" cx="769.3" cy="1238.6" rx="12.2" ry="8.8"/>
				</g>
			</g>
			<g>
				<g>
					
						<ellipse transform="matrix(0.9097 0.4152 -0.4152 0.9097 546.067 -128.1543)" class="st2" cx="567.8" cy="1191.8" rx="34.2" ry="43"/>
				</g>
				<g>
					
						<ellipse transform="matrix(0.9623 -0.2721 0.2721 0.9623 -297.043 197.9194)" class="st3" cx="565.2" cy="1170.2" rx="12.1" ry="8.7"/>
				</g>
			</g>
			<g>
				<g>
					<g>
						<path class="st2" d="M601.7,1253.7c-7.1,8.9-5.1,22.6,3.7,29.7c9.4,7.6,22.9,7.3,33,1.1c5.9-3.6,10.6-8.9,14-14.8
							c-1.1-0.5-2.3-1-3.4-1.4c-3.2,10.3,0.5,22.1,8.6,29.1c7.5,6.6,18.9,8.8,28.3,5.3c5.1-2,9.4-5.6,11.6-10.6
							c1-2.2-2.3-4.1-3.2-1.9c-3.6,8.1-12.4,11.2-20.8,10.3c-9.2-1-17.1-7.1-20.3-15.8c-1.8-4.9-2.2-10.3-0.6-15.3
							c0.6-2-2.4-3.3-3.4-1.4c-5.1,8.9-13.8,16.6-24.3,17.5c-9.8,0.9-20.1-3.9-22.9-13.9c-1.4-5-0.8-10.8,2.5-15
							C605.8,1254.5,603.2,1251.8,601.7,1253.7L601.7,1253.7z"/>
					</g>
				</g>
				<g>
					<path class="st2" d="M663.7,1274.2c6.4-2.1,11.8-8.6,10.3-15.1c-1.2-4.8-5.6-8.1-10-10.4c-4.1-2.1-8.6-3.8-13.3-3.8
						c-4.6,0-9.5,2-11.9,6c-2.3,3.6-2.3,8.4-0.9,12.5C641.7,1275,652.1,1277.9,663.7,1274.2z"/>
				</g>
			</g>
			<g>
				<path class="st2" d="M877.6,1423.5c-0.7,0-1.4-0.4-1.7-1.1c-19.9-44.9-47.5-66.8-91.4-91.4c-0.9-0.5-1.2-1.7-0.7-2.6
					c0.5-0.9,1.7-1.2,2.6-0.7c44.6,25,72.6,47.3,93,93.2c0.4,0.9,0,2.1-1,2.5C878.1,1423.4,877.8,1423.5,877.6,1423.5z"/>
			</g>
			<g>
				<path class="st2" d="M916.9,1385.7c-0.6,0-1.1-0.3-1.5-0.7c-27.7-36.4-71.5-60.9-117-65.5c-1-0.1-1.8-1-1.7-2.1
					c0.1-1,1-1.8,2.1-1.7c46.6,4.7,91.3,29.7,119.6,66.9c0.6,0.8,0.5,2-0.4,2.6C917.7,1385.6,917.3,1385.7,916.9,1385.7z"/>
			</g>
			<g>
				<path class="st2" d="M820.1,1627.6c-0.8,0-1.6-0.6-1.8-1.4c-0.3-1,0.3-2,1.3-2.3c22.6-6,42.4-21.1,54.1-41.3
					c0.5-0.9,1.7-1.2,2.6-0.7c0.9,0.5,1.2,1.7,0.7,2.6c-12.3,21.1-32.8,36.8-56.4,43C820.4,1627.6,820.3,1627.6,820.1,1627.6z"/>
			</g>
			<g>
				<path class="st2" d="M505.2,1485.3c-0.5,0-1-0.2-1.4-0.6c-0.7-0.8-0.7-1.9,0.1-2.7c16.2-15.2,23.5-40,18.1-61.6
					c-0.2-1,0.4-2,1.4-2.3c1-0.3,2,0.4,2.3,1.4c5.8,23.2-1.8,48.8-19.2,65.2C506.1,1485.2,505.6,1485.3,505.2,1485.3z"/>
			</g>
			<g>
				<path class="st2" d="M607.2,1601.4c-0.6,0-1.1-0.3-1.5-0.7c-0.6-0.8-0.5-2,0.4-2.6c21.8-16.5,37.6-41.3,43.3-68.1
					c0.2-1,1.2-1.7,2.2-1.4c1,0.2,1.7,1.2,1.4,2.2c-5.9,27.6-22.2,53.2-44.7,70.3C608,1601.3,607.6,1601.4,607.2,1601.4z"/>
			</g>
			<g>
				<path class="st2" d="M552,1516c-0.9,0-1.7-0.7-1.9-1.6c-4.1-28.7,0.1-59.1,11.7-85.7c0.4-0.9,1.5-1.4,2.5-1
					c0.9,0.4,1.4,1.5,1,2.5c-11.4,25.9-15.5,55.6-11.5,83.6c0.1,1-0.6,2-1.6,2.1C552.2,1516,552.1,1516,552,1516z"/>
			</g>
			<g>
				<path class="st2" d="M767.1,1448.7c-21.5,0-44.2-1.7-67-5.2c-54-8.2-102.4-24.8-136.4-46.6c-0.9-0.6-1.1-1.7-0.6-2.6
					c0.6-0.9,1.7-1.1,2.6-0.6c68.7,44.2,198.4,64,277.5,42.3c1-0.3,2,0.3,2.3,1.3c0.3,1-0.3,2-1.3,2.3
					C822.3,1445.7,795.8,1448.7,767.1,1448.7z"/>
			</g>
			<g>
				<path class="st2" d="M508.3,1472.4c-7.5,0-15.1-2.6-20.8-7.4c-0.8-0.7-0.9-1.8-0.3-2.6c0.7-0.8,1.8-0.9,2.6-0.3
					c6,5,14.3,7.4,22,6.3c1-0.1,2,0.6,2.1,1.6c0.1,1-0.6,2-1.6,2.1C511,1472.3,509.7,1472.4,508.3,1472.4z"/>
			</g>
			<g>
				<path class="st2" d="M521.4,1446.5c-0.1,0-0.2,0-0.2,0c-7-0.9-13.8-3.3-19.8-7c-0.9-0.5-1.2-1.7-0.6-2.6
					c0.5-0.9,1.7-1.2,2.6-0.6c5.5,3.4,11.8,5.7,18.3,6.5c1,0.1,1.8,1.1,1.6,2.1C523.1,1445.8,522.3,1446.5,521.4,1446.5z"/>
			</g>
			<g>
				<path class="st2" d="M826.9,1454.1c-1,0-1.9-0.8-1.9-1.9c0-39.8-9.1-69.9-55.6-106.1c-0.8-0.6-1-1.8-0.3-2.6
					c0.6-0.8,1.8-1,2.6-0.3c47.5,37,57,69.2,57,109.1C828.8,1453.3,827.9,1454.1,826.9,1454.1z"/>
			</g>
			<g>
				<path class="st2" d="M724.9,1630.9c-0.5,0-1-0.2-1.3-0.6c-0.7-0.7-0.7-1.9,0-2.7c19.9-19.9,33.2-46.2,37.3-74.1
					c0.2-1,1.1-1.7,2.1-1.6c1,0.2,1.7,1.1,1.6,2.1c-4.2,28.7-17.8,55.7-38.3,76.2C725.9,1630.8,725.4,1630.9,724.9,1630.9z"/>
			</g>
			<g>
				<path class="st2" d="M567.2,1646.6c-0.6,0-1.2-0.3-1.6-0.8c-0.6-0.9-0.3-2,0.5-2.6c8.2-5.4,17.7-9.1,27.4-10.7
					c1-0.2,2,0.5,2.2,1.6c0.2,1-0.5,2-1.6,2.2c-9.2,1.5-18.2,5-26,10.1C567.9,1646.5,567.6,1646.6,567.2,1646.6z"/>
			</g>
			<g>
				<path class="st2" d="M590.3,1676.8c-0.5,0-1.1-0.2-1.4-0.7c-0.7-0.8-0.6-2,0.2-2.6c10.1-8.4,22.8-13.2,35.9-13.5
					c1-0.1,1.9,0.8,1.9,1.8c0,1-0.8,1.9-1.8,1.9c-12.2,0.3-24.2,4.8-33.6,12.7C591.1,1676.6,590.7,1676.8,590.3,1676.8z"/>
			</g>
			<g>
				<ellipse class="st2" cx="604.6" cy="1527.4" rx="31.9" ry="46.7"/>
			</g>
			<g>
				<path class="st2" d="M524.8,1426.5c-0.8,0-1.6-0.5-1.8-1.3c-4.6-15.1-17.4-27.3-32.7-31.1c-1-0.2-1.6-1.3-1.4-2.3
					c0.2-1,1.3-1.6,2.3-1.4c16.5,4.1,30.4,17.3,35.4,33.6c0.3,1-0.3,2-1.3,2.3C525.2,1426.5,525,1426.5,524.8,1426.5z"/>
			</g>
			<g>
				<path class="st2" d="M302.8,1631.5c-15,0-30.2-6.1-40.3-17.2c-15.5-17.1-18-44.7-5.8-64.3c12.2-19.6,38.1-29.5,60.3-23.1
					c8.8,2.6,16.8,7.3,24.4,11.9c4.9,3,10.1,6.1,15.3,8.5c21.7,10,48.2,9,69.1-2.6c20.9-11.5,35.8-33.4,39-57.1
					c0.1-1,1.1-1.8,2.1-1.6c1,0.1,1.8,1.1,1.6,2.1c-3.3,24.8-19,47.8-40.9,59.9c-21.9,12.1-49.7,13.1-72.5,2.7
					c-5.4-2.5-10.7-5.6-15.7-8.7c-7.8-4.7-15.2-9.1-23.5-11.6c-20.6-6-44.7,3.3-56.1,21.5c-11.4,18.2-9,43.9,5.4,59.8
					c14.4,15.9,39.8,20.6,59,11.1c0.9-0.5,2.1-0.1,2.5,0.8c0.5,0.9,0.1,2.1-0.8,2.5C318.7,1629.7,310.8,1631.5,302.8,1631.5z"/>
			</g>
			<g>
				<g>
					<g>
						<g>
							<path class="st4" d="M446.8,1662.4c-93.8,27.8-150.1-23.8-139.8-43.4c10.3-19.6,73-43.6,149,2.9c0,0,50.2-21.2,57.8-6.1
								c7.5,15.1-35.3,32.3-35.3,32.3s18,39.9,7.4,45.8C475.3,1699.7,446.8,1662.4,446.8,1662.4z"/>
						</g>
						<g>
							<g>
								<circle class="st5" cx="348.2" cy="1627.6" r="12.6"/>
							</g>
							<g>
								<circle class="st2" cx="348.2" cy="1627.6" r="6.8"/>
							</g>
						</g>
						<g>
							<ellipse class="st2" cx="317.8" cy="1626.1" rx="6.3" ry="4.2"/>
						</g>
					</g>
				</g>
				<g>
					<path class="st2" d="M463.5,1640c-0.7,0-1.4-0.4-1.7-1c-0.5-0.9-0.1-2.1,0.9-2.5c8.7-4.3,17.7-8,26.9-11c1-0.3,2,0.2,2.4,1.2
						c0.3,1-0.2,2-1.2,2.4c-9,2.9-17.9,6.6-26.4,10.8C464.1,1639.9,463.8,1640,463.5,1640z"/>
				</g>
				<g>
					<path class="st2" d="M480.2,1686.9c-0.6,0-1.2-0.3-1.6-0.9l-20.9-33.6c-0.5-0.9-0.3-2,0.6-2.6c0.9-0.5,2-0.3,2.6,0.6l20.9,33.6
						c0.5,0.9,0.3,2-0.6,2.6C480.9,1686.8,480.6,1686.9,480.2,1686.9z"/>
				</g>
			</g>
		</g>
	</g>
	<g>
		<g>
			<ellipse class="st1" cx="2645.3" cy="663" rx="459.7" ry="79.7"/>
		</g>
		<g>
			<g>
				<g>
					<path class="st2" d="M2420.4,421.4c0,0-74.8-193.7-167.8-123s124.2,165.9,124.2,165.9L2420.4,421.4z"/>
				</g>
				<g>
					<path class="st3" d="M2545.8,590.9c-11.4-19.6-17.6-41.9-18.1-64.6c-1.4-61.1,8-198.5,114-254.4
						c138.1-72.8,310.4,13.4,357.9,124.8c47.5,111.4,43.8,220.6-110.7,277C2751.7,723.9,2608.9,699.3,2545.8,590.9z"/>
				</g>
				<g>
					<path class="st3" d="M2728.5,269.7c0,0,1.8-108.5,48.5-100.3s94.1,86.9,94.1,116.6C2871.1,286.1,2749.3,260.8,2728.5,269.7z"/>
				</g>
				<g>
					<path class="st2" d="M2873.1,551.8c-6-1.2-11.7-6.5-11-12.6c0.5-4.5,4.2-8,8-10.5c3.5-2.4,7.4-4.4,11.6-4.9
						c4.2-0.5,8.8,0.8,11.5,4.1c2.5,3.1,3,7.3,2.2,11.2C2893.2,550.1,2884.1,553.9,2873.1,551.8z"/>
				</g>
				<g>
					<g>
						<path class="st2" d="M2840.7,567.5c5,8,14.6,12.7,24,11.9c9.8-0.9,17.7-7.6,20.9-16.8c1.8-5,1.9-10.6,0.3-15.7
							c-1.4,0.4-2.9,0.8-4.3,1.2c1.6,4.2,4.7,7.5,8.8,9.3c4.2,1.9,8.5,2,13,1.3c6.8-1.1,12.5-4.6,14.9-11.2c1.4-4,1.7-8.3,1.7-12.5
							c0-2.9-4.5-2.9-4.5,0c0,6.6-0.6,14.4-7.2,17.7c-7.3,3.7-19.1,2.9-22.4-5.7c-1-2.6-5.2-1.6-4.3,1.2c3,9.6-1.7,20.9-10.9,25.2
							c-9.1,4.3-21,0.4-26.2-8.1C2843,562.8,2839.2,565,2840.7,567.5L2840.7,567.5z"/>
					</g>
				</g>
				<g>
					<path class="st3" d="M2661.7,381.5c0,0-156-27.1-243.6,26.4c-87.6,53.5-79.8,107.7-79.8,107.7s-54.7-62-143.2,62.3
						c-6.2,8.8-7.4,20.2-3.2,30c11,25.4,41.4,65.4,117.7,21.3c0,0,85.4,64.6,195.3,42.3c0,0,162.6,69.2,256.2,64.7
						c93.6-4.5,86.1-84.7,25.2-96.6c-60.9-11.9-211.6-61.6-211.6-61.6L2661.7,381.5z"/>
				</g>
				<g>
					<path class="st3" d="M2476,664.8c0,0,191.6,75.9,285.2,71.3c93.6-4.5,86.1-84.7,25.2-96.6c-60.9-11.9-247.5-36.8-247.5-36.8
						S2479,586.1,2476,664.8z"/>
				</g>
				<g>
					<path class="st2" d="M2831.7,692.8c-0.2,0-0.4,0-0.6-0.1c-1.2-0.3-1.9-1.5-1.6-2.7c1.9-7.2,0.5-13.9-4.2-20.4
						c-22.2-31-115.4-52.9-276.8-65c-1.2-0.1-2.1-1.2-2.1-2.4c0.1-1.2,1.2-2.1,2.4-2.1c39.7,3,98.8,8.1,153.2,17.7
						c69.7,12.4,112.4,28.9,126.9,49.1c5.4,7.5,7,15.6,4.9,24.1C2833.6,692.2,2832.7,692.8,2831.7,692.8z"/>
				</g>
				<g>
					<path class="st3" d="M2960.9,570.5c0,0,121,8.2,121,60.2s-32.7,59.4-86.1,55c-53.5-4.5-115.6-26.1-115.6-26.1L2960.9,570.5z"/>
				</g>
				<g>
					<g>
						<g>
							<path class="st2" d="M2999.5,496.9c15.2-19.6,35.6-35.1,58.7-44.3c6.6-2.6,13.4-4.7,20.3-6.3c2.8-0.6,1.6-4.9-1.2-4.3
								c-24.9,5.7-48,18.3-66.5,35.8c-5.2,4.9-10,10.3-14.4,16c-0.7,1-0.9,2.2,0,3.2C2997.1,497.6,2998.8,497.8,2999.5,496.9
								L2999.5,496.9z"/>
						</g>
					</g>
					<g>
						<g>
							<path class="st2" d="M3005.4,509.3c19.6-16.9,45.9-25.3,71.7-23.4c2.9,0.2,2.8-4.2,0-4.5c-20.9-1.6-42.3,3.5-60.3,14.2
								c-5.1,3-10,6.6-14.5,10.5C3000.1,508,3003.2,511.2,3005.4,509.3L3005.4,509.3z"/>
						</g>
					</g>
					<g>
						<g>
							<path class="st2" d="M3004.2,522.8c26-9,54.2-11.6,81.4-7.4c2.8,0.4,4-3.9,1.2-4.3c-28-4.4-56.9-1.9-83.8,7.4
								C3000.3,519.4,3001.5,523.8,3004.2,522.8L3004.2,522.8z"/>
						</g>
					</g>
				</g>
				<g>
					<g>
						<g>
							<path class="st2" d="M2722.2,600.1c-17.6-0.6-35.2,2.1-51.8,7.9c-2.7,0.9-1.5,5.2,1.2,4.3c16.3-5.6,33.4-8.3,50.6-7.7
								C2725.1,604.6,2725.1,600.2,2722.2,600.1L2722.2,600.1z"/>
						</g>
					</g>
					<g>
						<g>
							<path class="st2" d="M2732.6,610.1c-20.8-0.2-41.5,6.6-58,19.3c-1,0.7-1.4,1.9-0.8,3c0.5,0.9,2.1,1.5,3,0.8
								c15.9-12.3,35.6-18.9,55.7-18.7C2735.5,614.6,2735.5,610.1,2732.6,610.1L2732.6,610.1z"/>
						</g>
					</g>
					<g>
						<g>
							<path class="st2" d="M2740,622c-20.7,0.8-40.7,10.1-54.7,25.3c-4,4.3-7.5,9.1-10.4,14.2c-1.4,2.5,2.4,4.7,3.8,2.2
								c9.7-17,26.3-29.5,45.1-34.7c5.3-1.5,10.7-2.3,16.2-2.5C2742.9,626.3,2742.9,621.9,2740,622L2740,622z"/>
						</g>
					</g>
				</g>
				<g>
					<path class="st3" d="M2682.4,293.5c0,0-142.6-65.4-176.3,0c-37.9,73.5,1,184.2,53,205L2682.4,293.5z"/>
				</g>
				<g>
					<path class="st2" d="M2570.8,439.3c-0.4,1.7-2.8,1.9-3.5,0.3c-8.9-22.3-41.1-106.1-23-116.4c18.5-10.6,73.3,17.6,85.3,24
						c1.1,0.6,1.3,2.1,0.4,3C2620.7,358.3,2582.1,394.7,2570.8,439.3z"/>
				</g>
				<g>
					<path class="st2" d="M2907.5,667.8c-1,0-1.8-0.6-2.1-1.6c-0.4-1.2,0.3-2.4,1.5-2.8c45-14,81-46,104.1-92.4c0.5-1.1,1.9-1.5,3-1
						c1.1,0.5,1.6,1.9,1,3c-23.7,47.6-60.6,80.3-106.8,94.7C2907.9,667.7,2907.7,667.8,2907.5,667.8z"/>
				</g>
				<g>
					<path class="st2" d="M2564.6,595.2c-0.8,0-1.6-0.4-2-1.2c-16.8-30.7-22.8-66.6-17-101.1c-31.5-23.9-53.4-68.3-54.8-111.1
						c0-1.2,0.9-2.3,2.2-2.3c0,0,0,0,0.1,0c1.2,0,2.2,1,2.2,2.2c1.3,41.9,23.1,85.5,54.1,108.5c0.7,0.5,1,1.3,0.9,2.2
						c-6,33.9-0.2,69.3,16.3,99.5c0.6,1.1,0.2,2.4-0.9,3C2565.3,595.1,2565,595.2,2564.6,595.2z"/>
				</g>
				<g>
					<path class="st2" d="M2311.9,629.5c-0.1,0-0.1,0-0.2,0c-1.2-0.1-2.2-1.1-2.1-2.4c0.9-13.6,5.3-28.2,12.9-43.4
						c0.5-1.1,1.9-1.5,3-1c1.1,0.6,1.5,1.9,1,3c-7.4,14.7-11.6,28.7-12.4,41.8C2314,628.6,2313.1,629.5,2311.9,629.5z"/>
				</g>
				<g>
					<path class="st2" d="M2778.2,736.1c-0.2,0-0.4,0-0.5-0.1c-1.2-0.3-1.9-1.5-1.6-2.7c2.5-10.4,0.7-20.3-5.2-28.8
						c-0.7-1-0.5-2.4,0.5-3.1c1-0.7,2.4-0.5,3.1,0.5c6.7,9.5,8.7,20.7,5.8,32.4C2780.2,735.4,2779.3,736.1,2778.2,736.1z"/>
				</g>
				<g>
					<path class="st2" d="M2807.9,724.5c-0.2,0-0.3,0-0.5,0c-1.2-0.3-2-1.4-1.7-2.6c1.9-9.1,0.6-18.8-3.6-27.1c-0.6-1.1-0.1-2.4,1-3
						c1.1-0.6,2.4-0.1,3,1c4.6,9.2,6,19.9,3.9,30C2809.8,723.7,2808.9,724.5,2807.9,724.5z"/>
				</g>
				<g>
					<path class="st2" d="M3055.9,683c-0.9,0-1.7-0.5-2.1-1.4c-5-12-11.8-15.9-25.2-19.9c-1.2-0.4-1.8-1.6-1.5-2.8
						c0.4-1.2,1.6-1.8,2.8-1.5c14.5,4.4,22.3,8.8,28,22.4c0.5,1.1-0.1,2.4-1.2,2.9C3056.4,682.9,3056.1,683,3055.9,683z"/>
				</g>
				<g>
					<path class="st2" d="M3073.9,664.1C3073.9,664.1,3073.9,664.1,3073.9,664.1c-1.3,0-2.2-1-2.2-2.2c0.1-9.1-7.5-17.8-16.5-19.1
						c-1.2-0.2-2.1-1.3-1.9-2.5c0.2-1.2,1.3-2.1,2.5-1.9c11.3,1.6,20.4,12.1,20.3,23.5C3076.1,663.2,3075.1,664.1,3073.9,664.1z"/>
				</g>
				<g>
					<path class="st2" d="M2866.3,275.7c-0.3,0-0.6-0.1-0.9-0.2c-2.1-0.9-4.2-1.8-6.3-2.8c-24.7-11.1-55.5-24.9-109.4-14.2
						c-1.2,0.2-2.4-0.5-2.6-1.7c-0.2-1.2,0.5-2.4,1.7-2.6c55.3-11.1,86.8,3.1,112.1,14.5c2.1,1,4.2,1.9,6.3,2.8
						c1.1,0.5,1.6,1.8,1.1,2.9C2868,275.2,2867.2,275.7,2866.3,275.7z"/>
				</g>
				<g>
					<g>
						<g>
							
								<ellipse transform="matrix(0.949 -0.3154 0.3154 0.949 -26.7156 898.5042)" class="st2" cx="2762.5" cy="531.8" rx="30.6" ry="40.8"/>
						</g>
						<g>
							
								<ellipse transform="matrix(0.9789 -0.2044 0.2044 0.9789 -51.8236 578.8063)" class="st3" cx="2776.1" cy="540.3" rx="5.9" ry="12.7"/>
						</g>
					</g>
					<g>
						<g>
							
								<ellipse transform="matrix(0.949 -0.3154 0.3154 0.949 3.3604 950.4993)" class="st2" cx="2938.2" cy="464.9" rx="29" ry="38.7"/>
						</g>
						<g>
							
								<ellipse transform="matrix(0.9789 -0.2044 0.2044 0.9789 -34.4718 612.9798)" class="st3" cx="2950.1" cy="473.4" rx="5.9" ry="12.7"/>
						</g>
					</g>
				</g>
			</g>
			<g>
				<g>
					<path class="st2" d="M3312.5,722.5c-8.1,0-16.3-0.3-24.6-0.8c-19.5-1.3-44.7-4.3-66.7-16c-7.8-4.2-14.8-9.3-20.7-15.1
						c-72.8,18.6-149.2,18.3-222-1c-1.2-0.3-1.9-1.5-1.6-2.7c0.3-1.2,1.5-1.9,2.7-1.6c71.2,18.9,146,19.5,217.3,1.6
						c-9.2-10.3-15.1-22.3-16.9-34.9c-3.6-24.9,11.5-50,33.7-55.9c16.5-4.4,35,2.2,45,16.1c10,13.9,10.3,33.5,0.9,47.8
						c-9.8,14.8-27.8,21.7-44.2,26.5c-3.3,1-6.5,1.9-9.8,2.8c5.2,4.8,11.1,9,17.7,12.5c21.2,11.3,45.8,14.2,64.8,15.5
						c71.3,4.7,137.4-11.3,186.1-45.2c1-0.7,2.4-0.5,3.1,0.6c0.7,1,0.5,2.4-0.6,3.1C3433,706.2,3375.3,722.5,3312.5,722.5z
						 M3224,599.2c-3.1,0-6.1,0.4-9,1.2c-19.7,5.2-33.6,28.6-30.4,51c1.8,12.4,7.9,24.3,17.4,34.3c4.1-1.1,8.2-2.2,12.3-3.4
						c16.3-4.8,32.7-11.1,41.7-24.7c8.3-12.5,8-30.5-0.8-42.7C3248.2,605.1,3236,599.2,3224,599.2z"/>
				</g>
				<g>
					<circle class="st6" cx="3538.5" cy="555.4" r="147"/>
				</g>
				<g>
					<g>
						<path class="st2" d="M3498.2,556.8c-0.2,0-0.3,0-0.5-0.1c-1.2-0.3-1.9-1.5-1.7-2.7c10.2-44.3-6.1-104.5-21.2-129.2
							c-0.6-1-0.3-2.4,0.7-3.1c1-0.6,2.4-0.3,3.1,0.7c15.6,25.3,32.3,87,21.8,132.5C3500.1,556.1,3499.2,556.8,3498.2,556.8z"/>
					</g>
					<g>
						<path class="st2" d="M3523.4,578.5c-0.1,0-0.3,0-0.4,0c-1.2-0.2-2-1.4-1.8-2.6c9-49.9,12.3-85.7-18-162.2
							c-0.5-1.1,0.1-2.4,1.3-2.9c1.1-0.5,2.4,0.1,2.9,1.3c30.6,77.4,27.1,115.4,18.2,164.6C3525.4,577.8,3524.5,578.5,3523.4,578.5z
							"/>
					</g>
					<g>
						<path class="st2" d="M3544.9,591.2c-0.2,0-0.5,0-0.7-0.1c-1.2-0.4-1.8-1.6-1.4-2.8c16.6-51.1,7.9-127.6-19.7-174.2
							c-0.6-1.1-0.3-2.4,0.8-3.1c1.1-0.6,2.4-0.3,3.1,0.8c28.2,47.6,37,125.7,20.1,177.9C3546.7,590.6,3545.9,591.2,3544.9,591.2z"
							/>
					</g>
					<g>
						<path class="st2" d="M3553.7,492.2c-1.2,0-2.2-0.9-2.2-2.1c-0.1-1.2,0.9-2.3,2.1-2.3c25.7-1.3,56.5-27.8,68-50.8
							c0.6-1.1,1.9-1.5,3-1c1.1,0.6,1.5,1.9,1,3c-12.4,24.5-44.2,51.8-71.8,53.2C3553.8,492.2,3553.8,492.2,3553.7,492.2z"/>
					</g>
					<g>
						<path class="st2" d="M3558.6,515.8c-1.8,0-3.5-0.1-5.1-0.2c-1.2-0.1-2.1-1.2-2-2.4c0.1-1.2,1.2-2.1,2.4-2
							c17.2,1.7,44.4-6.3,59.4-17.5c14.5-10.8,28-31.8,31.4-48.8c0.2-1.2,1.4-2,2.6-1.7c1.2,0.2,2,1.4,1.7,2.6
							c-3.6,18.3-17.6,40-33.1,51.5C3601.6,507.8,3576.6,515.8,3558.6,515.8z"/>
					</g>
					<g>
						<path class="st2" d="M3553.7,544.2c-1.2,0-2.2-1-2.2-2.2s1-2.2,2.2-2.2c49.2,0,93.2-34.9,107.3-68.5c0.5-1.1,1.8-1.7,2.9-1.2
							c1.1,0.5,1.7,1.8,1.2,2.9C3650.7,507.5,3606.7,544.2,3553.7,544.2z"/>
					</g>
					<g>
						<path class="st2" d="M3672,614.1C3672,614.1,3672,614.1,3672,614.1c-49.8-0.2-119-11.9-153.1-37.3
							c-36-26.7-63.2-83.4-76.7-127.5c-0.4-1.2,0.3-2.4,1.5-2.8c1.2-0.4,2.4,0.3,2.8,1.5c12.7,41.4,39.9,99,75.1,125.2
							c33.3,24.7,101.3,36.2,150.4,36.4c1.2,0,2.2,1,2.2,2.2C3674.3,613.1,3673.3,614.1,3672,614.1z"/>
					</g>
					<g>
						<path class="st2" d="M3625.7,641.7c-25.1,0-54.2-4.4-69.1-9.8c-24.9-9-40.3-20.1-57.1-35c-25.9-23-52.8-63.5-82.2-123.8
							c-0.5-1.1-0.1-2.4,1-3c1.1-0.5,2.4-0.1,3,1c29.2,59.8,55.7,99.8,81.2,122.4c19.6,17.4,34.2,26.4,55.6,34.2
							c22,8,78.1,13.8,100.6,5.4c1.2-0.4,2.4,0.2,2.9,1.3c0.4,1.2-0.2,2.4-1.3,2.9C3651.9,640.4,3639.4,641.7,3625.7,641.7z"/>
					</g>
					<g>
						<path class="st2" d="M3619.2,666.1c-42.9,0-100.7-18.6-128.7-43.4c-32.9-29.1-67.1-86.5-87.5-120.8c-0.6-1.1-0.3-2.4,0.8-3.1
							c1.1-0.6,2.4-0.3,3.1,0.8c20.3,34.1,54.3,91.1,86.6,119.7c31.5,27.9,105.1,48.3,145.9,40.6c1.2-0.2,2.4,0.6,2.6,1.8
							c0.2,1.2-0.6,2.4-1.8,2.6C3633.8,665.5,3626.8,666.1,3619.2,666.1z"/>
					</g>
					<g>
						<path class="st2" d="M3433.6,660.7c-1.2,0-2.2-1-2.2-2.2s1-2.2,2.2-2.2c6.3,0,16-6.2,25.2-16.1c9.6-10.4,16-21.9,15.6-28.1
							c-0.1-1.2,0.8-2.3,2.1-2.4c1.2-0.1,2.3,0.8,2.4,2.1c0.7,9.2-8.6,22.7-16.8,31.5C3451.9,654.2,3441.3,660.7,3433.6,660.7z"/>
					</g>
					<g>
						<path class="st2" d="M3465.9,680.5c-0.8,0-1.6-0.4-2-1.2c-0.6-1.1-0.2-2.4,0.9-3c17-9,36.6-25.4,39.7-40
							c0.3-1.2,1.4-2,2.6-1.7c1.2,0.3,2,1.4,1.7,2.6c-3.9,18.4-29.2,36.2-42,43C3466.6,680.4,3466.2,680.5,3465.9,680.5z"/>
					</g>
					<g>
						<path class="st2" d="M3482,691.2c-0.9,0-1.7-0.5-2.1-1.4c-0.5-1.1,0.1-2.4,1.3-2.9c12.5-4.9,40.6-27.9,41.5-40.2
							c0.1-1.2,1.2-2.2,2.4-2.1c1.2,0.1,2.2,1.2,2.1,2.4c-1.1,15.5-32,39.2-44.3,44C3482.6,691.2,3482.3,691.2,3482,691.2z"/>
					</g>
					<g>
						<path class="st2" d="M3677.6,553c-0.7,0-1.3-0.3-1.7-0.8c-0.8-1-0.6-2.4,0.3-3.1l20.2-16.2c1-0.8,2.4-0.6,3.1,0.3
							c0.8,1,0.6,2.4-0.3,3.1l-20.2,16.2C3678.6,552.8,3678.1,553,3677.6,553z"/>
					</g>
					<g>
						<path class="st2" d="M3695.1,566c-0.2,0-0.4,0-0.7-0.1l-19.7-6.1c-1.2-0.4-1.8-1.6-1.5-2.8c0.4-1.2,1.6-1.8,2.8-1.5l19.7,6.1
							c1.2,0.4,1.8,1.6,1.5,2.8C3697,565.4,3696.1,566,3695.1,566z"/>
					</g>
					<g>
						<path class="st2" d="M3561.3,422.4c-0.6,0-1.3-0.3-1.7-0.8l-15.4-19c-0.8-1-0.6-2.4,0.3-3.1c1-0.8,2.4-0.6,3.1,0.3l15.4,19
							c0.8,1,0.6,2.4-0.3,3.1C3562.3,422.2,3561.8,422.4,3561.3,422.4z"/>
					</g>
					<g>
						<path class="st2" d="M3568.1,422.1c-0.2,0-0.4,0-0.6-0.1c-1.2-0.3-1.9-1.5-1.6-2.7l5.8-21.6c0.3-1.2,1.5-1.9,2.7-1.6
							c1.2,0.3,1.9,1.5,1.6,2.7l-5.8,21.6C3569.9,421.5,3569,422.1,3568.1,422.1z"/>
					</g>
					<g>
						<path class="st2" d="M3395.7,563.5c-0.5,0-0.9-0.1-1.3-0.4l-18.1-13.6c-1-0.7-1.2-2.1-0.4-3.1c0.7-1,2.1-1.2,3.1-0.4
							l18.1,13.6c1,0.7,1.2,2.1,0.4,3.1C3397.1,563.2,3396.4,563.5,3395.7,563.5z"/>
					</g>
					<g>
						<path class="st2" d="M3384,581.6c-0.7,0-1.4-0.3-1.8-0.9c-0.7-1-0.5-2.4,0.5-3.1l13.6-10c1-0.7,2.4-0.5,3.1,0.5
							c0.7,1,0.5,2.4-0.5,3.1l-13.6,10C3384.9,581.4,3384.5,581.6,3384,581.6z"/>
					</g>
				</g>
			</g>
			<g>
				<path class="st2" d="M2216.3,621.2c-6.3,0-12.6-1.3-18.4-3.9c-1.1-0.5-1.6-1.8-1.1-2.9c0.5-1.1,1.8-1.6,2.9-1.1
					c11,4.9,23.9,4.6,34.7-0.7c1.1-0.6,2.4-0.1,3,1c0.6,1.1,0.1,2.4-1,3C2230.2,619.6,2223.3,621.2,2216.3,621.2z"/>
			</g>
			<g>
				<path class="st2" d="M2236.1,647.1c-3.5,0-7-0.5-10.4-1.5c-1.2-0.4-1.8-1.6-1.5-2.8c0.4-1.2,1.6-1.8,2.8-1.5
					c10,3.1,21.7,0.8,29.7-6c0.9-0.8,2.3-0.7,3.1,0.3c0.8,0.9,0.7,2.3-0.3,3.1C2253.1,644.2,2244.6,647.1,2236.1,647.1z"/>
			</g>
		</g>
	</g>
	<g>
		<g>
			<ellipse class="st1" cx="1413.4" cy="1001.2" rx="233.3" ry="46.1"/>
		</g>
		<g>
			<g>
				<g>
					<path class="st2" d="M1574.4,854.5c0,0,122.1-166.4,175.8-86.2c57.3,85.7-160.5,129.6-186.7,128.6L1574.4,854.5z"/>
				</g>
				<g>
					<path class="st3" d="M1351.5,603.7c-8.6-6.1-16.6-13.2-23.8-21.4c-39.8-45-52.2-114-22.3-167.4c58.7-105,133.2-131,204.3-131
						c71.1,0,246.1,70,236,210c-10.2,140-120.1,183.6-251.8,156.9C1446,641.2,1392.2,632.7,1351.5,603.7z"/>
				</g>
				<g>
					<path class="st3" d="M1606.9,340c0,0,104.9-62.8,159.1-28.9c54.2,33.9-10.2,178.4-38.4,197.6L1606.9,340z"/>
				</g>
				<g>
					<path class="st2" d="M1650.3,372.8c-3.9-2.3-4.2-7.8-0.4-10.4c18.1-12.4,60.6-37.6,86.8-21.9c27.3,16.4-9.6,73.5-25,95
						c-2.7,3.8-8.4,3.3-10.5-0.8C1693.2,418.9,1674.7,386.7,1650.3,372.8z"/>
				</g>
				<g>
					<path class="st3" d="M1412.9,330.6c0,0,27-118.2,83.8-107.2c56.8,11,56.8,95.3,56.8,95.3L1412.9,330.6z"/>
				</g>
				<g>
					
						<ellipse transform="matrix(0.7696 0.6385 -0.6385 0.7696 625.4112 -894.3547)" class="st2" cx="1552" cy="419.5" rx="27.7" ry="33.9"/>
				</g>
				<g>
					<ellipse transform="matrix(0.866 0.5 -0.5 0.866 377.7027 -635.5472)" class="st2" cx="1374.8" cy="387" rx="21.5" ry="31.1"/>
				</g>
				<g>
					<g>
						<path class="st2" d="M1404.4,439c-3.2,4.8-5.2,10.6-5.9,16.3c-0.3,2.8-0.4,5.7,0.4,8.3c0.8,2.8,2.6,4.7,4.9,6.3
							c5.7,3.8,13.4,4.3,19.7,1.7c6.1-2.5,10.7-7.8,14.1-13.3c3.8-6.4,6.3-13.7,7.6-21c0.4-2.4-3.2-3.5-3.7-1
							c-1.2,6.3-5.4,11.5-6.4,17.8c-1,6.4,0.9,13,5.7,17.5c4.3,4.1,10.7,6.4,16.6,5c5.5-1.2,10.1-5.1,13.7-9.3
							c4-4.5,7.3-9.7,9.6-15.2c1-2.2-2.3-4.2-3.3-1.9c-1.8,4.3-4.3,8.4-7.1,12.1c-3,3.9-6.8,7.8-11.4,9.8c-4.8,2.1-10.1,1-14.2-2.1
							c-4.5-3.4-6.8-9.2-5.9-14.8c1-6.3,5.2-11.5,6.4-17.8c-1.2-0.3-2.5-0.7-3.7-1c-2,11-6.6,23.7-16.3,30.1
							c-4.9,3.3-11.3,4.1-16.8,1.7c-2.2-0.9-4.6-2.4-5.5-4.7c-0.8-2-0.9-4.3-0.7-6.5c0.4-5.5,2.4-11.4,5.5-16
							C1409.1,438.8,1405.8,436.9,1404.4,439L1404.4,439z"/>
					</g>
				</g>
				<g>
					<g>
						<path class="st2" d="M1562.9,478.3c21.2-3.3,43.3,0.5,62.3,10.5c2.2,1.2,4.1-2.2,1.9-3.3c-19.9-10.5-42.9-14.3-65.2-10.9
							C1559.4,475,1560.5,478.7,1562.9,478.3L1562.9,478.3z"/>
					</g>
				</g>
				<g>
					<g>
						<path class="st2" d="M1559.1,498.7c16.8,4,32.1,13.3,43.6,26.1c3.2,3.6,6.1,7.5,8.7,11.7c1.3,2.1,4.6,0.2,3.3-1.9
							c-9.5-15.3-23.6-27.5-40.1-34.7c-4.7-2-9.5-3.7-14.5-4.9C1557.8,494.4,1556.7,498.1,1559.1,498.7L1559.1,498.7z"/>
					</g>
				</g>
				<g>
					<g>
						<path class="st2" d="M1336.6,434.6c-14.2-17.3-36-27.7-58.2-28.7c-6.2-0.3-12.5,0.2-18.6,1.5c-2.4,0.5-1.4,4.2,1,3.7
							c20.9-4.2,43.1,1.3,60.2,13.9c4.8,3.6,9.2,7.8,13,12.4C1335.5,439.3,1338.2,436.5,1336.6,434.6L1336.6,434.6z"/>
					</g>
				</g>
				<g>
					<g>
						<path class="st2" d="M1321.8,453.2c-20.5-7.8-42.8-10.9-64.7-9.1c-6.3,0.5-12.5,1.4-18.6,2.8c-2.4,0.5-1.4,4.2,1,3.7
							c21-4.5,43-4.1,63.8,0.9c5.9,1.4,11.8,3.3,17.5,5.4C1323.1,457.8,1324.1,454.1,1321.8,453.2L1321.8,453.2z"/>
					</g>
				</g>
				<g>
					<g>
						<path class="st2" d="M1316.4,465c-21.9-2.4-44.3,0.5-64.9,8.3c-5.9,2.2-11.6,4.8-17.1,7.8c-2.2,1.2-0.2,4.5,1.9,3.3
							c18.9-10.2,40.3-15.9,61.8-16.4c6.1-0.1,12.2,0.1,18.2,0.8C1318.8,469.1,1318.8,465.3,1316.4,465L1316.4,465z"/>
					</g>
				</g>
				<g>
					<g>
						<path class="st2" d="M1551,507c16.4,12.1,29.2,29,36.4,48c0.9,2.3,4.6,1.3,3.7-1c-7.6-20.1-20.9-37.6-38.1-50.3
							C1550.9,502.3,1549,505.6,1551,507L1551,507z"/>
					</g>
				</g>
				<g>
					<path class="st3" d="M1373.4,563.5c0,0-129.8,111.6-93.3,272.2c0,0-43.6-3.1-65.1,55.6c0,0-55.4-6.5-26,49.7
						c21.8,41.6,60.7,42.1,86.8,23.3s95.1-58,136.8-41.1c4.8,1.9-3-0.6,2.6,2.6c43.6,25,101.6,100.7,144.4,89.7
						c20.2-5.2,40.9-11.7,50.1-32.6c7.8-17.6,5.8-39.6-6.3-54.8c0,0-0.1-0.1-0.1-0.2c-14.2-15.7-24.4-23.4-16.7-43.1
						c39.6-102.3,27.5-185.4-69.1-265.2L1373.4,563.5z"/>
				</g>
				<g>
					<path class="st3" d="M1357.7,611c0,0-98.1-123.3-143.9-93.8c-45.8,29.5,35.5,163.3,115.1,170.9L1357.7,611z"/>
				</g>
				<g>
					<path class="st3" d="M1511,636.1c0,0,98.7-18.9,108.7,47.4c10,66.3-65.3,136.5-118.7,74.2c-47.4-55.3,44.5-88,44.5-88
						l-44.6-5.1L1511,636.1z"/>
				</g>
				<g>
					<path class="st2" d="M1539.1,793.9c-16.4,0-31.8-7.7-44.7-22.9c-13-15.2-18-30.5-14.8-45.5c6.6-30.6,44.5-48.7,46.1-49.5
						c1-0.5,2.1,0,2.6,0.9c0.5,1,0,2.1-0.9,2.6c-0.4,0.2-37.8,18.1-44,46.8c-2.9,13.8,1.7,28,14,42.2c18.3,21.3,41.5,27,65.5,16
						c35.6-16.3,60.8-62.4,55-100.8c-2.2-14.6-9.1-26.1-20.5-34.1c-30.9-21.9-85.4-11.8-86-11.7c-1,0.2-2-0.5-2.2-1.5
						c-0.2-1,0.5-2,1.5-2.2c2.3-0.4,56.6-10.5,88.9,12.3c12.3,8.7,19.7,21,22,36.7c6,39.9-20.2,87.9-57.2,104.8
						C1555.8,792,1547.3,793.9,1539.1,793.9z"/>
				</g>
				<g>
					<g>
						<path class="st2" d="M1214.9,941.8c-1.6,3-1.5,7.3,0.1,10.4c1.4,2.7,3.9,4.3,6.3,4.8c2.5,0.5,5.2,0.1,7.2-1.8
							c2-1.9,3.2-5.4,2.6-8.7c-0.5-2.5-2-4.6-3.7-6C1223.6,937.5,1217.7,936.5,1214.9,941.8z"/>
					</g>
					<g>
						<path class="st2" d="M1195.4,937.7c1,2.6,3.4,4.2,5.1,6c1.1,1.1,2.4,2.1,3.8,2.3c1.4,0.2,2.9-0.5,3.6-2
							c1.3-2.6-0.1-6.2-1.9-8.5c-1.6-2.1-4.9-8.5-7.2-8.7C1194.6,926.4,1194,934.3,1195.4,937.7z"/>
					</g>
					<g>
						<path class="st2" d="M1204.7,921.3c-0.1-2,0.1-4,1.4-5.1c1.3-1.2,3.2-0.7,4.8,0c2.5,1,5.1,2.3,6.7,5c1.8,3.1,2,7.7,0.3,10.8
							c-2.9,5.5-8.8,4.3-11.2-1.5C1205.6,927.8,1204.9,924.3,1204.7,921.3z"/>
					</g>
					<g>
						<path class="st2" d="M1220.6,921.1c-0.2-1.9-0.3-4.1,0.6-5.5c1.3-2,3.8-1.3,5.6,0.1c2.8,2.2,5,5.8,6.1,9.8
							c0.9,3.3,0.8,7.4-1.3,9.4c-1.3,1.2-3,1.3-4.6,0.7C1222.2,933.8,1221.3,927.1,1220.6,921.1z"/>
					</g>
				</g>
				<g>
					<path class="st2" d="M1326.1,893.6c-0.2,0-0.4,0-0.6-0.1c-25-8.3-44.2-32.5-46.6-58.7c-0.1-1.1,0.7-2,1.7-2.1
						c1-0.1,2,0.7,2.1,1.7c2.3,24.8,20.4,47.6,44,55.4c1,0.3,1.6,1.4,1.2,2.4C1327.7,893.1,1326.9,893.6,1326.1,893.6z"/>
				</g>
				<g>
					<path class="st2" d="M1455.2,441.8c5.6-1.9,10.4-7.7,9-13.5c-1.1-4.3-5.1-7.1-9-9.1c-3.7-1.9-7.7-3.3-11.8-3.3
						c-4.1,0.1-8.4,1.9-10.6,5.4c-2,3.3-1.9,7.5-0.7,11.1C1435.7,442.7,1445,445.2,1455.2,441.8z"/>
				</g>
				<g>
					
						<ellipse transform="matrix(0.9331 0.3596 -0.3596 0.9331 254.0876 -525.1652)" class="st3" cx="1538.5" cy="420.3" rx="6.1" ry="11.3"/>
				</g>
				<g>
					
						<ellipse transform="matrix(0.9331 0.3596 -0.3596 0.9331 231.8894 -464.6201)" class="st3" cx="1364.6" cy="390.9" rx="6.1" ry="11.3"/>
				</g>
				<g>
					<path class="st2" d="M1296.5,679.9c0,0-0.1,0-0.1,0c-1.1-0.1-1.9-1-1.8-2c1.8-31.2,12.6-61.4,29.7-83c0.7-0.8,1.9-1,2.7-0.3
						c0.8,0.7,1,1.9,0.3,2.7c-16.7,21-27.2,50.5-28.9,80.9C1298.3,679.1,1297.5,679.9,1296.5,679.9z"/>
				</g>
				<g>
					<path class="st2" d="M1492.9,761.3c-0.2,0-0.5,0-0.7-0.1c-1-0.4-1.5-1.5-1.1-2.5c5.6-14.9,17-27.6,31.2-34.8
						c0.9-0.5,2.1-0.1,2.6,0.8c0.5,0.9,0.1,2.1-0.8,2.6c-13.4,6.8-24.1,18.7-29.4,32.8C1494.4,760.8,1493.6,761.3,1492.9,761.3z"/>
				</g>
				<g>
					<path class="st2" d="M1519.6,791.5c-1,0-1.8-0.8-1.9-1.8c-0.7-10.4,3.7-21.2,11.5-28.1c0.8-0.7,2-0.6,2.7,0.2
						c0.7,0.8,0.6,2-0.2,2.7c-7,6.1-10.9,15.7-10.2,24.9c0.1,1.1-0.7,2-1.8,2C1519.7,791.5,1519.6,791.5,1519.6,791.5z"/>
				</g>
				<g>
					<path class="st2" d="M1464.3,630.2c-21.9,0-42.4-1.3-62.6-6.7c-14-3.7-60.8-18.4-77.6-49.6c-0.5-0.9-0.2-2.1,0.8-2.6
						c0.9-0.5,2.1-0.2,2.6,0.8c16.1,29.9,61.7,44.1,75.3,47.7c26.7,7.1,54.2,7.1,84.9,6.2c1-0.1,1.9,0.8,2,1.9c0,1.1-0.8,1.9-1.9,2
						C1479.7,630.1,1471.9,630.2,1464.3,630.2z"/>
				</g>
				<g>
					<path class="st2" d="M1425.2,301.6c-0.7,0-1.4-0.4-1.7-1.1c-0.4-1,0-2.1,0.9-2.5c27.4-12.6,58.9-17.4,88.8-13.5
						c1,0.1,1.8,1.1,1.7,2.2c-0.1,1-1.1,1.8-2.2,1.7c-29.2-3.8-59.9,0.8-86.6,13.2C1425.7,301.5,1425.5,301.6,1425.2,301.6z"/>
				</g>
				<g>
					
						<ellipse transform="matrix(0.9862 0.1654 -0.1654 0.9862 143.9917 -217.5081)" class="st2" cx="1378.3" cy="756" rx="61.4" ry="97.8"/>
				</g>
				<g>
					<path class="st2" d="M1570.8,1011.9c-16.8,0-33-10-40.4-25.2c-0.5-1-0.1-2.1,0.9-2.6c1-0.5,2.1-0.1,2.6,0.9
						c7.1,14.7,24,24.3,40.3,22.9c1-0.1,2,0.7,2.1,1.7c0.1,1.1-0.7,2-1.7,2.1C1573.3,1011.9,1572,1011.9,1570.8,1011.9z"/>
				</g>
				<g>
					<path class="st2" d="M1600.2,993c-13.1,0-26.1-7.9-31.8-19.8c-0.5-1-0.1-2.1,0.9-2.6c1-0.5,2.1-0.1,2.6,0.9
						c5.5,11.5,18.7,18.9,31.4,17.5c1.1-0.1,2,0.6,2.1,1.7c0.1,1.1-0.6,2-1.7,2.1C1602.6,993,1601.4,993,1600.2,993z"/>
				</g>
				<g>
					<path class="st2" d="M1453.1,955.9c-0.3,0-0.6-0.1-0.9-0.3c-22.2-12.7-38.7-34.2-45.2-58.9c-0.3-1,0.3-2.1,1.4-2.3
						c1-0.3,2.1,0.3,2.3,1.4c6.2,23.8,22,44.4,43.4,56.6c0.9,0.5,1.2,1.7,0.7,2.6C1454.4,955.6,1453.7,955.9,1453.1,955.9z"/>
				</g>
			</g>
			<g>
				<g>
					<g>
						<path class="st2" d="M1122.4,228.2c-0.9,0-1.7-0.6-2-1.5c-0.3-1.1,0.3-2.3,1.4-2.7c20.6-6.4,39-19.5,51.7-37
							c12.7-17.5,19.5-39,19.3-60.6c0-1.2,0.9-2.1,2.1-2.1c0,0,0,0,0,0c1.2,0,2.1,0.9,2.1,2.1c0.3,22.5-6.8,44.9-20.1,63.1
							c-13.2,18.2-32.4,31.9-53.8,38.6C1122.8,228.2,1122.6,228.2,1122.4,228.2z"/>
					</g>
				</g>
				<g>
					<g>
						<path class="st2" d="M1126.4,232.1c-1.1,0-2.1-0.9-2.1-2c-0.1-1.2,0.8-2.2,2-2.2c20.3-1.1,39.7-9.2,54.7-22.9
							c15-13.7,25-32.2,28-52.3c0.2-1.2,1.3-1.9,2.4-1.8c1.2,0.2,2,1.3,1.8,2.4c-3.2,21-13.6,40.5-29.3,54.8
							c-15.7,14.3-36.1,22.8-57.3,24C1126.4,232.1,1126.4,232.1,1126.4,232.1z"/>
					</g>
				</g>
				<g>
					<g>
						<path class="st4" d="M1096.9,292.4c-2.9,4.5-6.1,8.4-9.4,11.4c-3.7,3.3-7.6,5.6-11.8,6.6c-23.2,5.8-36.5-26.1-42.9-47.4
							c-4.6-15-6.8-31-5.8-46.7c0.3-4.3-0.3-56.1-0.2-56.3c9-21.8,62.8-81.7,86.1-41.3C1138.5,163.5,1123.6,251.2,1096.9,292.4z"/>
					</g>
				</g>
				<g>
					<path class="st6" d="M1090.7,290.3c-1.7-0.1-11.1-33-12-35.5c-8-21.8-16.8-43.3-26.8-64.1c-16.9-35.1-43.1-89.8-85.3-99.7
						c-12.6-2.9-26.1,0.5-37,7.2c-25.6,15.9-39.8,44.7-47.2,73c-13.9,53-4.3,105.8,44.7,136.5c2.5,1.6,23.6,15.6,25.8,13
						c-7.4,8.5-13.3,18.4-17.3,29.5c-9.9,27.9,5.3,46.2,33,52.6c63.2,14.6,130.5-80.6,129.7-112.1
						C1098.4,290.7,1095.5,290.5,1090.7,290.3z"/>
				</g>
				<g>
					<g>
						<circle class="st2" cx="1117.9" cy="244.8" r="28.3"/>
					</g>
				</g>
				<g>
					<g>
						<path class="st2" d="M1116.6,256.7l-10.8-4.2c0,0-25.1,23.2-42.3,79.2c-17.2,56-16,77.2-12.1,79.4
							C1055.2,413.3,1117.8,342.7,1116.6,256.7z"/>
					</g>
				</g>
			</g>
			<g>
				<path class="st2" d="M1037.2,596.9c-34.5-4.7-68.6-17.6-98.6-37.2c-30-19.7-55.4-45.8-73.5-75.5c-18.1-29.7-29.5-64.3-33.1-100
					c-3.6-35.7,0.7-71.9,12.4-104.6l4.8,1.7c-23.5,65.7-16,140.6,20.3,200.3s99.2,100.9,168.4,110.4L1037.2,596.9z"/>
			</g>
			<g>
				<path class="st2" d="M1048,643.9c-47.2-2.6-94.2-17.5-136.1-43.1c-41.9-25.6-76.6-60.7-100.4-101.5l4.4-2.6
					c47.3,81.2,138.5,137,232.4,142.1L1048,643.9z"/>
			</g>
			<g>
				<path class="st2" d="M984.8,323.3c-9.8,0-19.5-1.3-28.8-3.8c-1-0.3-1.6-1.3-1.3-2.4c0.3-1,1.3-1.6,2.4-1.3
					c27.8,7.7,59.2,3.3,83.8-11.8c0.9-0.6,2.1-0.3,2.6,0.6c0.6,0.9,0.3,2.1-0.6,2.6C1025.5,317.8,1005.1,323.3,984.8,323.3z"/>
			</g>
			<g>
				<path class="st2" d="M1042,138.1c-0.4,0-0.9-0.1-1.2-0.4c-0.8-0.7-0.9-1.9-0.3-2.7c7.5-9.1,16-19.4,27.1-25.8
					c9.8-5.7,24.7-9.3,37.1-2.2c0.9,0.5,1.2,1.7,0.7,2.6c-0.5,0.9-1.7,1.2-2.6,0.7c-10.9-6.3-24.3-3-33.2,2.2
					c-10.5,6.1-18.4,15.7-26,25C1043.1,137.9,1042.6,138.1,1042,138.1z"/>
			</g>
		</g>
	</g>
	<g>
		<g>
			<ellipse class="st1" cx="3576.1" cy="1735.5" rx="236.1" ry="46.7"/>
		</g>
		<g>
			<g>
				<g>
					<g>
						<path class="st2" d="M3518.6,1325.4c0.3-19.2-5.6-38.1-6.1-57.6c-0.4-19.3,5.9-40.7,22.7-50.3c14.5-8.3,32.9-5.4,48.1,1.4
							c34.6,15.6,58.8,51.9,60,89.8c2.4,76.6-48.6,139.5-145.1,148c-13.1,1.1-46,15.3-60.1,10.3c-13.5-4.8-41.3-33.7-34.5-41.4
							c15.9-18.2,49.1-20.6,70.1-30.6c19.8-9.4,34.7-27.6,41.5-48.3C3517.6,1339.6,3518.5,1332.5,3518.6,1325.4z"/>
					</g>
					<g>
						<path class="st3" d="M3039.4,1330.7c0,0-140,5.6-123.3-135.4s91.7-193.4,164.7-213.2c73.1-19.8,331.2,5.8,323.1,179.3
							C3392,1417.6,3039.4,1330.7,3039.4,1330.7z"/>
					</g>
					<g>
						<path class="st3" d="M3185.9,1000.2c0,0,53.6-95,125.3-81.8c71.7,13.1,90.3,206.9,90.3,206.9S3273.8,994.2,3185.9,1000.2z"/>
					</g>
					<g>
						<path class="st2" d="M3247.1,1002.9c-3.3-1.4-4.4-5.6-2.3-8.5c9.5-13.2,34.5-44.1,55.3-37.1c21,7.1,14.9,49.4,11.6,66.2
							c-0.7,3.5-4.5,5.5-7.8,4.1c-4-4.7-12.4-13.5-26-19.2C3264.8,1002.8,3253.3,1002.6,3247.1,1002.9z"/>
					</g>
					<g>
						<path class="st3" d="M2965.9,1065.9c0,0,13.8-141.5,69.4-154.6c55.6-13.1,92.3,77.3,92.3,77.3L2965.9,1065.9z"/>
					</g>
					<g>
						<path class="st2" d="M3011.4,1030.4c-5.4,2.1-10.8-2.7-9.7-8.5c4.5-24.4,12.3-80.8,46.4-79.9c22.1,0.6,26.3,38.2,30.8,54.7
							c1,3.8-0.9,7.9-4.6,9.3c-6.5-0.8-20.1-1.6-35.6,4.7C3024.7,1016.5,3015.7,1025.4,3011.4,1030.4z"/>
					</g>
					<g>
						<g>
							<ellipse class="st2" cx="3199" cy="1150.3" rx="38.1" ry="45"/>
						</g>
						<g>
							
								<ellipse transform="matrix(0.7625 -0.647 0.647 0.7625 25.2082 2331.8394)" class="st3" cx="3188.4" cy="1131.6" rx="12.6" ry="9.1"/>
						</g>
					</g>
					<g>
						<g>
							<ellipse class="st2" cx="2978.8" cy="1174" rx="35.4" ry="44.5"/>
						</g>
						<g>
							
								<ellipse transform="matrix(0.7625 -0.647 0.647 0.7625 -42.3975 2194.1707)" class="st3" cx="2967.1" cy="1154.8" rx="12.5" ry="9"/>
						</g>
					</g>
					<g>
						<path class="st3" d="M3293.7,1289.1c0,0,41.1,55.6,114.8,115.1c69.1,55.7,183.1,90.6,244.7,106.8
							c55.5,14.6,39.2,76.3-1.8,96.2c-56.1,27.1-129.1,29.9-188.1,13.9c0,0-1,14.1-21.2,15.2c0,0,67.5,51.9,50.4,87.1
							c-17.1,35.2-83,29.5-130.9,0c-47.9-29.5-140.7-103.7-136.8-135.4c0,0-137.1-58.2-101.8-220.4
							C3145.2,1265.8,3293.7,1289.1,3293.7,1289.1z"/>
					</g>
					<g>
						<path class="st2" d="M3402.7,1639.3c-19.9,0-43.3-1.2-67.1-5c-42.8-6.9-74.3-20.6-93.5-40.5c-0.7-0.8-0.7-2,0.1-2.7
							c0.8-0.7,2-0.7,2.7,0.1c38.6,40,127.1,48.3,197.1,42.8c1.1-0.1,2,0.7,2.1,1.8c0.1,1.1-0.7,2-1.8,2.1
							C3432.7,1638.6,3418.9,1639.3,3402.7,1639.3z"/>
					</g>
					<g>
						<path class="st2" d="M3464.2,1619.7c0,0-0.1,0-0.1,0c-37-2.2-70-22.4-88.3-54c-0.5-0.9-0.2-2.1,0.7-2.7
							c0.9-0.5,2.1-0.2,2.7,0.7c17.6,30.5,49.4,49.9,85.1,52.1c1.1,0.1,1.9,1,1.8,2.1C3466,1618.9,3465.2,1619.7,3464.2,1619.7z"/>
					</g>
					<g>
						<path class="st3" d="M3188.4,1312c0,0-101.6-40.8-162.2,18.2c-60.6,59,184.5,132.3,251.9,113.4
							C3345.6,1424.6,3188.4,1312,3188.4,1312z"/>
					</g>
					<g>
						<path class="st3" d="M3109.1,1330.7c0,0-126.5-60-165.7-18.7c-42.1,44.4,80.4,153.7,216,134.7L3109.1,1330.7z"/>
					</g>
					<g>
						<g>
							<g>
								<path class="st2" d="M3031.4,1202.1c-2.9,11.3,5,23.1,16,26.1c12.1,3.3,24.7-2.9,31.5-12.8c4.1-6,6.3-13.2,7-20.4
									c-1.3,0-2.6,0-3.9,0c1.4,10.9,9.3,20.1,19.6,23.7c10,3.5,22.1,0.7,29.7-6.7c4.1-4.1,6.6-9.5,6.5-15.4c0-2.5-3.9-2.5-3.9,0
									c0.1,9.2-7.3,16-15.6,18.5c-9.1,2.7-18.8,0.3-25.5-6.4c-3.7-3.7-6.3-8.5-7-13.7c-0.3-2.5-3.6-2.5-3.9,0
									c-1,10.7-6.1,21.7-15.9,27c-8.9,4.9-20.7,4.3-27.4-4c-3.3-4.2-4.9-9.7-3.6-14.9C3035.8,1200.7,3032,1199.7,3031.4,1202.1
									L3031.4,1202.1z"/>
							</g>
						</g>
						<g>
							<path class="st2" d="M3098.5,1194.5c5.1-4.7,7.5-13.2,3.2-18.6c-3.2-4.1-8.8-5.2-13.9-5.5c-4.8-0.2-9.7,0.1-14.1,2.1
								c-4.4,2-8,6-8.7,10.7c-0.6,4.4,1.5,8.8,4.5,12.1C3078.2,1204.8,3089.2,1203,3098.5,1194.5z"/>
						</g>
					</g>
					<g>
						<g>
							<g>
								<path class="st2" d="M3230.5,1201.5c19-10.1,40.6-15,62.2-14.1c6.1,0.3,12.2,1,18.2,2.2c2.4,0.5,3.5-3.3,1-3.7
									c-21.9-4.3-44.8-2.7-65.9,4.7c-6,2.1-11.8,4.7-17.4,7.7C3226.3,1199.3,3228.3,1202.7,3230.5,1201.5L3230.5,1201.5z"/>
							</g>
						</g>
						<g>
							<g>
								<path class="st2" d="M3230.2,1213.7c21.6-6.4,45.5-3.9,65.3,6.9c2.2,1.2,4.2-2.2,2-3.4c-16.1-8.8-34.8-12.5-53-10.4
									c-5.2,0.6-10.2,1.6-15.2,3.1C3226.8,1210.7,3227.8,1214.4,3230.2,1213.7L3230.2,1213.7z"/>
							</g>
						</g>
						<g>
							<g>
								<path class="st2" d="M3224.9,1224c23.9,2.1,47.2,10.3,67.3,23.4c2.1,1.4,4-2,2-3.4c-16.1-10.5-34.2-17.9-53.1-21.6
									c-5.3-1.1-10.8-1.8-16.2-2.3C3222.4,1219.9,3222.5,1223.7,3224.9,1224L3224.9,1224z"/>
							</g>
						</g>
					</g>
					<g>
						<g>
							<g>
								<path class="st2" d="M2946.6,1226.3c-22.2-0.8-44.4,4.6-63.9,15.1c-5.5,3-10.8,6.4-15.8,10.3c-2,1.5,0,4.9,2,3.4
									c17.2-13.1,38-21.6,59.5-24.1c6.1-0.7,12.2-0.9,18.3-0.7C2949.1,1230.3,2949,1226.4,2946.6,1226.3L2946.6,1226.3z"/>
							</g>
						</g>
						<g>
							<g>
								<path class="st2" d="M2955.6,1235.1c-18.1-0.2-36.1,5.8-50.5,16.8c-0.8,0.6-1.3,1.7-0.7,2.7c0.5,0.8,1.8,1.3,2.7,0.7
									c13.9-10.7,31-16.5,48.6-16.3C2958.1,1239,2958.1,1235.1,2955.6,1235.1L2955.6,1235.1z"/>
							</g>
						</g>
						<g>
							<g>
								<path class="st2" d="M2962,1245.4c-18,0.7-35.4,8.8-47.7,22c-3.5,3.7-6.5,7.9-9.1,12.3c-1.2,2.2,2.1,4.1,3.4,2
									c8.4-14.8,22.9-25.7,39.3-30.2c4.6-1.3,9.3-2,14.1-2.2C2964.5,1249.2,2964.5,1245.3,2962,1245.4L2962,1245.4z"/>
							</g>
						</g>
					</g>
					<g>
						<path class="st2" d="M3250.3,1448.5c-29.4,0-70.1-6.7-111.4-18.8c-61.9-18.1-106.8-42.6-119.9-65.4
							c-7.2-12.5-5.2-24.8,5.9-35.5c25.2-24.5,61.6-35.5,105.3-31.8c32.9,2.8,58.7,13.1,58.9,13.2c1,0.4,1.5,1.5,1.1,2.5
							c-0.4,1-1.5,1.5-2.5,1.1c-0.3-0.1-25.6-10.1-57.9-12.9c-29.7-2.5-71.4,0.8-102.2,30.7c-9.9,9.6-11.6,19.7-5.2,30.8
							c12.5,21.6,57.6,46,117.7,63.6c56.7,16.6,111.9,22.9,137.6,15.7c1-0.3,2.1,0.3,2.4,1.3c0.3,1-0.3,2.1-1.3,2.4
							C3271.3,1447.5,3261.7,1448.5,3250.3,1448.5z"/>
					</g>
					<g>
						<path class="st2" d="M3020.3,1322.7c-20.6,0-45.8-4.6-63.2-17.9c-0.9-0.7-1-1.9-0.4-2.7c0.6-0.9,1.9-1,2.7-0.4
							c19.2,14.7,50.8,18.8,73.7,16.4c1.1-0.1,2,0.7,2.1,1.7c0.1,1.1-0.7,2-1.7,2.1C3029.5,1322.5,3025,1322.7,3020.3,1322.7z"/>
					</g>
					<g>
						<path class="st2" d="M3627.5,1599.8c-4.5,0-8.6-0.5-11.9-1.6c-1-0.3-1.6-1.4-1.2-2.4c0.3-1,1.4-1.6,2.4-1.2
							c13.8,4.5,44.1-2.4,55-12.5c0.8-0.7,2-0.7,2.7,0.1c0.7,0.8,0.7,2-0.1,2.7C3665.1,1593.5,3643.6,1599.8,3627.5,1599.8z"/>
					</g>
					<g>
						<path class="st2" d="M3645.2,1564.1c-1,0-1.9-0.8-1.9-1.9c0-1.1,0.8-2,1.8-2c13.6-0.6,27.2-5.4,38.3-13.4
							c0.9-0.6,2.1-0.4,2.7,0.4c0.6,0.9,0.4,2.1-0.4,2.7C3674,1558.4,3659.7,1563.4,3645.2,1564.1
							C3645.2,1564.1,3645.2,1564.1,3645.2,1564.1z"/>
					</g>
					<g>
						<path class="st2" d="M3454,1745.4c-11.4,0-22.6-4.9-30.2-13.3c-0.7-0.8-0.7-2,0.1-2.7c0.8-0.7,2-0.7,2.7,0.1
							c8,8.9,20.4,13.4,32.2,11.7c1.1-0.1,2,0.6,2.2,1.7c0.1,1.1-0.6,2-1.7,2.2C3457.6,1745.3,3455.8,1745.4,3454,1745.4z"/>
					</g>
					<g>
						<path class="st2" d="M3483.8,1731.9c-0.1,0-0.2,0-0.3,0c-14.2-2.5-27.4-10.4-36.3-21.7c-0.7-0.8-0.5-2.1,0.3-2.7
							c0.8-0.7,2.1-0.5,2.7,0.3c8.3,10.6,20.6,18,33.9,20.3c1.1,0.2,1.8,1.2,1.6,2.2C3485.5,1731.2,3484.7,1731.9,3483.8,1731.9z"/>
					</g>
					<g>
						
							<ellipse transform="matrix(0.647 0.7625 -0.7625 0.647 2286.8999 -1902.8357)" class="st2" cx="3198.7" cy="1518.6" rx="73.3" ry="30.9"/>
					</g>
					<g>
						<path class="st2" d="M3064,1338.8c-0.2,0-0.4,0-0.6-0.1c-11.5-3.9-24-5.5-36-4.6c-1.1,0.1-2-0.7-2.1-1.8
							c-0.1-1.1,0.7-2,1.8-2.1c12.6-0.9,25.6,0.8,37.5,4.8c1,0.3,1.6,1.4,1.2,2.5C3065.6,1338.3,3064.8,1338.8,3064,1338.8z"/>
					</g>
					<g>
						<path class="st2" d="M3062.1,1378.2c-12,0-23.8-1.7-35.4-5c-1-0.3-1.6-1.4-1.3-2.4c0.3-1,1.4-1.6,2.4-1.3
							c14,4,28.5,5.5,43,4.5c1.1-0.1,2,0.7,2.1,1.8c0.1,1.1-0.7,2-1.8,2.1C3068.1,1378.1,3065.1,1378.2,3062.1,1378.2z"/>
					</g>
				</g>
			</g>
			<g>
				<g>
					<path class="st2" d="M3169.6,1620.5c-33.2,0-65.4-20.2-84.1-34.6c-6.8-5.2-13.5-10.8-20.1-16.1c-24.6-20.2-50-41.1-80.8-48.1
						c-20-4.6-41.1-2.9-61.5-1.3c-19.9,1.6-40.5,3.2-60.3-0.8c-23.1-4.7-44.3-17-59.9-34.6c-0.6-0.7-1.2-1.4-1.9-2.2
						c-30.5,3.7-62.9-8.6-82.3-32.7c-23.5-29.2-25.9-73.3-5.8-104.9c3.1-4.8,6.6-9.5,10.1-14c8.6-11.2,16.7-21.7,17.9-34.8
						c1.4-15.1-7.9-31.4-23.6-41.6c-14.6-9.4-31.9-13.2-48.6-16.8l0.8-3.8c16.3,3.5,34.8,7.5,49.9,17.3c16.9,11,26.9,28.7,25.4,45.2
						c-1.3,14.2-10.2,25.7-18.7,36.8c-3.4,4.4-6.9,9-9.9,13.7c-19.2,30.2-16.9,72.4,5.6,100.4c18.1,22.5,48,34.2,76.5,31.5
						c-11.9-16.1-20.8-39.1-13.7-61.3c4-12.6,14.5-23.6,27.4-28.8c10.9-4.4,22-4.1,31.2,0.9c16.4,8.9,23.9,31.1,17.1,50.6
						c-5.7,16.4-20.8,30.5-40.4,37.7c-4.7,1.7-9.5,3-14.3,3.8c0.1,0.1,0.2,0.2,0.2,0.3c15,17,35.5,28.9,57.7,33.4
						c19.3,3.9,39.6,2.3,59.2,0.8c20.7-1.6,42.1-3.3,62.6,1.3c31.7,7.2,57.4,28.4,82.4,48.9c6.5,5.4,13.3,10.9,20,16.1
						c23.7,18.2,69.4,46.1,110.1,27.9l1.6,3.5C3189.7,1618.6,3179.6,1620.5,3169.6,1620.5z M2827.3,1389.8c-4.5,0-9.1,0.9-13.7,2.8
						c-11.9,4.8-21.5,14.9-25.2,26.4c-6.9,21.6,2.5,44.3,14.5,59.6c5.4-0.8,10.7-2.1,15.9-4c18.5-6.7,32.7-20,38-35.3
						c6-17.4-0.8-38-15.3-45.9C2837.1,1391,2832.3,1389.8,2827.3,1389.8z"/>
				</g>
				<g>
					<g>
						<path class="st3" d="M2734,1058.7c-31.9-10.4-61.6-2-88.2,20.3c-2.5,2.1-4.9,4.5-7.3,6.8c-3.4,3.3-3.7,6.8-0.8,10.5
							c1.7,2.2,3.8,4.2,5.9,6c11.8,9.9,24.1,19,38.4,25.1c16.9,7.2,34.2,9.5,52.2,4.8c11.3-2.9,20.3-9.3,27.4-18.3
							c8-10,8.5-22.2,1.9-33.4C2757.1,1069.9,2747.2,1063.8,2734,1058.7z"/>
					</g>
					<g>
						<path class="st3" d="M2653.9,1074.9c2.8-7.9,4.1-15.9,2.7-24.2c-1.6-9.3-6.1-16.8-13.9-22.1c-8.2-5.6-17.9-4.5-24.6,2.8
							c-7.4,8.1-9.4,18-7.8,28.5c2.1,14.2,9.8,25.5,20.1,35.1c3.5,3.2,6.8,3,10.5-0.2C2647.2,1089.4,2651.1,1082.5,2653.9,1074.9z"
							/>
					</g>
					<g>
						<path class="st4" d="M2674.1,1192.1c-2.1-41.5-16.4-87.9-54.7-109.9c-26.9-15.4-60.5-10.2-82.4,11.6
							c-10.8,10.8-17.7,26.1-20,40.5c-1.6,9.8-1.3,19.9,0.8,29.6c5.9,27.1,35,45.3,59.2,54.2c17.8,6.6,36.9,8.7,55.7,11
							c11.9,1.5,31,5.3,38.7-7.1C2676.7,1213.4,2674.6,1201.7,2674.1,1192.1z"/>
					</g>
					<g>
						<g>
							<g>
								<path class="st2" d="M2574.9,1081.8c-0.4-0.5-0.3-1.3,0.2-1.7c0.1-0.1,8.5-7.9,13.6-18.9c6.8-14.6,4.9-27.8-5.6-39.3
									c-0.5-0.5-0.4-1.3,0.1-1.8c0.5-0.5,1.3-0.4,1.8,0.1c11.1,12.1,13.2,26.7,6,42.1c-5.3,11.5-13.8,19.4-14.2,19.7
									c-0.5,0.5-1.3,0.4-1.8-0.1C2574.9,1081.8,2574.9,1081.8,2574.9,1081.8z"/>
							</g>
						</g>
					</g>
					<g>
						<g>
							<g>
								<path class="st2" d="M2555.8,1094.1c-0.4-0.5-0.3-1.3,0.2-1.7c1-0.9,24.8-22.5,7.9-43.3c-0.4-0.5-0.4-1.4,0.2-1.8
									c0.6-0.4,1.4-0.4,1.8,0.2c18.4,22.7-8,46.6-8.2,46.8C2557.2,1094.7,2556.4,1094.7,2555.8,1094.1
									C2555.9,1094.1,2555.8,1094.1,2555.8,1094.1z"/>
							</g>
						</g>
					</g>
					<g>
						<g>
							<g>
								<circle class="st4" cx="2580.7" cy="1018.6" r="5.1"/>
							</g>
						</g>
					</g>
					<g>
						<g>
							<g>
								<circle class="st4" cx="2563.5" cy="1046.6" r="5.1"/>
							</g>
						</g>
					</g>
					<g>
						<path class="st2" d="M2520.7,1170.9c-1.2,0-2.3-0.9-2.6-2.2c-0.2-1.4,0.7-2.7,2.1-3c40.9-6.7,82-37.2,102.1-75.7
							c0.7-1.3,2.2-1.8,3.5-1.1c1.3,0.7,1.8,2.2,1.1,3.5c-20.9,39.9-63.4,71.4-105.9,78.4C2521,1170.9,2520.8,1170.9,2520.7,1170.9z
							"/>
					</g>
					<g>
						<path class="st2" d="M2555.7,1205.4c-1.3,0-2.5-1-2.6-2.4c-0.1-1.4,0.9-2.7,2.4-2.8c39.1-3.2,83.6-35.3,99.2-71.5
							c0.6-1.3,2.1-1.9,3.4-1.3c1.3,0.6,1.9,2.1,1.3,3.4c-16.3,37.8-62.8,71.2-103.6,74.6
							C2555.9,1205.4,2555.8,1205.4,2555.7,1205.4z"/>
					</g>
					<g>
						<path class="st2" d="M2622.7,1227.7c-1.2,0-2.2-0.8-2.5-2c-0.3-1.4,0.5-2.8,1.9-3.1c16.5-3.9,40.1-21.3,45.8-37.9
							c0.5-1.4,1.9-2.1,3.3-1.6c1.4,0.5,2.1,1.9,1.6,3.3c-6.4,18.4-31.4,36.9-49.5,41.2C2623.1,1227.7,2622.9,1227.7,2622.7,1227.7z
							"/>
					</g>
					<g>
						<path class="st2" d="M2640.3,1094.9c-0.1,0-0.2,0-0.3,0c-1.1-0.2-1.8-1.2-1.6-2.2c1.3-8.1,6.8-15.2,14.3-18.6
							c1-0.4,2.1,0,2.6,1c0.4,1,0,2.1-1,2.6c-6.2,2.8-10.9,9-12,15.7C2642.1,1094.2,2641.3,1094.9,2640.3,1094.9z"/>
					</g>
				</g>
			</g>
		</g>
	</g>
	<g>
		<g>
			<ellipse class="st1" cx="1954.9" cy="1793" rx="411" ry="79"/>
		</g>
		<g>
			<g>
				<g>
					<path class="st2" d="M2308.8,1611.3c0,0,72.9-21,102.2,63.4c29.3,84.4,40.7,131.7,118.9,110.6
						c76.4-20.7,55.1-236.4-180.9-241.6L2308.8,1611.3z"/>
				</g>
				<g>
					<path class="st3" d="M1845.8,1521.9c0,0,62-64.6,182.1-64.4c120.1,0.3,299.6,36.1,316.9,175c17.3,138.9-48,204.2-306.7,199.6
						c-258.7-4.6-270.5-22.6-270.5-22.6L1845.8,1521.9z"/>
				</g>
				<g>
					<path class="st3" d="M1869.9,1521.9c0,0-46.9-180.9,5.7-185.5s117.4,164.1,117.4,164.1L1869.9,1521.9z"/>
				</g>
				<g>
					<path class="st3" d="M2058.3,1474.2c0,0,29-180.3,85.6-163.5c56.5,16.8,9.2,187.9,9.2,187.9L2058.3,1474.2z"/>
				</g>
				<g>
					<path class="st3" d="M2228.4,1571.5c0,0,90.6-165.7,168.1-129.7c51.6,23.9-84,237.3-84,237.3L2228.4,1571.5z"/>
				</g>
				<g>
					<path class="st2" d="M1923.6,1474.2c-0.7,0-1.4-0.5-1.6-1.2c-0.3-0.9,0.2-1.9,1.1-2.2c18.8-6,36.9-8.2,55.5-6.7
						c0.9,0.1,1.6,0.9,1.6,1.9c-0.1,0.9-0.9,1.6-1.9,1.6c-18.1-1.5-35.8,0.7-54.2,6.5C1923.9,1474.2,1923.8,1474.2,1923.6,1474.2z"
						/>
				</g>
				<g>
					<path class="st2" d="M2312.5,1680.8c-0.3,0-0.6-0.1-0.9-0.3c-0.8-0.5-1-1.6-0.5-2.4c1.1-1.7,109-172.4,94.1-223.3
						c-1.7-5.6-4.7-9.4-9.3-11.6c-17.2-8-36.5-6.3-57.4,5c-17,9.2-35,24.6-53.7,45.9c-31.8,36.4-54.6,77.7-54.8,78.1
						c-0.5,0.8-1.5,1.1-2.3,0.7c-0.8-0.5-1.1-1.5-0.7-2.3c0.2-0.4,23.1-42,55.2-78.7c18.9-21.6,37.3-37.3,54.6-46.7
						c21.9-11.9,42.3-13.6,60.5-5.1c5.5,2.5,9.2,7.2,11.2,13.7c15.4,52.4-90,219-94.5,226.1
						C2313.6,1680.5,2313,1680.8,2312.5,1680.8z"/>
				</g>
				<g>
					<g>
						<path class="st3" d="M1942.9,1702c0,0,32.7,127.4-100.1,139.8c-132.8,12.4-195.6-46.1-228.2-109.3
							c-32.6-63.2-59.8-305.3,101.1-332C1953.4,1361.1,1942.9,1702,1942.9,1702z"/>
					</g>
					<g>
						<path class="st3" d="M1610.6,1632.4c0,0-97.8-30.5-99.8-99c-2-68.5,172.2-123.6,172.2-123.6S1587.8,1552.9,1610.6,1632.4z"/>
					</g>
					<g>
						<path class="st2" d="M1601,1575.7c-0.7,3.3-4.2,5.2-7.3,3.8c-14-6.1-47.3-23-44.9-43.5c2.4-20.7,42.5-23.4,58.5-23.7
							c3.4-0.1,6,3,5.3,6.4c-3.6,4.6-9.9,14-12.6,27.7C1597.5,1559.4,1599.5,1570.1,1601,1575.7z"/>
					</g>
					<g>
						<path class="st3" d="M1747.8,1835.2c0,0-128.4,36.4-159-7.7c-30.5-44.1,36-107.2,36-107.2L1747.8,1835.2z"/>
					</g>
					<g>
						<path class="st2" d="M1701.2,1807.6c3.6,4,1.4,10.4-4.1,11.4c-22.8,4.4-74.9,17-85.7-13.2c-7-19.5,24.4-36.1,37.3-45.7
							c3-2.2,7.2-1.9,9.7,0.8c1.5,6,5.5,18.1,16.3,29.5C1684.5,1800.8,1695.3,1805.5,1701.2,1807.6z"/>
					</g>
					<g>
						<g>
							<g>
								<path class="st2" d="M1742.4,1660.6c3.4,3,2.6,8.6-1.4,10.7c-7.2,3.8-21.5,7.4-34.8-11.8c-18.7-27.1-4-50.2,9.4-49.7
									c13.4,0.6-2.7,20.3,5.8,33.5C1727.3,1652.4,1737.3,1656.1,1742.4,1660.6z"/>
							</g>
						</g>
						<g>
							<g>
								<path class="st2" d="M1704.3,1570.2c2.9,3.5,1.3,8.8-3,10.3c-7.7,2.6-22.3,4.1-32.6-16.9c-14.4-29.6,3.7-50.2,16.8-47.7
									c13.2,2.6-5.7,19.6,0.7,34C1690.6,1559.8,1699.9,1564.9,1704.3,1570.2z"/>
							</g>
						</g>
						<g>
							<g>
								<g>
									<path class="st2" d="M1773,1518.5c7.3-5.1,17.9-2.3,22.6,5.1c5.3,8.2,3.6,18.9-2.1,26.4c-3.3,4.3-7.7,7.6-12.5,9.9
										c-1.8,0.9-0.5,3.6,1.3,3.1c8.3-2,17.3,1.6,22.5,8.3c4.8,6.2,6,15.2,2.9,22.4c-1.7,3.9-4.7,7-8.6,8.5
										c-2.1,0.8-1.2,4.1,0.9,3.3c8.8-3.3,13.2-12.4,12.8-21.4c-0.4-9.8-6.1-18.5-15-22.6c-5.1-2.4-10.8-3.1-16.4-1.8
										c0.4,1,0.9,2.1,1.3,3.1c9.7-4.8,17.9-13.5,19.3-24.6c1.4-10.6-4-21.7-14.7-24.9c-5.4-1.6-11.4-1-16.1,2.2
										C1769.5,1516.8,1771.2,1519.8,1773,1518.5L1773,1518.5z"/>
								</g>
							</g>
							<g>
								<path class="st2" d="M1786,1573.5c-2.3,5.7-8.5,10.3-14.4,8.5c-4.3-1.3-7.1-5.6-8.9-9.8c-1.7-3.9-3-8.1-2.7-12.3
									c0.3-4.2,2.4-8.5,6.1-10.6c3.5-1.9,7.8-1.6,11.4-0.1C1788,1553.5,1790.1,1563.2,1786,1573.5z"/>
							</g>
						</g>
						<g>
							<g>
								<path class="st2" d="M1717.9,1463.3c-0.2,0-0.5-0.1-0.7-0.2c-27.9-13.3-50.4-37.4-61.8-66.1c-0.3-0.9,0.1-1.9,1-2.2
									c0.9-0.4,1.9,0.1,2.2,1c11,27.9,32.9,51.4,60,64.3c0.9,0.4,1.2,1.4,0.8,2.3C1719.1,1463,1718.5,1463.3,1717.9,1463.3z"/>
							</g>
							<g>
								<path class="st2" d="M1732.7,1451.6c-0.4,0-0.7-0.1-1.1-0.4c-23.3-18.1-35.7-49.8-30.9-78.8c0.2-0.9,1-1.6,2-1.4
									c0.9,0.2,1.6,1,1.4,2c-4.6,27.9,7.3,58.2,29.6,75.6c0.7,0.6,0.9,1.7,0.3,2.4C1733.7,1451.3,1733.2,1451.6,1732.7,1451.6z"/>
							</g>
							<g>
								<path class="st2" d="M1750.2,1447.3c-0.6,0-1.2-0.4-1.5-1c-13.1-26.8-10.1-61.1,7.3-85.3c0.6-0.8,1.6-0.9,2.4-0.4
									c0.8,0.6,0.9,1.6,0.4,2.4c-16.7,23.2-19.6,56.1-7,81.8c0.4,0.9,0.1,1.9-0.8,2.3C1750.7,1447.2,1750.5,1447.3,1750.2,1447.3z
									"/>
							</g>
						</g>
						<g>
							<g>
								<path class="st2" d="M1955.4,1843.1c-0.7,0-1.3-0.4-1.6-1c-12.2-27.5-35-50-62.6-61.7c-0.9-0.4-1.3-1.4-0.9-2.3
									c0.4-0.9,1.4-1.3,2.3-0.9c28.4,12.1,51.9,35.3,64.4,63.5c0.4,0.9,0,1.9-0.9,2.3C1955.8,1843,1955.6,1843.1,1955.4,1843.1z"
									/>
							</g>
							<g>
								<path class="st2" d="M1910.9,1868.7c-0.1,0-0.1,0-0.2,0c-0.9-0.1-1.6-1-1.5-1.9c3.4-28-9.7-57.9-32.7-74.3
									c-0.8-0.6-1-1.6-0.4-2.4c0.6-0.8,1.6-1,2.4-0.4c24,17.1,37.7,48.3,34.1,77.5C1912.5,1868.1,1911.8,1868.7,1910.9,1868.7z"/>
							</g>
							<g>
								<path class="st2" d="M1856.4,1881.6c-0.3,0-0.7-0.1-0.9-0.3c-0.8-0.5-1-1.6-0.5-2.4c15.8-23.9,17.2-56.9,3.7-82
									c-0.4-0.8-0.1-1.9,0.7-2.3c0.8-0.5,1.9-0.1,2.3,0.7c14.1,26.3,12.6,60.7-3.8,85.6C1857.5,1881.4,1857,1881.6,1856.4,1881.6z
									"/>
							</g>
						</g>
					</g>
				</g>
				<g>
					<path class="st2" d="M1900.6,1829.4c-0.4,0-0.8-0.1-1.1-0.4c-0.7-0.6-0.8-1.7-0.2-2.4c38.3-46.3,82.8-117.8,77.5-195
						c-5.9-85.1-48-152.2-121.7-194c-0.8-0.5-1.1-1.5-0.6-2.3c0.5-0.8,1.5-1.1,2.3-0.6c37.2,21.1,66.6,48.8,87.6,82.3
						c20.8,33.3,32.9,71.8,35.8,114.4c5.4,78.4-39.6,150.6-78.3,197.4C1901.5,1829.1,1901.1,1829.4,1900.6,1829.4z"/>
				</g>
				<g>
					<path class="st2" d="M2161,1501.9c0,21.5-15.8,35.5-84.7,35.5c-68.9,0-124.8-17.4-124.8-38.9c0-21.5,58.2-33.2,127.1-33.2
						C2147.5,1465.3,2161,1480.4,2161,1501.9z"/>
				</g>
				<g>
					<path class="st3" d="M1990.4,1534c0,0,168.5-160.1,200.9-146.8c32.3,13.3,16.4,165.1-83.8,231.8L1990.4,1534z"/>
				</g>
				<g>
					<path class="st2" d="M2107.5,1620.7c-0.6,0-1.1-0.3-1.4-0.8c-0.5-0.8-0.3-1.9,0.5-2.4c75-49.9,102.6-148.2,97.6-199
						c-1.6-16.1-6.5-26.9-13.5-29.8c-25.7-10.6-150.3,100-196.2,143.6c-0.7,0.7-1.8,0.6-2.4-0.1c-0.7-0.7-0.6-1.8,0.1-2.4
						c0.4-0.4,42-39.8,87-77c60.8-50.4,98.8-73,112.9-67.2c8.3,3.4,13.8,15,15.6,32.6c5.1,51.6-22.9,151.5-99.1,202.1
						C2108.1,1620.6,2107.8,1620.7,2107.5,1620.7z"/>
				</g>
				<g>
					<path class="st2" d="M2341.4,1468.8c-0.3,0-0.6-0.1-0.9-0.2c-0.8-0.5-1.1-1.5-0.6-2.3c7-12.1,16.6-23,27.9-31.3
						c0.8-0.6,1.8-0.4,2.4,0.4c0.6,0.8,0.4,1.8-0.4,2.4c-10.9,8.1-20.2,18.5-27,30.3C2342.6,1468.5,2342,1468.8,2341.4,1468.8z"/>
				</g>
				<g>
					<path class="st2" d="M2378.9,1483.4c-0.2,0-0.3,0-0.5-0.1c-0.9-0.3-1.4-1.2-1.2-2.1c4-13.6,12.2-26.3,22.9-35.6
						c0.7-0.6,1.8-0.5,2.4,0.2c0.6,0.7,0.5,1.8-0.2,2.4c-10.2,8.9-18,21-21.9,34C2380.4,1482.9,2379.7,1483.4,2378.9,1483.4z"/>
				</g>
				<g>
					<path class="st2" d="M2157.4,1423.4c-0.1,0-0.3,0-0.4-0.1c-0.9-0.2-1.5-1.2-1.3-2.1c3.4-13.8,11.4-26.3,22.5-35.1
						c0.7-0.6,1.8-0.5,2.4,0.3c0.6,0.7,0.5,1.8-0.3,2.4c-10.5,8.4-18.1,20.2-21.3,33.3C2158.9,1422.9,2158.2,1423.4,2157.4,1423.4z"
						/>
				</g>
				<g>
					<path class="st2" d="M2184.1,1441.4c-0.1,0-0.2,0-0.3,0c-0.9-0.1-1.6-1-1.4-2c2.2-13.8,8.6-27,18-37.3c0.6-0.7,1.7-0.7,2.4-0.1
						c0.7,0.6,0.7,1.7,0.1,2.4c-9,9.8-15.1,22.4-17.1,35.5C2185.7,1440.8,2185,1441.4,2184.1,1441.4z"/>
				</g>
			</g>
			<g>
				<g>
					<g>
						<g>
							<g>
								<g>
									<g>
										<path class="st3" d="M2087.1,1268.7c-9.8-78.6-110.9-106.6-126.5-105.3c-15.7,1.3-1.8,31.8,45.6,63.7
											c47.4,31.9,69,50.1,69,50.1L2087.1,1268.7z"/>
									</g>
								</g>
							</g>
						</g>
						<g>
							<g>
								<g>
									<g>
										<circle class="st6" cx="2102.2" cy="1308.9" r="63.6"/>
									</g>
								</g>
							</g>
						</g>
					</g>
					<g>
						<g>
							<path class="st2" d="M2067.6,1153.5c-21.4,48.4-1.4,112.4-1.4,112.4c0.7,7.1,4.5,8.6,10.5,6c0,0,16.7-21,22.9-73
								c6.1-52-0.4-83.8-3.8-83.9C2092.5,1114.9,2076.7,1133,2067.6,1153.5z"/>
						</g>
					</g>
				</g>
				<g>
					<path class="st2" d="M2121.7,1359.3c-0.7,0-1.3-0.4-1.6-1c-0.4-0.9,0-1.9,0.9-2.3c11.8-5,21.4-14.7,26.4-26.5
						c5-11.8,5.1-25.4,0.5-37.3c-0.3-0.9,0.1-1.9,1-2.2c0.9-0.3,1.9,0.1,2.2,1c5,12.8,4.8,27.3-0.5,39.9
						c-5.3,12.6-15.6,22.9-28.2,28.3C2122.2,1359.3,2122,1359.3,2121.7,1359.3z"/>
				</g>
				<g>
					<path class="st2" d="M2036.8,1198.6c-0.4,0-0.8-0.1-1.1-0.4c-19.1-16.5-53.3-30.8-78-32.6c-0.9-0.1-1.7-0.9-1.6-1.8
						c0.1-0.9,0.9-1.7,1.8-1.6c25.3,1.8,60.5,16.5,80,33.4c0.7,0.6,0.8,1.7,0.2,2.4C2037.8,1198.4,2037.3,1198.6,2036.8,1198.6z"/>
				</g>
				<g>
					<g>
						<g>
							<path class="st4" d="M2075.9,1271.1c-33.8-51.3-72.6-57.7-91.6-61.7c-19-3.9-66.3,7.4-65.7,14.1c0.6,6.7,118.5,47.3,145,63.1
								C2090.2,1302.5,2075.9,1271.1,2075.9,1271.1z"/>
						</g>
					</g>
				</g>
				<g>
					<path class="st2" d="M2025.8,1263.8c-0.3,0-0.7-0.1-1-0.3c-18-12.8-39.1-21.5-60.9-25.2c-0.9-0.2-1.6-1-1.4-2
						c0.2-0.9,1-1.6,2-1.4c22.3,3.7,43.9,12.7,62.3,25.8c0.8,0.5,1,1.6,0.4,2.4C2026.9,1263.5,2026.4,1263.8,2025.8,1263.8z"/>
				</g>
			</g>
		</g>
	</g>
</g>
</svg>
