<?xml version="1.0" encoding="utf-8"?>
<!-- Generator: Adobe Illustrator 25.4.1, SVG Export Plug-In . SVG Version: 6.00 Build 0)  -->
<svg version="1.1" id="Layer_1" xmlns="http://www.w3.org/2000/svg" xmlns:xlink="http://www.w3.org/1999/xlink" x="0px" y="0px"
	 viewBox="0 0 640 640" style="enable-background:new 0 0 640 640;" xml:space="preserve">
<style type="text/css">
	.st0{fill:#474E51;}
</style>
<path class="st0" d="M320,25.3C157.2,25.3,25.3,157.2,25.3,320S157.2,614.7,320,614.7S614.7,482.8,614.7,320S482.8,25.3,320,25.3z
	 M388,496c-47.8,20.5-103.1,19.3-150.5-6.6c-3.9-2.5-19.1-12-22.6-14.6c-92.9-69.1-65.8-174.5-56.7-202.1c0.9-5.6,1.6-11.2,2.3-16.8
	l-1.5-93.5c6.2-44.7,37.5-27,37.5-27l67.3,42.9c0,0,55.1-21.8,107.6-2.6l73.5-43.7c0,0,31.5-14,29.7,29.7l3.4,99.9
	c0,0,12.2,27,14.7,53.4C492.8,316.6,497,448.2,388,496z"/>
</svg>
