<?xml version="1.0" encoding="utf-8"?>
<!-- Generator: Adobe Illustrator 25.4.1, SVG Export Plug-In . SVG Version: 6.00 Build 0)  -->
<svg version="1.1" id="Layer_1" xmlns="http://www.w3.org/2000/svg" xmlns:xlink="http://www.w3.org/1999/xlink" x="0px" y="0px"
	 viewBox="0 0 640 640" style="enable-background:new 0 0 640 640;" xml:space="preserve">
<style type="text/css">
	.st0{fill:#DCDC00;}
	.st1{fill:#033D4F;}
</style>
<g>
	<circle class="st0" cx="320" cy="320" r="294.3"/>
	<path class="st1" d="M474.4,161.9c1.7-43.7-29.7-29.7-29.7-29.7l-73.4,43.7c-52.4-19.2-107.4,2.6-107.4,2.6l-67.2-42.8
		c0,0-31.2-17.7-37.4,27l1.5,93.4c-0.7,5.6-1.4,11.2-2.3,16.8c-9.1,27.5-36.2,132.8,56.6,201.8c3.5,2.6,18.7,12,22.6,14.5
		c47.4,25.8,102.6,27.1,150.2,6.6C496.6,448,492.4,316.6,492.4,314.9c-2.5-26.4-14.7-53.3-14.7-53.3L474.4,161.9z"/>
</g>
</svg>
